<svg xmlns="http://www.w3.org/2000/svg" width="512" height="512" viewBox="0 0 36 36">
  <path fill="#dd2e44" d="M12.268 8.574a1.3 1.3 0 0 0-.24.356l-.008-.008L1.932 31.648l.01.01c-.187.362.126 1.1.767 1.742s1.379.954 1.741.767l.01.01 22.725-10.09-.007-.008c.132-.063.253-.14.355-.242 1.405-1.405-.873-5.96-5.087-10.175-4.216-4.215-8.772-6.493-10.178-5.088" style="stroke-width:.899451"/>
  <path fill="#ea596e" d="M13.504 12.633 2.186 31.077l-.254.57.01.01c-.187.363.126 1.1.767 1.743.209.209.425.367.638.501L17.102 17.13Z" style="stroke-width:.899451"/>
  <path fill="#a0041e" d="M22.51 13.591c4.2 4.203 6.532 8.682 5.206 10.006-1.324 1.326-5.804-1.006-10.007-5.206-4.201-4.202-6.533-8.683-5.208-10.008s5.805 1.006 10.009 5.208" style="stroke-width:.899451"/>
  <path fill="#aa8dd8" d="M18.532 14.08a.9.9 0 0 1-.66.193c-.78-.084-1.437-.356-1.897-.785-.487-.454-.727-1.064-.661-1.675.115-1.072 1.19-2.056 3.025-1.858.713.076 1.031-.153 1.042-.263.013-.109-.249-.4-.962-.478-.78-.085-1.437-.356-1.898-.785-.487-.455-.728-1.065-.661-1.675.117-1.072 1.192-2.056 3.024-1.858.52.056.794-.05.91-.12.093-.057.13-.11.133-.142.011-.11-.247-.401-.962-.479a.9.9 0 0 1-.797-.99.897.897 0 0 1 .99-.798c1.832.197 2.674 1.387 2.558 2.46-.117 1.074-1.192 2.056-3.026 1.86-.52-.057-.791.05-.908.12-.093.056-.13.11-.134.141-.012.11.248.401.963.479 1.833.197 2.674 1.387 2.558 2.46s-1.19 2.056-3.024 1.857c-.52-.056-.793.052-.91.12-.093.058-.13.112-.133.143-.012.108.248.4.962.478a.9.9 0 0 1 .468 1.595" style="stroke-width:.899451"/>
  <path fill="#77b255" d="M29.39 22.398c1.774-.501 2.998.29 3.29 1.33.291 1.037-.34 2.351-2.114 2.85-.693.195-.9.526-.873.631.031.106.383.28 1.074.086 1.773-.5 2.997.292 3.289 1.33s-.34 2.351-2.115 2.851c-.691.194-.9.526-.87.632s.38.28 1.073.085a.9.9 0 1 1 .485 1.731c-1.773.5-2.998-.29-3.29-1.33-.292-1.038.34-2.35 2.116-2.85.692-.195.9-.526.87-.632s-.38-.28-1.071-.086c-1.776.5-2.999-.29-3.291-1.33-.292-1.038.34-2.35 2.115-2.852.69-.193.898-.526.87-.63-.031-.106-.381-.28-1.073-.086a.9.9 0 1 1-.486-1.73" style="stroke-width:.899451"/>
  <path fill="#aa8dd8" d="M22.5 19.972a.9.9 0 0 1-.563-1.602c.196-.157 4.873-3.83 11.483-2.885a.9.9 0 1 1-.255 1.78c-5.84-.83-10.062 2.477-10.103 2.51a.9.9 0 0 1-.562.197" style="stroke-width:.899451"/>
  <path fill="#77b255" d="M6.987 16.23a.9.9 0 0 1-.862-1.157c1.02-3.394 1.943-8.81.808-10.222-.127-.16-.319-.317-.757-.284-.844.065-.764 1.845-.763 1.863a.9.9 0 1 1-1.794.134c-.092-1.24.293-3.63 2.422-3.79.95-.072 1.738.258 2.295.95 2.133 2.655-.032 10.35-.488 11.866a.9.9 0 0 1-.861.64" style="stroke-width:.899451"/>
  <circle cx="24.747" cy="10.384" r="1.349" fill="#5c913b" style="stroke-width:.899451"/>
  <circle cx="3.61" cy="18.029" r="1.799" fill="#9266cc" style="stroke-width:.899451"/>
  <circle cx="31.044" cy="19.378" r="1.349" fill="#5c913b" style="stroke-width:.899451"/>
  <circle cx="22.948" cy="30.172" r="1.349" fill="#5c913b" style="stroke-width:.899451"/>
  <circle cx="26.996" cy="5.437" r="1.799" fill="#ffcc4d" style="stroke-width:.899451"/>
  <circle cx="31.044" cy="9.485" r="1.349" fill="#ffcc4d" style="stroke-width:.899451"/>
  <circle cx="28.345" cy="13.082" r="1.349" fill="#ffcc4d" style="stroke-width:.899451"/>
  <circle cx="8.557" cy="22.976" r="1.349" fill="#ffcc4d" style="stroke-width:.899451"/>
</svg>
