<svg xmlns="http://www.w3.org/2000/svg" width="512" height="512" viewBox="0 0 32 32">
  <g fill="none">
    <path fill="#f92f60" d="m28.09 25.652 3.049-2.893c.56-.53 0-1.063 0-1.063l-10.64-10.093-5.598 7.243 12.09 6.806c.55.54 1.099 0 1.099 0M9.24.869l-2.89 3.05s-.54.55 0 1.099L7.678 7.37l2.277 2.034 1.078 3.92 2.13 3.778 7.24-5.603L10.303.868s-.531-.561-1.062 0"/>
    <path fill="#f92f60" d="m31.139 22.759-3.05 2.893s-.549.54-1.098 0l-2.351-1.323-2.046-2.834-3.924-.527-3.77-2.122 5.6-7.243 10.639 10.093s.56.532 0 1.063M8.278 23.836l.028-.028-.071-.044-.043-.07-.028.028-5.416-3.248a.564.564 0 0 0-.684.086L.78 21.846a.55.55 0 0 0 0 .793l8.58 8.58a.55.55 0 0 0 .793 0l1.286-1.283a.564.564 0 0 0 .086-.685z"/>
    <path fill="#635994" d="M27.937 9.202a.714.714 0 0 0 1 0l.049-.05a.714.714 0 0 0 0-.999l-5.14-5.139a.714.714 0 0 0-.999 0l-.05.05a.714.714 0 0 0 0 .999z"/>
    <path fill="#fff" d="m24.638 24.326 1.03-1.03a.615.615 0 0 0 0-.87l-3.792-3.793a.615.615 0 0 0-.87 0l-2.335 2.335Z"/>
    <path fill="#321b41" d="m27.15 6.833-2.022 2.023-1.984-1.982 2.022-2.022a1.334 1.334 0 0 1 1.89 0l.081.08c.535.535.535 1.38.013 1.901"/>
    <path fill="#cdc4d6" d="M25.364 12.463 8.277 25.613a1.35 1.35 0 0 1-1.774-.112 1.34 1.34 0 0 1-.11-1.773l13.14-17.092a4.157 4.157 0 1 1 5.829 5.827"/>
    <path fill="#b4acbc" d="m10.325 22.561-5.35 5.35a.594.594 0 0 1-.85 0l-.036-.037a.594.594 0 0 1 0-.85l5.35-5.35a.594.594 0 0 1 .85 0l.036.037a.594.594 0 0 1 0 .85"/>
    <path fill="#0d529c" d="M24.443 10.328 21.66 7.546a.583.583 0 0 1 0-.815l.082-.081a1.87 1.87 0 0 1 2.63 0l.978.978a1.87 1.87 0 0 1 0 2.63l-.083.081a.587.587 0 0 1-.825-.01"/>
    <path fill="#f4f4f4" d="m8.707 6.339-1.03 1.03 3.363 5.965L13.373 11a.615.615 0 0 0 0-.87L9.576 6.337a.615.615 0 0 0-.87 0m16.96 16.957-1.03 1.03-5.967-3.359 2.335-2.334a.615.615 0 0 1 .87 0l3.793 3.792a.615.615 0 0 1 0 .871"/>
  </g>
</svg>
