<?xml version="1.0" encoding="UTF-8" standalone="no"?>
<svg
   version="1.1"
   width="512"
   height="512"
   x="0"
   y="0"
   viewBox="0 0 512 512"
   style="enable-background:new 0 0 512 512"
   xml:space="preserve"
   class=""
   id="svg894"
   sodipodi:docname="animals.svg"
   inkscape:version="1.1.2 (0a00cf5339, 2022-02-04)"
   xmlns:inkscape="http://www.inkscape.org/namespaces/inkscape"
   xmlns:sodipodi="http://sodipodi.sourceforge.net/DTD/sodipodi-0.dtd"
   xmlns="http://www.w3.org/2000/svg"
   xmlns:svg="http://www.w3.org/2000/svg"><defs
     id="defs898" /><sodipodi:namedview
     id="namedview896"
     pagecolor="#505050"
     bordercolor="#eeeeee"
     borderopacity="1"
     inkscape:pageshadow="0"
     inkscape:pageopacity="0"
     inkscape:pagecheckerboard="0"
     showgrid="false"
     inkscape:zoom="0.58281067"
     inkscape:cx="66.9171"
     inkscape:cy="501.87825"
     inkscape:window-width="1850"
     inkscape:window-height="1016"
     inkscape:window-x="70"
     inkscape:window-y="27"
     inkscape:window-maximized="1"
     inkscape:current-layer="svg894" /><g
     id="g892"
     transform="matrix(0.94199474,0,0,0.94199474,14.849347,19.996787)"><path
       d="M 437.677,45.419 H 355.096 C 325.161,57.29 318.525,37.161 256,37.161 c -62.525,0 -69.161,20.129 -99.097,8.258 H 74.323 L 63.312,252.904 c 6.882,81.548 57.462,125.935 97.377,142.107 h 190.623 c 39.914,-16.172 90.495,-60.559 97.377,-142.107 z"
       fill="#f5dcb4"
       data-original="#f5dcb4"
       class=""
       id="path856" /><path
       d="m 355.097,45.419 c 92.981,27.831 42.363,171.355 102.233,233.394 8.595,8.906 23.781,4.95 27.368,-6.895 4.74,-15.651 9.474,-40.411 8.721,-75.789 C 492.387,147.613 512,144.517 512,144.517 c 0,0 -24.774,-115.614 -99.097,-115.614 -24.774,0 -57.806,16.516 -57.806,16.516 z"
       fill="#965a50"
       data-original="#965a50"
       id="path858" /><path
       d="m 169.29,260.129 c -15.897,0 -28.903,-13.006 -28.903,-28.903 V 214.71 c 0,-15.897 13.006,-28.903 28.903,-28.903 15.897,0 28.903,13.006 28.903,28.903 v 16.516 c 10e-4,15.898 -13.006,28.903 -28.903,28.903 z"
       fill="#4b3f4e"
       data-original="#4b3f4e"
       id="path860" /><path
       d="m 169.29,185.806 c -1.413,0 -2.769,0.221 -4.129,0.419 v 40.871 c 0,9.121 7.395,16.516 16.516,16.516 9.122,0 16.516,-7.395 16.516,-16.516 V 214.71 c 10e-4,-15.896 -13.006,-28.904 -28.903,-28.904 z"
       fill="#5d5360"
       data-original="#5d5360"
       id="path862" /><circle
       cx="169.28999"
       cy="206.451"
       r="12.387"
       fill="#ffffff"
       data-original="#ffffff"
       id="circle864" /><path
       d="m 342.71,260.129 c -15.897,0 -28.903,-13.006 -28.903,-28.903 V 214.71 c 0,-15.897 13.006,-28.903 28.903,-28.903 15.897,0 28.903,13.006 28.903,28.903 v 16.516 c 0,15.898 -13.007,28.903 -28.903,28.903 z"
       fill="#4b3f4e"
       data-original="#4b3f4e"
       id="path866" /><path
       d="m 342.71,185.806 c -1.413,0 -2.769,0.221 -4.129,0.419 v 40.871 c 0,9.121 7.395,16.516 16.516,16.516 9.122,0 16.516,-7.395 16.516,-16.516 V 214.71 c 0,-15.896 -13.007,-28.904 -28.903,-28.904 z"
       fill="#5d5360"
       data-original="#5d5360"
       id="path868" /><circle
       cx="342.70999"
       cy="206.451"
       r="12.387"
       fill="#ffffff"
       data-original="#ffffff"
       id="circle870" /><path
       d="m 457.33,278.814 c 8.595,8.906 23.781,4.95 27.368,-6.896 2.718,-8.976 5.399,-21.06 7.08,-36.313 -16.234,-8.092 -30.092,-33.91 -38.617,-77.669 C 437.677,78.452 416,34.065 355.097,45.419 448.078,73.25 397.46,216.775 457.33,278.814 Z"
       fill="#824641"
       data-original="#824641"
       id="path872" /><path
       d="m 160.689,395.011 h 39.141 c 0,0 -68.732,-46.107 -80.087,-127.656 C 97.654,108.712 139.7,61.247 176.067,49.135 170.306,49.33 164.322,48.361 156.904,45.42 H 74.323 L 63.312,252.904 c 6.882,81.548 57.462,125.935 97.377,142.107 z"
       fill="#e7c9a5"
       data-original="#e7c9a5"
       id="path874" /><path
       d="M 156.903,45.419 C 63.922,73.25 114.541,216.775 54.67,278.813 c -8.595,8.906 -23.781,4.95 -27.368,-6.895 -4.74,-15.651 -9.474,-40.411 -8.721,-75.789 C 19.613,147.613 0,144.517 0,144.517 c 0,0 24.774,-115.614 99.097,-115.614 24.774,0 57.806,16.516 57.806,16.516 z"
       fill="#965a50"
       data-original="#965a50"
       id="path876" /><path
       d="M 154.139,44.104 C 145.759,40.216 119.623,28.903 99.097,28.903 24.774,28.903 0,144.517 0,144.517 c 0,0 19.613,3.097 18.581,51.613 -0.014,0.648 0.005,1.231 -0.005,1.872 C 66.097,17.715 139.119,37.773 154.139,44.104 Z"
       fill="#824641"
       data-original="#824641"
       id="path878" /><ellipse
       cx="256"
       cy="400.51999"
       rx="90.839996"
       ry="66.059998"
       fill="#bc8e78"
       data-original="#bc8e78"
       id="ellipse880" /><path
       d="m 214.71,400.516 v 41.29 c 0,22.804 18.486,41.29 41.29,41.29 22.804,0 41.29,-18.486 41.29,-41.29 v -41.29 z"
       fill="#ff8087"
       data-original="#ff8087"
       id="path882" /><path
       d="m 214.71,432.768 c 11.941,-1.496 23.208,-5.129 33.032,-10.622 v 11.402 a 8.259,8.259 0 0 0 16.516,0 v -11.507 c 9.729,5.552 21.026,9.225 33.032,10.73 v -32.256 h -82.58 z"
       fill="#e6646e"
       data-original="#e6646e"
       id="path884" /><path
       d="M 309.677,326.194 H 202.323 c -34.206,0 -61.935,20.335 -61.935,45.419 0,25.084 27.73,45.419 61.935,45.419 17.225,0 32.782,-5.169 43.995,-13.498 2.839,-2.108 6.262,-3.162 9.679,-3.162 3.423,0 6.846,1.053 9.685,3.162 11.213,8.329 26.77,13.498 43.995,13.498 34.206,0 61.935,-20.335 61.935,-45.419 10e-4,-25.084 -27.729,-45.419 -61.935,-45.419 z"
       fill="#d4af91"
       data-original="#d4af91"
       id="path886" /><path
       d="m 256,293.161 c 27.365,0 49.548,14.789 49.548,33.032 0,17.594 -20.824,26.858 -35.853,33.708 a 32.98,32.98 0 0 1 -27.392,0 c -15.029,-6.85 -35.853,-16.114 -35.853,-33.708 0.002,-18.242 22.185,-33.032 49.55,-33.032 z"
       fill="#5d5360"
       data-original="#5d5360"
       id="path888" /><path
       d="m 230.968,317.161 c -1.155,-10.393 6.166,-21.507 6.166,-21.507 -18.003,4.949 -30.682,16.751 -30.682,30.539 0,17.593 20.824,26.857 35.853,33.708 a 32.988,32.988 0 0 0 27.392,0 c 3.232,-1.473 6.732,-3.069 10.235,-4.824 -20.319,-3.593 -46.642,-17.012 -48.964,-37.916 z"
       fill="#4b3f4e"
       data-original="#4b3f4e"
       id="path890" /></g></svg>
