<svg xmlns="http://www.w3.org/2000/svg" xml:space="preserve" width="512" height="512" viewBox="0 0 512 512">
  <path fill="#f21544" d="M206.462 215.773h-65.3c-7.111 0-12.877 5.765-12.877 12.876v87.123c0 7.11 5.766 12.876 12.877 12.876h65.3z" style="stroke-width:.858442"/>
  <path fill="#ff4c70" d="M141.164 355.69a12.87 12.87 0 0 1-7.839-2.66L41.28 282.427a12.875 12.875 0 0 1 0-20.434l92.046-70.603a12.877 12.877 0 0 1 20.714 10.217v141.205a12.88 12.88 0 0 1-12.875 12.877" style="stroke-width:.858442"/>
  <path fill="#ffc335" d="M212.481 128.285c-7.111 0-12.876 5.766-12.876 12.877v192.66h56.438l9.065-96.152-9.065-109.385z" style="stroke-width:.858442"/>
  <path fill="#ffae26" d="M299.604 128.285h-43.561v205.536l56.438-56.7V141.162c0-7.111-5.765-12.877-12.877-12.877" style="stroke-width:.858442"/>
  <path fill="#ffd748" d="M256 36.239a12.88 12.88 0 0 0-10.217 5.04l-70.603 92.046a12.877 12.877 0 0 0 10.217 20.714h70.646l13.514-49.272-13.514-68.525z" style="stroke-width:.858442"/>
  <path fill="#ffc335" d="M336.82 133.325 266.217 41.28a12.87 12.87 0 0 0-10.174-5.037V154.04h70.56a12.875 12.875 0 0 0 10.217-20.714" style="stroke-width:.858442"/>
  <path fill="#4bc6ff" d="M199.605 333.821v129.063c0 7.112 5.765 12.877 12.876 12.877h43.562l13.514-111.694-13.514-130.902c-33.829 20.782-56.438 58.126-56.438 100.656" style="stroke-width:.858442"/>
  <path fill="#0eb9ff" d="M370.837 215.773h-53.184c-22.562 0-43.664 6.367-61.61 17.392V475.76h43.56c7.112 0 12.877-5.765 12.877-12.877v-125.95c0-4.569 3.716-8.285 8.285-8.285h50.072c7.111 0 12.877-5.765 12.877-12.876v-87.123c0-7.112-5.765-12.876-12.877-12.876" style="stroke-width:.858442"/>
  <path fill="#6bd6ff" d="M370.835 355.69a12.877 12.877 0 0 1-12.874-12.878V201.607a12.877 12.877 0 0 1 20.713-10.217l92.047 70.603a12.875 12.875 0 0 1 0 20.434l-92.046 70.603a12.87 12.87 0 0 1-7.84 2.66" style="stroke-width:.858442"/>
</svg>
