<svg xmlns="http://www.w3.org/2000/svg" xml:space="preserve" width="512" height="512" viewBox="0 0 58 58">
  <g fill="none" fill-rule="evenodd" transform="translate(-1)">
    <path fill="#90bae1" d="M57 29.9V45H1V8a1.944 1.944 0 0 1 2-2h22.1c.314.002.61.15.8.4l3.52 4.7c.147.2.366.336.61.38l7.4 1.41c.352.07.64.321.76.66l1.71 4.99c.128.367.454.627.84.67l6.65.72c.376.045.696.295.83.65l2.21 5.87c.102.273.317.488.59.59l5.32 1.92a.99.99 0 0 1 .66.94"/>
    <path fill="#b0d3f0" d="M29.33 10.98C15.06 15.79 1 25.29 1 44V8a1.944 1.944 0 0 1 2-2h22.1c.314.002.61.15.8.4zM59 2v19.775a1 1 0 0 1-1.34.94l-4.637-1.678a1 1 0 0 1-.6-.588l-2.211-5.874a1 1 0 0 0-.828-.642l-6.648-.724a1 1 0 0 1-.837-.669l-1.71-4.991a1 1 0 0 0-.759-.658l-7.4-1.409a1 1 0 0 1-.613-.383L28.8 1.6a1 1 0 0 1 .8-1.6H57a2.006 2.006 0 0 1 2 2"/>
    <path fill="#e64c3c" d="M39.859 38H18.141a2.162 2.162 0 0 1-1.751-3.4l10.859-15.678a2.124 2.124 0 0 1 3.5 0L41.61 34.6a2.162 2.162 0 0 1-1.751 3.4"/>
    <path fill="#fff" d="M29 31a1 1 0 0 1-1-1v-6a1 1 0 0 1 2 0v6a1 1 0 0 1-1 1"/>
    <circle cx="29" cy="34" r="1" fill="#fff"/>
    <path fill="#3f5c6c" d="m39 54-10 2-10-2 3-5 7-2 7 2z"/>
    <path fill="#547580" d="M57 44v2.82A2.1 2.1 0 0 1 55 49H3a2.1 2.1 0 0 1-2-2.18V44zM45 56a2.006 2.006 0 0 1-2 2H15a2.015 2.015 0 0 1-2-2 2.006 2.006 0 0 1 2-2h28a2.015 2.015 0 0 1 2 2"/>
  </g>
</svg>
