<svg xmlns="http://www.w3.org/2000/svg" xmlns:xlink="http://www.w3.org/1999/xlink" xml:space="preserve" width="512" height="512" class="hovered-paths" viewBox="0 0 24 24">
  <defs>
    <linearGradient xlink:href="#a" id="c" x1="7.69" x2="17.113" y1="5.433" y2="5.433" gradientTransform="matrix(1.10655 0 0 .75904 1.002 1.002)" gradientUnits="userSpaceOnUse"/>
    <linearGradient xlink:href="#a" id="d" x1="2.173" x2="11.162" y1="9.631" y2="9.631" gradientTransform="matrix(1.17687 0 0 .71368 1.002 1.002)" gradientUnits="userSpaceOnUse"/>
    <linearGradient xlink:href="#b" id="e" x1="6.364" x2="10.607" y1="1.414" y2="1.414" gradientTransform="matrix(1.29608 0 0 .64804 1.002 1.002)" gradientUnits="userSpaceOnUse"/>
    <linearGradient xlink:href="#b" id="f" x1="10.96" x2="15.203" y1="5.657" y2="5.657" gradientTransform="matrix(1.29608 0 0 .64804 1.002 1.002)" gradientUnits="userSpaceOnUse"/>
    <linearGradient xlink:href="#b" id="g" x1="6.364" x2="10.607" y1="9.899" y2="9.899" gradientTransform="matrix(1.29608 0 0 .64804 1.002 1.002)" gradientUnits="userSpaceOnUse"/>
    <linearGradient xlink:href="#a" id="h" x1="6.671" x2="11.965" y1="14.626" y2="14.626" gradientTransform="matrix(1.27659 0 0 .65793 1.002 1.002)" gradientUnits="userSpaceOnUse"/>
    <linearGradient xlink:href="#b" id="i" x1="1.768" x2="6.01" y1="5.657" y2="5.657" gradientTransform="matrix(1.29608 0 0 .64804 1.002 1.002)" gradientUnits="userSpaceOnUse"/>
    <linearGradient xlink:href="#a" id="j" x1="7.071" x2="9.899" y1="10.607" y2="10.607" gradientTransform="matrix(1.29608 0 0 .64804 1.002 1.002)" gradientUnits="userSpaceOnUse"/>
    <linearGradient xlink:href="#a" id="k" x1="11.667" x2="14.496" y1="6.364" y2="6.364" gradientTransform="matrix(1.29608 0 0 .64804 1.002 1.002)" gradientUnits="userSpaceOnUse"/>
    <linearGradient xlink:href="#a" id="l" x1="7.071" x2="9.899" y1="2.121" y2="2.121" gradientTransform="matrix(1.29608 0 0 .64804 1.002 1.002)" gradientUnits="userSpaceOnUse"/>
    <linearGradient xlink:href="#a" id="m" x1="11.212" x2="16.332" y1="10.561" y2="10.561" gradientTransform="matrix(1.29055 0 0 .65082 1.002 1.002)" gradientUnits="userSpaceOnUse"/>
    <linearGradient xlink:href="#a" id="n" x1="2.475" x2="5.303" y1="6.364" y2="6.364" gradientTransform="matrix(1.29608 0 0 .64804 1.002 1.002)" gradientUnits="userSpaceOnUse"/>
    <linearGradient xlink:href="#b" id="o" x1="0" x2="22.978" y1="1.044" y2="1.044" gradientTransform="matrix(.95723 0 0 .87746 1.002 1.002)" gradientUnits="userSpaceOnUse"/>
    <linearGradient id="a">
      <stop offset="0" stop-color="#010101" stop-opacity=".1"/>
      <stop offset="1" stop-color="#010101" stop-opacity="0"/>
    </linearGradient>
    <linearGradient id="b">
      <stop offset="0" stop-color="#fff" stop-opacity=".2"/>
      <stop offset="1" stop-color="#fff" stop-opacity="0"/>
    </linearGradient>
  </defs>
  <path fill="#2d98d4" d="M14.404 4.03H9.596L1.002 8.792 12 14.749l10.997-5.957z" style="stroke-width:.91647"/>
  <path fill="url(#a)" d="m19.938 10.322-5.194-5.196c-.28 1.325-1.949 1.373-3.04 1.364-.691.087-1.923-.44-2.108-.642l6.429 6.43z" style="fill:url(#c);stroke-width:.91647"/>
  <path fill="url(#a)" d="M8.792 7.876c-.28 1.324-1.949 1.372-3.04 1.363-.685.1-1.966-.47-2.094-.628 1.067 1.02 2.048 2.151 3.175 3.097L12 14.29l2.138-1.07z" style="fill:url(#d);stroke-width:.91647"/>
  <path fill="#0377be" d="M9.25 3.293c.117.87-.329 1.992.463 2.624 1.125.758 2.627.67 3.892.36.828-.156 1.268-.964 1.144-1.748V3.293z" style="stroke-width:.91647"/>
  <path fill="#2d98d4" d="M12 1.918c-1.033 0-2.902.246-2.687 1.65.636 1.197 2.275 1.122 3.446 1.056 1.274.166 2.885-1.534 1.25-2.306-.615-.333-1.324-.39-2.01-.4" style="stroke-width:.91647"/>
  <path fill="url(#b)" d="M12 1.918c-1.033 0-2.902.246-2.687 1.65.636 1.197 2.275 1.122 3.446 1.056 1.274.166 2.885-1.534 1.25-2.306-.615-.333-1.324-.39-2.01-.4" class="hovered-path" style="fill:url(#e);stroke-width:.91647"/>
  <path fill="#0377be" d="M15.207 6.043c.117.869-.329 1.991.463 2.623 1.125.758 2.627.67 3.892.36.828-.156 1.268-.963 1.144-1.747V6.043z" style="stroke-width:.91647"/>
  <path fill="#2d98d4" d="M17.957 4.668c-1.033 0-2.902.246-2.686 1.65.635 1.197 2.274 1.121 3.445 1.055 1.274.166 2.885-1.534 1.25-2.305-.614-.333-1.324-.39-2.01-.4" style="stroke-width:.91647"/>
  <path fill="url(#b)" d="M17.957 4.668c-1.033 0-2.902.246-2.686 1.65.635 1.197 2.274 1.121 3.445 1.055 1.274.166 2.885-1.534 1.25-2.305-.614-.333-1.324-.39-2.01-.4" class="hovered-path" style="fill:url(#f);stroke-width:.91647"/>
  <path fill="#0377be" d="M9.25 8.792c.117.87-.329 1.992.463 2.623 1.125.759 2.627.67 3.892.361.828-.156 1.268-.964 1.144-1.748V8.792z" style="stroke-width:.91647"/>
  <path fill="#2d98d4" d="M12 7.417c-1.033 0-2.902.246-2.687 1.65.636 1.197 2.275 1.122 3.446 1.056 1.274.166 2.885-1.534 1.25-2.306-.615-.333-1.324-.39-2.01-.4" style="stroke-width:.91647"/>
  <path fill="url(#b)" d="M12 7.417c-1.033 0-2.902.246-2.687 1.65.636 1.197 2.275 1.122 3.446 1.056 1.274.166 2.885-1.534 1.25-2.306-.615-.333-1.324-.39-2.01-.4" class="hovered-path" style="fill:url(#g);stroke-width:.91647"/>
  <path fill="#0377be" d="M3.293 6.043c.117.869-.329 1.991.463 2.623 1.125.758 2.627.67 3.892.36.828-.156 1.268-.963 1.144-1.747V6.043z" style="stroke-width:.91647"/>
  <path fill="#0377be" d="M12 14.29 1.002 8.793v7.79L12 22.081l10.997-5.499v-7.79z" style="stroke-width:.91647"/>
  <path fill="url(#a)" d="m16.277 12.152-1.527-1.527c-.28 1.325-1.948 1.373-3.04 1.364-.691.087-1.922-.44-2.108-.642l2.761 2.761z" style="fill:url(#h);stroke-width:.91647"/>
  <path fill="#2d98d4" d="M6.043 4.668c-1.033 0-2.902.246-2.687 1.65.636 1.197 2.275 1.121 3.446 1.055 1.274.166 2.884-1.534 1.25-2.305-.615-.333-1.324-.39-2.01-.4" style="stroke-width:.91647"/>
  <path fill="url(#b)" d="M6.043 4.668c-1.033 0-2.902.246-2.687 1.65.636 1.197 2.275 1.121 3.446 1.055 1.274.166 2.884-1.534 1.25-2.305-.615-.333-1.324-.39-2.01-.4" class="hovered-path" style="fill:url(#i);stroke-width:.91647"/>
  <path fill="url(#a)" d="M12 9.708c1.129.45 2.682-1.304 1.004-1.683-.897-.34-3.11-.236-2.718 1.13.42.462 1.123.543 1.714.553" style="fill:url(#j);stroke-width:.91647"/>
  <path fill="url(#a)" d="M17.957 6.96c1.129.45 2.682-1.305 1.004-1.685-.897-.34-3.11-.235-2.718 1.13.42.462 1.123.544 1.714.554" style="fill:url(#k);stroke-width:.91647"/>
  <path fill="url(#a)" d="M12 4.21c1.129.45 2.682-1.305 1.004-1.684-.897-.34-3.11-.235-2.718 1.13.42.462 1.123.543 1.714.554" style="fill:url(#l);stroke-width:.91647"/>
  <path fill="url(#a)" d="m22.079 9.251-1.376-1.375c-.28 1.324-1.948 1.372-3.039 1.363-.692.088-1.923-.44-2.108-.641l2.61 2.61z" style="fill:url(#m);stroke-width:.91647"/>
  <path fill="url(#a)" d="M6.043 6.96c1.129.45 2.682-1.305 1.004-1.685-.897-.34-3.11-.235-2.719 1.13.421.462 1.123.544 1.715.554" style="fill:url(#n);stroke-width:.91647"/>
  <path fill="url(#b)" d="M22.997 8.792v7.79L12 22.081 1.002 16.582v-7.79l2.291-1.27c.07-.817-.294-1.944.65-2.39 1.141-.65 2.527-.506 3.755-.227.97-.079 1.812-.719 1.592-1.758.21-.975 1.37-1.065 2.176-1.205 1.061-.103 2.26.043 3.078.778.421.644-.14 1.65.832 1.849.41.216.798.585 1.27.264 1.258-.303 2.741-.261 3.79.574.672.633-.187 1.828.6 2.315.666.327 1.305.72 1.961 1.07" class="hovered-path" style="fill:url(#o);stroke-width:.91647"/>
</svg>
