<svg xmlns="http://www.w3.org/2000/svg" width="512" height="512" viewBox="0 0 24 24">
  <path fill="currentColor" d="M8.13 21.99v-1.249H5.631q-.53 0-.89-.36-.358-.359-.359-.888-.001-.53.36-.89.36-.36.889-.36H6.88V5.757H5.63q-.53 0-.888-.36-.359-.36-.36-.889t.36-.889.889-.36h2.497V2.01q0-.53.36-.89.36-.358.89-.359.529-.001.89.36.36.36.358.889v1.249h2.497v-1.25q0-.53.36-.888.36-.359.89-.36.529-.001.89.36.36.36.358.889v1.405q1.623.437 2.685 1.764 1.061 1.328 1.061 3.075 0 .905-.312 1.733t-.874 1.482q1.093.656 1.764 1.78.672 1.124.67 2.497 0 2.06-1.466 3.528-1.468 1.467-3.528 1.467v1.25q0 .53-.358.89-.359.36-.89.358-.533-.001-.89-.36-.357-.358-.36-.889v-1.249h-2.497v1.25q0 .53-.36.89t-.889.358-.889-.36-.36-.889m1.25-11.239h4.994q1.03 0 1.765-.733t.733-1.764-.733-1.764-1.765-.734H9.378Zm0 7.493h6.243q1.03 0 1.764-.733.735-.733.733-1.765 0-1.031-.733-1.763-.731-.732-1.764-.734H9.378Z" style="stroke-width:1.24876"/>
</svg>
