<svg xmlns="http://www.w3.org/2000/svg" xml:space="preserve" width="512" height="512" viewBox="0 0 58 58">
  <g fill="none">
    <path fill="#f29c1f" d="M23 16.98V7c0-1.66-2.91-3-6.5-3S10 5.34 10 7v11.01c-3.36.12-6 1.41-6 2.99v26.23c-2.35.45-4 1.52-4 2.77v5c0 1.66 2.91 3 6.5 3s6.5-1.34 6.5-3v-2c0 1.66 2.91 3 6.5 3s6.5-1.34 6.5-3l.5-13z"/>
    <path fill="#f3d55b" d="M54.527 13.355c-.072-.108-1.461-2.092-5.5-3A4.59 4.59 0 0 0 50.7 6.91c0-2.358-2.006-4.417-4.769-4.895a1 1 0 0 0-.342 1.97C47.387 4.3 48.7 5.527 48.7 6.91c0 1.638-1.775 2.984-4 3a4.8 4.8 0 0 1-2.491-.665 1 1 0 0 0-1.039 1.709 6.8 6.8 0 0 0 3.5.951c.01 0 .017.005.026.005 6.213 0 8.124 2.5 8.176 2.567a1 1 0 0 0 1.656-1.122z"/>
    <path fill="#a56a43" d="M45.19 52H26V40c0-1.66-2.91-3-6.5-3a13 13 0 0 0-2.5.23V26.34a33 33 0 0 1 6-9.36v-.01a26.4 26.4 0 0 1 7.34-5.74v-.01c.855.52 1.839.79 2.84.78h5.6a5.4 5.4 0 0 0 2.85-.79c2.18 1.08 12.01 6.72 15.56 21.79 4 17-8 19-12 19"/>
    <path fill="#fdd7ad" d="M45.19 49a1 1 0 0 1 0-2c.723 0 4.425-.125 6.376-2.589a7.66 7.66 0 0 0 1.407-4.46c.033-.549.498-.97 1.047-.951a1 1 0 0 1 .951 1.047 9.6 9.6 0 0 1-1.836 5.606C50.611 48.839 46.074 49 45.19 49"/>
    <path fill="#805333" d="M46 1.17c.01 2.2-.43 7-3.95 9.75a3 3 0 0 1-.42.29 5.4 5.4 0 0 1-2.85.79h-5.6a5.35 5.35 0 0 1-2.84-.78 4 4 0 0 1-.43-.3c-3.52-2.75-3.95-7.55-3.95-9.75a1 1 0 0 1 1.38-.92C28.62.79 29.05 2 30.99 2c2.49 0 2.49-2 4.98-2s2.5 2 5 2C42.91 2 43.34.78 44.62.25a1 1 0 0 1 1.38.92"/>
    <path fill="#603e26" d="M36.45 11.982a17.6 17.6 0 0 0 2.59-5.39 1.002 1.002 0 0 1 1.93.54 21.2 21.2 0 0 1-2.35 5.2l3.34 3.12a1.001 1.001 0 0 1-1.37 1.46L37 13.562v3.3a1 1 0 0 1-2 0v-3.3l-3.58 3.35a1 1 0 0 1-1.37-1.46l3.35-3.12a21.2 21.2 0 0 1-2.36-5.2 1 1 0 0 1 .7-1.23.99.99 0 0 1 1.23.69 17.5 17.5 0 0 0 2.62 5.38z"/>
    <path fill="#f0c419" d="M17 21c0 1.66-2.91 3-6.5 3S4 22.66 4 21c0-1.58 2.64-2.87 6-2.99.17-.01.33-.01.5-.01 3.59 0 6.5 1.34 6.5 3"/>
    <path fill="#e57e25" d="M23 7v9.98a33 33 0 0 0-6 9.36V21c0-1.66-2.91-3-6.5-3-.17 0-.33 0-.5.01V7c0 1.66 2.91 3 6.5 3S23 8.66 23 7"/>
    <path fill="#f9eab0" d="M13 50c0 1.66-2.91 3-6.5 3S0 51.66 0 50c0-1.25 1.65-2.32 4-2.77A13 13 0 0 1 6.5 47c3.59 0 6.5 1.34 6.5 3"/>
    <path fill="#f3d55b" d="M13 50v5c0 1.66-2.91 3-6.5 3S0 56.66 0 55v-5c0 1.66 2.91 3 6.5 3s6.5-1.34 6.5-3m13-10c0 1.66-2.91 3-6.5 3S13 41.66 13 40c0-1.25 1.65-2.32 4-2.77a13 13 0 0 1 2.5-.23c3.59 0 6.5 1.34 6.5 3"/>
    <path fill="#f0c419" d="M26 40v13c0 1.66-2.91 3-6.5 3S13 54.66 13 53V40c0 1.66 2.91 3 6.5 3s6.5-1.34 6.5-3"/>
    <path fill="#fdd7ad" d="M39 27a1 1 0 0 0 2 0 4 4 0 0 0-4-4v-1a1 1 0 0 0-2 0v1a4 4 0 1 0 0 8v4a2 2 0 0 1-2-2 1 1 0 0 0-2 0 4 4 0 0 0 4 4v1a1 1 0 0 0 2 0v-1a4 4 0 1 0 0-8v-4a2 2 0 0 1 2 2m0 6a2 2 0 0 1-2 2v-4a2 2 0 0 1 2 2m-4-4a2 2 0 1 1 0-4z"/>
  </g>
</svg>
