<svg xmlns="http://www.w3.org/2000/svg" width="512" height="512" viewBox="0 0 32 32">
  <g fill="none" transform="translate(-2.855 -2.155)scale(1.14052)">
    <g filter="url(#a)">
      <path stroke="#959498" stroke-linecap="round" d="m10.727 4.725 10.535 22.55"/>
    </g>
    <g filter="url(#b)">
      <path stroke="#b3b2b7" stroke-linecap="round" stroke-width=".2" d="m10.922 4.584 10.535 22.55"/>
    </g>
    <g filter="url(#c)">
      <path fill="url(#d)" d="M2.876 14.327c-.444-1.136.988-1.54 1.765-1.885l2.52-1.128 3.972 8.88c-.09.877-1.286.876-1.928 1.3-.747.272-1.435.794-2.24.835-.959-.297-1.076-1.465-1.513-2.244z" style="fill:url(#d)"/>
      <path fill="url(#e)" d="M2.876 14.327c-.444-1.136.988-1.54 1.765-1.885l2.52-1.128 3.972 8.88c-.09.877-1.286.876-1.928 1.3-.747.272-1.435.794-2.24.835-.959-.297-1.076-1.465-1.513-2.244z" style="fill:url(#e)"/>
    </g>
    <g filter="url(#f)">
      <path fill="#efe6f8" d="M8.69 17.651c.763-.615 1.411-.403 1.57.597.31.773 1.667 2.795-.043 2.517-.479-.417-.568-1.127-.885-1.678z"/>
    </g>
    <path fill="#e5dcf0" d="m8.506 17.99-2.629-5.63c.991-1.192-.631-2.262-.396-3.504.317-.716 1.219-.808 1.839-1.18l4.113-1.899c.908.155.945 1.353 1.4 2.034l3.148 6.665c-.071.879-1.269.9-1.902 1.337-1.707.782-3.395 1.637-5.113 2.373-.215.07-.322-.055-.46-.196"/>
    <path fill="url(#g)" d="m8.506 17.99-2.629-5.63c.991-1.192-.631-2.262-.396-3.504.317-.716 1.219-.808 1.839-1.18l4.113-1.899c.908.155.945 1.353 1.4 2.034l3.148 6.665c-.071.879-1.269.9-1.902 1.337-1.707.782-3.395 1.637-5.113 2.373-.215.07-.322-.055-.46-.196" style="fill:url(#g)"/>
    <path fill="url(#h)" d="m8.506 17.99-2.629-5.63c.991-1.192-.631-2.262-.396-3.504.317-.716 1.219-.808 1.839-1.18l4.113-1.899c.908.155.945 1.353 1.4 2.034l3.148 6.665c-.071.879-1.269.9-1.902 1.337-1.707.782-3.395 1.637-5.113 2.373-.215.07-.322-.055-.46-.196" style="fill:url(#h)"/>
    <path fill="url(#i)" d="m8.506 17.99-2.629-5.63c.991-1.192-.631-2.262-.396-3.504.317-.716 1.219-.808 1.839-1.18l4.113-1.899c.908.155.945 1.353 1.4 2.034l3.148 6.665c-.071.879-1.269.9-1.902 1.337-1.707.782-3.395 1.637-5.113 2.373-.215.07-.322-.055-.46-.196" style="fill:url(#i)"/>
    <path fill="url(#j)" d="m8.506 17.99-2.629-5.63c.991-1.192-.631-2.262-.396-3.504.317-.716 1.219-.808 1.839-1.18l4.113-1.899c.908.155.945 1.353 1.4 2.034l3.148 6.665c-.071.879-1.269.9-1.902 1.337-1.707.782-3.395 1.637-5.113 2.373-.215.07-.322-.055-.46-.196" style="fill:url(#j)"/>
    <g filter="url(#k)">
      <path stroke="#959498" stroke-linecap="round" d="m22.19 4.725-10.535 22.55"/>
    </g>
    <g filter="url(#l)">
      <path stroke="#b3b2b7" stroke-linecap="round" stroke-width=".2" d="m22.36 4.584-10.535 22.55"/>
    </g>
    <circle cx="9.559" cy="13.447" r="2.266" fill="#dd3240"/>
    <circle cx="9.559" cy="13.447" r="2.266" fill="url(#m)" style="fill:url(#m)"/>
    <g filter="url(#n)">
      <path fill="#ede2f8" d="M30.041 14.327c.434-1.115-.918-1.525-1.699-1.856l-2.586-1.157-3.972 8.88c.49 1.147 2.219 1.201 3.227 1.885 1.157.776 1.982-.509 2.22-1.506.96-2.07 1.87-4.166 2.81-6.246"/>
    </g>
    <g filter="url(#o)">
      <path fill="#c7bcd2" d="M24.226 17.651c-.653-.508-1.33-.513-1.473.377l-.969 2.166c.321 1.4 1.497.134 1.622-.71z"/>
      <path fill="url(#p)" d="M24.226 17.651c-.653-.508-1.33-.513-1.473.377l-.969 2.166c.321 1.4 1.497.134 1.622-.71z" style="fill:url(#p)"/>
      <path fill="url(#q)" d="M24.226 17.651c-.653-.508-1.33-.513-1.473.377l-.969 2.166c.321 1.4 1.497.134 1.622-.71z" style="fill:url(#q)"/>
    </g>
    <g filter="url(#r)">
      <path fill="#e5dbf0" d="M24.402 17.99c.883-1.924 1.818-3.823 2.667-5.762-1.254-1.22 1.483-2.917-.143-3.914-1.8-.884-3.638-1.683-5.451-2.537-.893.123-.922 1.31-1.368 1.968l-3.18 6.731c.15.91 1.353.944 2.035 1.399 1.662.761 3.306 1.596 4.98 2.311.215.07.322-.055.46-.196"/>
      <path fill="url(#s)" d="M24.402 17.99c.883-1.924 1.818-3.823 2.667-5.762-1.254-1.22 1.483-2.917-.143-3.914-1.8-.884-3.638-1.683-5.451-2.537-.893.123-.922 1.31-1.368 1.968l-3.18 6.731c.15.91 1.353.944 2.035 1.399 1.662.761 3.306 1.596 4.98 2.311.215.07.322-.055.46-.196" style="fill:url(#s)"/>
      <path fill="url(#t)" d="M24.402 17.99c.883-1.924 1.818-3.823 2.667-5.762-1.254-1.22 1.483-2.917-.143-3.914-1.8-.884-3.638-1.683-5.451-2.537-.893.123-.922 1.31-1.368 1.968l-3.18 6.731c.15.91 1.353.944 2.035 1.399 1.662.761 3.306 1.596 4.98 2.311.215.07.322-.055.46-.196" style="fill:url(#t)"/>
      <path fill="url(#u)" d="M24.402 17.99c.883-1.924 1.818-3.823 2.667-5.762-1.254-1.22 1.483-2.917-.143-3.914-1.8-.884-3.638-1.683-5.451-2.537-.893.123-.922 1.31-1.368 1.968l-3.18 6.731c.15.91 1.353.944 2.035 1.399 1.662.761 3.306 1.596 4.98 2.311.215.07.322-.055.46-.196" style="fill:url(#u)"/>
    </g>
    <circle r="2.266" fill="#dd3240" transform="matrix(-1 0 0 1 23.358 13.447)"/>
    <circle r="2.266" fill="url(#v)" style="fill:url(#v)" transform="matrix(-1 0 0 1 23.358 13.447)"/>
    <defs>
      <linearGradient id="d" x1="6.684" x2="8.778" y1="21.838" y2="15.619" gradientUnits="userSpaceOnUse">
        <stop offset=".066" stop-color="#D5C9E2"/>
        <stop offset="1" stop-color="#BEB1CB"/>
      </linearGradient>
      <linearGradient id="e" x1="9.465" x2="6.403" y1="18.744" y2="19.994" gradientUnits="userSpaceOnUse">
        <stop offset=".374" stop-color="#B2A3C1"/>
        <stop offset="1" stop-color="#B2A3C1" stop-opacity="0"/>
      </linearGradient>
      <linearGradient id="g" x1="7.621" x2="8.871" y1="15.744" y2="15.15" gradientUnits="userSpaceOnUse">
        <stop offset=".559" stop-color="#BAAEC7"/>
        <stop offset="1" stop-color="#BAAEC7" stop-opacity="0"/>
      </linearGradient>
      <linearGradient id="h" x1="7.84" x2="7.981" y1="7.361" y2="7.658" gradientUnits="userSpaceOnUse">
        <stop stop-color="#C6C2CA"/>
        <stop offset=".994" stop-color="#C6C2CA" stop-opacity="0"/>
      </linearGradient>
      <linearGradient id="i" x1="12.645" x2="12.52" y1="16.611" y2="16.346" gradientUnits="userSpaceOnUse">
        <stop stop-color="#BFB0CF"/>
        <stop offset="1" stop-color="#BFB0CF" stop-opacity="0"/>
      </linearGradient>
      <linearGradient id="j" x1="15.278" x2="14.528" y1="12.494" y2="12.854" gradientUnits="userSpaceOnUse">
        <stop offset=".391" stop-color="#fff"/>
        <stop offset="1" stop-color="#EBE2F6" stop-opacity="0"/>
      </linearGradient>
      <linearGradient id="m" x1="7.496" x2="8.324" y1="14.51" y2="14.072" gradientUnits="userSpaceOnUse">
        <stop offset=".198" stop-color="#B8232B"/>
        <stop offset="1" stop-color="#B8232B" stop-opacity="0"/>
      </linearGradient>
      <linearGradient id="p" x1="23.309" x2="23.153" y1="17.963" y2="19.588" gradientUnits="userSpaceOnUse">
        <stop stop-color="#B5A9BF"/>
        <stop offset="1" stop-color="#B5A9BF" stop-opacity="0"/>
      </linearGradient>
      <linearGradient id="q" x1="23.5" x2="23.2" y1="19.404" y2="19.268" gradientUnits="userSpaceOnUse">
        <stop stop-color="#E5D9F2"/>
        <stop offset="1" stop-color="#C7BCD2"/>
      </linearGradient>
      <linearGradient id="s" x1="25.551" x2="24.02" y1="15.744" y2="15.025" gradientUnits="userSpaceOnUse">
        <stop offset=".271" stop-color="#F0E6FA"/>
        <stop offset="1" stop-color="#F0E6FA" stop-opacity="0"/>
      </linearGradient>
      <linearGradient id="t" x1="18.77" x2="19.551" y1="10.4" y2="10.744" gradientUnits="userSpaceOnUse">
        <stop offset=".099" stop-color="#BAB5BE"/>
        <stop offset="1" stop-color="#DBD1E6" stop-opacity="0"/>
      </linearGradient>
      <linearGradient id="u" x1="20.395" x2="20.691" y1="16.713" y2="16.104" gradientUnits="userSpaceOnUse">
        <stop stop-color="#AD9DBE"/>
        <stop offset="1" stop-color="#AD9DBE" stop-opacity="0"/>
      </linearGradient>
      <linearGradient id="v" x1=".158" x2="1.221" y1="3.719" y2="3.188" gradientUnits="userSpaceOnUse">
        <stop offset=".482" stop-color="#E8333E"/>
        <stop offset="1" stop-color="#E8333E" stop-opacity="0"/>
      </linearGradient>
      <filter id="a" width="11.785" height="23.801" x="10.227" y="3.974" color-interpolation-filters="sRGB" filterUnits="userSpaceOnUse">
        <feFlood flood-opacity="0" result="BackgroundImageFix"/>
        <feBlend in="SourceGraphic" in2="BackgroundImageFix" result="shape"/>
        <feColorMatrix in="SourceAlpha" result="hardAlpha" values="0 0 0 0 0 0 0 0 0 0 0 0 0 0 0 0 0 0 127 0"/>
        <feOffset dx=".25" dy="-.25"/>
        <feGaussianBlur stdDeviation=".25"/>
        <feComposite in2="hardAlpha" k2="-1" k3="1" operator="arithmetic"/>
        <feColorMatrix values="0 0 0 0 0.447059 0 0 0 0 0.439216 0 0 0 0 0.466667 0 0 0 1 0"/>
        <feBlend in2="shape" result="effect1_innerShadow_4_7843"/>
      </filter>
      <filter id="b" width="11.135" height="23.151" x="10.622" y="4.284" color-interpolation-filters="sRGB" filterUnits="userSpaceOnUse">
        <feFlood flood-opacity="0" result="BackgroundImageFix"/>
        <feBlend in="SourceGraphic" in2="BackgroundImageFix" result="shape"/>
        <feGaussianBlur result="effect1_foregroundBlur_4_7843" stdDeviation=".1"/>
      </filter>
      <filter id="c" width="8.48" height="11.123" x="2.788" y="11.214" color-interpolation-filters="sRGB" filterUnits="userSpaceOnUse">
        <feFlood flood-opacity="0" result="BackgroundImageFix"/>
        <feBlend in="SourceGraphic" in2="BackgroundImageFix" result="shape"/>
        <feColorMatrix in="SourceAlpha" result="hardAlpha" values="0 0 0 0 0 0 0 0 0 0 0 0 0 0 0 0 0 0 127 0"/>
        <feOffset dx=".1" dy="-.1"/>
        <feGaussianBlur stdDeviation=".2"/>
        <feComposite in2="hardAlpha" k2="-1" k3="1" operator="arithmetic"/>
        <feColorMatrix values="0 0 0 0 0.670588 0 0 0 0 0.611765 0 0 0 0 0.733333 0 0 0 1 0"/>
        <feBlend in2="shape" result="effect1_innerShadow_4_7843"/>
      </filter>
      <filter id="f" width="2.478" height="3.752" x="8.691" y="17.165" color-interpolation-filters="sRGB" filterUnits="userSpaceOnUse">
        <feFlood flood-opacity="0" result="BackgroundImageFix"/>
        <feBlend in="SourceGraphic" in2="BackgroundImageFix" result="shape"/>
        <feColorMatrix in="SourceAlpha" result="hardAlpha" values="0 0 0 0 0 0 0 0 0 0 0 0 0 0 0 0 0 0 127 0"/>
        <feOffset/>
        <feGaussianBlur stdDeviation=".15"/>
        <feComposite in2="hardAlpha" k2="-1" k3="1" operator="arithmetic"/>
        <feColorMatrix values="0 0 0 0 0.72549 0 0 0 0 0.67451 0 0 0 0 0.780392 0 0 0 1 0"/>
        <feBlend in2="shape" result="effect1_innerShadow_4_7843"/>
      </filter>
      <filter id="k" width="12.035" height="23.801" x="11.155" y="3.974" color-interpolation-filters="sRGB" filterUnits="userSpaceOnUse">
        <feFlood flood-opacity="0" result="BackgroundImageFix"/>
        <feBlend in="SourceGraphic" in2="BackgroundImageFix" result="shape"/>
        <feColorMatrix in="SourceAlpha" result="hardAlpha" values="0 0 0 0 0 0 0 0 0 0 0 0 0 0 0 0 0 0 127 0"/>
        <feOffset dx=".5" dy="-.25"/>
        <feGaussianBlur stdDeviation=".25"/>
        <feComposite in2="hardAlpha" k2="-1" k3="1" operator="arithmetic"/>
        <feColorMatrix values="0 0 0 0 0.447059 0 0 0 0 0.439216 0 0 0 0 0.466667 0 0 0 1 0"/>
        <feBlend in2="shape" result="effect1_innerShadow_4_7843"/>
      </filter>
      <filter id="l" width="11.135" height="23.151" x="11.524" y="4.284" color-interpolation-filters="sRGB" filterUnits="userSpaceOnUse">
        <feFlood flood-opacity="0" result="BackgroundImageFix"/>
        <feBlend in="SourceGraphic" in2="BackgroundImageFix" result="shape"/>
        <feGaussianBlur result="effect1_foregroundBlur_4_7843" stdDeviation=".1"/>
      </filter>
      <filter id="n" width="8.83" height="11.323" x="21.449" y="11.114" color-interpolation-filters="sRGB" filterUnits="userSpaceOnUse">
        <feFlood flood-opacity="0" result="BackgroundImageFix"/>
        <feBlend in="SourceGraphic" in2="BackgroundImageFix" result="shape"/>
        <feColorMatrix in="SourceAlpha" result="hardAlpha" values="0 0 0 0 0 0 0 0 0 0 0 0 0 0 0 0 0 0 127 0"/>
        <feOffset dx=".15" dy="-.2"/>
        <feGaussianBlur stdDeviation=".25"/>
        <feComposite in2="hardAlpha" k2="-1" k3="1" operator="arithmetic"/>
        <feColorMatrix values="0 0 0 0 0.729412 0 0 0 0 0.662745 0 0 0 0 0.8 0 0 0 1 0"/>
        <feBlend in2="shape" result="effect1_innerShadow_4_7843"/>
        <feColorMatrix in="SourceAlpha" result="hardAlpha" values="0 0 0 0 0 0 0 0 0 0 0 0 0 0 0 0 0 0 127 0"/>
        <feOffset dx="-.3" dy=".1"/>
        <feGaussianBlur stdDeviation=".15"/>
        <feComposite in2="hardAlpha" k2="-1" k3="1" operator="arithmetic"/>
        <feColorMatrix values="0 0 0 0 1 0 0 0 0 1 0 0 0 0 1 0 0 0 1 0"/>
        <feBlend in2="effect1_innerShadow_4_7843" result="effect2_innerShadow_4_7843"/>
      </filter>
      <filter id="o" width="2.628" height="3.752" x="21.749" y="17.165" color-interpolation-filters="sRGB" filterUnits="userSpaceOnUse">
        <feFlood flood-opacity="0" result="BackgroundImageFix"/>
        <feBlend in="SourceGraphic" in2="BackgroundImageFix" result="shape"/>
        <feColorMatrix in="SourceAlpha" result="hardAlpha" values="0 0 0 0 0 0 0 0 0 0 0 0 0 0 0 0 0 0 127 0"/>
        <feOffset dx=".15"/>
        <feGaussianBlur stdDeviation=".15"/>
        <feComposite in2="hardAlpha" k2="-1" k3="1" operator="arithmetic"/>
        <feColorMatrix values="0 0 0 0 0.694118 0 0 0 0 0.666667 0 0 0 0 0.721569 0 0 0 1 0"/>
        <feBlend in2="shape" result="effect1_innerShadow_4_7843"/>
      </filter>
      <filter id="r" width="10.702" height="12.73" x="16.789" y="5.741" color-interpolation-filters="sRGB" filterUnits="userSpaceOnUse">
        <feFlood flood-opacity="0" result="BackgroundImageFix"/>
        <feBlend in="SourceGraphic" in2="BackgroundImageFix" result="shape"/>
        <feColorMatrix in="SourceAlpha" result="hardAlpha" values="0 0 0 0 0 0 0 0 0 0 0 0 0 0 0 0 0 0 127 0"/>
        <feOffset dx="-.1" dy=".25"/>
        <feGaussianBlur stdDeviation=".125"/>
        <feComposite in2="hardAlpha" k2="-1" k3="1" operator="arithmetic"/>
        <feColorMatrix values="0 0 0 0 0.984314 0 0 0 0 0.960784 0 0 0 0 1 0 0 0 1 0"/>
        <feBlend in2="shape" result="effect1_innerShadow_4_7843"/>
      </filter>
    </defs>
  </g>
</svg>
