<svg xmlns="http://www.w3.org/2000/svg" xml:space="preserve" width="512" height="512" viewBox="0 0 512 512">
  <path fill="#e6e9ed" d="M112.019 30.886h56.434v62.247h30.916V8.58c0-4.719-3.864-8.58-8.588-8.58h-78.762c-4.724 0-8.588 3.861-8.588 8.58v13.727c0 4.717 3.864 8.579 8.588 8.579"/>
  <path fill="#e23c38" d="M223.516 184.243H57.46l15.131 164.48zM81.896 449.871l5.244 57c.259 2.821 2.792 5.129 5.627 5.129h179.64c2.836 0 5.369-2.309 5.629-5.129l27.683-300.924z"/>
  <path fill="#e6e9ed" d="M223.516 184.243 72.591 348.723l9.304 101.148 223.823-243.925 1.996-21.703z"/>
  <path d="m115.486 506.871-29.68-322.627H57.46l29.68 322.627c.259 2.821 2.792 5.129 5.627 5.129h28.348c-2.837 0-5.37-2.309-5.629-5.129" style="opacity:.1"/>
  <path fill="#b1e8ff" d="M299.282 140.886V93.169c0-2.833-2.32-5.151-5.156-5.151H71.998c-2.836 0-5.156 2.318-5.156 5.151v47.716h232.44z"/>
  <path d="M100.29 140.886V93.169c0-2.833 2.319-5.151 5.155-5.151H71.998c-2.836 0-5.156 2.318-5.156 5.151v47.716h33.448z" style="opacity:.1"/>
  <path fill="#74b9df" d="M340.008 179.092c0 2.833-2.32 5.151-5.156 5.151H31.276c-2.836 0-5.156-2.318-5.156-5.151V140.28c0-2.833 2.32-5.151 5.156-5.151h303.575c2.836 0 5.156 2.318 5.156 5.151z"/>
  <path d="M60.073 179.092V140.28c0-2.833 2.32-5.151 5.155-5.151H31.276c-2.836 0-5.156 2.318-5.156 5.151v38.812c0 2.833 2.32 5.151 5.156 5.151h33.952c-2.834 0-5.155-2.318-5.155-5.151" style="opacity:.1"/>
  <path fill="#ffaf68" d="M284.703 512c-17.366 0-33.769-6.679-46.187-18.807-12.395-12.105-19.454-28.295-19.879-45.589a6.63 6.63 0 0 1 6.632-6.791h245.263c1.785 0 3.497.721 4.746 1.999a6.62 6.62 0 0 1 1.885 4.792c-.428 17.294-7.485 33.484-19.878 45.589C444.865 505.321 428.462 512 411.093 512z"/>
  <path fill="#ab5436" d="M485.88 431.22c0 5.666-4.64 10.302-10.311 10.302H220.233c-5.671 0-10.311-4.636-10.311-10.302v-20.732c0-5.666 4.641-10.302 10.311-10.302h255.335c5.672 0 10.311 4.636 10.311 10.302v20.732z"/>
  <path fill="#ffaf68" d="M224.931 367.648c-1.86 0-3.619-.82-4.815-2.239a6.27 6.27 0 0 1-1.385-5.123c10.918-62.838 65.24-108.446 129.169-108.446s118.255 45.608 129.171 108.444a6.287 6.287 0 0 1-6.197 7.364z"/>
  <path fill="#ffbb4a" d="M485.88 371.964c0-2.833-2.319-5.151-5.155-5.151H215.077c-2.835 0-5.155 2.318-5.155 5.151v23.284c0 2.833 2.32 5.151 5.155 5.151h166.497c2.836 0 6.974 1.44 9.195 3.201l14.877 11.79c2.222 1.761 5.856 1.761 8.078 0l14.878-11.79c2.222-1.761 6.359-3.201 9.195-3.201h42.927c2.836 0 5.155-2.318 5.155-5.151v-23.284z"/>
  <path d="M250.758 447.604a6.63 6.63 0 0 1 1.881-4.792 6.6 6.6 0 0 1 1.782-1.291h-2.067c-5.671 0-10.311-4.636-10.311-10.302v-20.732c0-4.954 3.547-9.119 8.228-10.088h-3.073c-2.835 0-5.155-2.318-5.155-5.151v-23.284c0-2.833 2.32-5.151 5.155-5.151h6.732a6.3 6.3 0 0 1-1.694-1.404 6.27 6.27 0 0 1-1.385-5.123c9.99-57.5 56.327-100.565 113.109-107.468a133 133 0 0 0-16.061-.978c-63.929 0-118.251 45.608-129.169 108.446a6.27 6.27 0 0 0 1.385 5.123 6.3 6.3 0 0 0 1.694 1.404h-6.732c-2.835 0-5.155 2.318-5.155 5.151v23.284c0 2.833 2.32 5.151 5.155 5.151h3.073c-4.682.97-8.229 5.135-8.229 10.088v20.732c0 5.666 4.641 10.302 10.311 10.302h2.067a6.6 6.6 0 0 0-1.782 1.291 6.62 6.62 0 0 0-1.881 4.792c.425 17.294 7.484 33.484 19.879 45.589C250.935 505.321 267.337 512 284.703 512h32.12c-17.366 0-33.769-6.679-46.187-18.807-12.394-12.105-19.453-28.295-19.878-45.589" style="opacity:.1"/>
  <path fill="#fff" d="M374.711 295.96h-5.388c-4.143 0-7.5-3.358-7.5-7.5s3.357-7.5 7.5-7.5h5.388c4.143 0 7.5 3.358 7.5 7.5s-3.357 7.5-7.5 7.5m-78.428 18.863h-5.39c-4.143 0-7.5-3.358-7.5-7.5s3.357-7.5 7.5-7.5h5.39c4.143 0 7.5 3.358 7.5 7.5s-3.357 7.5-7.5 7.5"/>
  <path fill="#ffcfab" d="M408.539 314.823h-5.386c-4.143 0-7.5-3.358-7.5-7.5s3.357-7.5 7.5-7.5h5.386a7.5 7.5 0 0 1 0 15"/>
  <path fill="#fff" d="M349.176 320.626h-5.385c-4.143 0-7.5-3.358-7.5-7.5s3.357-7.5 7.5-7.5h5.385a7.5 7.5 0 0 1 0 15"/>
  <path fill="#ffcfab" d="M327.204 290.881h-5.391c-4.143 0-7.5-3.358-7.5-7.5s3.357-7.5 7.5-7.5h5.391c4.143 0 7.5 3.358 7.5 7.5s-3.357 7.5-7.5 7.5"/>
</svg>
