<svg xmlns="http://www.w3.org/2000/svg" xml:space="preserve" width="512" height="512" viewBox="0 0 128 128">
  <g transform="translate(8.633 8.633)scale(.86511)">
    <rect width="125" height="125" x="1.5" y="1.5" fill="#e0f7fa" rx="12"/>
    <path fill="#455a64" d="M126.5 13.5v15H1.5v-15a12 12 0 0 1 12-12h101a12 12 0 0 1 12 12"/>
    <circle cx="15.5" cy="15.5" r="3" fill="#e91e63"/>
    <circle cx="47.5" cy="15.5" r="3" fill="#cddc39"/>
    <circle cx="31.5" cy="15.5" r="3" fill="#ffc107"/>
    <path fill="#fff" d="M111.5 12.5h-16a3 3 0 0 0 0 6h16a3 3 0 0 0 0-6"/>
    <path fill="#455a64" d="M96.5 90.375h-6.875v-28.75H96.5a4.375 4.375 0 0 0 0-8.75H74a4.375 4.375 0 0 0 0 8.75h6.875v28.75H74a4.375 4.375 0 0 0 0 8.75h22.5a4.375 4.375 0 0 0 0-8.75M54 52.875a4.375 4.375 0 0 0-4.375 4.375V83.5a6.875 6.875 0 0 1-13.75 0V57.25a4.375 4.375 0 0 0-8.75 0V83.5a15.625 15.625 0 0 0 31.25 0V57.25A4.375 4.375 0 0 0 54 52.875"/>
  </g>
</svg>
