<svg xmlns="http://www.w3.org/2000/svg" xml:space="preserve" width="512" height="512" viewBox="0 0 512 512">
  <path fill="#9dc6fb" d="M348.447 0c-27.087 0-53.275 9.773-73.739 27.52s-33.846 42.287-37.679 69.102L220.525 212.04h-58.38c-17.281 0-31.291 14.01-31.291 31.291s14.01 31.291 31.291 31.291h49.432L192.718 406.52c-3.496 24.456-24.763 42.898-49.468 42.898-27.554 0-49.971-22.417-49.971-49.971 0-17.281-14.01-31.291-31.291-31.291s-31.291 14.009-31.291 31.291C30.698 461.509 81.189 512 143.25 512a112.56 112.56 0 0 0 73.739-27.52 112.57 112.57 0 0 0 37.68-69.102l20.126-140.756h71.451c17.281 0 31.291-14.01 31.291-31.291s-14.01-31.291-31.291-31.291h-62.503l15.236-106.561c3.496-24.456 24.763-42.898 49.468-42.898 27.554 0 49.971 22.417 49.971 49.971 0 17.281 14.01 31.291 31.291 31.291S461 129.834 461 112.552C461 50.491 410.509 0 348.447 0"/>
  <path fill="#80b4fb" d="M160.085 449.418c24.705 0 45.972-18.442 49.468-42.898l18.859-131.899h-16.834L192.719 406.52c-3.093 21.634-20.095 38.551-41.079 42.169a50 50 0 0 0 8.445.729m93.778-352.796a112.57 112.57 0 0 1 37.679-69.102C309.928 11.576 332.937 2.094 357.065.327A114 114 0 0 0 348.447 0c-27.087 0-53.275 9.773-73.739 27.52s-33.846 42.287-37.679 69.102L220.525 212.04h16.834zm161.39 15.93c0-27.554-22.417-49.971-49.971-49.971-2.851 0-5.652.256-8.389.728 23.545 4.026 41.526 24.568 41.526 49.243 0 17.281 14.009 31.291 31.291 31.291 2.918 0 5.738-.408 8.417-1.155-13.192-3.677-22.874-15.772-22.874-30.136M47.532 399.448c0-14.364 9.682-26.459 22.874-30.136a31.3 31.3 0 0 0-8.417-1.155c-17.281 0-31.291 14.01-31.291 31.291C30.698 461.509 81.189 512 143.25 512c2.751 0 5.489-.127 8.217-.327-58.051-4.416-103.935-53.063-103.935-112.225m114.613-124.826h16.834c-17.281 0-31.291-14.009-31.291-31.29s14.009-31.291 31.291-31.291h-16.834c-17.281 0-31.291 14.01-31.291 31.291s14.01 31.29 31.291 31.29"/>
  <path fill="#df75a5" d="m443.231 429.46 28.861-28.861c12.28-12.28 12.28-32.189 0-44.468s-32.189-12.28-44.468-.001l-28.862 28.862L369.9 356.13c-12.279-12.28-32.189-12.279-44.468.001s-12.28 32.189 0 44.468l28.861 28.861-28.861 28.861c-12.28 12.28-12.28 32.189 0 44.469 6.14 6.14 14.186 9.21 22.234 9.21 8.046 0 16.096-3.071 22.234-9.21l28.862-28.862 28.862 28.862c6.139 6.14 14.187 9.21 22.234 9.21s16.095-3.07 22.234-9.21c12.28-12.28 12.28-32.189 0-44.469z"/>
  <path fill="#dd5790" d="M351.526 502.79c-12.28-12.28-12.28-32.189 0-44.469l28.862-28.861-28.862-28.862c-12.28-12.28-12.28-32.189 0-44.468a31.4 31.4 0 0 1 9.188-6.38c-11.595-5.285-25.741-3.161-35.281 6.38-12.28 12.279-12.28 32.189 0 44.468l28.862 28.862-28.862 28.861c-12.28 12.28-12.28 32.189 0 44.469 6.14 6.14 14.186 9.21 22.234 9.21a31.5 31.5 0 0 0 13.046-2.83 31.4 31.4 0 0 1-9.187-6.38"/>
</svg>
