<svg xmlns="http://www.w3.org/2000/svg" xml:space="preserve" width="512" height="512" viewBox="0 0 64 64">
  <path fill="#53c496" d="M55.171 41.154c.012-.106.036-.21.036-.318s-.024-.212-.036-.318V7.185H26.91v34.078h.048c.497 3.27 6.61 5.857 14.1 5.857s13.604-2.586 14.1-5.857h.013z"/>
  <path fill="#00000015" d="M55.203 40.827c0 .11-.019.22-.037.33v.11c-.512 3.272-6.62 5.85-14.116 5.85-7.48 0-13.587-2.578-14.099-5.85h-.036V33.55a15 15 0 0 1 1.536-.787c5.614-1.938 12.105-5.65 16.512-12.891 2.633-4.37 3.803-8.795 4.206-12.69h5.997v33.335c.018.11.037.219.037.31"/>
  <ellipse cx="41.058" cy="7.185" fill="#6fd0ab" rx="14.149" ry="6.284"/>
  <path fill="#00000015" d="M55.203 7.182c0 2.322-2.834 4.352-7.077 5.43A32.4 32.4 0 0 0 49.278 2.08c3.602 1.134 5.925 2.999 5.925 5.102"/>
  <path fill="#ffdc6e" d="M15.882 12.236.318 43.13a2.97 2.97 0 0 0 1.226 3.942 34.3 34.3 0 0 0 32.948 0 2.97 2.97 0 0 0 1.226-3.942L20.154 12.236c-.884-1.753-3.388-1.753-4.272 0"/>
  <path fill="#00000015" d="M36.04 44.466a2.96 2.96 0 0 1-1.555 2.597 34.1 34.1 0 0 1-16.457 4.224 33.9 33.9 0 0 1-12.142-2.25C10.768 47.356 16.42 44.12 20.26 37.81c4.26-7.04 4.114-14.244 3.456-18.487L35.71 43.131c.22.421.33.878.33 1.335"/>
  <path fill="#fb9b5d" d="M28.31 32.861v19.475c0 .841.46 1.615 1.198 2.017l15.547 8.465a2.3 2.3 0 0 0 2.196 0L62.8 54.353a2.3 2.3 0 0 0 1.198-2.017V32.861c0-.84-.46-1.615-1.2-2.017L47.25 22.387a2.3 2.3 0 0 0-2.194 0l-15.547 8.457a2.3 2.3 0 0 0-1.2 2.017z"/>
  <path fill="#e96f39" d="M46.156 41.211v21.885c.374 0 .748-.091 1.095-.274l15.545-8.465A2.3 2.3 0 0 0 64 52.34V32.864a2.3 2.3 0 0 0-.328-1.186z"/>
  <path fill="#f98143" d="M28.313 32.864V52.34c0 .84.456 1.615 1.195 2.017l15.545 8.465c.337.183.72.274 1.103.274V41.21l-17.515-9.533c-.21.347-.328.757-.328 1.186z"/>
  <path fill="#00000015" d="M63.998 32.855v19.474c0 .841-.457 1.628-1.207 2.03L47.25 62.825a2.33 2.33 0 0 1-2.195 0l-7.753-4.224c5.138-1.554 11.429-4.79 15.598-11.63 4.717-7.771 4.023-15.762 3.255-19.73l6.637 3.602a2.28 2.28 0 0 1 1.207 2.012z"/>
</svg>
