<?xml version="1.0" encoding="UTF-8" standalone="no"?>
<svg
   version="1.1"
   width="512"
   height="512"
   x="0"
   y="0"
   viewBox="0 0 512 512"
   style="enable-background:new 0 0 512 512"
   xml:space="preserve"
   class=""
   id="svg10"
   sodipodi:docname="other-signs.svg"
   inkscape:version="1.1.2 (0a00cf5339, 2022-02-04)"
   xmlns:inkscape="http://www.inkscape.org/namespaces/inkscape"
   xmlns:sodipodi="http://sodipodi.sourceforge.net/DTD/sodipodi-0.dtd"
   xmlns="http://www.w3.org/2000/svg"
   xmlns:svg="http://www.w3.org/2000/svg"><defs
     id="defs14" /><sodipodi:namedview
     id="namedview12"
     pagecolor="#505050"
     bordercolor="#eeeeee"
     borderopacity="1"
     inkscape:pageshadow="0"
     inkscape:pageopacity="0"
     inkscape:pagecheckerboard="0"
     showgrid="false"
     inkscape:zoom="0.41210938"
     inkscape:cx="131.03318"
     inkscape:cy="505.93365"
     inkscape:window-width="1850"
     inkscape:window-height="1016"
     inkscape:window-x="70"
     inkscape:window-y="27"
     inkscape:window-maximized="1"
     inkscape:current-layer="svg10" /><g
     id="g8"
     transform="matrix(0.80187171,0,0,0.80187171,50.743627,50.721565)"><path
       fill="#faab48"
       d="M 505.55,58.03 C 501.6,32.4 479.72,10.52 454.09,6.57 438.65,4.23 417.54,1.97 388.73,0.73 359.92,-0.49 338.9,-0.02 323.57,1.05 298.12,2.83 278,23.78 275.78,50.32 c -1.3,15.95 -2.22,37.84 -2.13,67.79 0.09,29.96 1.13,51.85 2.57,67.81 2.37,26.56 23.43,47.61 49.98,49.98 15.95,1.43 37.85,2.49 67.81,2.57 29.95,0.08 51.85,-0.83 67.79,-2.13 26.53,-2.22 47.48,-22.35 49.27,-47.79 1.07,-15.33 1.55,-36.35 0.32,-65.16 -1.24,-28.81 -3.5,-49.91 -5.84,-65.36 z M 236.01,326.09 c -2.37,-26.56 -23.42,-47.61 -49.98,-49.98 -15.96,-1.43 -37.85,-2.49 -67.81,-2.57 -29.96,-0.08 -51.85,0.83 -67.79,2.13 -26.53,2.22 -47.49,22.35 -49.27,47.79 -1.07,15.33 -1.55,36.35 -0.32,65.16 1.24,28.81 3.51,49.91 5.84,65.36 3.96,25.63 25.83,47.51 51.46,51.46 15.45,2.34 36.55,4.6 65.36,5.84 28.81,1.22 49.83,0.75 65.16,-0.32 25.44,-1.78 45.57,-22.73 47.79,-49.27 1.3,-15.95 2.22,-37.84 2.13,-67.79 -0.08,-29.96 -1.14,-51.85 -2.57,-67.81 z m 275.06,-2.63 c -1.78,-25.44 -22.73,-45.57 -49.27,-47.79 -15.95,-1.3 -37.84,-2.22 -67.79,-2.13 -29.96,0.08 -51.85,1.13 -67.81,2.57 -26.56,2.38 -47.61,23.43 -49.98,49.98 -1.43,15.96 -2.49,37.85 -2.57,67.81 -0.08,29.95 0.84,51.85 2.13,67.79 2.22,26.54 22.35,47.49 47.79,49.27 15.33,1.07 36.35,1.55 65.16,0.32 28.81,-1.24 49.92,-3.51 65.36,-5.84 25.63,-3.95 47.51,-25.83 51.46,-51.46 2.33,-15.44 4.6,-36.55 5.84,-65.36 1.22,-28.81 0.75,-49.83 -0.32,-65.16 z"
       opacity="1"
       data-original="#faab48"
       class=""
       id="path2" /><g
       fill="#f8c358"
       id="g6"><path
         d="m 50.43,236.33 c 15.95,1.3 37.84,2.22 67.79,2.13 29.96,-0.08 51.85,-1.14 67.81,-2.57 26.55,-2.38 47.6,-23.43 49.98,-49.98 1.43,-15.96 2.49,-37.85 2.57,-67.81 0.08,-29.96 -0.84,-51.85 -2.13,-67.79 C 234.23,23.77 214.1,2.82 188.66,1.04 173.34,-0.02 152.31,-0.5 123.5,0.72 94.7,1.96 73.58,4.23 58.14,6.56 32.51,10.52 10.64,32.4 6.69,58.03 4.36,73.47 2.08,94.58 0.85,123.38 c -0.42,9.81 -0.63,18.69 -0.7,26.78 v 10.88 c 0.1,10.76 0.49,19.84 1.02,27.49 1.78,25.44 22.73,45.57 49.27,47.79 z M 323.58,1.05 c -25.45,1.78 -45.57,22.73 -47.79,49.27 -1.3,15.95 -2.22,37.84 -2.13,67.79 0.09,29.96 1.13,51.85 2.57,67.81 2.37,26.56 23.43,47.61 49.98,49.98 12.1,1.09 27.62,1.95 47.47,2.35 16.07,-35.06 25.03,-74.04 25.03,-115.13 0,-44.18 -10.37,-85.93 -28.79,-122.98 -19.43,-0.38 -34.58,0.09 -46.35,0.91 z M 186.03,276.11 c -15.96,-1.43 -37.85,-2.49 -67.81,-2.57 -29.96,-0.08 -51.85,0.83 -67.79,2.13 -26.53,2.22 -47.49,22.35 -49.27,47.79 -0.53,7.66 -0.92,16.75 -1.02,27.52 v 10.83 c 0.03,3.13 0.07,6.38 0.15,9.75 36.75,18.05 78.07,28.19 121.77,28.19 43.7,0 80.94,-9.18 116.3,-25.58 -0.39,-20.15 -1.26,-35.87 -2.36,-48.09 -2.37,-26.56 -23.42,-47.6 -49.98,-49.98 z m 167.69,-1.75 c -10.71,0.45 -19.81,1.05 -27.52,1.74 -26.56,2.38 -47.61,23.43 -49.98,49.98 -0.7,7.8 -1.31,17.04 -1.76,27.93 a 278.17,278.17 0 0 0 79.26,-79.65 z"
         fill="#f8c358"
         opacity="1"
         data-original="#f8c358"
         class=""
         id="path4" /></g></g></svg>
