<svg xmlns="http://www.w3.org/2000/svg" xml:space="preserve" width="512" height="512" viewBox="0 0 512 512">
  <path fill="#faab48" d="M456.13 97.254c-3.168-20.552-20.712-38.097-41.264-41.264-12.381-1.877-29.309-3.689-52.41-4.683-23.103-.978-39.958-.601-52.25.257-20.408 1.427-36.542 18.226-38.322 39.508-1.043 12.79-1.78 30.343-1.708 54.359.072 24.024.906 41.577 2.06 54.375 1.901 21.297 18.788 38.177 40.078 40.077 12.79 1.147 30.351 1.997 54.375 2.06 24.016.065 41.577-.665 54.359-1.707 21.274-1.78 38.073-17.922 39.508-38.322.858-12.292 1.243-29.148.257-52.25-.995-23.101-2.807-40.02-4.683-52.41m-216.137 214.95c-1.9-21.298-18.78-38.177-40.077-40.078-12.798-1.146-30.351-1.996-54.375-2.06s-41.577.665-54.359 1.708c-21.274 1.78-38.08 17.921-39.508 38.321-.858 12.293-1.243 29.148-.257 52.25.995 23.102 2.815 40.021 4.683 52.41 3.176 20.552 20.712 38.097 41.264 41.265 12.39 1.876 29.309 3.688 52.41 4.683 23.103.978 39.958.6 52.25-.257 20.4-1.427 36.542-18.227 38.322-39.508 1.043-12.79 1.78-30.343 1.708-54.36-.064-24.023-.914-41.576-2.06-54.374m220.563-2.109c-1.427-20.4-18.226-36.541-39.508-38.321-12.79-1.043-30.343-1.78-54.359-1.708-24.024.064-41.577.906-54.375 2.06-21.298 1.909-38.177 18.788-40.077 40.078-1.147 12.798-1.997 30.35-2.061 54.375-.064 24.016.673 41.577 1.708 54.359 1.78 21.281 17.922 38.08 38.321 39.508 12.293.858 29.148 1.243 52.25.257 23.102-.995 40.03-2.815 52.41-4.683 20.553-3.168 38.097-20.713 41.265-41.265 1.868-12.38 3.688-29.308 4.683-52.41.978-23.102.601-39.957-.257-52.25"/>
  <path fill="#f8c358" d="M91.182 240.228c12.79 1.042 30.343 1.78 54.359 1.708 24.024-.064 41.577-.914 54.375-2.06 21.29-1.91 38.169-18.789 40.077-40.078 1.147-12.798 1.997-30.351 2.061-54.375s-.673-41.577-1.708-54.36c-1.78-21.28-17.922-38.08-38.321-39.507-12.285-.85-29.148-1.235-52.25-.257-23.094.994-40.03 2.814-52.41 4.683-20.553 3.175-38.09 20.72-41.257 41.272-1.868 12.381-3.696 29.309-4.683 52.402a628 628 0 0 0-.561 21.475v8.724c.08 8.628.393 15.91.818 22.043 1.427 20.4 18.226 36.542 39.508 38.322zM310.213 51.564c-20.407 1.427-36.541 18.226-38.321 39.508-1.043 12.79-1.78 30.343-1.708 54.359.072 24.024.906 41.577 2.06 54.375 1.901 21.297 18.789 38.177 40.078 40.077 9.703.874 22.148 1.564 38.065 1.884 12.886-28.113 20.07-59.37 20.07-92.319 0-35.427-8.315-68.905-23.085-98.614-15.58-.305-27.729.072-37.167.73zM199.916 272.126c-12.798-1.146-30.351-1.996-54.375-2.06s-41.577.665-54.359 1.708c-21.274 1.78-38.08 17.921-39.508 38.321-.425 6.142-.738 13.431-.818 22.067v8.685c.024 2.51.056 5.116.12 7.818 29.469 14.474 62.602 22.605 97.644 22.605s64.904-7.361 93.258-20.512c-.313-16.158-1.01-28.763-1.893-38.562-1.9-21.298-18.78-38.17-40.077-40.078zm134.466-1.403c-8.588.36-15.885.842-22.068 1.395-21.298 1.909-38.177 18.788-40.077 40.078-.562 6.254-1.05 13.664-1.412 22.396a223.1 223.1 0 0 0 63.557-63.869"/>
</svg>
