<svg xmlns="http://www.w3.org/2000/svg" xml:space="preserve" width="512" height="512" viewBox="0 0 512 512">
  <path fill="#5e6b75" d="M154.762 300.257v30.566c0 .783.061 1.566.184 2.34l23.005 145.696C180.963 497.944 197.413 512 216.735 512 238.42 512 256 494.42 256 472.735V338v134.735C256 494.42 273.58 512 295.265 512c19.321 0 35.771-14.056 38.785-33.141l23.004-145.696q.183-1.163.184-2.34v-30.566z"/>
  <path fill="#525263" d="M256 338v134.735C256 494.42 273.58 512 295.265 512c19.321 0 35.771-14.056 38.785-33.141l23.004-145.696q.183-1.163.184-2.34v-30.566H256z"/>
  <path fill="#ffcdbe" d="M255.999 337H256a144.4 144.4 0 0 0 74.298-20.579l26.939-16.163V166H154.762v134.257l26.94 16.164A144.4 144.4 0 0 0 255.999 337"/>
  <path fill="#ffbeaa" d="M256 337a144.4 144.4 0 0 0 74.299-20.579l26.939-16.163V166H256z"/>
  <circle cx="256" cy="277" r="15" fill="#ffbeaa"/>
  <path fill="#faa68f" d="M271 277c0-8.284-6.716-15-15-15v30c8.284 0 15-6.716 15-15"/>
  <path fill="#ffcdbe" d="M357.238 182v118.119c0 17.607 14.274 31.881 31.881 31.881S421 317.726 421 300.119V195c0-52.467-42.533-95-95-95H186c-52.467 0-95 42.533-95 95v105.119C91 317.726 105.274 332 122.881 332s31.881-14.274 31.881-31.881V182"/>
  <path fill="#ffbeaa" d="M326 100h-70v82h101.238v118.119c0 17.607 14.274 31.881 31.881 31.881S421 317.726 421 300.119V195c0-52.467-42.533-95-95-95"/>
  <path fill="#ffdecf" d="M256 120c-33.084 0-60-26.916-60-60s26.916-60 60-60 60 26.916 60 60-26.916 60-60 60"/>
  <path fill="#ffcdbe" d="M316 60c0-33.084-26.916-60-60-60v120c33.084 0 60-26.916 60-60"/>
  <path fill="#ffbeaa" d="M139.762 181c-8.284 0-15 6.716-15 15v135.94c16.731-.974 30-14.846 30-31.821V196c0-8.284-6.716-15-15-15"/>
  <path fill="#faa68f" d="M372.238 181c8.284 0 15 6.716 15 15v135.94c-16.731-.974-30-14.846-30-31.821V196c0-8.284 6.716-15 15-15"/>
</svg>
