<svg xmlns="http://www.w3.org/2000/svg" xml:space="preserve" width="512" height="512" viewBox="0 0 512.001 512">
  <path fill="#fc4e51" d="M507.191 88.387H4.81A4.807 4.807 0 0 0 0 93.19v299.954a4.81 4.81 0 0 0 4.809 4.808h205.527c3.8 0 7.379 1.797 9.644 4.844a12.03 12.03 0 0 0 9.649 4.844h52.746c3.8 0 7.375-1.797 9.645-4.844a12.01 12.01 0 0 1 9.644-4.844h205.531a4.807 4.807 0 0 0 4.805-4.808V93.19a4.807 4.807 0 0 0-4.809-4.804zm0 0"/>
  <path fill="#ea3942" d="M507.191 88.387H453.63v289.476a4.81 4.81 0 0 1-4.809 4.809H280.97c-13.79 0-24.969 11.18-24.969 24.969h26.336c3.746 0 7.383-1.657 9.574-4.696a12.01 12.01 0 0 1 9.754-4.992h205.527a4.81 4.81 0 0 0 4.809-4.808V93.19a4.807 4.807 0 0 0-4.809-4.804zm0 0"/>
  <path fill="#cebca7" d="M256 371.016H32.937a4.42 4.42 0 0 1-4.421-4.422V49.422A4.423 4.423 0 0 1 32.938 45H256zm0 0"/>
  <path fill="#b7a18d" d="M196.906 45H256v326.02h-59.094zm0 0"/>
  <path fill="#cebca7" d="M476.016 371.016H256V45h220.016a7.47 7.47 0 0 1 7.468 7.469v311.078a7.47 7.47 0 0 1-7.468 7.469m0 0"/>
  <path fill="#b7a18d" d="M476.016 45h-50.832v326.02h50.832a7.47 7.47 0 0 0 7.468-7.473V52.469A7.47 7.47 0 0 0 476.016 45m0 0"/>
  <path fill="#f3e8d7" d="M61.266 11.895v312.101c0 4.262 3.855 7.508 8.05 6.738 118.621-21.761 185.368 39.09 186.653 40.274l.031.008V45S188.176-18.14 66.832 5.164a6.86 6.86 0 0 0-5.566 6.73zm0 0"/>
  <path fill="#ddd1c3" d="M196.906 12.617v326.031c37.918 13.079 58.36 31.711 59.063 32.36l.031.008V45s-20.492-19.07-59.094-32.383m0 0"/>
  <path fill="#f3e8d7" d="M450.734 11.895v312.101c0 4.262-3.855 7.508-8.05 6.738-118.622-21.761-185.368 39.09-186.653 40.274-.011.004-.031.008-.031.008V45s67.824-63.14 189.168-39.836a6.86 6.86 0 0 1 5.566 6.73zm0 0"/>
  <path fill="#ddd1c3" d="M445.168 5.164C426.273 1.535 408.68.004 392.434 0v326.047c15.53 0 32.293 1.39 50.25 4.683 4.195.77 8.05-2.472 8.05-6.734V11.895a6.86 6.86 0 0 0-5.566-6.73zm0 0"/>
  <path fill="#0d6e9a" d="M420.34 352.438a7.7 7.7 0 0 1-5.668-2.477L390.3 323.652a7.73 7.73 0 0 1 .418-10.918c3.129-2.898 8.02-2.714 10.918.418l24.37 26.309a7.728 7.728 0 0 1-5.667 12.977zm0 0"/>
  <path fill="#a0e557" d="M283.96 139.238c0 2.492 2.716 4.028 4.849 2.739 17.98-10.864 53.043-25.602 103.597-25.602 8.778 0 17.73.508 26.793 1.52 1.903.21 3.574-1.262 3.574-3.176V83.23a3.2 3.2 0 0 0-2.828-3.183c-9.316-1.067-18.52-1.606-27.539-1.606-53.953 0-90.258 16.79-106.992 27.735a3.2 3.2 0 0 0-1.453 2.683zm0 0"/>
  <path fill="#93cc4a" d="M419.95 80.047c-9.321-1.067-18.524-1.606-27.54-1.606-9.914 0-19.226.575-27.937 1.567v37.933c8.71-.992 18.02-1.566 27.937-1.566 8.774 0 17.727.508 26.79 1.52 1.902.21 3.573-1.262 3.573-3.176V83.23a3.2 3.2 0 0 0-2.824-3.183zm0 0"/>
  <path fill="#a0e557" d="M228.04 139.238c0 2.492-2.716 4.028-4.849 2.739-17.98-10.864-53.043-25.602-103.597-25.602-8.778 0-17.73.508-26.793 1.52-1.903.21-3.574-1.262-3.574-3.176V83.23a3.2 3.2 0 0 1 2.828-3.183c9.316-1.067 18.52-1.606 27.539-1.606 53.949 0 90.258 16.79 106.992 27.735a3.2 3.2 0 0 1 1.453 2.683zm0 0"/>
  <path fill="#93cc4a" d="M226.582 106.176c-10.863-7.11-29.996-16.676-56.844-22.512v37.926c24.25 5.27 42.2 13.59 53.453 20.387 2.133 1.289 4.848-.247 4.848-2.739V108.86c0-1.086-.547-2.09-1.457-2.683zm0 0"/>
  <path fill="#d8d8d8" d="M401.371 177.113c-37.523-40.508-100.785-42.922-141.293-5.398-40.508 37.527-42.926 100.785-5.398 141.293 37.527 40.508 100.785 42.926 141.293 5.398 40.507-37.523 42.925-100.785 5.398-141.293m0 0"/>
  <path fill="#c4c6c6" d="M401.367 177.11c-37.527-40.505-100.785-42.923-141.293-5.395a99.7 99.7 0 0 0-20.46 26.61c39.066-20.688 88.616-13.509 120.081 20.456 29.645 31.996 34.356 78.188 15.067 114.68a100 100 0 0 0 21.207-15.059c40.508-37.523 42.922-100.78 5.398-141.293zm0 0"/>
  <path fill="#efefef" d="M381.441 195.578c-27.328-29.5-73.398-31.262-102.898-3.933-29.504 27.332-31.262 73.402-3.934 102.902 27.332 29.5 73.399 31.262 102.903 3.93 29.5-27.329 31.261-73.399 3.93-102.899zm0 0"/>
  <path fill="#e5e4e3" d="M381.438 195.574c-27.329-29.5-73.403-31.262-102.903-3.93a72.5 72.5 0 0 0-18.441 27.172c27.004-10.433 58.8-4.101 79.672 18.43 19.527 21.074 24.195 50.61 14.511 75.727a72.6 72.6 0 0 0 23.23-14.5c29.5-27.328 31.259-73.399 3.93-102.899zm0 0"/>
  <path fill="#917267" d="m492.46 407.98-14.538 13.473a7.016 7.016 0 0 1-9.918-.383l-55.316-59.707a7.02 7.02 0 0 1 .378-9.918l14.543-13.468a7.015 7.015 0 0 1 9.918.378l55.313 59.708c2.637 2.84 2.465 7.28-.38 9.917m0 0"/>
  <path fill="#a0e557" d="M283.96 139.238c0 2.492 2.716 4.028 4.849 2.739 17.98-10.864 53.043-25.602 103.597-25.602 8.778 0 17.73.508 26.793 1.52 1.903.21 3.574-1.262 3.574-3.176V83.23a3.2 3.2 0 0 0-2.828-3.183c-9.316-1.067-18.52-1.606-27.539-1.606-53.953 0-90.258 16.79-106.992 27.735a3.2 3.2 0 0 0-1.453 2.683zm0 0"/>
  <path fill="#93cc4a" d="M419.95 80.047c-9.321-1.067-18.524-1.606-27.54-1.606-9.914 0-19.226.575-27.937 1.567v37.933c8.71-.992 18.02-1.566 27.937-1.566 8.774 0 17.727.508 26.79 1.52 1.902.21 3.573-1.262 3.573-3.176V83.23a3.2 3.2 0 0 0-2.824-3.183zm0 0"/>
  <path fill="#a0e557" d="M228.04 139.238c0 2.492-2.716 4.028-4.849 2.739-17.98-10.864-53.043-25.602-103.597-25.602-8.778 0-17.73.508-26.793 1.52-1.903.21-3.574-1.262-3.574-3.176V83.23a3.2 3.2 0 0 1 2.828-3.183c9.316-1.067 18.52-1.606 27.539-1.606 53.949 0 90.258 16.79 106.992 27.735a3.2 3.2 0 0 1 1.453 2.683zm0 0"/>
  <path fill="#93cc4a" d="M226.582 106.176c-10.863-7.11-29.996-16.676-56.844-22.512v37.926c24.25 5.27 42.2 13.59 53.453 20.387 2.133 1.289 4.848-.247 4.848-2.739V108.86c0-1.086-.547-2.09-1.457-2.683zm0 0"/>
  <path fill="#87a4f4" d="M228.031 295.008a7.7 7.7 0 0 1-4.336-1.336c-9.445-6.422-44.863-27.367-104.105-27.367-9.567 0-19.457.632-29.403 1.882-4.238.524-8.097-2.468-8.628-6.703s2.468-8.097 6.703-8.629c10.582-1.328 21.12-2.003 31.328-2.003 61.914 0 99.504 21.007 112.793 30.039a7.73 7.73 0 0 1 2.047 10.734 7.73 7.73 0 0 1-6.399 3.383m0-83.68a7.7 7.7 0 0 1-4.336-1.34c-9.445-6.418-44.867-27.363-104.105-27.363-9.563 0-19.453.633-29.403 1.883-4.226.531-8.097-2.473-8.628-6.707-.532-4.23 2.472-8.094 6.707-8.625 10.582-1.332 21.12-2.004 31.324-2.004 61.914 0 99.504 21.008 112.793 30.039a7.724 7.724 0 0 1 2.047 10.73 7.73 7.73 0 0 1-6.399 3.387m.496 23.949c-15.898-9.898-52.195-27.535-108.933-27.535-10.207 0-20.746.676-31.328 2.004a7.726 7.726 0 0 0-6.704 8.629c.528 4.23 4.399 7.234 8.626 6.703 9.949-1.25 19.84-1.883 29.406-1.883 59.238 0 94.66 20.946 104.101 27.368a7.7 7.7 0 0 0 4.336 1.335c.082 0 .164-.011.246-.015a100.3 100.3 0 0 1 .25-16.606m195.207-65.237c-10.582-1.333-21.12-2.005-31.328-2.005-.207 0-.41.008-.62.008a101 101 0 0 1 9.581 9.07 102 102 0 0 1 5.805 6.864c4.844.312 9.734.777 14.64 1.394 4.227.527 8.098-2.473 8.63-6.707a7.723 7.723 0 0 0-6.708-8.625zm0 0"/>
</svg>
