<svg xmlns="http://www.w3.org/2000/svg" xml:space="preserve" width="512" height="512" viewBox="0 0 512 512">
  <g data-name="38" transform="translate(35.08 35.08)scale(.86297)">
    <rect width="512" height="512" fill="#ffda24" rx="100"/>
    <path fill="#473535" d="M156.22 257.39h199.57c15.3 0 27.72 12.42 27.72 27.72v.49c0 70.1-56.91 127.01-127.01 127.01h-.49c-70.37 0-127.5-57.13-127.5-127.5 0-15.3 12.42-27.72 27.72-27.72z"/>
    <path fill="#fff" d="M369.64 261.11v7.37c0 18.36-14.89 33.26-33.26 33.26H175.62c-18.37 0-33.26-14.9-33.26-33.26v-7.37c4.08-2.36 8.81-3.71 13.86-3.71h199.57c5.04 0 9.78 1.35 13.86 3.71z"/>
    <path fill="#ff7e27" d="M338.87 403.16c-4.85 29.84-39.39 71.11-82.87 71.11s-78.02-41.27-82.87-71.11c-3.16-19.4 2.17-33.95 11.61-43.26 12.72-12.52 38.92-17.45 71.26-17.45s58.54 4.93 71.26 17.45c9.44 9.3 14.77 23.85 11.61 43.26"/>
    <path fill="#ff6700" d="M338.87 403.16c-4.85 29.84-39.39 71.11-82.87 71.11s-78.02-41.27-82.87-71.11c-3.13-19.25 2.08-33.72 11.39-43.03-2.13 6.57-2.74 14.37-1.28 23.36 4.26 26.21 34.59 62.44 72.76 62.44s68.5-36.23 72.76-62.44c1.46-8.99.85-16.79-1.28-23.36 9.31 9.31 14.52 23.78 11.39 43.03"/>
    <circle cx="346.35" cy="172.86" r="61.13" fill="#fff"/>
    <circle cx="336.35" cy="182.86" r="39.7" fill="#473535"/>
    <circle cx="321.48" cy="160.1" r="20.48" fill="#fff"/>
    <circle cx="176.94" cy="176.09" r="52.45" fill="#fff"/>
    <circle cx="182.56" cy="182.86" r="34.06" fill="#473535"/>
    <circle cx="203.05" cy="193.98" r="17.57" fill="#fff"/>
    <path fill="#473535" d="M119.53 83.14c-.64 11.51 10.62 20 21.49 16.16 9.91-3.5 22.27-6.29 35.51-5.55s25.21 4.87 34.68 9.44c10.38 5.02 22.51-2.18 23.14-13.68.29-5.27-1.98-10.37-6.15-13.61-8.2-6.38-24.33-15.69-49.74-17.1s-42.47 6.07-51.33 11.5c-4.5 2.76-7.32 7.58-7.61 12.84z"/>
    <path fill="#473535" d="M392.47 83.14c.64 11.51-10.62 20-21.49 16.16-9.91-3.5-22.27-6.29-35.51-5.55-13.24.73-25.21 4.87-34.68 9.44-10.38 5.02-22.51-2.18-23.14-13.68-.29-5.27 1.98-10.37 6.15-13.61 8.2-6.38 24.33-15.69 49.74-17.1s42.47 6.07 51.33 11.5c4.5 2.76 7.32 7.58 7.61 12.84z" data-name="Eyebrows"/>
  </g>
</svg>
