<svg xmlns="http://www.w3.org/2000/svg" xml:space="preserve" width="512" height="512" viewBox="0 0 176 176">
  <defs>
    <linearGradient id="a" x1="60.96" x2="159.32" y1="60.96" y2="159.32" gradientUnits="userSpaceOnUse">
      <stop offset="0" stop-color="#8bc34a"/>
      <stop offset=".098" stop-color="#8bc34a"/>
      <stop offset=".245" stop-color="#8bc34a"/>
      <stop offset=".751" stop-color="#8bc34a"/>
    </linearGradient>
  </defs>
  <path fill="#b8e583" d="M140.571 167.062a495.4 495.4 0 0 1-105.105 0 29.83 29.83 0 0 1-26.528-26.49 495.4 495.4 0 0 1 0-105.106 29.83 29.83 0 0 1 26.49-26.528 495.4 495.4 0 0 1 105.106 0 29.83 29.83 0 0 1 26.528 26.49 495.4 495.4 0 0 1 0 105.106 29.83 29.83 0 0 1-26.49 26.528" style="fill:#e53935;fill-opacity:1;stroke-width:.93014"/>
  <path fill="url(#a)" d="M167.062 140.571a29.83 29.83 0 0 1-26.49 26.49 495 495 0 0 1-66.254 2.605L55.78 151.12l3.609-39.373L40.842 93.2S63.035 82.42 58.98 52.915c-4.056-29.504 18.137-32.871 18.137-32.871l39.001 38.991 2.279-7.506-19.533-19.533 21.337-7.134L169.638 74.3a495 495 0 0 1-2.576 66.272" style="fill:#c71d1c;fill-opacity:1;stroke-width:.93014"/>
  <path fill="#f9f9f9" d="M40.842 82.8q5.804-.595 8.892-3.506a9.97 9.97 0 0 0 3.079-7.618q0-4.353-.93-15.961-1.089-10.883-1.089-17.412 0-8.576 5.023-13.422t13.236-4.837h8.064v11.97h-5.32q-3.86 0-5.739 1.759c-1.256 1.163-1.86 3.041-1.86 5.58q0 2.903.362 7.74.363 4.836.484 6.892 1.088 11.161 1.088 18.138a16.65 16.65 0 0 1-3.078 10.231q-3.098 4.204-9.47 5.525v.242q6.354 1.33 9.451 5.46a16.65 16.65 0 0 1 3.079 10.231q0 7.023-1.088 18.138-.121 2.046-.484 6.892t-.363 7.74q0 3.869 1.86 5.627t5.74 1.748h5.338v11.971h-8.101q-8.223 0-13.236-4.837t-4.986-13.394q0-6.51 1.089-17.412.93-11.608.93-15.961a9.97 9.97 0 0 0-3.079-7.618q-3.079-2.902-8.892-3.507Zm85.424 13.906a9.97 9.97 0 0 0-3.079 7.618q0 4.353.93 15.961 1.089 10.883 1.089 17.412 0 8.586-5.023 13.422t-13.236 4.837h-8.064v-11.97h5.32q3.86 0 5.739-1.75 1.879-1.748 1.86-5.627 0-2.902-.362-7.739c-.242-3.227-.41-5.525-.484-6.892q-1.088-11.162-1.088-18.138a16.65 16.65 0 0 1 3.078-10.231q3.08-4.111 9.497-5.442v-.241q-6.418-1.33-9.497-5.442a16.65 16.65 0 0 1-3.078-10.231q0-7.023 1.088-18.138c.074-1.367.242-3.665.484-6.892.241-3.228.362-5.804.362-7.74 0-2.576-.623-4.454-1.86-5.58-1.237-1.125-3.162-1.758-5.739-1.758h-5.32V20.044h8.101q8.223 0 13.236 4.837t4.986 13.422q0 6.51-1.089 17.412-.976 11.608-.93 15.961a9.97 9.97 0 0 0 3.079 7.618q3.079 2.902 8.892 3.507v10.398q-5.804.596-8.892 3.507"/>
</svg>
