<?xml version="1.0" encoding="UTF-8" standalone="no"?>
<svg
   version="1.1"
   width="512"
   height="512"
   x="0"
   y="0"
   viewBox="0 0 176 176"
   style="enable-background:new 0 0 512 512"
   xml:space="preserve"
   class=""
   id="svg25"
   sodipodi:docname="special-character.svg"
   inkscape:version="1.1.2 (0a00cf5339, 2022-02-04)"
   xmlns:inkscape="http://www.inkscape.org/namespaces/inkscape"
   xmlns:sodipodi="http://sodipodi.sourceforge.net/DTD/sodipodi-0.dtd"
   xmlns="http://www.w3.org/2000/svg"
   xmlns:svg="http://www.w3.org/2000/svg"><defs
     id="defs29"><linearGradient
       id="a"
       x1="60.959999"
       x2="159.32001"
       y1="60.959999"
       y2="159.32001"
       gradientUnits="userSpaceOnUse"><stop
         stop-opacity="1"
         stop-color="#8bc34a"
         offset="0"
         id="stop2" /><stop
         stop-opacity="1"
         stop-color="#8bc34a"
         offset="0.09845559845559845"
         id="stop4" /><stop
         stop-opacity="1"
         stop-color="#8bc34a"
         offset="0.24517374517374518"
         id="stop6" /><stop
         stop-opacity="1"
         stop-color="#8bc34a"
         offset="0.750965250965251"
         id="stop8" /></linearGradient></defs><sodipodi:namedview
     id="namedview27"
     pagecolor="#505050"
     bordercolor="#eeeeee"
     borderopacity="1"
     inkscape:pageshadow="0"
     inkscape:pageopacity="0"
     inkscape:pagecheckerboard="0"
     showgrid="false"
     inkscape:zoom="0.82421875"
     inkscape:cx="245.08057"
     inkscape:cy="397.34597"
     inkscape:window-width="1850"
     inkscape:window-height="1016"
     inkscape:window-x="70"
     inkscape:window-y="27"
     inkscape:window-maximized="1"
     inkscape:current-layer="svg25" /><path
     fill="#b8e583"
     d="m 140.57149,167.06186 a 495.38303,495.38303 0 0 1 -105.105773,0 29.829576,29.829576 0 0 1 -26.5275799,-26.49037 495.38303,495.38303 0 0 1 0,-105.105773 29.829576,29.829576 0 0 1 26.4903749,-26.5275799 495.38303,495.38303 0 0 1 105.105768,0 29.829576,29.829576 0 0 1 26.52758,26.4903749 495.38303,495.38303 0 0 1 0,105.105768 29.829576,29.829576 0 0 1 -26.49037,26.52758 z"
     opacity="1"
     data-original="#0056ff"
     class=""
     id="path11"
     style="fill:#e53935;fill-opacity:1;stroke-width:0.93014" /><path
     fill="url(#a)"
     d="m 167.06186,140.57149 a 29.829576,29.829576 0 0 1 -26.49037,26.49037 494.58311,494.58311 0 0 1 -66.253843,2.60439 L 55.779966,151.11927 59.388907,111.74646 40.841924,93.19948 c 0,0 22.19313,-10.780317 18.137722,-40.284344 C 54.924237,23.411109 77.117367,20.044003 77.117367,20.044003 l 39.000753,38.991451 2.27884,-7.506226 -19.53293,-19.532931 21.3374,-7.134171 49.43692,49.436918 a 494.58311,494.58311 0 0 1 -2.57649,66.272446 z"
     opacity="1"
     data-original="url(#a)"
     class=""
     id="path13"
     style="fill:#c71d1c;fill-opacity:1;stroke-width:0.93014" /><g
     fill="#f9f9f9"
     id="g17"
     transform="matrix(0.93013956,0,0,0.93013956,6.1477184,6.1477184)"><path
       d="m 37.3,82.41 q 6.24,-0.64 9.56,-3.77 a 10.72,10.72 0 0 0 3.31,-8.19 q 0,-4.68 -1,-17.16 Q 48,41.59 48,34.57 q 0,-9.22 5.4,-14.43 5.4,-5.21 14.23,-5.2 h 8.67 v 12.87 h -5.72 q -4.15,0 -6.17,1.89 c -1.35,1.25 -2,3.27 -2,6 q 0,3.12 0.39,8.32 0.39,5.2 0.52,7.41 1.17,12 1.17,19.5 a 17.9,17.9 0 0 1 -3.31,11 Q 57.85,86.45 51,87.87 v 0.26 q 6.83,1.43 10.16,5.87 a 17.9,17.9 0 0 1 3.31,11 q 0,7.55 -1.17,19.5 -0.13,2.2 -0.52,7.41 -0.39,5.21 -0.39,8.32 0,4.16 2,6.05 2,1.89 6.17,1.88 h 5.74 v 12.87 h -8.71 q -8.84,0 -14.23,-5.2 -5.39,-5.2 -5.36,-14.4 0,-7 1.17,-18.72 1,-12.48 1,-17.16 A 10.72,10.72 0 0 0 46.86,97.36 Q 43.55,94.24 37.3,93.59 Z m 91.84,14.95 a 10.72,10.72 0 0 0 -3.31,8.19 q 0,4.68 1,17.16 1.17,11.7 1.17,18.72 0,9.23 -5.4,14.43 -5.4,5.2 -14.23,5.2 H 99.7 v -12.87 h 5.72 q 4.15,0 6.17,-1.88 2.02,-1.88 2,-6.05 0,-3.12 -0.39,-8.32 c -0.26,-3.47 -0.44,-5.94 -0.52,-7.41 q -1.17,-12 -1.17,-19.5 a 17.9,17.9 0 0 1 3.31,-11 q 3.31,-4.42 10.21,-5.85 v -0.26 q -6.9,-1.43 -10.21,-5.85 a 17.9,17.9 0 0 1 -3.31,-11 q 0,-7.55 1.17,-19.5 c 0.08,-1.47 0.26,-3.94 0.52,-7.41 0.26,-3.47 0.39,-6.24 0.39,-8.32 0,-2.77 -0.67,-4.79 -2,-6 -1.33,-1.21 -3.4,-1.89 -6.17,-1.89 H 99.7 V 14.94 h 8.71 q 8.84,0 14.23,5.2 5.39,5.2 5.36,14.43 0,7 -1.17,18.72 -1.05,12.48 -1,17.16 a 10.72,10.72 0 0 0 3.31,8.19 q 3.31,3.12 9.56,3.77 v 11.18 q -6.24,0.64 -9.56,3.77 z"
       fill="#f9f9f9"
       opacity="1"
       data-original="#f9f9f9"
       class=""
       id="path15" /></g></svg>
