<svg xmlns="http://www.w3.org/2000/svg" xml:space="preserve" width="512" height="512" viewBox="0 0 511.987 511">
  <path fill="#ffc107" d="M479.845 193.188c-8.66-21.331-32.38-16.112-50.383-19.15l-100.085-9.089c-17.745-41.083-34.848-82.469-52.997-123.36-10.41-18.593-40.13-12.447-44.307 7.76L182.674 164.95l-129.9 11.793c-28.62 3.238-26.127 37.728-6.077 48.427l90.677 79.522c-9.742 43.697-20.17 87.265-29.477 131.044-2.508 21.145 25.15 33.635 40.376 19.758l107.752-64.4c38.426 22.78 76.529 46.144 115.157 68.555 19.337 8.959 39.79-13.497 31.32-32.298q-13.92-61.329-27.844-122.659c33.487-29.578 67.422-58.682 100.627-88.56 5.368-6.181 7.156-15.18 4.56-22.944" style="stroke-width:.878909"/>
</svg>
