<svg xmlns="http://www.w3.org/2000/svg" width="512" height="512" viewBox="0 0 32 32">
  <path fill="#0381fd" d="M2 6c-.105-2.859 2.736-4.234 5.188-4H26c2.39-.076 4.278 2.246 4 4.554V26c.105 2.859-2.736 4.234-5.188 4H6c-2.859.105-4.234-2.736-4-5.188z" style="mix-blend-mode:normal;fill:#0381fd;fill-opacity:1;stroke:none;stroke-linejoin:round;stroke-opacity:1;paint-order:markers fill stroke"/>
  <path fill="#fff" d="M16.482 7.322c-.69-1.69-1.756.09-1.442 1.109v7.88c.461-.516 1.074-.968 1.442-1.522v-3.141c.653-.058 1.36.159 1.952-.211.738-1.314-.956-1.286-1.778-1.231-.397-.083-.066-.895-.174-1.267zm8.416 5.283c-1.686-1.803-4.148-.76-5.464.84l-5.952 5.952c-.943 1.15-1.068 2.692-1.538 4.064-.145.73-.568 1.431-.445 2.188.572.798 1.485.121 2.224.001 1.268-.4 2.59-.648 3.809-1.184 1.362-1.092 2.504-2.436 3.769-3.638 1.295-1.323 2.648-2.591 3.903-3.95.973-1.253.836-3.171-.306-4.273m-3.605 1.02c2.235-1.913 4.192 1.797 2.082 3.089-2.144 2.133-4.267 4.288-6.424 6.407-1.08.532-2.31.715-3.456 1.094-.591.25.047-.728.036-1.059.374-1.13.467-2.46 1.475-3.244zm-14.17 1.058c.886 1.368 2.734-.325 3.732-.862 1.853-1.378 2.932-3.763 2.686-6.058-.446-.715-1.385-.351-2.09-.441-1.299.034-2.612-.07-3.901.057-1.19.874.333 1.64 1.23 1.385h3.34c-.153 2.44-2.099 4.51-4.441 5.061-.379.074-.65.48-.556.858" style="stroke-width:.720969"/>
</svg>
