<?xml version="1.0" standalone="no"?><!DOCTYPE svg PUBLIC "-//W3C//DTD SVG 1.1//EN" "http://www.w3.org/Graphics/SVG/1.1/DTD/svg11.dtd" ><svg xmlns="http://www.w3.org/2000/svg"><metadata></metadata><defs>
<font id="Ubuntu-Regular" >
<font-face font-family="Ubuntu" font-stretch="normal" units-per-em="1000" weight="400" panose-1="0,0,0,0,0,0,0,0,0,0" ascent="932" descent="-189" x-height="518" underline-thickness="79" underline-position="-138" unicode-range="U+00000032-00064258" bbox="-211,-195,1266,958" />
<missing-glyph horiz-adv-x="500" d="M50 0L50 750L450 750L450 0ZM100 50L400 50L400 700L100 700Z" />
<glyph glyph-name="space" unicode="&#x20;" horiz-adv-x="229" d="" />
<glyph glyph-name="exclam" unicode="&#x21;" horiz-adv-x="275" d="M118 214Q114 248 110 281Q106 314 103.5 349Q101 384 99.5 421.5Q98 459 98 502L98 693L178 693L178 502Q178 459 176.5 421.5Q175 384 172 349Q169 314 165.5 281Q162 248 158 214ZM138 -12Q111 -12 94.5 5Q78 22 78 47Q78 72 94.5 89Q111 106 138 106Q164 106 180.5 89Q197 72 197 47Q197 22 180.5 5Q164 -12 138 -12Z" />
<glyph glyph-name="quotedbl" unicode="&#x22;" horiz-adv-x="400" d="M100 512Q94 547 89.5 581.5Q85 616 82.5 650.5Q80 685 80 719L80 760L161 760L161 718Q161 685 158.5 650.5Q156 616 151 581.5Q146 547 140 512ZM260 512Q254 547 249.5 581.5Q245 616 242.5 650.5Q240 685 240 719L240 760L321 760L321 718Q321 685 318.5 650.5Q316 616 311 581.5Q306 547 300 512Z" />
<glyph glyph-name="numbersign" unicode="&#x23;" horiz-adv-x="658" d="M105 0L141 187L48 187L48 248L153 248L190 445L48 445L48 505L202 505L238 693L307 693L271 505L448 505L484 693L553 693L517 505L610 505L610 445L505 445L467 248L610 248L610 187L456 187L420 0L351 0L387 187L210 187L174 0ZM221 248L399 248L437 445L260 445Z" />
<glyph glyph-name="dollar" unicode="&#x24;" horiz-adv-x="564" d="M251 -109L251 19Q183 21 137.5 34.5Q92 48 70 61L92 124Q120 110 160.5 96.5Q201 83 272 83Q349 83 380.5 111.5Q412 140 412 181Q412 212 400 233.5Q388 255 365.5 270Q343 285 312.5 298Q282 311 244 324Q207 338 170.5 357Q134 376 109.5 407.5Q85 439 85 489Q85 562 125.5 604Q166 646 251 658L251 776L318 776L318 661Q365 660 401 651.5Q437 643 461 633L442 570Q423 578 389 587.5Q355 597 300 597Q231 597 197.5 572Q164 547 164 499Q164 464 181 443Q198 422 229.5 407.5Q261 393 305 377Q355 359 397 336.5Q439 314 465 279Q491 244 491 186Q491 141 470.5 105.5Q450 70 411.5 48.5Q373 27 318 22L318 -109Z" />
<glyph glyph-name="percent" unicode="&#x25;" horiz-adv-x="841" d="M186 0L580 693L655 693L260 0ZM209 347Q168 347 133 367.5Q98 388 77 428Q56 468 56 527Q56 586 77 626.5Q98 667 133 687.5Q168 708 209 708Q251 708 286 687.5Q321 667 341.5 626.5Q362 586 362 527Q362 468 341.5 428Q321 388 286 367.5Q251 347 209 347ZM209 405Q253 405 275 438.5Q297 472 297 527Q297 583 275 616.5Q253 650 209 650Q166 650 143.5 616.5Q121 583 121 527Q121 472 143.5 438.5Q166 405 209 405ZM632 -15Q590 -15 555 5.5Q520 26 499 66.5Q478 107 478 166Q478 225 499 265Q520 305 555 325.5Q590 346 632 346Q674 346 708.5 325.5Q743 305 764 265Q785 225 785 166Q785 107 764 66.5Q743 26 708.5 5.5Q674 -15 632 -15ZM632 43Q675 43 697 76.5Q719 110 719 166Q719 222 697 255Q675 288 632 288Q589 288 566.5 255Q544 222 544 166Q544 110 566.5 76.5Q589 43 632 43Z" />
<glyph glyph-name="ampersand" unicode="&#x26;" horiz-adv-x="654" d="M268 -9Q206 -9 164 8.5Q122 26 96.5 54Q71 82 59.5 115Q48 148 48 180Q48 233 69 271.5Q90 310 124.5 337.5Q159 365 199 384Q158 423 140 461.5Q122 500 122 540Q122 620 170.5 664Q219 708 294 708Q345 708 381.5 688.5Q418 669 437 635.5Q456 602 456 560Q456 511 435 475.5Q414 440 380 413.5Q346 387 308 367L486 186Q506 220 518.5 260Q531 300 535 340L599 332Q595 285 577.5 234.5Q560 184 531 140Q568 103 597.5 67.5Q627 32 644 0L562 0Q549 22 530 44Q511 66 489 88Q449 45 393 18Q337 -9 268 -9ZM269 55Q325 55 369 76Q413 97 446 132L241 341Q215 329 188.5 309.5Q162 290 144 259.5Q126 229 126 181Q126 152 140 123Q154 94 185.5 74.5Q217 55 269 55ZM268 409Q303 426 329.5 446Q356 466 371.5 493Q387 520 387 558Q387 583 375.5 603Q364 623 343.5 634.5Q323 646 295 646Q247 646 221 619.5Q195 593 195 547Q195 525 202 503Q209 481 225 458Q241 435 268 409Z" />
<glyph glyph-name="quotesingle" unicode="&#x27;" horiz-adv-x="241" d="M100 512Q94 547 89.5 581.5Q85 616 82.5 650.5Q80 685 80 719L80 760L161 760L161 718Q161 685 158.5 650.5Q156 616 151 581.5Q146 547 140 512Z" />
<glyph glyph-name="parenleft" unicode="&#x28;" horiz-adv-x="315" d="M253 -185Q202 -121 163.5 -45.5Q125 30 103.5 117Q82 204 82 299Q82 395 103.5 481.5Q125 568 163.5 644Q202 720 253 783L307 747Q256 683 223 613Q190 543 173.5 465Q157 387 157 299Q157 167 194 57Q231 -53 307 -149Z" />
<glyph glyph-name="parenright" unicode="&#x29;" horiz-adv-x="315" d="M62 -185L9 -149Q60 -85 93 -15Q126 55 142 133Q158 211 158 299Q158 387 142 465Q126 543 93 613Q60 683 9 747L62 783Q113 720 152 644Q191 568 212.5 481.5Q234 395 234 299Q234 204 212.5 117Q191 30 152 -45.5Q113 -121 62 -185Z" />
<glyph glyph-name="asterisk" unicode="&#x2a;" horiz-adv-x="475" d="M153 314L91 359Q112 386 130 406Q148 426 167.5 445.5Q187 465 211 487Q187 490 166 493Q145 496 125 499Q105 502 84 507.5Q63 513 39 520L62 592Q94 582 119 571Q144 560 168 547.5Q192 535 221 520Q215 554 211 576Q207 598 205 615Q203 632 202 650Q201 668 200 693L275 693Q274 660 272.5 638Q271 616 267.5 590.5Q264 565 255 520Q283 535 307 547Q331 559 356.5 570.5Q382 582 413 592L436 520Q412 513 391 507.5Q370 502 350.5 499Q331 496 310 493Q289 490 265 487Q289 465 308 445.5Q327 426 345.5 406Q364 386 384 359L322 314Q303 341 289 365Q275 389 263.5 414Q252 439 238 467Q224 439 212 414Q200 389 186 365Q172 341 153 314Z" />
<glyph glyph-name="plus" unicode="&#x2b;" horiz-adv-x="564" d="M249 44L249 258L55 258L55 322L249 322L249 535L316 535L316 322L509 322L509 258L316 258L316 44Z" />
<glyph glyph-name="comma" unicode="&#x2c;" horiz-adv-x="246" d="M101 -159L45 -137Q68 -90 77.5 -40.5Q87 9 87 59Q87 67 86.5 74Q86 81 86 88Q86 95 85 101L168 101Q169 91 169 83.5Q169 76 169 71Q169 10 151 -49.5Q133 -109 101 -159Z" />
<glyph glyph-name="hyphen" unicode="&#x2d;" horiz-adv-x="289" d="M28 255L28 326L261 326L261 255Z" />
<glyph glyph-name="period" unicode="&#x2e;" horiz-adv-x="246" d="M123 -12Q96 -12 80 5Q64 22 64 47Q64 72 80 89Q96 106 123 106Q150 106 166 89Q182 72 182 47Q182 22 166 5Q150 -12 123 -12Z" />
<glyph glyph-name="slash" unicode="&#x2f;" horiz-adv-x="368" d="M-23 -185L317 783L391 783L53 -185Z" />
<glyph glyph-name="zero" unicode="&#x30;" horiz-adv-x="564" d="M282 -15Q211 -15 160.5 27Q110 69 83 149.5Q56 230 56 346Q56 463 82.5 543.5Q109 624 160 666Q211 708 282 708Q389 708 448.5 614.5Q508 521 508 346Q508 172 448.5 78.5Q389 -15 282 -15ZM282 52Q338 52 369.5 93Q401 134 414.5 201Q428 268 428 346Q428 425 414.5 492Q401 559 369.5 600Q338 641 282 641Q227 641 195 600Q163 559 149.5 492Q136 425 136 346Q136 268 149.5 201Q163 134 195 93Q227 52 282 52Z" />
<glyph glyph-name="one" unicode="&#x31;" horiz-adv-x="564" d="M284 0L284 583Q270 568 244 551Q218 534 187 518.5Q156 503 125 493L103 551Q163 572 211.5 605Q260 638 306 693L359 693L359 0Z" />
<glyph glyph-name="two" unicode="&#x32;" horiz-adv-x="564" d="M78 0Q78 3 77.5 10Q77 17 77 27Q77 90 105.5 141.5Q134 193 176 236.5Q218 280 258 318Q292 350 319.5 379.5Q347 409 364 442Q381 475 381 516Q381 583 345 612Q309 641 254 641Q213 641 182.5 628.5Q152 616 132.5 600.5Q113 585 104 576L65 627Q76 639 101.5 658.5Q127 678 166 693Q205 708 254 708Q357 708 409 658Q461 608 461 520Q461 468 437 423.5Q413 379 374.5 338.5Q336 298 294 258Q262 227 231 193.5Q200 160 180.5 127.5Q161 95 161 65L484 65L484 0Z" />
<glyph glyph-name="three" unicode="&#x33;" horiz-adv-x="564" d="M232 -15Q190 -15 155 -8Q120 -1 96 8Q72 17 62 22L81 88Q95 80 135.5 66.5Q176 53 234 53Q295 53 333 70Q371 87 388.5 118.5Q406 150 406 193Q406 249 378 281Q350 313 304.5 326Q259 339 205 339L190 339L190 400L218 400Q253 400 289 410.5Q325 421 349.5 448Q374 475 374 525Q374 568 356 593Q338 618 308.5 629.5Q279 641 244 641Q192 641 161 626Q130 611 110 597L79 655Q101 670 143.5 689Q186 708 247 708Q318 708 363 685Q408 662 430 622Q452 582 452 530Q452 472 420.5 433Q389 394 340 377Q377 367 410 344.5Q443 322 464 284Q485 246 485 191Q485 133 457.5 86Q430 39 374 12Q318 -15 232 -15Z" />
<glyph glyph-name="four" unicode="&#x34;" horiz-adv-x="564" d="M359 0L359 184L47 184L47 232Q65 279 97.5 338Q130 397 171.5 460.5Q213 524 260 584Q307 644 356 693L432 693L432 245L517 245L517 184L432 184L432 0ZM122 245L359 245L359 608Q326 573 292 528.5Q258 484 226 435.5Q194 387 167.5 338Q141 289 122 245Z" />
<glyph glyph-name="five" unicode="&#x35;" horiz-adv-x="564" d="M239 -15Q197 -15 162 -8Q127 -1 102.5 8Q78 17 68 22L86 87Q100 80 141.5 66.5Q183 53 238 53Q303 53 339.5 71.5Q376 90 391.5 122Q407 154 407 193Q407 245 382.5 282Q358 319 295.5 339Q233 359 118 359Q124 409 128 452.5Q132 496 135 535.5Q138 575 140 614Q142 653 143 693L462 693L462 628L207 628Q206 609 204.5 581Q203 553 200.5 522.5Q198 492 195.5 465Q193 438 191 421Q344 417 415 356.5Q486 296 486 195Q486 136 459.5 88Q433 40 378 12.5Q323 -15 239 -15Z" />
<glyph glyph-name="six" unicode="&#x36;" horiz-adv-x="564" d="M298 -15Q225 -15 174.5 20Q124 55 98 120Q72 185 72 276Q72 377 97.5 454Q123 531 173 583.5Q223 636 295 664.5Q367 693 460 696L465 634Q386 629 322 604.5Q258 580 216.5 527.5Q175 475 160 386Q186 399 222.5 409Q259 419 299 419Q375 419 420.5 389.5Q466 360 486.5 311.5Q507 263 507 207Q507 168 494.5 129Q482 90 456.5 57Q431 24 391.5 4.5Q352 -15 298 -15ZM297 50Q345 50 373.5 72Q402 94 415 129.5Q428 165 428 205Q428 282 393.5 318.5Q359 355 292 355Q249 355 215.5 345.5Q182 336 153 323Q152 307 152 297.5Q152 288 152 275Q152 214 164.5 163Q177 112 208.5 81Q240 50 297 50Z" />
<glyph glyph-name="seven" unicode="&#x37;" horiz-adv-x="564" d="M171 0Q176 66 192 137.5Q208 209 233 280.5Q258 352 288.5 417.5Q319 483 351 536.5Q383 590 414 625L66 625L66 693L494 693L494 629Q460 589 420.5 521.5Q381 454 344.5 368.5Q308 283 282 188.5Q256 94 250 0Z" />
<glyph glyph-name="eight" unicode="&#x38;" horiz-adv-x="564" d="M282 -15Q231 -15 190.5 -0.5Q150 14 121.5 40Q93 66 78 100.5Q63 135 63 175Q63 243 99 287.5Q135 332 181 358Q122 389 100 429Q78 469 78 518Q78 575 104 617.5Q130 660 176 684Q222 708 282 708Q353 708 398 681.5Q443 655 464.5 614Q486 573 486 528Q486 486 469.5 452Q453 418 428 393Q403 368 377 352Q446 321 474 276.5Q502 232 502 181Q502 123 475 79Q448 35 399 10Q350 -15 282 -15ZM282 48Q354 48 389 85.5Q424 123 424 175Q424 216 408.5 242Q393 268 367 284Q341 300 308.5 311Q276 322 243 332Q194 309 167.5 270Q141 231 141 175Q141 141 156.5 112Q172 83 203 65.5Q234 48 282 48ZM313 374Q343 391 364.5 412.5Q386 434 397.5 462.5Q409 491 409 528Q409 557 396 584Q383 611 355.5 628Q328 645 282 645Q240 645 211.5 628.5Q183 612 169 584.5Q155 557 155 525Q155 489 167 462Q179 435 213 413.5Q247 392 313 374Z" />
<glyph glyph-name="nine" unicode="&#x39;" horiz-adv-x="564" d="M97 -2L94 60Q181 60 247 85Q313 110 354 165.5Q395 221 407 310Q381 297 344.5 286.5Q308 276 268 276Q192 276 146 305.5Q100 335 79.5 383Q59 431 59 487Q59 526 71.5 565Q84 604 109.5 636.5Q135 669 174.5 688.5Q214 708 268 708Q342 708 392.5 673.5Q443 639 468.5 573.5Q494 508 494 416Q494 313 468.5 235Q443 157 393 104Q343 51 269 24.5Q195 -2 97 -2ZM275 340Q318 340 351.5 350Q385 360 413 373Q414 384 414.5 394.5Q415 405 415 418Q415 479 402.5 530.5Q390 582 358.5 613Q327 644 269 644Q222 644 193 622Q164 600 151 565Q138 530 138 490Q138 414 173 377Q208 340 275 340Z" />
<glyph glyph-name="colon" unicode="&#x3a;" horiz-adv-x="246" d="M123 -12Q96 -12 80 5Q64 22 64 47Q64 72 80 89Q96 106 123 106Q150 106 166 89Q182 72 182 47Q182 22 166 5Q150 -12 123 -12ZM123 400Q96 400 80 417Q64 434 64 459Q64 484 80 501Q96 518 123 518Q150 518 166 501Q182 484 182 459Q182 434 166 417Q150 400 123 400Z" />
<glyph glyph-name="semicolon" unicode="&#x3b;" horiz-adv-x="246" d="M101 -159L45 -137Q68 -90 77.5 -40.5Q87 9 87 59Q87 67 86.5 74Q86 81 86 88Q86 95 85 101L168 101Q169 91 169 83.5Q169 76 169 71Q169 10 151 -49.5Q133 -109 101 -159ZM123 400Q96 400 80 417Q64 434 64 459Q64 484 80 501Q96 518 123 518Q150 518 166 501Q182 484 182 459Q182 434 166 417Q150 400 123 400Z" />
<glyph glyph-name="less" unicode="&#x3c;" horiz-adv-x="564" d="M487 73L54 256L54 322L487 506L509 443L139 289L509 135Z" />
<glyph glyph-name="equal" unicode="&#x3d;" horiz-adv-x="564" d="M55 364L55 427L509 427L509 364ZM55 153L55 216L509 216L509 153Z" />
<glyph glyph-name="greater" unicode="&#x3e;" horiz-adv-x="564" d="M76 73L54 135L424 289L54 443L76 506L509 322L509 256Z" />
<glyph glyph-name="question" unicode="&#x3f;" horiz-adv-x="389" d="M125 214Q123 224 122 235.5Q121 247 121 259Q121 300 137 330.5Q153 361 177 386.5Q201 412 225 436.5Q249 461 265 488.5Q281 516 281 551Q281 604 247 623Q213 642 166 642Q132 642 101.5 634.5Q71 627 42 611L20 672Q43 686 84 697Q125 708 173 708Q227 708 263.5 694.5Q300 681 321.5 658.5Q343 636 352 609Q361 582 361 555Q361 512 343 480Q325 448 299 420.5Q273 393 247 366.5Q221 340 203 310Q185 280 185 241Q185 231 185 225Q185 219 186 214ZM160 -12Q134 -12 117.5 5Q101 22 101 47Q101 72 117.5 89Q134 106 160 106Q187 106 203.5 89Q220 72 220 47Q220 22 203.5 5Q187 -12 160 -12Z" />
<glyph glyph-name="at" unicode="&#x40;" horiz-adv-x="944" d="M497 -152Q409 -152 331 -126Q253 -100 194.5 -47Q136 6 102.5 87.5Q69 169 69 280Q69 388 101.5 468Q134 548 191.5 601Q249 654 323 680.5Q397 707 481 707Q562 707 633.5 680.5Q705 654 759 603.5Q813 553 843.5 482.5Q874 412 874 323Q874 235 849.5 175.5Q825 116 783.5 85.5Q742 55 689 55Q658 55 637 65.5Q616 76 606 89Q587 77 556.5 65.5Q526 54 489 54Q428 54 379.5 78.5Q331 103 303.5 153Q276 203 276 279Q276 343 301.5 394Q327 445 376.5 475.5Q426 506 496 506Q545 506 585 497.5Q625 489 647 479L647 184Q647 147 660 131Q673 115 695 115Q727 115 748 135Q769 155 781.5 187Q794 219 799 255.5Q804 292 804 326Q804 391 782 448.5Q760 506 718 550.5Q676 595 616.5 620Q557 645 481 645Q380 645 303 602Q226 559 183 477.5Q140 396 140 280Q140 158 187 75.5Q234 -7 315 -48.5Q396 -90 497 -90Q554 -90 589 -84Q624 -78 637 -74L644 -134Q627 -139 585.5 -145.5Q544 -152 497 -152ZM488 114Q520 114 540 119.5Q560 125 582 137Q578 147 576.5 163Q575 179 575 189L575 438Q567 440 549.5 443Q532 446 503 446Q428 446 389.5 399Q351 352 351 280Q351 224 369 187Q387 150 418 132Q449 114 488 114Z" />
<glyph glyph-name="A" unicode="&#x41;" horiz-adv-x="650" d="M10 0Q64 145 109 264Q154 383 197.5 487.5Q241 592 290 693L360 693Q396 617 429.5 539.5Q463 462 496 379Q529 296 564.5 202.5Q600 109 640 0L555 0Q537 50 520 95.5Q503 141 488 185L158 185Q142 141 125 95.5Q108 50 91 0ZM181 251L465 251Q446 301 428 348Q410 395 392.5 439Q375 483 357.5 524.5Q340 566 322 606Q305 566 287.5 524.5Q270 483 252.5 439Q235 395 217 348Q199 301 181 251Z" />
<glyph glyph-name="B" unicode="&#x42;" horiz-adv-x="635" d="M262 -6Q238 -6 205.5 -3.5Q173 -1 142 3Q111 7 89 13L89 680Q114 687 145.5 691Q177 695 208.5 697Q240 699 266 699Q343 699 406.5 682.5Q470 666 508.5 626.5Q547 587 547 518Q547 464 519.5 425Q492 386 445 370Q505 354 543 314.5Q581 275 581 197Q581 97 502.5 45.5Q424 -6 262 -6ZM270 60Q330 60 382.5 71Q435 82 467 112Q499 142 499 198Q499 275 447 302Q395 329 305 329L166 329L166 66Q182 64 211 62Q240 60 270 60ZM166 394L292 394Q342 394 381.5 404Q421 414 444 440.5Q467 467 467 515Q467 580 412.5 606.5Q358 633 269 633Q235 633 209 631.5Q183 630 166 627Z" />
<glyph glyph-name="C" unicode="&#x43;" horiz-adv-x="613" d="M380 -15Q289 -15 216.5 27Q144 69 102.5 149.5Q61 230 61 347Q61 434 87 501.5Q113 569 158.5 615Q204 661 262.5 684.5Q321 708 385 708Q438 708 477.5 699.5Q517 691 543 680Q569 669 581 661L556 595Q531 610 491.5 624Q452 638 396 638Q314 638 257.5 601.5Q201 565 172 499.5Q143 434 143 346Q143 258 171 192.5Q199 127 253.5 91Q308 55 387 55Q453 55 497 67.5Q541 80 565 93L586 27Q570 17 516.5 1Q463 -15 380 -15Z" />
<glyph glyph-name="D" unicode="&#x44;" horiz-adv-x="706" d="M262 -6Q220 -6 173 -2Q126 2 89 12L89 680Q126 690 173.5 694.5Q221 699 263 699Q376 699 462 660.5Q548 622 596.5 544Q645 466 645 347Q645 229 596.5 150.5Q548 72 462 33Q376 -6 262 -6ZM270 61Q416 61 489.5 137.5Q563 214 563 347Q563 480 490 556Q417 632 271 632Q222 632 198 629Q174 626 167 625L167 68Q174 67 197 64Q220 61 270 61Z" />
<glyph glyph-name="E" unicode="&#x45;" horiz-adv-x="561" d="M89 0L89 693L497 693L497 626L167 626L167 397L461 397L461 331L167 331L167 67L522 67L522 0Z" />
<glyph glyph-name="F" unicode="&#x46;" horiz-adv-x="526" d="M89 0L89 693L492 693L492 626L167 626L167 393L455 393L455 326L167 326L167 0Z" />
<glyph glyph-name="G" unicode="&#x47;" horiz-adv-x="663" d="M381 -14Q289 -14 216.5 28Q144 70 102.5 150.5Q61 231 61 347Q61 463 105.5 543.5Q150 624 224.5 666Q299 708 389 708Q442 708 482 700Q522 692 550 681Q578 670 592 660L567 594Q539 614 491.5 626.5Q444 639 389 639Q319 639 263.5 606Q208 573 175.5 508Q143 443 143 347Q143 258 171 192Q199 126 254.5 90Q310 54 392 54Q440 54 472.5 59.5Q505 65 517 69L517 332L595 332L595 19Q576 11 519.5 -1.5Q463 -14 381 -14Z" />
<glyph glyph-name="H" unicode="&#x48;" horiz-adv-x="697" d="M89 0L89 693L167 693L167 396L530 396L530 693L608 693L608 0L530 0L530 329L167 329L167 0Z" />
<glyph glyph-name="I" unicode="&#x49;" horiz-adv-x="256" d="M89 0L89 693L167 693L167 0Z" />
<glyph glyph-name="J" unicode="&#x4a;" horiz-adv-x="492" d="M191 -15Q120 -15 73 6.5Q26 28 8 44L43 106Q63 90 98 72Q133 54 184 54Q258 54 293.5 93.5Q329 133 329 227L329 693L407 693L407 220Q407 153 387.5 100Q368 47 321 16Q274 -15 191 -15Z" />
<glyph glyph-name="K" unicode="&#x4b;" horiz-adv-x="609" d="M89 0L89 693L167 693L167 377Q204 411 248.5 454Q293 497 337.5 541Q382 585 420 625Q458 665 483 693L576 693Q547 661 506.5 619.5Q466 578 421 532.5Q376 487 332 444.5Q288 402 251 368Q295 340 345.5 296Q396 252 445 200Q494 148 534.5 96Q575 44 599 0L510 0Q478 50 437 99Q396 148 350 193Q304 238 257.5 275Q211 312 167 337L167 0Z" />
<glyph glyph-name="L" unicode="&#x4c;" horiz-adv-x="509" d="M89 0L89 693L167 693L167 68L491 68L491 0Z" />
<glyph glyph-name="M" unicode="&#x4d;" horiz-adv-x="869" d="M72 0Q76 92 81 183Q86 274 92 361.5Q98 449 105 532.5Q112 616 121 693L191 693Q220 645 252.5 581.5Q285 518 318 448.5Q351 379 381.5 312Q412 245 436 191Q460 245 490.5 312Q521 379 554 448.5Q587 518 620 581.5Q653 645 681 693L747 693Q756 616 763.5 532.5Q771 449 776.5 361.5Q782 274 787.5 183Q793 92 797 0L719 0Q715 102 710.5 200.5Q706 299 700 391Q694 483 686 565Q676 546 654.5 502.5Q633 459 606 402.5Q579 346 551.5 287Q524 228 501.5 178Q479 128 467 99L400 99Q388 128 365.5 178Q343 228 315.5 287Q288 346 261 402.5Q234 459 212.5 502.5Q191 546 181 565Q173 483 167 391Q161 299 156.5 200.5Q152 102 148 0Z" />
<glyph glyph-name="N" unicode="&#x4e;" horiz-adv-x="714" d="M89 0L89 693L151 693Q191 650 235 595Q279 540 323.5 480.5Q368 421 410 361Q452 301 487.5 246Q523 191 548 147L548 693L625 693L625 0L560 0Q537 42 501 99.5Q465 157 422 221.5Q379 286 333.5 350.5Q288 415 244.5 471.5Q201 528 166 569L166 0Z" />
<glyph glyph-name="O" unicode="&#x4f;" horiz-adv-x="776" d="M388 -15Q300 -15 225.5 26Q151 67 106 147.5Q61 228 61 347Q61 436 87 503.5Q113 571 158.5 616.5Q204 662 263 685Q322 708 388 708Q477 708 551 667.5Q625 627 670 546.5Q715 466 715 347Q715 228 670 147.5Q625 67 551 26Q477 -15 388 -15ZM388 55Q463 55 518 90.5Q573 126 603 191.5Q633 257 633 347Q633 437 603 502.5Q573 568 518 603Q463 638 388 638Q313 638 258 603Q203 568 173 502.5Q143 437 143 347Q143 257 173 191.5Q203 126 258 90.5Q313 55 388 55Z" />
<glyph glyph-name="P" unicode="&#x50;" horiz-adv-x="598" d="M89 0L89 680Q127 690 176.5 694.5Q226 699 268 699Q415 699 488.5 642.5Q562 586 562 482Q562 403 525.5 355Q489 307 420.5 285.5Q352 264 256 264L167 264L167 0ZM167 331L249 331Q320 331 372 343.5Q424 356 452.5 389Q481 422 481 483Q481 542 451 574Q421 606 373 619Q325 632 271 632Q236 632 210.5 629.5Q185 627 167 625Z" />
<glyph glyph-name="Q" unicode="&#x51;" horiz-adv-x="776" d="M649 -185Q607 -179 562 -168Q517 -157 477 -138Q437 -119 408.5 -89Q380 -59 371 -14Q287 -10 216.5 31.5Q146 73 103.5 152.5Q61 232 61 347Q61 436 87 503.5Q113 571 158.5 616.5Q204 662 263 685Q322 708 388 708Q477 708 551 667.5Q625 627 670 546.5Q715 466 715 347Q715 242 679.5 167Q644 92 584 48Q524 4 450 -9Q456 -45 489.5 -67.5Q523 -90 570 -102.5Q617 -115 665 -122ZM388 55Q463 55 518 90.5Q573 126 603 191.5Q633 257 633 347Q633 437 603 502.5Q573 568 518 603Q463 638 388 638Q313 638 258 603Q203 568 173 502.5Q143 437 143 347Q143 257 173 191.5Q203 126 258 90.5Q313 55 388 55Z" />
<glyph glyph-name="R" unicode="&#x52;" horiz-adv-x="624" d="M89 0L89 680Q127 690 176 694.5Q225 699 266 699Q409 699 483.5 644.5Q558 590 558 484Q558 407 518 361Q478 315 411 295Q428 274 452.5 240.5Q477 207 504 166.5Q531 126 556.5 83Q582 40 600 0L515 0Q488 52 454.5 104.5Q421 157 389 203Q357 249 332 280Q318 279 303.5 278Q289 277 275 277L167 277L167 0ZM167 342L255 342Q318 342 368 351.5Q418 361 447.5 392Q477 423 477 485Q477 544 448.5 575.5Q420 607 373.5 619.5Q327 632 274 632Q239 632 212 629.5Q185 627 167 625Z" />
<glyph glyph-name="S" unicode="&#x53;" horiz-adv-x="524" d="M242 -15Q161 -15 107.5 3Q54 21 34 33L59 99Q80 87 126.5 70Q173 53 242 53Q321 53 364 81.5Q407 110 407 172Q407 220 383.5 247.5Q360 275 321.5 292.5Q283 310 237 328Q181 350 139.5 374.5Q98 399 75.5 434.5Q53 470 53 524Q53 584 80 625Q107 666 158 687Q209 708 279 708Q337 708 386.5 693.5Q436 679 463 662L437 597Q408 617 366.5 629Q325 641 278 641Q214 641 173 615Q132 589 132 530Q132 490 152 465Q172 440 207 423Q242 406 286 388Q343 366 388.5 341.5Q434 317 461 278.5Q488 240 488 175Q488 112 458 70Q428 28 373 6.5Q318 -15 242 -15Z" />
<glyph glyph-name="T" unicode="&#x54;" horiz-adv-x="556" d="M239 0L239 626L18 626L18 693L537 693L537 626L317 626L317 0Z" />
<glyph glyph-name="U" unicode="&#x55;" horiz-adv-x="683" d="M341 -15Q248 -15 192 21Q136 57 110.5 119Q85 181 85 258L85 693L163 693L163 267Q163 156 212.5 105.5Q262 55 341 55Q421 55 470.5 106Q520 157 520 267L520 693L598 693L598 258Q598 181 572.5 119Q547 57 491 21Q435 -15 341 -15Z" />
<glyph glyph-name="V" unicode="&#x56;" horiz-adv-x="635" d="M282 0Q250 71 219.5 142Q189 213 157.5 293.5Q126 374 90 471.5Q54 569 10 693L97 693Q126 608 153.5 529.5Q181 451 207.5 377.5Q234 304 262 233Q290 162 320 92Q350 161 377.5 231.5Q405 302 432 376Q459 450 486.5 529Q514 608 542 693L625 693Q582 569 546 471.5Q510 374 478.5 293.5Q447 213 416.5 142Q386 71 354 0Z" />
<glyph glyph-name="W" unicode="&#x57;" horiz-adv-x="924" d="M200 0Q178 60 159.5 122.5Q141 185 124 250.5Q107 316 92 386.5Q77 457 62.5 533Q48 609 34 693L115 693Q134 581 156 472.5Q178 364 201.5 267Q225 170 248 92Q269 146 291.5 205.5Q314 265 337.5 329Q361 393 384.5 463Q408 533 430 609L497 609Q527 508 558 417Q589 326 620.5 245Q652 164 681 92Q703 169 725.5 265.5Q748 362 770 471Q792 580 812 693L890 693Q875 609 860.5 533Q846 457 830.5 386.5Q815 316 798 250.5Q781 185 762.5 122.5Q744 60 723 0L642 0Q611 75 581 151Q551 227 521.5 310Q492 393 461 488Q431 393 401 310Q371 227 341 151Q311 75 280 0Z" />
<glyph glyph-name="X" unicode="&#x58;" horiz-adv-x="616" d="M25 0Q56 60 94 121Q132 182 174 243.5Q216 305 259 365L36 693L127 693L308 421L488 693L576 693L353 367Q398 305 440.5 242.5Q483 180 521 119.5Q559 59 588 0L501 0Q482 40 449 93.5Q416 147 378 203.5Q340 260 305 309Q280 274 251.5 232Q223 190 195.5 147.5Q168 105 145 67Q122 29 108 0Z" />
<glyph glyph-name="Y" unicode="&#x59;" horiz-adv-x="579" d="M251 0L251 282Q216 336 183.5 388.5Q151 441 121 492.5Q91 544 63 594Q35 644 9 693L100 693Q141 608 190 519Q239 430 292 350Q327 404 360.5 461.5Q394 519 425.5 577.5Q457 636 485 693L570 693Q543 645 515 594.5Q487 544 457.5 493Q428 442 396 389.5Q364 337 329 284L329 0Z" />
<glyph glyph-name="Z" unicode="&#x5a;" horiz-adv-x="566" d="M38 0L38 56Q64 107 101 168.5Q138 230 181 294.5Q224 359 268.5 421Q313 483 354 536Q395 589 428 626L56 626L56 693L517 693L517 626Q489 593 450 544Q411 495 367.5 436Q324 377 279.5 313Q235 249 195.5 186Q156 123 125 67L527 67L527 0Z" />
<glyph glyph-name="bracketleft" unicode="&#x5b;" horiz-adv-x="317" d="M99 -185L99 783L309 783L309 725L170 725L170 -127L309 -127L309 -185Z" />
<glyph glyph-name="backslash" unicode="&#x5c;" horiz-adv-x="368" d="M315 -185L-23 783L51 783L391 -185Z" />
<glyph glyph-name="bracketright" unicode="&#x5d;" horiz-adv-x="317" d="M8 -185L8 -127L147 -127L147 725L8 725L8 783L218 783L218 -185Z" />
<glyph glyph-name="asciicircum" unicode="&#x5e;" horiz-adv-x="564" d="M115 325L57 355L247 693L317 693L507 355L450 325L282 626Z" />
<glyph glyph-name="underscore" unicode="&#x5f;" horiz-adv-x="491" d="M-4 -185L-4 -121L496 -121L496 -185Z" />
<glyph glyph-name="grave" unicode="&#x60;" horiz-adv-x="366" d="M226 582L55 721L107 776L263 623Z" />
<glyph glyph-name="a" unicode="&#x61;" horiz-adv-x="514" d="M241 -11Q185 -11 141 5Q97 21 72 57Q47 93 47 152Q47 209 75 244.5Q103 280 152.5 296Q202 312 264 312Q292 312 323 307Q354 302 362 298L362 328Q362 362 353.5 393.5Q345 425 319 445Q293 465 240 465Q185 465 156 457Q127 449 113 444L103 508Q121 516 158 523Q195 530 245 530Q316 530 357.5 505Q399 480 417.5 436.5Q436 393 436 337L436 12Q415 7 361 -2Q307 -11 241 -11ZM252 53Q287 53 315 55.5Q343 58 362 62L362 236Q352 241 328 246Q304 251 266 251Q234 251 201 244Q168 237 145.5 216Q123 195 123 153Q123 97 158 75Q193 53 252 53Z" />
<glyph glyph-name="b" unicode="&#x62;" horiz-adv-x="585" d="M275 -12Q231 -12 195 -7.5Q159 -3 131.5 3.5Q104 10 84 16L84 763L159 776L159 489Q177 502 213.5 515.5Q250 529 298 529Q373 529 425 494.5Q477 460 504.5 399Q532 338 532 259Q532 175 500 114.5Q468 54 410 21Q352 -12 275 -12ZM274 55Q328 55 368.5 79Q409 103 431 148.5Q453 194 453 259Q453 301 444.5 338Q436 375 416.5 403Q397 431 365.5 446.5Q334 462 289 462Q246 462 211 447.5Q176 433 159 419L159 68Q173 64 201.5 59.5Q230 55 274 55Z" />
<glyph glyph-name="c" unicode="&#x63;" horiz-adv-x="465" d="M302 -11Q220 -11 165 22.5Q110 56 82 117Q54 178 54 258Q54 339 83 400Q112 461 166.5 495.5Q221 530 296 530Q337 530 374 523Q411 516 432 505L413 442Q393 451 368 457Q343 463 302 463Q219 463 175.5 409Q132 355 132 258Q132 198 150 152.5Q168 107 208 81.5Q248 56 314 56Q353 56 382.5 65Q412 74 426 81L441 17Q422 7 383 -2Q344 -11 302 -11Z" />
<glyph glyph-name="d" unicode="&#x64;" horiz-adv-x="585" d="M310 -12Q234 -12 176 20.5Q118 53 86 113.5Q54 174 54 258Q54 338 81.5 399Q109 460 161.5 494.5Q214 529 288 529Q336 529 372.5 515.5Q409 502 427 489L427 763L501 776L501 16Q482 10 454 3.5Q426 -3 390.5 -7.5Q355 -12 310 -12ZM311 55Q355 55 383.5 59.5Q412 64 427 68L427 419Q410 433 375 447.5Q340 462 296 462Q251 462 219.5 446.5Q188 431 168.5 403Q149 375 140.5 338Q132 301 132 259Q132 194 154.5 148.5Q177 103 217.5 79Q258 55 311 55Z" />
<glyph glyph-name="e" unicode="&#x65;" horiz-adv-x="552" d="M311 -11Q220 -11 163.5 24Q107 59 80.5 120Q54 181 54 259Q54 350 87 410Q120 470 172.5 500Q225 530 283 530Q348 530 395.5 502.5Q443 475 469 418.5Q495 362 495 275Q495 268 494.5 258.5Q494 249 493 241L132 241Q136 153 179.5 104.5Q223 56 315 56Q366 56 398.5 65.5Q431 75 445 82L458 19Q444 11 403.5 0Q363 -11 311 -11ZM134 302L419 302Q418 353 402 389.5Q386 426 356.5 445.5Q327 465 284 465Q240 465 207 442Q174 419 155.5 382Q137 345 134 302Z" />
<glyph glyph-name="f" unicode="&#x66;" horiz-adv-x="381" d="M84 0L84 571Q84 672 132 724Q180 776 279 776Q320 776 347.5 769.5Q375 763 385 757L370 694Q358 700 336.5 705Q315 710 283 710Q216 710 187.5 676Q159 642 159 569L159 518L364 518L364 455L159 455L159 0Z" />
<glyph glyph-name="g" unicode="&#x67;" horiz-adv-x="575" d="M247 -188Q198 -188 156 -180Q114 -172 84 -162L99 -96Q124 -106 165 -114.5Q206 -123 249 -123Q309 -123 346 -108Q383 -93 400.5 -60Q418 -27 418 27L418 60Q404 50 370 35.5Q336 21 283 21Q222 21 169.5 46.5Q117 72 85.5 127Q54 182 54 271Q54 345 83.5 403Q113 461 168.5 494.5Q224 528 301 528Q371 528 416.5 518.5Q462 509 491 500L491 31Q491 -86 430.5 -137Q370 -188 247 -188ZM286 87Q327 87 362.5 99Q398 111 417 127L417 449Q401 454 375 458Q349 462 302 462Q248 462 210 438Q172 414 152 370.5Q132 327 132 270Q132 221 145 186Q158 151 180 129Q202 107 229.5 97Q257 87 286 87Z" />
<glyph glyph-name="h" unicode="&#x68;" horiz-adv-x="571" d="M84 0L84 763L159 776L159 505Q188 516 220.5 522Q253 528 284 528Q366 528 411 498Q456 468 474.5 414.5Q493 361 493 290L493 0L418 0L418 269Q418 340 405 382Q392 424 361 443Q330 462 274 462Q253 462 228.5 457.5Q204 453 185 448Q166 443 159 440L159 0Z" />
<glyph glyph-name="i" unicode="&#x69;" horiz-adv-x="243" d="M84 0L84 518L159 518L159 0ZM122 629Q100 629 84.5 644Q69 659 69 684Q69 708 84.5 723Q100 738 122 738Q144 738 159.5 723Q175 708 175 684Q175 659 159.5 644Q144 629 122 629Z" />
<glyph glyph-name="j" unicode="&#x6a;" horiz-adv-x="243" d="M-7 -187Q-18 -187 -36 -183.5Q-54 -180 -64 -176L-54 -116Q-46 -118 -34 -120Q-22 -122 -10 -122Q28 -122 48.5 -108Q69 -94 76.5 -66Q84 -38 84 4L84 518L159 518L159 7Q159 -58 142 -101.5Q125 -145 88.5 -166Q52 -187 -7 -187ZM122 629Q100 629 84.5 644Q69 659 69 684Q69 708 84.5 723Q100 738 122 738Q144 738 159.5 723Q175 708 175 684Q175 659 159.5 644Q144 629 122 629Z" />
<glyph glyph-name="k" unicode="&#x6b;" horiz-adv-x="505" d="M84 0L84 763L159 776L159 290Q183 314 213 344Q243 374 274 406Q305 438 332 467Q359 496 378 518L467 518Q437 486 396.5 444Q356 402 314.5 359.5Q273 317 238 283Q270 261 304.5 227.5Q339 194 373 155Q407 116 436.5 76Q466 36 487 0L400 0Q370 51 328 100.5Q286 150 242 191Q198 232 159 257L159 0Z" />
<glyph glyph-name="l" unicode="&#x6c;" horiz-adv-x="262" d="M224 -9Q176 -7 144.5 7Q113 21 98 50.5Q83 80 83 130L83 763L158 776L158 135Q158 87 175.5 73Q193 59 235 53Z" />
<glyph glyph-name="m" unicode="&#x6d;" horiz-adv-x="863" d="M84 0L84 500Q115 508 163 518Q211 528 282 528Q332 528 367.5 514Q403 500 425 472Q434 479 457 492.5Q480 506 515.5 517Q551 528 596 528Q676 528 716.5 497.5Q757 467 771 413.5Q785 360 785 290L785 0L710 0L710 269Q710 335 701 377.5Q692 420 666 441Q640 462 589 462Q552 462 524.5 453.5Q497 445 479.5 434Q462 423 454 417Q463 392 467.5 360Q472 328 472 293L472 0L397 0L397 269Q397 335 388 377.5Q379 420 352.5 441Q326 462 273 462Q244 462 220.5 459.5Q197 457 181.5 454Q166 451 159 449L159 0Z" />
<glyph glyph-name="n" unicode="&#x6e;" horiz-adv-x="571" d="M84 0L84 500Q115 508 165 518Q215 528 285 528Q366 528 411 498Q456 468 474.5 414.5Q493 361 493 290L493 0L418 0L418 269Q418 340 405 382Q392 424 361 443Q330 462 275 462Q233 462 201 457Q169 452 159 449L159 0Z" />
<glyph glyph-name="o" unicode="&#x6f;" horiz-adv-x="585" d="M292 -12Q223 -12 169 21.5Q115 55 84.5 116Q54 177 54 259Q54 341 84.5 401.5Q115 462 169 496Q223 530 292 530Q362 530 416 496Q470 462 500.5 401.5Q531 341 531 259Q531 177 500.5 116Q470 55 416.5 21.5Q363 -12 292 -12ZM292 55Q342 55 378 80Q414 105 433.5 151Q453 197 453 259Q453 321 433.5 367Q414 413 378 438Q342 463 292 463Q243 463 207 438Q171 413 151.5 367Q132 321 132 259Q132 197 151.5 151Q171 105 207 80Q243 55 292 55Z" />
<glyph glyph-name="p" unicode="&#x70;" horiz-adv-x="585" d="M84 -185L84 500Q104 507 131.5 513Q159 519 195 523.5Q231 528 275 528Q352 528 410 495.5Q468 463 500 402.5Q532 342 532 258Q532 179 504.5 118Q477 57 425 22.5Q373 -12 298 -12Q250 -12 213.5 1.5Q177 15 159 28L159 -185ZM289 55Q334 55 365.5 70.5Q397 86 416.5 114Q436 142 444.5 178.5Q453 215 453 257Q453 322 431 368Q409 414 368.5 438Q328 462 274 462Q230 462 201.5 457.5Q173 453 159 449L159 98Q176 85 211 70Q246 55 289 55Z" />
<glyph glyph-name="q" unicode="&#x71;" horiz-adv-x="585" d="M427 -185L427 28Q409 15 372 1.5Q335 -12 287 -12Q213 -12 160.5 22.5Q108 57 81 118Q54 179 54 258Q54 342 86 402.5Q118 463 176 495.5Q234 528 310 528Q355 528 390.5 523.5Q426 519 454 513Q482 507 501 500L501 -185ZM296 55Q340 55 375 70Q410 85 427 98L427 449Q412 453 383.5 457.5Q355 462 311 462Q258 462 217.5 438Q177 414 154.5 368Q132 322 132 257Q132 215 140.5 178.5Q149 142 168.5 114Q188 86 219.5 70.5Q251 55 296 55Z" />
<glyph glyph-name="r" unicode="&#x72;" horiz-adv-x="379" d="M84 0L84 494Q110 505 155.5 516.5Q201 528 265 528Q286 528 306.5 525.5Q327 523 343.5 519.5Q360 516 368 513L353 449Q344 453 319 457.5Q294 462 255 462Q217 462 192 456.5Q167 451 159 447L159 0Z" />
<glyph glyph-name="s" unicode="&#x73;" horiz-adv-x="434" d="M195 -12Q128 -12 90.5 -0.5Q53 11 40 17L58 83Q69 79 103 66Q137 53 195 53Q250 53 284 70Q318 87 318 129Q318 156 306 172.5Q294 189 267.5 203Q241 217 195 235Q156 251 123 269Q90 287 69.5 315Q49 343 49 387Q49 430 71 462Q93 494 133.5 512Q174 530 230 530Q282 530 318 521Q354 512 369 505L352 440Q339 447 310 456.5Q281 466 228 466Q186 466 155 448.5Q124 431 124 393Q124 366 137 349.5Q150 333 176 320Q202 307 240 292Q283 275 317.5 256.5Q352 238 373 209Q394 180 394 132Q394 85 370 52.5Q346 20 301.5 4Q257 -12 195 -12Z" />
<glyph glyph-name="t" unicode="&#x74;" horiz-adv-x="393" d="M253 -11Q187 -11 149 12Q111 35 95.5 81Q80 127 80 196L80 668L155 681L155 518L358 518L358 455L155 455L155 190Q155 135 167.5 106Q180 77 203.5 66.5Q227 56 259 56Q297 56 322.5 65Q348 74 363 81L379 20Q364 11 329.5 0Q295 -11 253 -11Z" />
<glyph glyph-name="u" unicode="&#x75;" horiz-adv-x="571" d="M286 -10Q208 -10 162.5 19.5Q117 49 97.5 103Q78 157 78 228L78 518L153 518L153 248Q153 178 167 136Q181 94 212.5 75.5Q244 57 296 57Q338 57 370.5 61.5Q403 66 413 69L413 518L487 518L487 18Q457 10 406.5 0Q356 -10 286 -10Z" />
<glyph glyph-name="v" unicode="&#x76;" horiz-adv-x="488" d="M209 0Q184 53 158 114Q132 175 107 241Q82 307 59.5 376.5Q37 446 19 518L98 518Q114 449 138.5 369.5Q163 290 191.5 214.5Q220 139 246 82Q266 124 287 178Q308 232 328 290.5Q348 349 365 407.5Q382 466 394 518L469 518Q451 446 428.5 376.5Q406 307 381 241Q356 175 330.5 114Q305 53 279 0Z" />
<glyph glyph-name="w" unicode="&#x77;" horiz-adv-x="776" d="M194 0Q170 55 147 114Q124 173 102 237.5Q80 302 60 372Q40 442 22 518L101 518Q112 467 127.5 408Q143 349 161 290Q179 231 197.5 178Q216 125 232 86Q257 152 281 228Q305 304 325.5 379Q346 454 360 518L422 518Q435 454 455 378.5Q475 303 499.5 227Q524 151 549 85Q566 124 584 177Q602 230 620 289.5Q638 349 653.5 408Q669 467 680 518L755 518Q736 442 716 372Q696 302 674.5 237.5Q653 173 630 114Q607 55 582 0L515 0Q496 47 474 107Q452 167 429.5 236Q407 305 388 377Q370 305 347.5 236Q325 167 303 107Q281 47 262 0Z" />
<glyph glyph-name="x" unicode="&#x78;" horiz-adv-x="505" d="M26 0Q52 49 81.5 95.5Q111 142 142.5 187Q174 232 205 274L35 518L121 518L252 324L384 518L464 518L298 277Q328 239 360.5 193Q393 147 424 98Q455 49 479 0L399 0Q384 29 359.5 67.5Q335 106 307 148.5Q279 191 251 228Q223 191 194.5 149Q166 107 142 68Q118 29 103 0Z" />
<glyph glyph-name="y" unicode="&#x79;" horiz-adv-x="482" d="M77 -188Q52 -188 30 -182Q8 -176 1 -172L16 -111Q22 -114 41 -119.5Q60 -125 79 -125Q116 -125 142 -114Q168 -103 188 -77Q208 -51 225 -7Q182 72 143.5 160Q105 248 73 339Q41 430 19 518L98 518Q109 471 125.5 417Q142 363 162.5 305Q183 247 208 187.5Q233 128 261 70Q289 149 310 219.5Q331 290 349 362.5Q367 435 386 518L461 518Q439 422 412.5 328Q386 234 356.5 147.5Q327 61 294 -16Q269 -76 241 -114Q213 -152 174.5 -170Q136 -188 77 -188Z" />
<glyph glyph-name="z" unicode="&#x7a;" horiz-adv-x="460" d="M38 0L38 52Q63 99 100 155.5Q137 212 178.5 269Q220 326 257.5 374.5Q295 423 322 455L52 455L52 518L414 518L414 460Q392 435 355.5 390.5Q319 346 277.5 290.5Q236 235 195.5 176Q155 117 125 63L422 63L422 0Z" />
<glyph glyph-name="braceleft" unicode="&#x7b;" horiz-adv-x="325" d="M307 -195Q241 -195 204 -175.5Q167 -156 152 -118Q137 -80 137 -26L137 163Q137 199 114 230Q91 261 42 261L42 318Q75 318 96 333Q117 348 127 370.5Q137 393 137 417L137 606Q137 660 152 697.5Q167 735 204 754.5Q241 774 307 774L317 774L317 716L309 716Q260 716 238.5 701Q217 686 212.5 652.5Q208 619 208 561L208 451Q208 379 190 344Q172 309 139 290Q161 278 176.5 258.5Q192 239 200 208Q208 177 208 129L208 19Q208 -39 212.5 -73Q217 -107 238.5 -121.5Q260 -136 309 -137L317 -137L317 -195Z" />
<glyph glyph-name="bar" unicode="&#x7c;" horiz-adv-x="269" d="M99 -185L99 783L170 783L170 -185Z" />
<glyph glyph-name="braceright" unicode="&#x7d;" horiz-adv-x="325" d="M8 -195L8 -137L18 -137Q66 -136 87 -121Q108 -106 112.5 -72Q117 -38 117 19L117 129Q117 177 125 208Q133 239 148.5 258.5Q164 278 186 290Q153 309 135 344Q117 379 117 451L117 561Q117 618 112 652Q107 686 86.5 701Q66 716 17 716L8 716L8 774L18 774Q85 774 121.5 754.5Q158 735 173 697.5Q188 660 188 606L188 417Q188 393 198 370.5Q208 348 229 333Q250 318 283 318L283 261Q234 261 211 230Q188 199 188 163L188 -26Q188 -80 173 -118Q158 -156 121.5 -175.5Q85 -195 18 -195Z" />
<glyph glyph-name="asciitilde" unicode="&#x7e;" horiz-adv-x="564" d="M384 219Q351 219 323.5 232.5Q296 246 272 263Q248 280 224.5 293.5Q201 307 175 307Q152 307 137 292.5Q122 278 114.5 259.5Q107 241 104 227L47 241Q52 260 60.5 282.5Q69 305 83.5 325Q98 345 122 357.5Q146 370 180 370Q213 370 240.5 356.5Q268 343 292 326Q316 309 339.5 295.5Q363 282 389 282Q413 282 427.5 296.5Q442 311 450 330Q458 349 461 362L518 348Q513 329 504.5 306.5Q496 284 481 264Q466 244 442.5 231.5Q419 219 384 219Z" />
<glyph glyph-name="uni00A0" unicode="&#xa0;" horiz-adv-x="229" d="" />
<glyph glyph-name="exclamdown" unicode="&#xa1;" horiz-adv-x="275" d="M98 -184L98 5Q98 39 99 70Q100 101 101.5 129.5Q103 158 105.5 185.5Q108 213 111 239.5Q114 266 118 293L158 293Q162 259 165.5 225.5Q169 192 172 157.5Q175 123 176.5 85Q178 47 178 5L178 -184ZM138 400Q111 400 94.5 417Q78 434 78 459Q78 484 94.5 501Q111 518 138 518Q164 518 180.5 501Q197 484 197 459Q197 434 180.5 417Q164 400 138 400Z" />
<glyph glyph-name="cent" unicode="&#xa2;" horiz-adv-x="564" d="M295 -109L295 34Q199 51 149.5 120.5Q100 190 100 290Q100 357 123.5 412Q147 467 190.5 503.5Q234 540 295 550L295 693L363 693L363 553Q394 552 422 545.5Q450 539 477 528L458 466Q437 475 409 482Q381 489 350 489Q267 489 222.5 438.5Q178 388 178 290Q178 205 220.5 150.5Q263 96 360 96Q400 96 429.5 103.5Q459 111 473 118L486 57Q473 49 437 41Q401 33 363 31L363 -109Z" />
<glyph glyph-name="sterling" unicode="&#xa3;" horiz-adv-x="564" d="M133 0Q141 47 146.5 94.5Q152 142 156 191.5Q160 241 160 294L160 305L65 305L65 367L160 367L160 459Q160 558 186.5 611.5Q213 665 260 685.5Q307 706 368 706Q409 706 442 697.5Q475 689 498 678L478 612Q454 625 425.5 631.5Q397 638 363 638Q323 638 294 623Q265 608 250 571Q235 534 235 468L235 367L432 367L432 305L235 305L235 297Q235 260 233.5 221Q232 182 228.5 143Q225 104 219 65L517 65L517 0Z" />
<glyph glyph-name="currency" unicode="&#xa4;" horiz-adv-x="564" d="M99 113L52 160L126 235Q110 258 101.5 286.5Q93 315 93 347Q93 379 101.5 408Q110 437 126 459L52 534L99 581L174 504Q197 520 224.5 528.5Q252 537 282 537Q312 537 339.5 528.5Q367 520 390 504L466 581L512 534L438 459Q454 437 463 408Q472 379 472 347Q472 315 463 286.5Q454 258 438 235L512 160L466 113L390 190Q367 174 340 165.5Q313 157 282 157Q252 157 224.5 165.5Q197 174 174 190ZM282 217Q317 217 345 233.5Q373 250 389.5 279Q406 308 406 347Q406 386 389.5 415Q373 444 345 460.5Q317 477 282 477Q248 477 220 460.5Q192 444 175.5 415Q159 386 159 347Q159 308 175.5 279Q192 250 220 233.5Q248 217 282 217Z" />
<glyph glyph-name="yen" unicode="&#xa5;" horiz-adv-x="564" d="M245 0L245 115L84 115L84 173L245 173L245 286L84 286L84 344L227 344Q189 404 153.5 463Q118 522 86.5 579.5Q55 637 27 693L107 693Q145 612 190 531.5Q235 451 284 376Q333 451 377.5 531.5Q422 612 460 693L538 693Q495 608 444.5 521.5Q394 435 336 344L481 344L481 286L320 286L320 173L481 173L481 115L320 115L320 0Z" />
<glyph glyph-name="brokenbar" unicode="&#xa6;" horiz-adv-x="267" d="M98 405L98 783L169 783L169 405ZM98 -185L98 193L169 193L169 -185Z" />
<glyph glyph-name="section" unicode="&#xa7;" horiz-adv-x="486" d="M218 -109Q157 -109 117 -99Q77 -89 53 -77L71 -19Q100 -31 132.5 -40Q165 -49 223 -49Q273 -49 308.5 -30.5Q344 -12 344 31Q344 58 331.5 76.5Q319 95 292 109Q265 123 221 138Q173 155 133.5 173.5Q94 192 70 223.5Q46 255 46 309Q46 346 61 374Q76 402 98 422Q120 442 141 454Q111 476 97 501.5Q83 527 83 563Q83 608 103.5 640.5Q124 673 164.5 690.5Q205 708 264 708Q323 708 359 698.5Q395 689 413 682L395 621Q376 629 344 639Q312 649 263 649Q215 649 185 630Q155 611 155 573Q155 547 166 529Q177 511 201.5 498Q226 485 266 472Q311 458 351.5 439.5Q392 421 417 388.5Q442 356 442 300Q442 251 413.5 214Q385 177 349 156Q381 136 399 106Q417 76 417 39Q417 -10 392.5 -43Q368 -76 323.5 -92.5Q279 -109 218 -109ZM297 182Q333 200 352 230Q371 260 371 294Q371 330 350.5 352Q330 374 297.5 388Q265 402 229 414Q218 418 208 421.5Q198 425 192 427Q160 410 138 383Q116 356 116 317Q116 281 135 259Q154 237 186 223Q218 209 258 196Q268 193 279 189Q290 185 297 182Z" />
<glyph glyph-name="dieresis" unicode="&#xa8;" horiz-adv-x="394" d="M286 622Q265 622 250.5 636.5Q236 651 236 674Q236 697 250.5 711Q265 725 286 725Q307 725 321.5 711Q336 697 336 674Q336 651 321.5 636.5Q307 622 286 622ZM108 622Q87 622 73 636.5Q59 651 59 674Q59 697 73 711Q87 725 108 725Q129 725 143.5 711Q158 697 158 674Q158 651 143.5 636.5Q129 622 108 622Z" />
<glyph glyph-name="copyright" unicode="&#xa9;" horiz-adv-x="823" d="M411 -15Q344 -15 283 9.5Q222 34 174 80.5Q126 127 98.5 194.5Q71 262 71 347Q71 433 98.5 499.5Q126 566 174 613Q222 660 283 684Q344 708 411 708Q479 708 540 684Q601 660 648.5 613Q696 566 723.5 499.5Q751 433 751 347Q751 262 723.5 194.5Q696 127 648.5 80.5Q601 34 540 9.5Q479 -15 411 -15ZM418 144Q365 144 323.5 168Q282 192 258 237.5Q234 283 234 348Q234 412 260 456.5Q286 501 329 525Q372 549 421 549Q470 549 500 536Q530 523 541 515L521 465Q506 473 483 482Q460 491 422 491Q370 491 335 454Q300 417 300 349Q300 303 315 270Q330 237 358 220Q386 203 425 203Q466 203 490.5 212Q515 221 526 228L545 175Q532 168 499 156Q466 144 418 144ZM411 43Q492 43 554 81Q616 119 651.5 187.5Q687 256 687 347Q687 438 651.5 506Q616 574 554 612Q492 650 411 650Q331 650 268.5 612Q206 574 170.5 506Q135 438 135 347Q135 256 170.5 187.5Q206 119 268.5 81Q331 43 411 43Z" />
<glyph glyph-name="ordfeminine" unicode="&#xaa;" horiz-adv-x="387" d="M196 329Q128 329 85.5 356Q43 383 43 442Q43 483 64.5 508Q86 533 122.5 544.5Q159 556 202 556Q214 556 231.5 554Q249 552 268 548L268 557Q268 580 263 601.5Q258 623 241.5 637Q225 651 188 651Q162 651 137 648.5Q112 646 92 639L84 690Q101 695 129 699.5Q157 704 189 704Q266 704 297 667Q328 630 328 570L328 344Q303 338 264.5 333.5Q226 329 196 329ZM196 381Q217 381 237.5 382.5Q258 384 268 385L268 501Q256 503 239.5 504.5Q223 506 206 506Q165 506 135 493.5Q105 481 105 446Q105 415 125 398Q145 381 196 381Z" />
<glyph glyph-name="guillemotleft" unicode="&#xab;" horiz-adv-x="469" d="M188 69L34 284L188 498L237 469L122 284L237 98ZM376 69L222 284L376 498L425 469L310 284L425 98Z" />
<glyph glyph-name="logicalnot" unicode="&#xac;" horiz-adv-x="564" d="M442 48L442 320L55 320L55 383L509 383L509 48Z" />
<glyph glyph-name="uni00AD" unicode="&#xad;" horiz-adv-x="0" d="" />
<glyph glyph-name="registered" unicode="&#xae;" horiz-adv-x="823" d="M411 -15Q344 -15 283 9.5Q222 34 174 80.5Q126 127 98.5 194.5Q71 262 71 347Q71 433 98.5 499.5Q126 566 174 613Q222 660 283 684Q344 708 411 708Q479 708 540 684Q601 660 648.5 613Q696 566 723.5 499.5Q751 433 751 347Q751 262 723.5 194.5Q696 127 648.5 80.5Q601 34 540 9.5Q479 -15 411 -15ZM411 43Q492 43 554 81Q616 119 651.5 187.5Q687 256 687 347Q687 438 651.5 506Q616 574 554 612Q492 650 411 650Q331 650 268.5 612Q206 574 170.5 506Q135 438 135 347Q135 256 170.5 187.5Q206 119 268.5 81Q331 43 411 43ZM275 152L275 534Q299 540 327.5 543Q356 546 381 546Q465 546 509.5 514.5Q554 483 554 421Q554 386 534.5 358Q515 330 477 316Q489 303 507.5 276Q526 249 545.5 216Q565 183 580 152L514 152Q489 198 462.5 239Q436 280 416 305Q410 304 404 304Q398 304 393 304L335 304L335 152ZM335 353L381 353Q428 353 459 366.5Q490 380 490 422Q490 463 458 478Q426 493 385 493Q371 493 358 492.5Q345 492 335 491Z" />
<glyph glyph-name="macron" unicode="&#xaf;" horiz-adv-x="376" d="M53 646L53 706L324 706L324 646Z" />
<glyph glyph-name="degree" unicode="&#xb0;" horiz-adv-x="323" d="M162 506Q126 506 95.5 522Q65 538 46.5 568Q28 598 28 640Q28 683 46.5 712.5Q65 742 95.5 758Q126 774 162 774Q198 774 228 758Q258 742 276.5 712.5Q295 683 295 640Q295 598 276.5 568Q258 538 228 522Q198 506 162 506ZM162 557Q194 557 217 579.5Q240 602 240 640Q240 678 217 700.5Q194 723 162 723Q129 723 106 700.5Q83 678 83 640Q83 602 106 579.5Q129 557 162 557Z" />
<glyph glyph-name="plusminus" unicode="&#xb1;" horiz-adv-x="564" d="M249 132L249 343L55 343L55 407L249 407L249 619L316 619L316 407L509 407L509 343L316 343L316 132ZM55 0L55 64L509 64L509 0Z" />
<glyph glyph-name="uni00B2" unicode="&#xb2;" horiz-adv-x="359" d="M53 435Q52 441 52 446Q52 451 52 456Q52 496 68 524.5Q84 553 108.5 576.5Q133 600 158 623Q177 640 192 653.5Q207 667 216 682.5Q225 698 225 719Q225 750 206 762Q187 774 161 774Q129 774 104 759Q79 744 70 735L40 778Q58 797 90 812.5Q122 828 166 828Q225 828 256 800Q287 772 287 718Q287 675 260.5 645.5Q234 616 201 589Q153 551 136.5 528.5Q120 506 118 488L305 488L305 435Z" />
<glyph glyph-name="uni00B3" unicode="&#xb3;" horiz-adv-x="359" d="M149 427Q112 427 85.5 434Q59 441 42 449L56 501Q73 494 94.5 487.5Q116 481 146 481Q201 481 220 499Q239 517 239 545Q239 585 205.5 600Q172 615 128 615L112 615L112 664L130 664Q154 664 174.5 669Q195 674 207.5 687.5Q220 701 220 725Q220 753 202 764.5Q184 776 155 776Q124 776 101.5 766.5Q79 757 65 748L43 794Q56 804 86 816Q116 828 157 828Q202 828 229 815.5Q256 803 268 781Q280 759 280 731Q280 701 265.5 680Q251 659 221 645Q257 634 279 609Q301 584 301 543Q301 497 266.5 462Q232 427 149 427Z" />
<glyph glyph-name="acute" unicode="&#xb4;" horiz-adv-x="366" d="M139 582L102 623L258 776L310 721Z" />
<glyph glyph-name="uni00B5" unicode="&#xb5;" horiz-adv-x="577" d="M84 -183L84 518L159 518L159 248Q159 142 191.5 99.5Q224 57 302 57Q344 57 376.5 61.5Q409 66 418 69L418 518L493 518L493 18Q463 10 413 0Q363 -10 294 -10Q241 -10 206.5 3.5Q172 17 152 42Q156 11 156.5 -20Q157 -51 157 -80L157 -183Z" />
<glyph glyph-name="paragraph" unicode="&#xb6;" horiz-adv-x="627" d="M285 -185L285 263Q174 273 109.5 325Q45 377 45 480Q45 535 68 576Q91 617 133.5 644.5Q176 672 235 685.5Q294 699 365 699Q389 699 417 698Q445 697 474 694Q503 691 528 685L528 -185L461 -185L461 631Q448 633 427.5 634Q407 635 386.5 635.5Q366 636 352 634L352 -185Z" />
<glyph glyph-name="periodcentered" unicode="&#xb7;" horiz-adv-x="246" d="M123 235Q96 235 80 252Q64 269 64 294Q64 319 80 336Q96 353 123 353Q150 353 166 336Q182 319 182 294Q182 269 166 252Q150 235 123 235Z" />
<glyph glyph-name="cedilla" unicode="&#xb8;" horiz-adv-x="370" d="M165 -191Q145 -191 124 -187Q103 -183 92 -179L101 -131Q112 -135 126.5 -137.5Q141 -140 160 -140Q180 -140 190.5 -132.5Q201 -125 201 -111Q201 -95 187.5 -86Q174 -77 143 -65Q148 -51 156 -34Q164 -17 172 -1.5Q180 14 184 20L236 20Q229 9 220.5 -7.5Q212 -24 207 -36Q236 -49 251.5 -66.5Q267 -84 267 -113Q267 -131 258 -149Q249 -167 227 -179Q205 -191 165 -191Z" />
<glyph glyph-name="uni00B9" unicode="&#xb9;" horiz-adv-x="359" d="M173 435L173 735Q151 720 120.5 708.5Q90 697 73 693L58 740Q82 748 106 759Q130 770 152 785.5Q174 801 191 819L233 819L233 435Z" />
<glyph glyph-name="ordmasculine" unicode="&#xba;" horiz-adv-x="439" d="M219 328Q169 328 129.5 351.5Q90 375 67.5 417.5Q45 460 45 517Q45 574 67.5 616Q90 658 129.5 681.5Q169 705 219 705Q270 705 309.5 681.5Q349 658 372 616Q395 574 395 517Q395 460 372 417.5Q349 375 309.5 351.5Q270 328 219 328ZM219 383Q253 383 277.5 399.5Q302 416 315.5 446Q329 476 329 517Q329 557 315.5 587Q302 617 277.5 634Q253 651 219 651Q186 651 161.5 634Q137 617 123.5 587Q110 557 110 517Q110 476 123.5 446Q137 416 161.5 399.5Q186 383 219 383Z" />
<glyph glyph-name="guillemotright" unicode="&#xbb;" horiz-adv-x="469" d="M93 69L44 98L158 284L44 469L93 498L247 284ZM281 69L232 98L346 284L232 469L281 498L435 284Z" />
<glyph glyph-name="onequarter" unicode="&#xbc;" horiz-adv-x="874" d="M171 315L171 615Q149 600 118.5 588.5Q88 577 71 573L56 620Q80 628 104 639Q128 650 150 665.5Q172 681 189 699L231 699L231 315ZM204 0L594 693L668 693L278 0ZM734 1L734 96L547 96L547 133Q558 155 578.5 187.5Q599 220 625 257Q651 294 680.5 327.5Q710 361 739 385L792 385L792 144L843 144L843 96L792 96L792 1ZM609 144L734 144L734 317Q712 296 688.5 264.5Q665 233 644 201Q623 169 609 144Z" />
<glyph glyph-name="onehalf" unicode="&#xbd;" horiz-adv-x="874" d="M171 315L171 615Q149 600 118.5 588.5Q88 577 71 573L56 620Q80 628 104 639Q128 650 150 665.5Q172 681 189 699L231 699L231 315ZM182 0L572 693L646 693L256 0ZM568 1Q567 7 567 12Q567 17 567 22Q567 62 583 90.5Q599 119 623.5 142.5Q648 166 673 189Q692 206 707 219.5Q722 233 731 248.5Q740 264 740 285Q740 316 721 328Q702 340 676 340Q644 340 619 325Q594 310 585 301L555 344Q573 363 605 378.5Q637 394 681 394Q740 394 771 366Q802 338 802 284Q802 241 775.5 211.5Q749 182 716 155Q668 117 651.5 94.5Q635 72 633 54L820 54L820 1Z" />
<glyph glyph-name="threequarters" unicode="&#xbe;" horiz-adv-x="874" d="M150 307Q113 307 86.5 314Q60 321 43 329L57 381Q74 374 95.5 367.5Q117 361 147 361Q202 361 221 379Q240 397 240 425Q240 465 206.5 480Q173 495 129 495L113 495L113 544L131 544Q155 544 175.5 549Q196 554 208.5 567.5Q221 581 221 605Q221 633 203 644.5Q185 656 156 656Q125 656 102.5 646.5Q80 637 66 628L44 674Q57 684 87 696Q117 708 158 708Q203 708 230 695.5Q257 683 269 661Q281 639 281 611Q281 581 266.5 560Q252 539 222 525Q258 514 280 489Q302 464 302 423Q302 377 267.5 342Q233 307 150 307ZM220 0L610 693L684 693L294 0ZM734 1L734 96L547 96L547 133Q558 155 578.5 187.5Q599 220 625 257Q651 294 680.5 327.5Q710 361 739 385L792 385L792 144L843 144L843 96L792 96L792 1ZM609 144L734 144L734 317Q712 296 688.5 264.5Q665 233 644 201Q623 169 609 144Z" />
<glyph glyph-name="questiondown" unicode="&#xbf;" horiz-adv-x="389" d="M218 -187Q163 -187 126.5 -173.5Q90 -160 68.5 -138Q47 -116 38 -91Q29 -66 29 -42Q29 -1 46.5 31Q64 63 89.5 90.5Q115 118 140 145.5Q165 173 182.5 204Q200 235 200 275Q200 280 200 283.5Q200 287 199 292L259 292Q261 282 262 273.5Q263 265 263 254Q263 216 247.5 185Q232 154 209 127.5Q186 101 162.5 75.5Q139 50 123.5 23Q108 -4 108 -36Q108 -84 142.5 -102.5Q177 -121 226 -121Q260 -121 290.5 -113.5Q321 -106 350 -90L371 -151Q348 -164 307 -175.5Q266 -187 218 -187ZM223 399Q196 399 180 416.5Q164 434 164 459Q164 484 180 501Q196 518 223 518Q250 518 266 501Q282 484 282 459Q282 434 266 416.5Q250 399 223 399Z" />
<glyph glyph-name="Agrave" unicode="&#xc0;" horiz-adv-x="650" d="M10 0Q64 145 109 264Q154 383 197.5 487.5Q241 592 290 693L360 693Q396 617 429.5 539.5Q463 462 496 379Q529 296 564.5 202.5Q600 109 640 0L555 0Q537 50 520 95.5Q503 141 488 185L158 185Q142 141 125 95.5Q108 50 91 0ZM181 251L465 251Q446 301 428 348Q410 395 392.5 439Q375 483 357.5 524.5Q340 566 322 606Q305 566 287.5 524.5Q270 483 252.5 439Q235 395 217 348Q199 301 181 251ZM361 737L190 876L242 931L398 778Z" />
<glyph glyph-name="Aacute" unicode="&#xc1;" horiz-adv-x="650" d="M10 0Q64 145 109 264Q154 383 197.5 487.5Q241 592 290 693L360 693Q396 617 429.5 539.5Q463 462 496 379Q529 296 564.5 202.5Q600 109 640 0L555 0Q537 50 520 95.5Q503 141 488 185L158 185Q142 141 125 95.5Q108 50 91 0ZM181 251L465 251Q446 301 428 348Q410 395 392.5 439Q375 483 357.5 524.5Q340 566 322 606Q305 566 287.5 524.5Q270 483 252.5 439Q235 395 217 348Q199 301 181 251ZM292 737L255 778L411 931L463 876Z" />
<glyph glyph-name="Acircumflex" unicode="&#xc2;" horiz-adv-x="650" d="M10 0Q64 145 109 264Q154 383 197.5 487.5Q241 592 290 693L360 693Q396 617 429.5 539.5Q463 462 496 379Q529 296 564.5 202.5Q600 109 640 0L555 0Q537 50 520 95.5Q503 141 488 185L158 185Q142 141 125 95.5Q108 50 91 0ZM181 251L465 251Q446 301 428 348Q410 395 392.5 439Q375 483 357.5 524.5Q340 566 322 606Q305 566 287.5 524.5Q270 483 252.5 439Q235 395 217 348Q199 301 181 251ZM223 738L191 773L326 919L461 773L430 738L326 832Z" />
<glyph glyph-name="Atilde" unicode="&#xc3;" horiz-adv-x="650" d="M10 0Q64 145 109 264Q154 383 197.5 487.5Q241 592 290 693L360 693Q396 617 429.5 539.5Q463 462 496 379Q529 296 564.5 202.5Q600 109 640 0L555 0Q537 50 520 95.5Q503 141 488 185L158 185Q142 141 125 95.5Q108 50 91 0ZM181 251L465 251Q446 301 428 348Q410 395 392.5 439Q375 483 357.5 524.5Q340 566 322 606Q305 566 287.5 524.5Q270 483 252.5 439Q235 395 217 348Q199 301 181 251ZM206 775L164 797Q171 814 184 833Q197 852 216.5 865.5Q236 879 263 879Q290 879 311 869.5Q332 860 351 850.5Q370 841 390 841Q411 841 423.5 854.5Q436 868 446 885L488 864Q481 848 468 828.5Q455 809 435.5 795Q416 781 389 781Q362 781 341 791Q320 801 301 810.5Q282 820 261 820Q240 820 228 806Q216 792 206 775Z" />
<glyph glyph-name="Adieresis" unicode="&#xc4;" horiz-adv-x="650" d="M10 0Q64 145 109 264Q154 383 197.5 487.5Q241 592 290 693L360 693Q396 617 429.5 539.5Q463 462 496 379Q529 296 564.5 202.5Q600 109 640 0L555 0Q537 50 520 95.5Q503 141 488 185L158 185Q142 141 125 95.5Q108 50 91 0ZM181 251L465 251Q446 301 428 348Q410 395 392.5 439Q375 483 357.5 524.5Q340 566 322 606Q305 566 287.5 524.5Q270 483 252.5 439Q235 395 217 348Q199 301 181 251ZM414 777Q393 777 378.5 791.5Q364 806 364 829Q364 852 378.5 866Q393 880 414 880Q435 880 449.5 866Q464 852 464 829Q464 806 449.5 791.5Q435 777 414 777ZM237 777Q216 777 202 791.5Q188 806 188 829Q188 852 202 866Q216 880 237 880Q258 880 272.5 866Q287 852 287 829Q287 806 272.5 791.5Q258 777 237 777Z" />
<glyph glyph-name="Aring" unicode="&#xc5;" horiz-adv-x="650" d="M10 0Q48 103 81 192Q114 281 145.5 360.5Q177 440 208 514Q239 588 273 660Q252 672 239 694Q226 716 226 745Q226 789 255.5 815.5Q285 842 325 842Q364 842 393 815.5Q422 789 422 745Q422 716 409 694Q396 672 375 660Q402 602 427.5 543.5Q453 485 478 423.5Q503 362 528.5 295.5Q554 229 581.5 155.5Q609 82 640 0L555 0Q537 50 520 95.5Q503 141 488 185L158 185Q142 141 125 95.5Q108 50 91 0ZM181 251L465 251Q446 301 428 348Q410 395 392.5 439Q375 483 357.5 524.5Q340 566 322 606Q305 566 287.5 524.5Q270 483 252.5 439Q235 395 217 348Q199 301 181 251ZM325 687Q348 687 364 702Q380 717 380 745Q380 772 364 787Q348 802 325 802Q302 802 285.5 787Q269 772 269 745Q269 717 285.5 702Q302 687 325 687Z" />
<glyph glyph-name="AE" unicode="&#xc6;" horiz-adv-x="924" d="M6 0Q62 107 115.5 201.5Q169 296 222 381Q275 466 327.5 543Q380 620 433 693L860 693L860 626L544 626L544 397L824 397L824 331L544 331L544 67L885 67L885 0L467 0L467 187L188 187Q162 141 136.5 94Q111 47 88 0ZM224 253L467 253L467 626Q424 568 382.5 506.5Q341 445 301 381.5Q261 318 224 253Z" />
<glyph glyph-name="Ccedilla" unicode="&#xc7;" horiz-adv-x="613" d="M328 -191Q308 -191 287 -187Q266 -183 255 -179L264 -131Q275 -135 289.5 -137.5Q304 -140 324 -140Q344 -140 354 -132.5Q364 -125 364 -111Q364 -95 350.5 -85.5Q337 -76 307 -65Q311 -54 317 -39Q323 -24 330 -11Q251 0 190.5 44Q130 88 95.5 164.5Q61 241 61 347Q61 434 87 501.5Q113 569 158.5 615Q204 661 262.5 684.5Q321 708 385 708Q438 708 477.5 699.5Q517 691 543 680Q569 669 581 661L556 595Q531 610 491.5 624Q452 638 396 638Q314 638 257.5 601.5Q201 565 172 499.5Q143 434 143 346Q143 258 171 192.5Q199 127 253.5 91Q308 55 387 55Q453 55 497 67.5Q541 80 565 93L586 27Q570 17 518 1.5Q466 -14 384 -15Q383 -15 382.5 -15Q382 -15 380 -15Q377 -20 374.5 -25.5Q372 -31 370 -36Q399 -49 415 -66.5Q431 -84 431 -113Q431 -131 422 -149Q413 -167 391 -179Q369 -191 328 -191Z" />
<glyph glyph-name="Egrave" unicode="&#xc8;" horiz-adv-x="561" d="M89 0L89 693L497 693L497 626L167 626L167 397L461 397L461 331L167 331L167 67L522 67L522 0ZM328 737L157 876L209 931L365 778Z" />
<glyph glyph-name="Eacute" unicode="&#xc9;" horiz-adv-x="561" d="M89 0L89 693L497 693L497 626L167 626L167 397L461 397L461 331L167 331L167 67L522 67L522 0ZM259 737L222 778L378 931L430 876Z" />
<glyph glyph-name="Ecircumflex" unicode="&#xca;" horiz-adv-x="561" d="M89 0L89 693L497 693L497 626L167 626L167 397L461 397L461 331L167 331L167 67L522 67L522 0ZM190 738L158 773L293 919L428 773L397 738L293 832Z" />
<glyph glyph-name="Edieresis" unicode="&#xcb;" horiz-adv-x="561" d="M89 0L89 693L497 693L497 626L167 626L167 397L461 397L461 331L167 331L167 67L522 67L522 0ZM381 777Q360 777 345.5 791.5Q331 806 331 829Q331 852 345.5 866Q360 880 381 880Q402 880 416.5 866Q431 852 431 829Q431 806 416.5 791.5Q402 777 381 777ZM204 777Q183 777 169 791.5Q155 806 155 829Q155 852 169 866Q183 880 204 880Q225 880 239.5 866Q254 852 254 829Q254 806 239.5 791.5Q225 777 204 777Z" />
<glyph glyph-name="Igrave" unicode="&#xcc;" horiz-adv-x="256" d="M89 0L89 693L167 693L167 0ZM163 737L-8 876L44 931L200 778Z" />
<glyph glyph-name="Iacute" unicode="&#xcd;" horiz-adv-x="256" d="M89 0L89 693L167 693L167 0ZM94 737L57 778L213 931L265 876Z" />
<glyph glyph-name="Icircumflex" unicode="&#xce;" horiz-adv-x="256" d="M89 0L89 693L167 693L167 0ZM25 738L-7 773L128 919L263 773L232 738L128 832Z" />
<glyph glyph-name="Idieresis" unicode="&#xcf;" horiz-adv-x="256" d="M89 0L89 693L167 693L167 0ZM216 777Q195 777 180.5 791.5Q166 806 166 829Q166 852 180.5 866Q195 880 216 880Q237 880 251.5 866Q266 852 266 829Q266 806 251.5 791.5Q237 777 216 777ZM39 777Q18 777 4 791.5Q-10 806 -10 829Q-10 852 4 866Q18 880 39 880Q60 880 74.5 866Q89 852 89 829Q89 806 74.5 791.5Q60 777 39 777Z" />
<glyph glyph-name="Eth" unicode="&#xd0;" horiz-adv-x="720" d="M276 -6Q234 -6 186.5 -2Q139 2 103 12L103 331L22 331L22 393L103 393L103 680Q139 690 187 694.5Q235 699 277 699Q390 699 476 660.5Q562 622 610.5 544Q659 466 659 347Q659 229 610.5 150.5Q562 72 475.5 33Q389 -6 276 -6ZM284 61Q430 61 503.5 137.5Q577 214 577 347Q577 480 504 556Q431 632 285 632Q235 632 211.5 629Q188 626 181 625L181 393L312 393L312 331L181 331L181 68Q187 67 210.5 64Q234 61 284 61Z" />
<glyph glyph-name="Ntilde" unicode="&#xd1;" horiz-adv-x="714" d="M89 0L89 693L151 693Q191 650 235 595Q279 540 323.5 480.5Q368 421 410 361Q452 301 487.5 246Q523 191 548 147L548 693L625 693L625 0L560 0Q537 42 501 99.5Q465 157 422 221.5Q379 286 333.5 350.5Q288 415 244.5 471.5Q201 528 166 569L166 0ZM238 775L196 797Q203 814 216 833Q229 852 248.5 865.5Q268 879 295 879Q322 879 343 869.5Q364 860 383 850.5Q402 841 422 841Q443 841 455.5 854.5Q468 868 478 885L520 864Q513 848 500 828.5Q487 809 467.5 795Q448 781 421 781Q394 781 373 791Q352 801 333 810.5Q314 820 293 820Q272 820 260 806Q248 792 238 775Z" />
<glyph glyph-name="Ograve" unicode="&#xd2;" horiz-adv-x="776" d="M388 -15Q300 -15 225.5 26Q151 67 106 147.5Q61 228 61 347Q61 436 87 503.5Q113 571 158.5 616.5Q204 662 263 685Q322 708 388 708Q477 708 551 667.5Q625 627 670 546.5Q715 466 715 347Q715 228 670 147.5Q625 67 551 26Q477 -15 388 -15ZM388 55Q463 55 518 90.5Q573 126 603 191.5Q633 257 633 347Q633 437 603 502.5Q573 568 518 603Q463 638 388 638Q313 638 258 603Q203 568 173 502.5Q143 437 143 347Q143 257 173 191.5Q203 126 258 90.5Q313 55 388 55ZM423 737L252 876L304 931L460 778Z" />
<glyph glyph-name="Oacute" unicode="&#xd3;" horiz-adv-x="776" d="M388 -15Q300 -15 225.5 26Q151 67 106 147.5Q61 228 61 347Q61 436 87 503.5Q113 571 158.5 616.5Q204 662 263 685Q322 708 388 708Q477 708 551 667.5Q625 627 670 546.5Q715 466 715 347Q715 228 670 147.5Q625 67 551 26Q477 -15 388 -15ZM388 55Q463 55 518 90.5Q573 126 603 191.5Q633 257 633 347Q633 437 603 502.5Q573 568 518 603Q463 638 388 638Q313 638 258 603Q203 568 173 502.5Q143 437 143 347Q143 257 173 191.5Q203 126 258 90.5Q313 55 388 55ZM354 737L317 778L473 931L525 876Z" />
<glyph glyph-name="Ocircumflex" unicode="&#xd4;" horiz-adv-x="776" d="M388 -15Q300 -15 225.5 26Q151 67 106 147.5Q61 228 61 347Q61 436 87 503.5Q113 571 158.5 616.5Q204 662 263 685Q322 708 388 708Q477 708 551 667.5Q625 627 670 546.5Q715 466 715 347Q715 228 670 147.5Q625 67 551 26Q477 -15 388 -15ZM388 55Q463 55 518 90.5Q573 126 603 191.5Q633 257 633 347Q633 437 603 502.5Q573 568 518 603Q463 638 388 638Q313 638 258 603Q203 568 173 502.5Q143 437 143 347Q143 257 173 191.5Q203 126 258 90.5Q313 55 388 55ZM285 738L253 773L388 919L523 773L492 738L388 832Z" />
<glyph glyph-name="Otilde" unicode="&#xd5;" horiz-adv-x="776" d="M388 -15Q300 -15 225.5 26Q151 67 106 147.5Q61 228 61 347Q61 436 87 503.5Q113 571 158.5 616.5Q204 662 263 685Q322 708 388 708Q477 708 551 667.5Q625 627 670 546.5Q715 466 715 347Q715 228 670 147.5Q625 67 551 26Q477 -15 388 -15ZM388 55Q463 55 518 90.5Q573 126 603 191.5Q633 257 633 347Q633 437 603 502.5Q573 568 518 603Q463 638 388 638Q313 638 258 603Q203 568 173 502.5Q143 437 143 347Q143 257 173 191.5Q203 126 258 90.5Q313 55 388 55ZM268 775L226 797Q233 814 246 833Q259 852 278.5 865.5Q298 879 325 879Q352 879 373 869.5Q394 860 413 850.5Q432 841 452 841Q473 841 485.5 854.5Q498 868 508 885L550 864Q543 848 530 828.5Q517 809 497.5 795Q478 781 451 781Q424 781 403 791Q382 801 363 810.5Q344 820 323 820Q302 820 290 806Q278 792 268 775Z" />
<glyph glyph-name="Odieresis" unicode="&#xd6;" horiz-adv-x="776" d="M388 -15Q300 -15 225.5 26Q151 67 106 147.5Q61 228 61 347Q61 436 87 503.5Q113 571 158.5 616.5Q204 662 263 685Q322 708 388 708Q477 708 551 667.5Q625 627 670 546.5Q715 466 715 347Q715 228 670 147.5Q625 67 551 26Q477 -15 388 -15ZM388 55Q463 55 518 90.5Q573 126 603 191.5Q633 257 633 347Q633 437 603 502.5Q573 568 518 603Q463 638 388 638Q313 638 258 603Q203 568 173 502.5Q143 437 143 347Q143 257 173 191.5Q203 126 258 90.5Q313 55 388 55ZM476 777Q455 777 440.5 791.5Q426 806 426 829Q426 852 440.5 866Q455 880 476 880Q497 880 511.5 866Q526 852 526 829Q526 806 511.5 791.5Q497 777 476 777ZM299 777Q278 777 264 791.5Q250 806 250 829Q250 852 264 866Q278 880 299 880Q320 880 334.5 866Q349 852 349 829Q349 806 334.5 791.5Q320 777 299 777Z" />
<glyph glyph-name="multiply" unicode="&#xd7;" horiz-adv-x="564" d="M131 95L87 139L239 290L87 441L131 486L282 334L433 486L478 441L326 290L478 139L433 95L282 247Z" />
<glyph glyph-name="Oslash" unicode="&#xd8;" horiz-adv-x="776" d="M136 -35L84 4L148 87Q107 132 84 197.5Q61 263 61 347Q61 436 87 503.5Q113 571 158.5 616.5Q204 662 263 685Q322 708 388 708Q441 708 490.5 693Q540 678 581 647L644 729L696 690L629 603Q669 558 692 494Q715 430 715 347Q715 228 670 147.5Q625 67 551 26Q477 -15 388 -15Q335 -15 286 -0.5Q237 14 196 44ZM197 150L536 589Q506 613 469 625.5Q432 638 388 638Q313 638 258 603Q203 568 173 502.5Q143 437 143 347Q143 286 157 236.5Q171 187 197 150ZM388 55Q463 55 518 90.5Q573 126 603 191.5Q633 257 633 347Q633 406 619.5 455Q606 504 581 541L241 102Q300 55 388 55Z" />
<glyph glyph-name="Ugrave" unicode="&#xd9;" horiz-adv-x="683" d="M341 -15Q248 -15 192 21Q136 57 110.5 119Q85 181 85 258L85 693L163 693L163 267Q163 156 212.5 105.5Q262 55 341 55Q421 55 470.5 106Q520 157 520 267L520 693L598 693L598 258Q598 181 572.5 119Q547 57 491 21Q435 -15 341 -15ZM377 737L206 876L258 931L414 778Z" />
<glyph glyph-name="Uacute" unicode="&#xda;" horiz-adv-x="683" d="M341 -15Q248 -15 192 21Q136 57 110.5 119Q85 181 85 258L85 693L163 693L163 267Q163 156 212.5 105.5Q262 55 341 55Q421 55 470.5 106Q520 157 520 267L520 693L598 693L598 258Q598 181 572.5 119Q547 57 491 21Q435 -15 341 -15ZM308 737L271 778L427 931L479 876Z" />
<glyph glyph-name="Ucircumflex" unicode="&#xdb;" horiz-adv-x="683" d="M341 -15Q248 -15 192 21Q136 57 110.5 119Q85 181 85 258L85 693L163 693L163 267Q163 156 212.5 105.5Q262 55 341 55Q421 55 470.5 106Q520 157 520 267L520 693L598 693L598 258Q598 181 572.5 119Q547 57 491 21Q435 -15 341 -15ZM239 738L207 773L342 919L477 773L446 738L342 832Z" />
<glyph glyph-name="Udieresis" unicode="&#xdc;" horiz-adv-x="683" d="M341 -15Q248 -15 192 21Q136 57 110.5 119Q85 181 85 258L85 693L163 693L163 267Q163 156 212.5 105.5Q262 55 341 55Q421 55 470.5 106Q520 157 520 267L520 693L598 693L598 258Q598 181 572.5 119Q547 57 491 21Q435 -15 341 -15ZM430 777Q409 777 394.5 791.5Q380 806 380 829Q380 852 394.5 866Q409 880 430 880Q451 880 465.5 866Q480 852 480 829Q480 806 465.5 791.5Q451 777 430 777ZM253 777Q232 777 218 791.5Q204 806 204 829Q204 852 218 866Q232 880 253 880Q274 880 288.5 866Q303 852 303 829Q303 806 288.5 791.5Q274 777 253 777Z" />
<glyph glyph-name="Yacute" unicode="&#xdd;" horiz-adv-x="579" d="M251 0L251 282Q216 336 183.5 388.5Q151 441 121 492.5Q91 544 63 594Q35 644 9 693L100 693Q141 608 190 519Q239 430 292 350Q327 404 360.5 461.5Q394 519 425.5 577.5Q457 636 485 693L570 693Q543 645 515 594.5Q487 544 457.5 493Q428 442 396 389.5Q364 337 329 284L329 0ZM256 737L219 778L375 931L427 876Z" />
<glyph glyph-name="Thorn" unicode="&#xde;" horiz-adv-x="599" d="M89 0L89 693L167 693L167 573Q184 575 214.5 576.5Q245 578 268 578Q366 578 431 553Q496 528 529 479.5Q562 431 562 361Q562 282 525.5 234Q489 186 420.5 164.5Q352 143 256 143L167 143L167 0ZM167 210L249 210Q320 210 372 222.5Q424 235 452.5 268Q481 301 481 362Q481 421 451 453Q421 485 373 498Q325 511 270 511Q236 511 210 509Q184 507 167 505Z" />
<glyph glyph-name="germandbls" unicode="&#xdf;" horiz-adv-x="603" d="M374 -12Q325 -12 289.5 -1.5Q254 9 243 14L259 81Q267 76 298.5 64Q330 52 384 52Q436 52 464.5 78Q493 104 493 147Q493 175 482 194.5Q471 214 448.5 231Q426 248 389 266Q346 289 322 306Q298 323 289 342Q280 361 280 389Q280 424 300 450Q320 476 345 503Q374 534 391 556Q408 578 408 613Q408 657 377.5 683.5Q347 710 297 710Q224 710 191 669Q158 628 158 557L158 0L84 0L84 560Q84 626 109 674.5Q134 723 180 749.5Q226 776 289 776Q356 776 398 756Q440 736 460.5 700.5Q481 665 481 618Q481 584 468 558Q455 532 437.5 513Q420 494 406 480Q379 452 367 435.5Q355 419 355 396Q355 368 379.5 352.5Q404 337 431 323Q470 305 501 284Q532 263 550.5 231Q569 199 569 147Q569 97 546 61Q523 25 479.5 6.5Q436 -12 374 -12Z" />
<glyph glyph-name="agrave" unicode="&#xe0;" horiz-adv-x="514" d="M241 -11Q185 -11 141 5Q97 21 72 57Q47 93 47 152Q47 209 75 244.5Q103 280 152.5 296Q202 312 264 312Q292 312 323 307Q354 302 362 298L362 328Q362 362 353.5 393.5Q345 425 319 445Q293 465 240 465Q185 465 156 457Q127 449 113 444L103 508Q121 516 158 523Q195 530 245 530Q316 530 357.5 505Q399 480 417.5 436.5Q436 393 436 337L436 12Q415 7 361 -2Q307 -11 241 -11ZM252 53Q287 53 315 55.5Q343 58 362 62L362 236Q352 241 328 246Q304 251 266 251Q234 251 201 244Q168 237 145.5 216Q123 195 123 153Q123 97 158 75Q193 53 252 53ZM296 582L125 721L177 776L333 623Z" />
<glyph glyph-name="aacute" unicode="&#xe1;" horiz-adv-x="514" d="M241 -11Q185 -11 141 5Q97 21 72 57Q47 93 47 152Q47 209 75 244.5Q103 280 152.5 296Q202 312 264 312Q292 312 323 307Q354 302 362 298L362 328Q362 362 353.5 393.5Q345 425 319 445Q293 465 240 465Q185 465 156 457Q127 449 113 444L103 508Q121 516 158 523Q195 530 245 530Q316 530 357.5 505Q399 480 417.5 436.5Q436 393 436 337L436 12Q415 7 361 -2Q307 -11 241 -11ZM252 53Q287 53 315 55.5Q343 58 362 62L362 236Q352 241 328 246Q304 251 266 251Q234 251 201 244Q168 237 145.5 216Q123 195 123 153Q123 97 158 75Q193 53 252 53ZM227 582L190 623L346 776L398 721Z" />
<glyph glyph-name="acircumflex" unicode="&#xe2;" horiz-adv-x="514" d="M241 -11Q185 -11 141 5Q97 21 72 57Q47 93 47 152Q47 209 75 244.5Q103 280 152.5 296Q202 312 264 312Q292 312 323 307Q354 302 362 298L362 328Q362 362 353.5 393.5Q345 425 319 445Q293 465 240 465Q185 465 156 457Q127 449 113 444L103 508Q121 516 158 523Q195 530 245 530Q316 530 357.5 505Q399 480 417.5 436.5Q436 393 436 337L436 12Q415 7 361 -2Q307 -11 241 -11ZM252 53Q287 53 315 55.5Q343 58 362 62L362 236Q352 241 328 246Q304 251 266 251Q234 251 201 244Q168 237 145.5 216Q123 195 123 153Q123 97 158 75Q193 53 252 53ZM158 583L126 618L261 764L396 618L365 583L261 677Z" />
<glyph glyph-name="atilde" unicode="&#xe3;" horiz-adv-x="514" d="M241 -11Q185 -11 141 5Q97 21 72 57Q47 93 47 152Q47 209 75 244.5Q103 280 152.5 296Q202 312 264 312Q292 312 323 307Q354 302 362 298L362 328Q362 362 353.5 393.5Q345 425 319 445Q293 465 240 465Q185 465 156 457Q127 449 113 444L103 508Q121 516 158 523Q195 530 245 530Q316 530 357.5 505Q399 480 417.5 436.5Q436 393 436 337L436 12Q415 7 361 -2Q307 -11 241 -11ZM252 53Q287 53 315 55.5Q343 58 362 62L362 236Q352 241 328 246Q304 251 266 251Q234 251 201 244Q168 237 145.5 216Q123 195 123 153Q123 97 158 75Q193 53 252 53ZM141 620L99 642Q106 659 119 678Q132 697 151.5 710.5Q171 724 198 724Q225 724 246 714.5Q267 705 286 695.5Q305 686 325 686Q346 686 358.5 699.5Q371 713 381 730L423 709Q416 693 403 673.5Q390 654 370.5 640Q351 626 324 626Q297 626 276 636Q255 646 236 655.5Q217 665 196 665Q175 665 163 651Q151 637 141 620Z" />
<glyph glyph-name="adieresis" unicode="&#xe4;" horiz-adv-x="514" d="M241 -11Q185 -11 141 5Q97 21 72 57Q47 93 47 152Q47 209 75 244.5Q103 280 152.5 296Q202 312 264 312Q292 312 323 307Q354 302 362 298L362 328Q362 362 353.5 393.5Q345 425 319 445Q293 465 240 465Q185 465 156 457Q127 449 113 444L103 508Q121 516 158 523Q195 530 245 530Q316 530 357.5 505Q399 480 417.5 436.5Q436 393 436 337L436 12Q415 7 361 -2Q307 -11 241 -11ZM252 53Q287 53 315 55.5Q343 58 362 62L362 236Q352 241 328 246Q304 251 266 251Q234 251 201 244Q168 237 145.5 216Q123 195 123 153Q123 97 158 75Q193 53 252 53ZM349 622Q328 622 313.5 636.5Q299 651 299 674Q299 697 313.5 711Q328 725 349 725Q370 725 384.5 711Q399 697 399 674Q399 651 384.5 636.5Q370 622 349 622ZM172 622Q151 622 137 636.5Q123 651 123 674Q123 697 137 711Q151 725 172 725Q193 725 207.5 711Q222 697 222 674Q222 651 207.5 636.5Q193 622 172 622Z" />
<glyph glyph-name="aring" unicode="&#xe5;" horiz-adv-x="514" d="M241 -11Q185 -11 141 5Q97 21 72 57Q47 93 47 152Q47 209 75 244.5Q103 280 152.5 296Q202 312 264 312Q292 312 323 307Q354 302 362 298L362 328Q362 362 353.5 393.5Q345 425 319 445Q293 465 240 465Q185 465 156 457Q127 449 113 444L103 508Q121 516 158 523Q195 530 245 530Q316 530 357.5 505Q399 480 417.5 436.5Q436 393 436 337L436 12Q415 7 361 -2Q307 -11 241 -11ZM252 53Q287 53 315 55.5Q343 58 362 62L362 236Q352 241 328 246Q304 251 266 251Q234 251 201 244Q168 237 145.5 216Q123 195 123 153Q123 97 158 75Q193 53 252 53ZM261 580Q221 580 192 607Q163 634 163 679Q163 723 192 749.5Q221 776 261 776Q300 776 329.5 749.5Q359 723 359 679Q359 634 329.5 607Q300 580 261 580ZM261 621Q284 621 300.5 636Q317 651 317 679Q317 706 300.5 721Q284 736 261 736Q238 736 221.5 721Q205 706 205 679Q205 651 221.5 636Q238 621 261 621Z" />
<glyph glyph-name="ae" unicode="&#xe6;" horiz-adv-x="856" d="M253 -11Q194 -11 147 5Q100 21 73.5 57Q47 93 47 152Q47 209 75 244.5Q103 280 152.5 296Q202 312 264 312Q292 312 323 307Q354 302 362 298L362 328Q362 363 353.5 394Q345 425 319 445Q293 465 240 465Q188 465 157 457.5Q126 450 112 445L103 508Q121 516 158.5 523Q196 530 245 530Q315 530 355 504.5Q395 479 413 435Q447 483 493 506.5Q539 530 588 530Q653 530 700 502.5Q747 475 773 418.5Q799 362 799 275Q799 268 798.5 258.5Q798 249 797 241L437 241Q440 153 484 104.5Q528 56 619 56Q670 56 702.5 65.5Q735 75 750 82L763 19Q748 11 707.5 0Q667 -11 615 -11Q557 -11 513 3Q469 17 437 47Q412 29 368 9Q324 -11 253 -11ZM254 53Q293 53 321.5 60.5Q350 68 368.5 78Q387 88 397 96Q381 123 372.5 157.5Q364 192 363 236Q352 241 328 246Q304 251 266 251Q234 251 201 244Q168 237 145.5 216Q123 195 123 153Q123 97 159.5 75Q196 53 254 53ZM438 302L723 302Q722 353 706 389.5Q690 426 660.5 445.5Q631 465 588 465Q544 465 511 442Q478 419 459.5 382Q441 345 438 302Z" />
<glyph glyph-name="ccedilla" unicode="&#xe7;" horiz-adv-x="465" d="M256 -191Q236 -191 215 -187Q194 -183 183 -179L192 -131Q203 -135 217.5 -137.5Q232 -140 251 -140Q271 -140 281.5 -132.5Q292 -125 292 -111Q292 -95 278 -85.5Q264 -76 234 -65Q238 -53 245 -37Q252 -21 259 -8Q192 1 146 36Q100 71 77 128Q54 185 54 258Q54 339 83 400Q112 461 166.5 495.5Q221 530 296 530Q337 530 374 523Q411 516 432 505L413 442Q393 451 368 457Q343 463 302 463Q219 463 175.5 409Q132 355 132 258Q132 198 150 152.5Q168 107 208 81.5Q248 56 314 56Q353 56 382.5 65Q412 74 426 81L441 17Q423 7 386.5 -1.5Q350 -10 309 -11Q306 -18 303 -24.5Q300 -31 298 -36Q327 -49 342.5 -66.5Q358 -84 358 -113Q358 -131 349 -149Q340 -167 318 -179Q296 -191 256 -191Z" />
<glyph glyph-name="egrave" unicode="&#xe8;" horiz-adv-x="552" d="M311 -11Q220 -11 163.5 24Q107 59 80.5 120Q54 181 54 259Q54 350 87 410Q120 470 172.5 500Q225 530 283 530Q348 530 395.5 502.5Q443 475 469 418.5Q495 362 495 275Q495 268 494.5 258.5Q494 249 493 241L132 241Q136 153 179.5 104.5Q223 56 315 56Q366 56 398.5 65.5Q431 75 445 82L458 19Q444 11 403.5 0Q363 -11 311 -11ZM134 302L419 302Q418 353 402 389.5Q386 426 356.5 445.5Q327 465 284 465Q240 465 207 442Q174 419 155.5 382Q137 345 134 302ZM317 582L146 721L198 776L354 623Z" />
<glyph glyph-name="eacute" unicode="&#xe9;" horiz-adv-x="552" d="M311 -11Q220 -11 163.5 24Q107 59 80.5 120Q54 181 54 259Q54 350 87 410Q120 470 172.5 500Q225 530 283 530Q348 530 395.5 502.5Q443 475 469 418.5Q495 362 495 275Q495 268 494.5 258.5Q494 249 493 241L132 241Q136 153 179.5 104.5Q223 56 315 56Q366 56 398.5 65.5Q431 75 445 82L458 19Q444 11 403.5 0Q363 -11 311 -11ZM134 302L419 302Q418 353 402 389.5Q386 426 356.5 445.5Q327 465 284 465Q240 465 207 442Q174 419 155.5 382Q137 345 134 302ZM248 582L211 623L367 776L419 721Z" />
<glyph glyph-name="ecircumflex" unicode="&#xea;" horiz-adv-x="552" d="M311 -11Q220 -11 163.5 24Q107 59 80.5 120Q54 181 54 259Q54 350 87 410Q120 470 172.5 500Q225 530 283 530Q348 530 395.5 502.5Q443 475 469 418.5Q495 362 495 275Q495 268 494.5 258.5Q494 249 493 241L132 241Q136 153 179.5 104.5Q223 56 315 56Q366 56 398.5 65.5Q431 75 445 82L458 19Q444 11 403.5 0Q363 -11 311 -11ZM134 302L419 302Q418 353 402 389.5Q386 426 356.5 445.5Q327 465 284 465Q240 465 207 442Q174 419 155.5 382Q137 345 134 302ZM179 583L147 618L282 764L417 618L386 583L282 677Z" />
<glyph glyph-name="edieresis" unicode="&#xeb;" horiz-adv-x="552" d="M311 -11Q220 -11 163.5 24Q107 59 80.5 120Q54 181 54 259Q54 350 87 410Q120 470 172.5 500Q225 530 283 530Q348 530 395.5 502.5Q443 475 469 418.5Q495 362 495 275Q495 268 494.5 258.5Q494 249 493 241L132 241Q136 153 179.5 104.5Q223 56 315 56Q366 56 398.5 65.5Q431 75 445 82L458 19Q444 11 403.5 0Q363 -11 311 -11ZM134 302L419 302Q418 353 402 389.5Q386 426 356.5 445.5Q327 465 284 465Q240 465 207 442Q174 419 155.5 382Q137 345 134 302ZM370 622Q349 622 334.5 636.5Q320 651 320 674Q320 697 334.5 711Q349 725 370 725Q391 725 405.5 711Q420 697 420 674Q420 651 405.5 636.5Q391 622 370 622ZM193 622Q172 622 158 636.5Q144 651 144 674Q144 697 158 711Q172 725 193 725Q214 725 228.5 711Q243 697 243 674Q243 651 228.5 636.5Q214 622 193 622Z" />
<glyph glyph-name="igrave" unicode="&#xec;" horiz-adv-x="243" d="M84 0L84 518L159 518L159 0ZM157 582L-14 721L38 776L194 623Z" />
<glyph glyph-name="iacute" unicode="&#xed;" horiz-adv-x="243" d="M84 0L84 518L159 518L159 0ZM88 582L51 623L207 776L259 721Z" />
<glyph glyph-name="icircumflex" unicode="&#xee;" horiz-adv-x="243" d="M84 0L84 518L159 518L159 0ZM19 583L-13 618L122 764L257 618L226 583L122 677Z" />
<glyph glyph-name="idieresis" unicode="&#xef;" horiz-adv-x="243" d="M84 0L84 518L159 518L159 0ZM210 622Q189 622 174.5 636.5Q160 651 160 674Q160 697 174.5 711Q189 725 210 725Q231 725 245.5 711Q260 697 260 674Q260 651 245.5 636.5Q231 622 210 622ZM33 622Q12 622 -2 636.5Q-16 651 -16 674Q-16 697 -2 711Q12 725 33 725Q54 725 68.5 711Q83 697 83 674Q83 651 68.5 636.5Q54 622 33 622Z" />
<glyph glyph-name="eth" unicode="&#xf0;" horiz-adv-x="581" d="M279 -12Q209 -12 158.5 23Q108 58 81 116Q54 174 54 244Q54 321 83 375Q112 429 164.5 457.5Q217 486 287 486Q343 486 381.5 468.5Q420 451 436 437Q431 478 414.5 522Q398 566 371 607L242 562L224 611L338 651Q318 674 293.5 695Q269 716 242 732L290 776Q323 756 352 730.5Q381 705 406 675L525 717L544 668L439 630Q479 569 501 493Q523 417 523 329Q523 280 516.5 230.5Q510 181 494 137.5Q478 94 450 60.5Q422 27 380 7.5Q338 -12 279 -12ZM279 55Q330 55 363 78Q396 101 413.5 140.5Q431 180 438 229Q445 278 445 329Q445 337 445 345Q445 353 444 362Q410 395 373 408Q336 421 295 421Q237 421 201 397.5Q165 374 148 334Q131 294 131 244Q131 193 148 150Q165 107 198 81Q231 55 279 55Z" />
<glyph glyph-name="ntilde" unicode="&#xf1;" horiz-adv-x="571" d="M84 0L84 500Q115 508 165 518Q215 528 285 528Q366 528 411 498Q456 468 474.5 414.5Q493 361 493 290L493 0L418 0L418 269Q418 340 405 382Q392 424 361 443Q330 462 275 462Q233 462 201 457Q169 452 159 449L159 0ZM168 620L126 642Q133 659 146 678Q159 697 178.5 710.5Q198 724 225 724Q252 724 273 714.5Q294 705 313 695.5Q332 686 352 686Q373 686 385.5 699.5Q398 713 408 730L450 709Q443 693 430 673.5Q417 654 397.5 640Q378 626 351 626Q324 626 303 636Q282 646 263 655.5Q244 665 223 665Q202 665 190 651Q178 637 168 620Z" />
<glyph glyph-name="ograve" unicode="&#xf2;" horiz-adv-x="585" d="M292 -12Q223 -12 169 21.5Q115 55 84.5 116Q54 177 54 259Q54 341 84.5 401.5Q115 462 169 496Q223 530 292 530Q362 530 416 496Q470 462 500.5 401.5Q531 341 531 259Q531 177 500.5 116Q470 55 416.5 21.5Q363 -12 292 -12ZM292 55Q342 55 378 80Q414 105 433.5 151Q453 197 453 259Q453 321 433.5 367Q414 413 378 438Q342 463 292 463Q243 463 207 438Q171 413 151.5 367Q132 321 132 259Q132 197 151.5 151Q171 105 207 80Q243 55 292 55ZM327 582L156 721L208 776L364 623Z" />
<glyph glyph-name="oacute" unicode="&#xf3;" horiz-adv-x="585" d="M292 -12Q223 -12 169 21.5Q115 55 84.5 116Q54 177 54 259Q54 341 84.5 401.5Q115 462 169 496Q223 530 292 530Q362 530 416 496Q470 462 500.5 401.5Q531 341 531 259Q531 177 500.5 116Q470 55 416.5 21.5Q363 -12 292 -12ZM292 55Q342 55 378 80Q414 105 433.5 151Q453 197 453 259Q453 321 433.5 367Q414 413 378 438Q342 463 292 463Q243 463 207 438Q171 413 151.5 367Q132 321 132 259Q132 197 151.5 151Q171 105 207 80Q243 55 292 55ZM258 582L221 623L377 776L429 721Z" />
<glyph glyph-name="ocircumflex" unicode="&#xf4;" horiz-adv-x="585" d="M292 -12Q223 -12 169 21.5Q115 55 84.5 116Q54 177 54 259Q54 341 84.5 401.5Q115 462 169 496Q223 530 292 530Q362 530 416 496Q470 462 500.5 401.5Q531 341 531 259Q531 177 500.5 116Q470 55 416.5 21.5Q363 -12 292 -12ZM292 55Q342 55 378 80Q414 105 433.5 151Q453 197 453 259Q453 321 433.5 367Q414 413 378 438Q342 463 292 463Q243 463 207 438Q171 413 151.5 367Q132 321 132 259Q132 197 151.5 151Q171 105 207 80Q243 55 292 55ZM189 583L157 618L292 764L427 618L396 583L292 677Z" />
<glyph glyph-name="otilde" unicode="&#xf5;" horiz-adv-x="585" d="M292 -12Q223 -12 169 21.5Q115 55 84.5 116Q54 177 54 259Q54 341 84.5 401.5Q115 462 169 496Q223 530 292 530Q362 530 416 496Q470 462 500.5 401.5Q531 341 531 259Q531 177 500.5 116Q470 55 416.5 21.5Q363 -12 292 -12ZM292 55Q342 55 378 80Q414 105 433.5 151Q453 197 453 259Q453 321 433.5 367Q414 413 378 438Q342 463 292 463Q243 463 207 438Q171 413 151.5 367Q132 321 132 259Q132 197 151.5 151Q171 105 207 80Q243 55 292 55ZM172 620L130 642Q137 659 150 678Q163 697 182.5 710.5Q202 724 229 724Q256 724 277 714.5Q298 705 317 695.5Q336 686 356 686Q377 686 389.5 699.5Q402 713 412 730L454 709Q447 693 434 673.5Q421 654 401.5 640Q382 626 355 626Q328 626 307 636Q286 646 267 655.5Q248 665 227 665Q206 665 194 651Q182 637 172 620Z" />
<glyph glyph-name="odieresis" unicode="&#xf6;" horiz-adv-x="585" d="M292 -12Q223 -12 169 21.5Q115 55 84.5 116Q54 177 54 259Q54 341 84.5 401.5Q115 462 169 496Q223 530 292 530Q362 530 416 496Q470 462 500.5 401.5Q531 341 531 259Q531 177 500.5 116Q470 55 416.5 21.5Q363 -12 292 -12ZM292 55Q342 55 378 80Q414 105 433.5 151Q453 197 453 259Q453 321 433.5 367Q414 413 378 438Q342 463 292 463Q243 463 207 438Q171 413 151.5 367Q132 321 132 259Q132 197 151.5 151Q171 105 207 80Q243 55 292 55ZM380 622Q359 622 344.5 636.5Q330 651 330 674Q330 697 344.5 711Q359 725 380 725Q401 725 415.5 711Q430 697 430 674Q430 651 415.5 636.5Q401 622 380 622ZM203 622Q182 622 168 636.5Q154 651 154 674Q154 697 168 711Q182 725 203 725Q224 725 238.5 711Q253 697 253 674Q253 651 238.5 636.5Q224 622 203 622Z" />
<glyph glyph-name="divide" unicode="&#xf7;" horiz-adv-x="564" d="M55 258L55 322L509 322L509 258ZM281 47Q260 47 245 61.5Q230 76 230 100Q230 124 245 138.5Q260 153 281 153Q304 153 319 138.5Q334 124 334 100Q334 76 319 61.5Q304 47 281 47ZM281 426Q260 426 245 441Q230 456 230 480Q230 503 245 518Q260 533 281 533Q304 533 319 518Q334 503 334 480Q334 456 319 441Q304 426 281 426Z" />
<glyph glyph-name="oslash" unicode="&#xf8;" horiz-adv-x="585" d="M104 -35L58 0L113 71Q85 106 69.5 153.5Q54 201 54 259Q54 341 84.5 401.5Q115 462 169 496Q223 530 292 530Q333 530 368.5 518.5Q404 507 432 484L483 550L528 517L473 445Q501 411 516 363.5Q531 316 531 259Q531 177 500.5 116Q470 55 416.5 21.5Q363 -12 292 -12Q252 -12 217.5 -1Q183 10 154 32ZM292 54Q342 54 378 79Q414 104 433.5 150Q453 196 453 259Q453 295 446 326.5Q439 358 425 383L197 86Q235 54 292 54ZM160 132L390 429Q371 446 346 455Q321 464 292 464Q243 464 207 439Q171 414 151 368Q131 322 131 259Q131 221 138.5 189.5Q146 158 160 132Z" />
<glyph glyph-name="ugrave" unicode="&#xf9;" horiz-adv-x="571" d="M286 -10Q208 -10 162.5 19.5Q117 49 97.5 103Q78 157 78 228L78 518L153 518L153 248Q153 178 167 136Q181 94 212.5 75.5Q244 57 296 57Q338 57 370.5 61.5Q403 66 413 69L413 518L487 518L487 18Q457 10 406.5 0Q356 -10 286 -10ZM317 582L146 721L198 776L354 623Z" />
<glyph glyph-name="uacute" unicode="&#xfa;" horiz-adv-x="571" d="M286 -10Q208 -10 162.5 19.5Q117 49 97.5 103Q78 157 78 228L78 518L153 518L153 248Q153 178 167 136Q181 94 212.5 75.5Q244 57 296 57Q338 57 370.5 61.5Q403 66 413 69L413 518L487 518L487 18Q457 10 406.5 0Q356 -10 286 -10ZM248 582L211 623L367 776L419 721Z" />
<glyph glyph-name="ucircumflex" unicode="&#xfb;" horiz-adv-x="571" d="M286 -10Q208 -10 162.5 19.5Q117 49 97.5 103Q78 157 78 228L78 518L153 518L153 248Q153 178 167 136Q181 94 212.5 75.5Q244 57 296 57Q338 57 370.5 61.5Q403 66 413 69L413 518L487 518L487 18Q457 10 406.5 0Q356 -10 286 -10ZM179 583L147 618L282 764L417 618L386 583L282 677Z" />
<glyph glyph-name="udieresis" unicode="&#xfc;" horiz-adv-x="571" d="M286 -10Q208 -10 162.5 19.5Q117 49 97.5 103Q78 157 78 228L78 518L153 518L153 248Q153 178 167 136Q181 94 212.5 75.5Q244 57 296 57Q338 57 370.5 61.5Q403 66 413 69L413 518L487 518L487 18Q457 10 406.5 0Q356 -10 286 -10ZM370 622Q349 622 334.5 636.5Q320 651 320 674Q320 697 334.5 711Q349 725 370 725Q391 725 405.5 711Q420 697 420 674Q420 651 405.5 636.5Q391 622 370 622ZM193 622Q172 622 158 636.5Q144 651 144 674Q144 697 158 711Q172 725 193 725Q214 725 228.5 711Q243 697 243 674Q243 651 228.5 636.5Q214 622 193 622Z" />
<glyph glyph-name="yacute" unicode="&#xfd;" horiz-adv-x="482" d="M77 -188Q52 -188 30 -182Q8 -176 1 -172L16 -111Q22 -114 41 -119.5Q60 -125 79 -125Q116 -125 142 -114Q168 -103 188 -77Q208 -51 225 -7Q182 72 143.5 160Q105 248 73 339Q41 430 19 518L98 518Q109 471 125.5 417Q142 363 162.5 305Q183 247 208 187.5Q233 128 261 70Q289 149 310 219.5Q331 290 349 362.5Q367 435 386 518L461 518Q439 422 412.5 328Q386 234 356.5 147.5Q327 61 294 -16Q269 -76 241 -114Q213 -152 174.5 -170Q136 -188 77 -188ZM207 582L170 623L326 776L378 721Z" />
<glyph glyph-name="thorn" unicode="&#xfe;" horiz-adv-x="585" d="M84 -185L84 763L159 776L159 505Q188 516 218.5 522Q249 528 280 528Q355 528 412 495Q469 462 500.5 401.5Q532 341 532 258Q532 179 504.5 118Q477 57 425 22.5Q373 -12 298 -12Q250 -12 213.5 1.5Q177 15 159 28L159 -185ZM289 55Q334 55 365.5 70.5Q397 86 416.5 114Q436 142 444.5 178.5Q453 215 453 257Q453 322 431 368Q409 414 368.5 438Q328 462 274 462Q234 462 202 453.5Q170 445 159 440L159 98Q176 85 211 70Q246 55 289 55Z" />
<glyph glyph-name="ydieresis" unicode="&#xff;" horiz-adv-x="482" d="M77 -188Q52 -188 30 -182Q8 -176 1 -172L16 -111Q22 -114 41 -119.5Q60 -125 79 -125Q116 -125 142 -114Q168 -103 188 -77Q208 -51 225 -7Q182 72 143.5 160Q105 248 73 339Q41 430 19 518L98 518Q109 471 125.5 417Q142 363 162.5 305Q183 247 208 187.5Q233 128 261 70Q289 149 310 219.5Q331 290 349 362.5Q367 435 386 518L461 518Q439 422 412.5 328Q386 234 356.5 147.5Q327 61 294 -16Q269 -76 241 -114Q213 -152 174.5 -170Q136 -188 77 -188ZM329 622Q308 622 293.5 636.5Q279 651 279 674Q279 697 293.5 711Q308 725 329 725Q350 725 364.5 711Q379 697 379 674Q379 651 364.5 636.5Q350 622 329 622ZM152 622Q131 622 117 636.5Q103 651 103 674Q103 697 117 711Q131 725 152 725Q173 725 187.5 711Q202 697 202 674Q202 651 187.5 636.5Q173 622 152 622Z" />
<glyph glyph-name="Amacron" unicode="&#x0100;" horiz-adv-x="650" d="M10 0Q64 145 109 264Q154 383 197.5 487.5Q241 592 290 693L360 693Q396 617 429.5 539.5Q463 462 496 379Q529 296 564.5 202.5Q600 109 640 0L555 0Q537 50 520 95.5Q503 141 488 185L158 185Q142 141 125 95.5Q108 50 91 0ZM181 251L465 251Q446 301 428 348Q410 395 392.5 439Q375 483 357.5 524.5Q340 566 322 606Q305 566 287.5 524.5Q270 483 252.5 439Q235 395 217 348Q199 301 181 251ZM191 801L191 861L461 861L461 801Z" />
<glyph glyph-name="amacron" unicode="&#x0101;" horiz-adv-x="514" d="M241 -11Q185 -11 141 5Q97 21 72 57Q47 93 47 152Q47 209 75 244.5Q103 280 152.5 296Q202 312 264 312Q292 312 323 307Q354 302 362 298L362 328Q362 362 353.5 393.5Q345 425 319 445Q293 465 240 465Q185 465 156 457Q127 449 113 444L103 508Q121 516 158 523Q195 530 245 530Q316 530 357.5 505Q399 480 417.5 436.5Q436 393 436 337L436 12Q415 7 361 -2Q307 -11 241 -11ZM252 53Q287 53 315 55.5Q343 58 362 62L362 236Q352 241 328 246Q304 251 266 251Q234 251 201 244Q168 237 145.5 216Q123 195 123 153Q123 97 158 75Q193 53 252 53ZM126 646L126 706L396 706L396 646Z" />
<glyph glyph-name="Abreve" unicode="&#x0102;" horiz-adv-x="650" d="M10 0Q64 145 109 264Q154 383 197.5 487.5Q241 592 290 693L360 693Q396 617 429.5 539.5Q463 462 496 379Q529 296 564.5 202.5Q600 109 640 0L555 0Q537 50 520 95.5Q503 141 488 185L158 185Q142 141 125 95.5Q108 50 91 0ZM181 251L465 251Q446 301 428 348Q410 395 392.5 439Q375 483 357.5 524.5Q340 566 322 606Q305 566 287.5 524.5Q270 483 252.5 439Q235 395 217 348Q199 301 181 251ZM326 766Q292 766 262.5 780.5Q233 795 215.5 825.5Q198 856 199 903L249 903Q250 892 255 873.5Q260 855 276.5 841Q293 827 326 827Q359 827 375.5 841Q392 855 398 873.5Q404 892 404 903L453 903Q455 856 437 825.5Q419 795 389.5 780.5Q360 766 326 766Z" />
<glyph glyph-name="abreve" unicode="&#x0103;" horiz-adv-x="514" d="M241 -11Q185 -11 141 5Q97 21 72 57Q47 93 47 152Q47 209 75 244.5Q103 280 152.5 296Q202 312 264 312Q292 312 323 307Q354 302 362 298L362 328Q362 362 353.5 393.5Q345 425 319 445Q293 465 240 465Q185 465 156 457Q127 449 113 444L103 508Q121 516 158 523Q195 530 245 530Q316 530 357.5 505Q399 480 417.5 436.5Q436 393 436 337L436 12Q415 7 361 -2Q307 -11 241 -11ZM252 53Q287 53 315 55.5Q343 58 362 62L362 236Q352 241 328 246Q304 251 266 251Q234 251 201 244Q168 237 145.5 216Q123 195 123 153Q123 97 158 75Q193 53 252 53ZM261 611Q227 611 197.5 625.5Q168 640 150.5 670.5Q133 701 134 748L184 748Q185 737 190 718.5Q195 700 211.5 686Q228 672 261 672Q294 672 310.5 686Q327 700 333 718.5Q339 737 339 748L388 748Q390 701 372 670.5Q354 640 324.5 625.5Q295 611 261 611Z" />
<glyph glyph-name="Aogonek" unicode="&#x0104;" horiz-adv-x="650" d="M587 -190Q532 -190 509 -169.5Q486 -149 486 -118Q486 -93 498.5 -70.5Q511 -48 528 -30Q545 -12 560 0L555 0Q537 49 520 95Q503 141 488 185L158 185Q142 141 125 95.5Q108 50 91 0L10 0Q64 145 109 264Q154 383 197.5 487.5Q241 592 290 693L360 693Q396 617 429.5 540Q463 463 495.5 380.5Q528 298 563.5 204.5Q599 111 639 2Q626 -8 607.5 -25Q589 -42 574.5 -61.5Q560 -81 560 -100Q560 -116 571.5 -124Q583 -132 601 -132Q610 -132 620.5 -131Q631 -130 640 -126L646 -180Q637 -184 620 -187Q603 -190 587 -190ZM181 251L465 251Q446 301 428 348Q410 395 392.5 439Q375 483 357.5 524.5Q340 566 322 606Q305 566 287.5 524.5Q270 483 252.5 439Q235 395 217 348Q199 301 181 251Z" />
<glyph glyph-name="aogonek" unicode="&#x0105;" horiz-adv-x="514" d="M378 -190Q323 -190 300 -169.5Q277 -149 277 -118Q277 -80 301 -52Q325 -24 351 -4Q327 -7 298.5 -9Q270 -11 241 -11Q185 -11 141 5Q97 21 72 57Q47 93 47 152Q47 209 75 244.5Q103 280 152.5 296Q202 312 264 312Q292 312 323 307Q354 302 362 298L362 328Q362 362 353.5 393.5Q345 425 319 445Q293 465 240 465Q188 465 157 457.5Q126 450 112 445L103 508Q121 516 158.5 523Q196 530 245 530Q316 530 357.5 505Q399 480 417.5 436.5Q436 393 436 337L436 11Q422 -1 401.5 -19.5Q381 -38 366 -59Q351 -80 351 -100Q351 -116 362.5 -124Q374 -132 392 -132Q401 -132 411.5 -131Q422 -130 431 -126L437 -180Q428 -184 411 -187Q394 -190 378 -190ZM252 53Q287 53 315 55.5Q343 58 362 62L362 236Q352 241 328 246Q304 251 266 251Q234 251 201 244Q168 237 145.5 216Q123 195 123 153Q123 97 158 75Q193 53 252 53Z" />
<glyph glyph-name="Cacute" unicode="&#x0106;" horiz-adv-x="613" d="M380 -15Q289 -15 216.5 27Q144 69 102.5 149.5Q61 230 61 347Q61 434 87 501.5Q113 569 158.5 615Q204 661 262.5 684.5Q321 708 385 708Q438 708 477.5 699.5Q517 691 543 680Q569 669 581 661L556 595Q531 610 491.5 624Q452 638 396 638Q314 638 257.5 601.5Q201 565 172 499.5Q143 434 143 346Q143 258 171 192.5Q199 127 253.5 91Q308 55 387 55Q453 55 497 67.5Q541 80 565 93L586 27Q570 17 516.5 1Q463 -15 380 -15ZM331 737L294 778L450 931L502 876Z" />
<glyph glyph-name="cacute" unicode="&#x0107;" horiz-adv-x="465" d="M302 -11Q220 -11 165 22.5Q110 56 82 117Q54 178 54 258Q54 339 83 400Q112 461 166.5 495.5Q221 530 296 530Q337 530 374 523Q411 516 432 505L413 442Q393 451 368 457Q343 463 302 463Q219 463 175.5 409Q132 355 132 258Q132 198 150 152.5Q168 107 208 81.5Q248 56 314 56Q353 56 382.5 65Q412 74 426 81L441 17Q422 7 383 -2Q344 -11 302 -11ZM249 582L212 623L368 776L420 721Z" />
<glyph glyph-name="Ccircumflex" unicode="&#x0108;" horiz-adv-x="613" d="M380 -15Q289 -15 216.5 27Q144 69 102.5 149.5Q61 230 61 347Q61 434 87 501.5Q113 569 158.5 615Q204 661 262.5 684.5Q321 708 385 708Q438 708 477.5 699.5Q517 691 543 680Q569 669 581 661L556 595Q531 610 491.5 624Q452 638 396 638Q314 638 257.5 601.5Q201 565 172 499.5Q143 434 143 346Q143 258 171 192.5Q199 127 253.5 91Q308 55 387 55Q453 55 497 67.5Q541 80 565 93L586 27Q570 17 516.5 1Q463 -15 380 -15ZM262 738L230 773L365 919L500 773L469 738L365 832Z" />
<glyph glyph-name="ccircumflex" unicode="&#x0109;" horiz-adv-x="465" d="M302 -11Q220 -11 165 22.5Q110 56 82 117Q54 178 54 258Q54 339 83 400Q112 461 166.5 495.5Q221 530 296 530Q337 530 374 523Q411 516 432 505L413 442Q393 451 368 457Q343 463 302 463Q219 463 175.5 409Q132 355 132 258Q132 198 150 152.5Q168 107 208 81.5Q248 56 314 56Q353 56 382.5 65Q412 74 426 81L441 17Q422 7 383 -2Q344 -11 302 -11ZM180 583L148 618L283 764L418 618L387 583L283 677Z" />
<glyph glyph-name="Cdotaccent" unicode="&#x010a;" horiz-adv-x="613" d="M380 -15Q289 -15 216.5 27Q144 69 102.5 149.5Q61 230 61 347Q61 434 87 501.5Q113 569 158.5 615Q204 661 262.5 684.5Q321 708 385 708Q438 708 477.5 699.5Q517 691 543 680Q569 669 581 661L556 595Q531 610 491.5 624Q452 638 396 638Q314 638 257.5 601.5Q201 565 172 499.5Q143 434 143 346Q143 258 171 192.5Q199 127 253.5 91Q308 55 387 55Q453 55 497 67.5Q541 80 565 93L586 27Q570 17 516.5 1Q463 -15 380 -15ZM365 775Q343 775 328 790Q313 805 313 829Q313 853 328 867.5Q343 882 365 882Q386 882 401.5 867.5Q417 853 417 829Q417 805 401.5 790Q386 775 365 775Z" />
<glyph glyph-name="cdotaccent" unicode="&#x010b;" horiz-adv-x="465" d="M302 -11Q220 -11 165 22.5Q110 56 82 117Q54 178 54 258Q54 339 83 400Q112 461 166.5 495.5Q221 530 296 530Q337 530 374 523Q411 516 432 505L413 442Q393 451 368 457Q343 463 302 463Q219 463 175.5 409Q132 355 132 258Q132 198 150 152.5Q168 107 208 81.5Q248 56 314 56Q353 56 382.5 65Q412 74 426 81L441 17Q422 7 383 -2Q344 -11 302 -11ZM283 620Q261 620 246 635Q231 650 231 674Q231 698 246 712.5Q261 727 283 727Q304 727 319.5 712.5Q335 698 335 674Q335 650 319.5 635Q304 620 283 620Z" />
<glyph glyph-name="Ccaron" unicode="&#x010c;" horiz-adv-x="613" d="M380 -15Q289 -15 216.5 27Q144 69 102.5 149.5Q61 230 61 347Q61 434 87 501.5Q113 569 158.5 615Q204 661 262.5 684.5Q321 708 385 708Q438 708 477.5 699.5Q517 691 543 680Q569 669 581 661L556 595Q531 610 491.5 624Q452 638 396 638Q314 638 257.5 601.5Q201 565 172 499.5Q143 434 143 346Q143 258 171 192.5Q199 127 253.5 91Q308 55 387 55Q453 55 497 67.5Q541 80 565 93L586 27Q570 17 516.5 1Q463 -15 380 -15ZM365 742L230 888L261 923L365 829L469 923L500 888Z" />
<glyph glyph-name="ccaron" unicode="&#x010d;" horiz-adv-x="465" d="M302 -11Q220 -11 165 22.5Q110 56 82 117Q54 178 54 258Q54 339 83 400Q112 461 166.5 495.5Q221 530 296 530Q337 530 374 523Q411 516 432 505L413 442Q393 451 368 457Q343 463 302 463Q219 463 175.5 409Q132 355 132 258Q132 198 150 152.5Q168 107 208 81.5Q248 56 314 56Q353 56 382.5 65Q412 74 426 81L441 17Q422 7 383 -2Q344 -11 302 -11ZM283 587L148 733L179 768L283 674L387 768L418 733Z" />
<glyph glyph-name="Dcaron" unicode="&#x010e;" horiz-adv-x="706" d="M262 -6Q220 -6 173 -2Q126 2 89 12L89 680Q126 690 173.5 694.5Q221 699 263 699Q376 699 462 660.5Q548 622 596.5 544Q645 466 645 347Q645 229 596.5 150.5Q548 72 462 33Q376 -6 262 -6ZM270 61Q416 61 489.5 137.5Q563 214 563 347Q563 480 490 556Q417 632 271 632Q222 632 198 629Q174 626 167 625L167 68Q174 67 197 64Q220 61 270 61ZM351 742L216 888L247 923L351 829L455 923L486 888Z" />
<glyph glyph-name="dcaron" unicode="&#x010f;" horiz-adv-x="623" d="M310 -12Q234 -12 176 20.5Q118 53 86 113.5Q54 174 54 258Q54 338 81.5 399Q109 460 161.5 494.5Q214 529 288 529Q336 529 372.5 515.5Q409 502 427 489L427 763L501 776L501 16Q482 10 454 3.5Q426 -3 390.5 -7.5Q355 -12 310 -12ZM311 55Q355 55 383.5 59.5Q412 64 427 68L427 419Q410 433 375 447.5Q340 462 296 462Q251 462 219.5 446.5Q188 431 168.5 403Q149 375 140.5 338Q132 301 132 259Q132 194 154.5 148.5Q177 103 217.5 79Q258 55 311 55ZM579 556L579 776L655 776L630 556Z" />
<glyph glyph-name="Dcroat" unicode="&#x0110;" horiz-adv-x="720" d="M276 -6Q234 -6 186.5 -2Q139 2 103 12L103 331L22 331L22 393L103 393L103 680Q139 690 187 694.5Q235 699 277 699Q390 699 476 660.5Q562 622 610.5 544Q659 466 659 347Q659 229 610.5 150.5Q562 72 475.5 33Q389 -6 276 -6ZM284 61Q430 61 503.5 137.5Q577 214 577 347Q577 480 504 556Q431 632 285 632Q235 632 211.5 629Q188 626 181 625L181 393L312 393L312 331L181 331L181 68Q187 67 210.5 64Q234 61 284 61Z" />
<glyph glyph-name="dcroat" unicode="&#x0111;" horiz-adv-x="586" d="M310 -12Q234 -12 176 20.5Q118 53 86 113.5Q54 174 54 257Q54 337 81.5 397.5Q109 458 161.5 492.5Q214 527 288 527Q336 527 372.5 513.5Q409 500 427 488L427 624L249 624L249 681L427 681L427 763L501 776L501 681L579 681L579 624L501 624L501 16Q482 10 454 3.5Q426 -3 390.5 -7.5Q355 -12 310 -12ZM311 55Q355 55 383.5 59.5Q412 64 427 68L427 418Q410 432 375 446.5Q340 461 296 461Q251 461 219.5 445Q188 429 168.5 401.5Q149 374 140.5 337Q132 300 132 258Q132 194 154.5 148.5Q177 103 217.5 79Q258 55 311 55Z" />
<glyph glyph-name="Emacron" unicode="&#x0112;" horiz-adv-x="561" d="M89 0L89 693L497 693L497 626L167 626L167 397L461 397L461 331L167 331L167 67L522 67L522 0ZM158 801L158 861L428 861L428 801Z" />
<glyph glyph-name="emacron" unicode="&#x0113;" horiz-adv-x="552" d="M311 -11Q220 -11 163.5 24Q107 59 80.5 120Q54 181 54 259Q54 350 87 410Q120 470 172.5 500Q225 530 283 530Q348 530 395.5 502.5Q443 475 469 418.5Q495 362 495 275Q495 268 494.5 258.5Q494 249 493 241L132 241Q136 153 179.5 104.5Q223 56 315 56Q366 56 398.5 65.5Q431 75 445 82L458 19Q444 11 403.5 0Q363 -11 311 -11ZM134 302L419 302Q418 353 402 389.5Q386 426 356.5 445.5Q327 465 284 465Q240 465 207 442Q174 419 155.5 382Q137 345 134 302ZM147 646L147 706L417 706L417 646Z" />
<glyph glyph-name="Ebreve" unicode="&#x0114;" horiz-adv-x="561" d="M89 0L89 693L497 693L497 626L167 626L167 397L461 397L461 331L167 331L167 67L522 67L522 0ZM293 766Q259 766 229.5 780.5Q200 795 182.5 825.5Q165 856 166 903L216 903Q217 892 222 873.5Q227 855 243.5 841Q260 827 293 827Q326 827 342.5 841Q359 855 365 873.5Q371 892 371 903L420 903Q422 856 404 825.5Q386 795 356.5 780.5Q327 766 293 766Z" />
<glyph glyph-name="ebreve" unicode="&#x0115;" horiz-adv-x="552" d="M311 -11Q220 -11 163.5 24Q107 59 80.5 120Q54 181 54 259Q54 350 87 410Q120 470 172.5 500Q225 530 283 530Q348 530 395.5 502.5Q443 475 469 418.5Q495 362 495 275Q495 268 494.5 258.5Q494 249 493 241L132 241Q136 153 179.5 104.5Q223 56 315 56Q366 56 398.5 65.5Q431 75 445 82L458 19Q444 11 403.5 0Q363 -11 311 -11ZM134 302L419 302Q418 353 402 389.5Q386 426 356.5 445.5Q327 465 284 465Q240 465 207 442Q174 419 155.5 382Q137 345 134 302ZM282 611Q248 611 218.5 625.5Q189 640 171.5 670.5Q154 701 155 748L205 748Q206 737 211 718.5Q216 700 232.5 686Q249 672 282 672Q315 672 331.5 686Q348 700 354 718.5Q360 737 360 748L409 748Q411 701 393 670.5Q375 640 345.5 625.5Q316 611 282 611Z" />
<glyph glyph-name="Edotaccent" unicode="&#x0116;" horiz-adv-x="561" d="M89 0L89 693L497 693L497 626L167 626L167 397L461 397L461 331L167 331L167 67L522 67L522 0ZM293 775Q271 775 256 790Q241 805 241 829Q241 853 256 867.5Q271 882 293 882Q314 882 329.5 867.5Q345 853 345 829Q345 805 329.5 790Q314 775 293 775Z" />
<glyph glyph-name="edotaccent" unicode="&#x0117;" horiz-adv-x="552" d="M311 -11Q220 -11 163.5 24Q107 59 80.5 120Q54 181 54 259Q54 350 87 410Q120 470 172.5 500Q225 530 283 530Q348 530 395.5 502.5Q443 475 469 418.5Q495 362 495 275Q495 268 494.5 258.5Q494 249 493 241L132 241Q136 153 179.5 104.5Q223 56 315 56Q366 56 398.5 65.5Q431 75 445 82L458 19Q444 11 403.5 0Q363 -11 311 -11ZM134 302L419 302Q418 353 402 389.5Q386 426 356.5 445.5Q327 465 284 465Q240 465 207 442Q174 419 155.5 382Q137 345 134 302ZM282 620Q260 620 245 635Q230 650 230 674Q230 698 245 712.5Q260 727 282 727Q303 727 318.5 712.5Q334 698 334 674Q334 650 318.5 635Q303 620 282 620Z" />
<glyph glyph-name="Eogonek" unicode="&#x0118;" horiz-adv-x="561" d="M470 -190Q415 -190 392 -169.5Q369 -149 369 -118Q369 -91 381.5 -68.5Q394 -46 412 -28.5Q430 -11 446 0L89 0L89 693L497 693L497 626L167 626L167 397L461 397L461 331L167 331L167 67L522 67L522 2Q509 -8 490.5 -25Q472 -42 457.5 -61.5Q443 -81 443 -100Q443 -116 454.5 -124Q466 -132 484 -132Q493 -132 503.5 -131Q514 -130 523 -126L529 -180Q520 -184 503 -187Q486 -190 470 -190Z" />
<glyph glyph-name="eogonek" unicode="&#x0119;" horiz-adv-x="552" d="M384 -190Q329 -190 306 -169.5Q283 -149 283 -118Q283 -82 307 -53.5Q331 -25 357 -6Q346 -8 334 -9Q322 -10 311 -10Q220 -10 163.5 24.5Q107 59 80.5 120Q54 181 54 259Q54 350 87 410Q120 470 172.5 500Q225 530 283 530Q348 530 395.5 502.5Q443 475 469 418.5Q495 362 495 275Q495 268 494.5 258.5Q494 249 493 241L132 241Q136 153 179.5 104.5Q223 56 315 56Q366 56 398.5 65.5Q431 75 445 82L458 19Q441 6 423 -9Q405 -24 390 -40.5Q375 -57 366 -72Q357 -87 357 -100Q357 -116 368.5 -124Q380 -132 398 -132Q407 -132 417.5 -131Q428 -130 438 -126L443 -180Q434 -184 417.5 -187Q401 -190 384 -190ZM134 302L419 302Q418 353 402 389.5Q386 426 356.5 445.5Q327 465 284 465Q240 465 207 442Q174 419 155.5 382Q137 345 134 302Z" />
<glyph glyph-name="Ecaron" unicode="&#x011a;" horiz-adv-x="561" d="M89 0L89 693L497 693L497 626L167 626L167 397L461 397L461 331L167 331L167 67L522 67L522 0ZM293 742L158 888L189 923L293 829L397 923L428 888Z" />
<glyph glyph-name="ecaron" unicode="&#x011b;" horiz-adv-x="552" d="M311 -11Q220 -11 163.5 24Q107 59 80.5 120Q54 181 54 259Q54 350 87 410Q120 470 172.5 500Q225 530 283 530Q348 530 395.5 502.5Q443 475 469 418.5Q495 362 495 275Q495 268 494.5 258.5Q494 249 493 241L132 241Q136 153 179.5 104.5Q223 56 315 56Q366 56 398.5 65.5Q431 75 445 82L458 19Q444 11 403.5 0Q363 -11 311 -11ZM134 302L419 302Q418 353 402 389.5Q386 426 356.5 445.5Q327 465 284 465Q240 465 207 442Q174 419 155.5 382Q137 345 134 302ZM282 587L147 733L178 768L282 674L386 768L417 733Z" />
<glyph glyph-name="Gcircumflex" unicode="&#x011c;" horiz-adv-x="663" d="M381 -14Q289 -14 216.5 28Q144 70 102.5 150.5Q61 231 61 347Q61 463 105.5 543.5Q150 624 224.5 666Q299 708 389 708Q442 708 482 700Q522 692 550 681Q578 670 592 660L567 594Q539 614 491.5 626.5Q444 639 389 639Q319 639 263.5 606Q208 573 175.5 508Q143 443 143 347Q143 258 171 192Q199 126 254.5 90Q310 54 392 54Q440 54 472.5 59.5Q505 65 517 69L517 332L595 332L595 19Q576 11 519.5 -1.5Q463 -14 381 -14ZM267 738L235 773L370 919L505 773L474 738L370 832Z" />
<glyph glyph-name="gcircumflex" unicode="&#x011d;" horiz-adv-x="575" d="M247 -188Q198 -188 156 -180Q114 -172 84 -162L99 -96Q124 -106 165 -114.5Q206 -123 249 -123Q309 -123 346 -108Q383 -93 400.5 -60Q418 -27 418 27L418 60Q404 50 370 35.5Q336 21 283 21Q222 21 169.5 46.5Q117 72 85.5 127Q54 182 54 271Q54 345 83.5 403Q113 461 168.5 494.5Q224 528 301 528Q371 528 416.5 518.5Q462 509 491 500L491 31Q491 -86 430.5 -137Q370 -188 247 -188ZM286 87Q327 87 362.5 99Q398 111 417 127L417 449Q401 454 375 458Q349 462 302 462Q248 462 210 438Q172 414 152 370.5Q132 327 132 270Q132 221 145 186Q158 151 180 129Q202 107 229.5 97Q257 87 286 87ZM200 583L168 618L303 764L438 618L407 583L303 677Z" />
<glyph glyph-name="Gbreve" unicode="&#x011e;" horiz-adv-x="663" d="M381 -14Q289 -14 216.5 28Q144 70 102.5 150.5Q61 231 61 347Q61 463 105.5 543.5Q150 624 224.5 666Q299 708 389 708Q442 708 482 700Q522 692 550 681Q578 670 592 660L567 594Q539 614 491.5 626.5Q444 639 389 639Q319 639 263.5 606Q208 573 175.5 508Q143 443 143 347Q143 258 171 192Q199 126 254.5 90Q310 54 392 54Q440 54 472.5 59.5Q505 65 517 69L517 332L595 332L595 19Q576 11 519.5 -1.5Q463 -14 381 -14ZM370 766Q336 766 306.5 780.5Q277 795 259.5 825.5Q242 856 243 903L293 903Q294 892 299 873.5Q304 855 320.5 841Q337 827 370 827Q403 827 419.5 841Q436 855 442 873.5Q448 892 448 903L497 903Q499 856 481 825.5Q463 795 433.5 780.5Q404 766 370 766Z" />
<glyph glyph-name="gbreve" unicode="&#x011f;" horiz-adv-x="575" d="M247 -188Q198 -188 156 -180Q114 -172 84 -162L99 -96Q124 -106 165 -114.5Q206 -123 249 -123Q309 -123 346 -108Q383 -93 400.5 -60Q418 -27 418 27L418 60Q404 50 370 35.5Q336 21 283 21Q222 21 169.5 46.5Q117 72 85.5 127Q54 182 54 271Q54 345 83.5 403Q113 461 168.5 494.5Q224 528 301 528Q371 528 416.5 518.5Q462 509 491 500L491 31Q491 -86 430.5 -137Q370 -188 247 -188ZM286 87Q327 87 362.5 99Q398 111 417 127L417 449Q401 454 375 458Q349 462 302 462Q248 462 210 438Q172 414 152 370.5Q132 327 132 270Q132 221 145 186Q158 151 180 129Q202 107 229.5 97Q257 87 286 87ZM303 611Q269 611 239.5 625.5Q210 640 192.5 670.5Q175 701 176 748L226 748Q227 737 232 718.5Q237 700 253.5 686Q270 672 303 672Q336 672 352.5 686Q369 700 375 718.5Q381 737 381 748L430 748Q432 701 414 670.5Q396 640 366.5 625.5Q337 611 303 611Z" />
</font>
</defs>
</svg>
