<?xml version="1.0" standalone="no"?><!DOCTYPE svg PUBLIC "-//W3C//DTD SVG 1.1//EN" "http://www.w3.org/Graphics/SVG/1.1/DTD/svg11.dtd" ><svg xmlns="http://www.w3.org/2000/svg"><metadata></metadata><defs>
<font id="Ubuntu-Italic" >
<font-face font-family="Ubuntu" font-stretch="normal" units-per-em="1000" weight="400" panose-1="0,0,0,0,0,0,0,0,0,0" ascent="932" descent="-189" x-height="518" underline-thickness="79" underline-position="-138" unicode-range="U+00000032-00064258" bbox="-211,-194,1271,958" />
<missing-glyph horiz-adv-x="500" d="M-13 0L-13 750L387 750L387 0ZM37 50L337 50L337 700L37 700Z" />
<glyph glyph-name="space" unicode="&#x20;" horiz-adv-x="233" d="" />
<glyph glyph-name="exclam" unicode="&#x21;" horiz-adv-x="244" d="M88 214Q94 259 100.5 303.5Q107 348 116 397Q125 446 138 502L184 693L264 693L218 501Q213 482 203 445Q193 408 180.5 364.5Q168 321 155.5 281Q143 241 133 214ZM69 -12Q42 -12 29 3Q16 18 16 40Q16 56 23.5 71Q31 86 45 95.5Q59 105 78 105Q105 105 118 90Q131 75 131 54Q131 38 123.5 22.5Q116 7 102 -2.5Q88 -12 69 -12Z" />
<glyph glyph-name="quotedbl" unicode="&#x22;" horiz-adv-x="382" d="M138 512Q141 546 144.5 581Q148 616 154.5 651Q161 686 169 719L179 760L258 760L247 718Q239 685 228.5 650Q218 615 205.5 580Q193 545 178 512ZM296 512Q299 546 302.5 581Q306 616 312.5 651Q319 686 327 719L337 760L416 760L405 718Q397 685 386.5 650Q376 615 363.5 580Q351 545 336 512Z" />
<glyph glyph-name="numbersign" unicode="&#x23;" horiz-adv-x="637" d="M34 0L114 187L28 187L43 248L141 248L225 444L90 444L104 505L251 505L332 693L402 693L321 505L487 505L567 693L637 693L556 505L640 505L625 444L530 444L446 248L579 248L563 187L421 187L341 0L271 0L351 187L183 187L104 0ZM210 248L377 248L461 444L294 444Z" />
<glyph glyph-name="dollar" unicode="&#x24;" horiz-adv-x="564" d="M158 -109L190 24Q160 24 127.5 31Q95 38 69 48.5Q43 59 32 67L67 127Q84 117 121.5 101Q159 85 216 85Q259 85 299 97Q339 109 365 136.5Q391 164 391 210Q391 242 374.5 261.5Q358 281 331.5 295.5Q305 310 275 324Q244 339 216 358.5Q188 378 171 407.5Q154 437 154 481Q154 530 176 567Q198 604 240.5 627.5Q283 651 343 659L371 776L438 776L411 663Q456 660 491 647.5Q526 635 543 623L507 563Q494 572 462 584Q430 596 379 596Q337 596 302.5 585Q268 574 247 550.5Q226 527 226 490Q226 450 251.5 427.5Q277 405 314 386Q349 369 383.5 350Q418 331 441.5 300.5Q465 270 465 217Q465 132 407 82.5Q349 33 257 23L225 -109Z" />
<glyph glyph-name="percent" unicode="&#x25;" horiz-adv-x="805" d="M102 0L651 693L730 693L181 0ZM551 -15Q493 -15 462.5 19.5Q432 54 432 118Q432 156 444 195.5Q456 235 479.5 269.5Q503 304 538.5 325Q574 346 621 346Q678 346 709.5 312.5Q741 279 741 214Q741 177 729 136.5Q717 96 693 62Q669 28 633.5 6.5Q598 -15 551 -15ZM554 41Q587 41 611 58.5Q635 76 650 102.5Q665 129 672 157Q679 185 679 206Q679 242 667.5 266Q656 290 617 290Q584 290 560.5 272.5Q537 255 522.5 228.5Q508 202 501 174Q494 146 494 125Q494 90 504.5 65.5Q515 41 554 41ZM215 346Q157 346 126.5 380.5Q96 415 96 479Q96 517 108 556.5Q120 596 143.5 630.5Q167 665 202.5 686Q238 707 285 707Q342 707 373 673.5Q404 640 404 575Q404 538 392 497.5Q380 457 356.5 423Q333 389 297.5 367.5Q262 346 215 346ZM218 402Q251 402 275 419.5Q299 437 313.5 463.5Q328 490 335 518Q342 546 342 567Q342 603 331 627Q320 651 281 651Q248 651 224.5 633.5Q201 616 186.5 589.5Q172 563 165 535Q158 507 158 486Q158 451 168.5 426.5Q179 402 218 402Z" />
<glyph glyph-name="ampersand" unicode="&#x26;" horiz-adv-x="647" d="M215 -9Q158 -9 118.5 14Q79 37 58.5 75Q38 113 38 157Q38 200 55.5 238.5Q73 277 113.5 311.5Q154 346 223 376L231 380Q208 415 197 450Q186 485 186 519Q186 571 210.5 614Q235 657 280 682.5Q325 708 386 708Q429 708 460 691Q491 674 508 644.5Q525 615 525 579Q525 553 517 526.5Q509 500 489.5 473.5Q470 447 434.5 420.5Q399 394 343 367L331 361L456 189Q479 217 498.5 251.5Q518 286 535 327L603 319Q583 265 555.5 219Q528 173 496 135Q519 104 537.5 71.5Q556 39 572 0L495 0Q487 22 474.5 43Q462 64 447 86Q396 40 337 15.5Q278 -9 215 -9ZM222 57Q267 57 315.5 77Q364 97 409 138L266 331L257 327Q223 311 189.5 290Q156 269 134.5 239.5Q113 210 113 167Q113 142 123 116.5Q133 91 157 74Q181 57 222 57ZM296 407L303 411Q351 432 381 452.5Q411 473 427 493Q443 513 449 533Q455 553 455 573Q455 609 433.5 627.5Q412 646 380 646Q339 646 311.5 629.5Q284 613 270.5 586Q257 559 257 525Q257 497 267 466Q277 435 296 407Z" />
<glyph glyph-name="quotesingle" unicode="&#x27;" horiz-adv-x="224" d="M138 512Q141 546 144.5 581Q148 616 154.5 651Q161 686 169 719L179 760L258 760L247 718Q239 685 228.5 650Q218 615 205.5 580Q193 545 178 512Z" />
<glyph glyph-name="parenleft" unicode="&#x28;" horiz-adv-x="318" d="M134 -180Q100 -104 83.5 -27.5Q67 49 67 129Q67 218 87 307Q107 396 145.5 480.5Q184 565 240 641.5Q296 718 368 783L419 746Q329 663 266 562.5Q203 462 170.5 353Q138 244 138 133Q138 63 151 -9Q164 -81 191 -147Z" />
<glyph glyph-name="parenright" unicode="&#x29;" horiz-adv-x="318" d="M-31 -186L-82 -149Q8 -66 70.5 32.5Q133 131 166 240Q199 349 199 462Q199 533 185.5 607.5Q172 682 143 749L202 780Q237 704 253.5 627Q270 550 270 469Q270 379 250 290Q230 201 191.5 116.5Q153 32 97 -44.5Q41 -121 -31 -186Z" />
<glyph glyph-name="asterisk" unicode="&#x2a;" horiz-adv-x="448" d="M187 319L125 362Q145 390 163 410.5Q181 431 201 449.5Q221 468 246 490Q221 492 200 494Q179 496 159.5 499Q140 502 119.5 508Q99 514 75 523L99 594Q129 584 154 573.5Q179 563 203 550.5Q227 538 255 523Q249 555 244.5 581Q240 607 237.5 633.5Q235 660 235 693L312 693Q312 660 309.5 633.5Q307 607 302.5 581Q298 555 292 523Q320 538 344 550.5Q368 563 393 573.5Q418 584 448 594L472 523Q448 514 427 508Q406 502 386 499Q366 496 345 494Q324 492 300 490Q326 468 346 449.5Q366 431 384 410.5Q402 390 421 362L359 319Q341 347 327 370.5Q313 394 300.5 418.5Q288 443 273 472Q259 443 246 418.5Q233 394 219 370.5Q205 347 187 319Z" />
<glyph glyph-name="plus" unicode="&#x2b;" horiz-adv-x="564" d="M198 44L250 258L61 258L77 322L265 322L317 535L384 535L332 322L520 322L504 258L317 258L265 44Z" />
<glyph glyph-name="comma" unicode="&#x2c;" horiz-adv-x="249" d="M0 -158L-48 -133Q-21 -99 -0.5 -56Q20 -13 33 29Q46 71 49 101L129 101Q122 56 102.5 8.5Q83 -39 56.5 -82Q30 -125 0 -158Z" />
<glyph glyph-name="hyphen" unicode="&#x2d;" horiz-adv-x="296" d="M20 255L37 326L272 326L255 255Z" />
<glyph glyph-name="period" unicode="&#x2e;" horiz-adv-x="254" d="M72 -13Q44 -13 31 2Q18 17 18 39Q18 55 25.5 70Q33 85 47 95Q61 105 80 105Q107 105 120 89.5Q133 74 133 53Q133 37 125.5 21.5Q118 6 104.5 -3.5Q91 -13 72 -13Z" />
<glyph glyph-name="slash" unicode="&#x2f;" horiz-adv-x="395" d="M-123 -185L435 783L509 783L-50 -185Z" />
<glyph glyph-name="zero" unicode="&#x30;" horiz-adv-x="564" d="M213 -15Q156 -15 121 11.5Q86 38 70 85Q54 132 54 194Q54 267 68.5 340.5Q83 414 110.5 480Q138 546 177 597.5Q216 649 265 679Q314 709 371 709Q428 709 462.5 682Q497 655 513 608.5Q529 562 529 500Q529 427 514.5 354Q500 281 472.5 214.5Q445 148 406 96.5Q367 45 318.5 15Q270 -15 213 -15ZM220 53Q253 53 282.5 71Q312 89 338 120.5Q364 152 385 194Q406 236 421.5 285Q437 334 445 386.5Q453 439 453 490Q453 569 430.5 605Q408 641 364 641Q331 641 301 623Q271 605 245 573.5Q219 542 198 500Q177 458 161.5 409Q146 360 138 308Q130 256 130 204Q130 125 153 89Q176 53 220 53Z" />
<glyph glyph-name="one" unicode="&#x31;" horiz-adv-x="564" d="M237 0L376 581Q344 551 296.5 526Q249 501 200 485L188 550Q227 564 266.5 583.5Q306 603 345.5 630Q385 657 422 693L477 693L311 0Z" />
<glyph glyph-name="two" unicode="&#x32;" horiz-adv-x="564" d="M33 0Q43 60 67.5 107Q92 154 126 191Q160 228 199.5 259.5Q239 291 279 320Q326 355 364 387Q402 419 425 456Q448 493 448 540Q448 593 418.5 617Q389 641 348 641Q307 641 263.5 624Q220 607 186 578L161 639Q202 671 255 689.5Q308 708 360 708Q406 708 443.5 691Q481 674 504 639Q527 604 527 550Q527 490 499.5 442.5Q472 395 428 356Q384 317 335 280Q279 239 236 204.5Q193 170 165 136.5Q137 103 125 65L444 65L429 0Z" />
<glyph glyph-name="three" unicode="&#x33;" horiz-adv-x="564" d="M183 -15Q138 -15 94 -5.5Q50 4 12 23L42 86Q70 70 107 61Q144 52 184 52Q239 52 283.5 69.5Q328 87 354.5 124Q381 161 381 218Q381 280 339 308.5Q297 337 224 339L205 339L220 400L251 400Q312 400 351 423Q390 446 409.5 481Q429 516 429 551Q429 601 399 621Q369 641 328 641Q294 641 258.5 630Q223 619 195 601L178 660Q214 683 256 695.5Q298 708 342 708Q387 708 425 692.5Q463 677 485.5 644Q508 611 508 559Q508 520 491.5 483Q475 446 442.5 416.5Q410 387 361 369Q385 359 408 340Q431 321 445.5 291.5Q460 262 460 219Q460 162 437.5 118Q415 74 376.5 44.5Q338 15 288 0Q238 -15 183 -15Z" />
<glyph glyph-name="four" unicode="&#x34;" horiz-adv-x="564" d="M291 0L335 184L29 184L41 231Q72 284 117 344Q162 404 217 466Q272 528 332.5 586Q393 644 455 693L529 693L422 246L505 246L491 184L408 184L364 0ZM123 246L349 246L434 597Q394 565 352 524.5Q310 484 268.5 438Q227 392 190 343.5Q153 295 123 246Z" />
<glyph glyph-name="five" unicode="&#x35;" horiz-adv-x="564" d="M184 -15Q157 -15 128 -11Q99 -7 70.5 1.5Q42 10 15 22L45 88Q75 71 110 62Q145 53 180 53Q219 53 255.5 63.5Q292 74 321 94.5Q350 115 367 146.5Q384 178 384 220Q384 261 366.5 288Q349 315 321.5 330.5Q294 346 261.5 353.5Q229 361 198.5 363.5Q168 366 146 367Q162 412 175.5 452Q189 492 201 530.5Q213 569 224.5 609Q236 649 247 693L557 693L542 628L298 628Q290 599 278 562Q266 525 254.5 488.5Q243 452 233 424Q303 418 354.5 395Q406 372 434.5 330.5Q463 289 463 229Q463 169 441 123Q419 77 380 46.5Q341 16 291 0.5Q241 -15 184 -15Z" />
<glyph glyph-name="six" unicode="&#x36;" horiz-adv-x="564" d="M248 -15Q196 -15 153 8.5Q110 32 85 78.5Q60 125 60 195Q60 278 82.5 352.5Q105 427 147.5 489.5Q190 552 250.5 598Q311 644 387 669.5Q463 695 552 696L544 631Q448 629 374 596.5Q300 564 248.5 507.5Q197 451 168 377Q204 396 244.5 406.5Q285 417 325 417Q384 417 422.5 395.5Q461 374 479.5 336.5Q498 299 498 249Q498 186 477 137Q456 88 420 54Q384 20 339.5 2.5Q295 -15 248 -15ZM247 50Q295 50 334 73.5Q373 97 396 139Q419 181 419 238Q419 291 391.5 321Q364 351 301 351Q263 351 222 339.5Q181 328 149 312Q142 284 138.5 254.5Q135 225 135 195Q135 120 168 85Q201 50 247 50Z" />
<glyph glyph-name="seven" unicode="&#x37;" horiz-adv-x="564" d="M105 0Q124 65 156.5 137Q189 209 230 280.5Q271 352 316.5 417Q362 482 408 536Q454 590 497 625L160 625L175 693L594 693L578 629Q543 596 499.5 545.5Q456 495 410 431.5Q364 368 320.5 296.5Q277 225 241.5 149.5Q206 74 183 0Z" />
<glyph glyph-name="eight" unicode="&#x38;" horiz-adv-x="564" d="M215 -15Q180 -15 147.5 -6Q115 3 89.5 21.5Q64 40 49.5 68.5Q35 97 35 136Q35 175 49.5 215Q64 255 101 293.5Q138 332 205 364Q175 384 155 416Q135 448 135 489Q135 557 168 606Q201 655 255.5 681.5Q310 708 373 708Q422 708 460 691.5Q498 675 519.5 642Q541 609 541 559Q541 522 527 483.5Q513 445 479 409.5Q445 374 384 344Q430 319 453 282.5Q476 246 476 203Q476 135 440.5 86Q405 37 345.5 11Q286 -15 215 -15ZM224 48Q269 48 309 66.5Q349 85 374 118Q399 151 399 196Q399 226 387 247.5Q375 269 354.5 284.5Q334 300 309 311.5Q284 323 258 334Q178 294 145.5 244Q113 194 113 153Q113 98 146 73Q179 48 224 48ZM331 373Q402 410 433.5 455Q465 500 465 549Q465 596 438.5 620.5Q412 645 363 645Q323 645 288 627.5Q253 610 232 576.5Q211 543 211 493Q211 460 228.5 437.5Q246 415 273.5 400Q301 385 331 373Z" />
<glyph glyph-name="nine" unicode="&#x39;" horiz-adv-x="564" d="M51 -2Q47 -2 39 -2Q31 -2 24 -1L36 63Q111 61 172.5 78.5Q234 96 282.5 129.5Q331 163 366 210.5Q401 258 422 316Q378 295 338 285.5Q298 276 273 276Q212 276 173 297.5Q134 319 115 356Q96 393 96 439Q96 504 117 554Q138 604 173.5 638Q209 672 254.5 690Q300 708 348 708Q396 708 437.5 688Q479 668 505 623Q531 578 531 502Q531 433 516 369Q501 305 472.5 249Q444 193 402.5 147Q361 101 307.5 67.5Q254 34 189.5 16Q125 -2 51 -2ZM289 342Q321 342 359 351Q397 360 440 380Q448 410 451.5 441Q455 472 455 504Q455 572 427 608Q399 644 346 644Q300 644 260.5 621.5Q221 599 197.5 556Q174 513 174 449Q174 404 201.5 373Q229 342 289 342Z" />
<glyph glyph-name="colon" unicode="&#x3a;" horiz-adv-x="254" d="M72 -13Q44 -13 31 2Q18 17 18 39Q18 55 25.5 70Q33 85 47 95Q61 105 80 105Q107 105 120 89.5Q133 74 133 53Q133 37 125.5 21.5Q118 6 104.5 -3.5Q91 -13 72 -13ZM174 400Q146 400 133 415Q120 430 120 452Q120 468 127.5 483Q135 498 149 508Q163 518 182 518Q209 518 222 502.5Q235 487 235 466Q235 450 227.5 434.5Q220 419 206.5 409.5Q193 400 174 400Z" />
<glyph glyph-name="semicolon" unicode="&#x3b;" horiz-adv-x="250" d="M0 -158L-48 -133Q-21 -99 -0.5 -56Q20 -13 33 29Q46 71 49 101L129 101Q122 56 102.5 8.5Q83 -39 56.5 -82Q30 -125 0 -158ZM174 400Q146 400 133 415Q120 430 120 452Q120 468 127.5 483Q135 498 149 508Q163 518 182 518Q209 518 222 502.5Q235 487 235 466Q235 450 227.5 434.5Q220 419 206.5 409.5Q193 400 174 400Z" />
<glyph glyph-name="less" unicode="&#x3c;" horiz-adv-x="564" d="M422 88L53 267L69 332L527 509L532 441L141 294L458 148Z" />
<glyph glyph-name="equal" unicode="&#x3d;" horiz-adv-x="564" d="M88 372L104 436L545 436L530 372ZM38 161L53 225L495 225L480 161Z" />
<glyph glyph-name="greater" unicode="&#x3e;" horiz-adv-x="564" d="M46 88L40 156L432 303L115 449L150 509L520 330L504 265Z" />
<glyph glyph-name="question" unicode="&#x3f;" horiz-adv-x="382" d="M102 214Q103 262 120.5 297.5Q138 333 168.5 363.5Q199 394 239 426Q295 468 317.5 499.5Q340 531 340 568Q340 610 313.5 626Q287 642 252 642Q220 642 186.5 633Q153 624 128 612L119 674Q150 689 189 698.5Q228 708 266 708Q307 708 341.5 695Q376 682 397 652.5Q418 623 418 574Q418 530 398.5 496Q379 462 348.5 434.5Q318 407 285 380Q255 356 228 331.5Q201 307 184 278.5Q167 250 166 214ZM114 -12Q87 -12 74 3Q61 18 61 40Q61 56 68.5 71Q76 86 90 95.5Q104 105 122 105Q150 105 163 90Q176 75 176 54Q176 38 168.5 22.5Q161 7 147 -2.5Q133 -12 114 -12Z" />
<glyph glyph-name="at" unicode="&#x40;" horiz-adv-x="939" d="M401 -154Q300 -154 222.5 -115Q145 -76 101.5 -2Q58 72 58 177Q58 280 85 364.5Q112 449 160 513Q208 577 272.5 620.5Q337 664 412.5 686.5Q488 709 569 709Q641 709 700.5 689.5Q760 670 804 630.5Q848 591 871.5 530.5Q895 470 895 388Q895 302 872 239Q849 176 811.5 135.5Q774 95 729 75Q684 55 640 55Q613 55 591.5 64.5Q570 74 561 92Q537 76 503.5 64.5Q470 53 436 53Q364 53 318 94Q272 135 272 217Q272 279 291.5 331.5Q311 384 348 423Q385 462 436.5 484Q488 506 551 506Q584 506 612.5 502Q641 498 662 492.5Q683 487 695 482L621 179Q620 171 617 162.5Q614 154 614 146Q614 136 621 126.5Q628 117 656 117Q702 117 734 143Q766 169 786.5 210.5Q807 252 816.5 300Q826 348 826 393Q826 479 793 535.5Q760 592 699.5 619.5Q639 647 558 647Q494 647 431.5 628Q369 609 314.5 571Q260 533 218.5 477Q177 421 153.5 348Q130 275 130 185Q130 118 149 66Q168 14 204.5 -21Q241 -56 293 -74Q345 -92 411 -92Q443 -92 479.5 -87.5Q516 -83 553 -74L548 -134Q511 -144 473.5 -149Q436 -154 401 -154ZM442 114Q483 114 506 122.5Q529 131 546 140Q546 160 548.5 172.5Q551 185 553 195L613 439Q610 441 588 443.5Q566 446 543 446Q500 446 464 429Q428 412 402 382Q376 352 362 311.5Q348 271 348 224Q348 167 373 140.5Q398 114 442 114Z" />
<glyph glyph-name="A" unicode="&#x41;" horiz-adv-x="642" d="M-39 0Q32 127 104 247Q176 367 247.5 479Q319 591 388 693L469 693Q482 620 494.5 540.5Q507 461 519 375Q531 289 543 195.5Q555 102 566 0L486 0Q482 47 476.5 93Q471 139 466 186L147 186Q122 141 96.5 94.5Q71 48 46 0ZM185 251L458 251Q448 337 436 426Q424 515 409 607Q351 517 294.5 429.5Q238 342 185 251Z" />
<glyph glyph-name="B" unicode="&#x42;" horiz-adv-x="617" d="M209 -6Q160 -6 113.5 -1Q67 4 27 13L187 680Q222 688 268.5 694Q315 700 362 700Q422 700 474.5 685.5Q527 671 559 637Q591 603 591 543Q591 500 572 464.5Q553 429 521 403.5Q489 378 450 365Q497 352 522.5 314.5Q548 277 548 233Q548 165 520.5 119Q493 73 446 45.5Q399 18 338 6Q277 -6 209 -6ZM214 59Q261 59 306 66Q351 73 387 91Q423 109 444.5 142.5Q466 176 466 228Q466 265 449.5 287Q433 309 397 319Q361 329 303 329L178 329L117 66Q137 62 162 60.5Q187 59 214 59ZM195 393L288 393Q367 393 416 410Q465 427 487.5 457.5Q510 488 510 528Q510 585 468.5 609.5Q427 634 346 634Q320 634 295 632Q270 630 252 627Z" />
<glyph glyph-name="C" unicode="&#x43;" horiz-adv-x="623" d="M334 -15Q259 -15 201 13.5Q143 42 110.5 102Q78 162 78 256Q78 360 110 443.5Q142 527 198.5 586Q255 645 328.5 676.5Q402 708 484 708Q531 708 572.5 697.5Q614 687 656 664L623 596Q586 618 548 628.5Q510 639 470 639Q408 639 352 612.5Q296 586 253 536Q210 486 185 416Q160 346 160 259Q160 159 204 107Q248 55 336 55Q413 55 456.5 71Q500 87 522 99L532 31Q492 9 439.5 -3Q387 -15 334 -15Z" />
<glyph glyph-name="D" unicode="&#x44;" horiz-adv-x="702" d="M196 -6Q156 -6 108 -1Q60 4 28 13L187 680Q237 691 278.5 695Q320 699 359 699Q461 699 528.5 665.5Q596 632 629 569Q662 506 662 416Q662 341 643 276.5Q624 212 586 160Q548 108 491.5 71Q435 34 361 14Q287 -6 196 -6ZM208 61Q299 61 368 87Q437 113 484 160.5Q531 208 555 272Q579 336 579 412Q579 522 523.5 577.5Q468 633 350 633Q326 633 301.5 631Q277 629 252 625L119 67Q142 64 164 62.5Q186 61 208 61Z" />
<glyph glyph-name="E" unicode="&#x45;" horiz-adv-x="542" d="M24 0L190 693L585 693L569 626L251 626L195 397L479 397L463 331L182 331L116 67L458 67L443 0Z" />
<glyph glyph-name="F" unicode="&#x46;" horiz-adv-x="519" d="M24 0L190 693L581 693L565 626L251 626L194 393L474 393L458 326L181 326L102 0Z" />
<glyph glyph-name="G" unicode="&#x47;" horiz-adv-x="654" d="M345 -15Q206 -15 141.5 59.5Q77 134 77 261Q77 348 105 428Q133 508 185.5 571Q238 634 313 671Q388 708 481 708Q539 708 576 700Q613 692 636.5 681Q660 670 675 662L641 593Q635 598 612 609Q589 620 553 629.5Q517 639 473 639Q401 639 343 608.5Q285 578 244 525.5Q203 473 181 406Q159 339 159 265Q159 164 203.5 109Q248 54 344 54Q375 54 407 59.5Q439 65 470 75L529 329L607 329L534 23Q491 6 442.5 -4.5Q394 -15 345 -15Z" />
<glyph glyph-name="H" unicode="&#x48;" horiz-adv-x="673" d="M24 0L190 693L268 693L195 396L541 396L612 693L690 693L525 0L447 0L526 329L181 329L102 0Z" />
<glyph glyph-name="I" unicode="&#x49;" horiz-adv-x="251" d="M24 0L190 693L268 693L103 0Z" />
<glyph glyph-name="J" unicode="&#x4a;" horiz-adv-x="468" d="M128 -15Q76 -15 33.5 1.5Q-9 18 -40 43L-1 103Q15 87 50 70.5Q85 54 131 54Q167 54 197.5 65Q228 76 251.5 108Q275 140 290 201L408 693L486 693L367 191Q349 112 315 67Q281 22 234 3.5Q187 -15 128 -15Z" />
<glyph glyph-name="K" unicode="&#x4b;" horiz-adv-x="616" d="M24 0L190 693L267 693L193 382Q241 417 295.5 460Q350 503 403.5 547Q457 591 501.5 629.5Q546 668 573 693L674 693Q640 661 590 618.5Q540 576 483.5 530Q427 484 371.5 439Q316 394 269 358Q304 331 342 288Q380 245 416.5 195Q453 145 482.5 94.5Q512 44 531 0L446 0Q410 71 369.5 134Q329 197 282.5 249.5Q236 302 183 341L102 0Z" />
<glyph glyph-name="L" unicode="&#x4c;" horiz-adv-x="494" d="M24 0L189 693L267 693L117 66L424 66L409 0Z" />
<glyph glyph-name="M" unicode="&#x4d;" horiz-adv-x="846" d="M9 0Q34 92 60.5 183Q87 274 114.5 362Q142 450 169.5 533.5Q197 617 222 693L299 693Q313 637 327.5 571.5Q342 506 355.5 437.5Q369 369 380.5 305.5Q392 242 400 189Q437 246 482 313.5Q527 381 573.5 450.5Q620 520 663.5 583Q707 646 742 693L820 693Q811 605 799.5 518.5Q788 432 774.5 346Q761 260 745 174Q729 88 712 0L633 0Q666 155 691.5 300.5Q717 446 736 576Q721 556 695.5 519.5Q670 483 639 436.5Q608 390 575 340.5Q542 291 511 244.5Q480 198 455.5 160Q431 122 416 99L350 99Q345 131 336.5 180.5Q328 230 317.5 286.5Q307 343 296 399.5Q285 456 275 502.5Q265 549 258 577Q236 512 214.5 442Q193 372 171 299Q149 226 128 150.5Q107 75 86 0Z" />
<glyph glyph-name="N" unicode="&#x4e;" horiz-adv-x="690" d="M24 0L190 693L263 693Q298 633 333.5 558Q369 483 401 404.5Q433 326 458 254Q483 182 497 128L629 693L706 693L542 0L469 0Q451 61 424.5 139Q398 217 367 299.5Q336 382 303.5 456.5Q271 531 241 585L101 0Z" />
<glyph glyph-name="O" unicode="&#x4f;" horiz-adv-x="760" d="M329 -15Q261 -15 204 15Q147 45 112.5 106.5Q78 168 78 260Q78 340 99.5 409Q121 478 159 533.5Q197 589 247 628Q297 667 354.5 687.5Q412 708 473 708Q541 708 598 678Q655 648 689.5 587Q724 526 724 434Q724 353 702.5 284Q681 215 643 160Q605 105 555 65.5Q505 26 447.5 5.5Q390 -15 329 -15ZM336 54Q383 54 428 71Q473 88 512 120.5Q551 153 580 200Q609 247 625.5 308Q642 369 642 442Q642 508 618.5 551.5Q595 595 555.5 617Q516 639 466 639Q419 639 374 622Q329 605 290 572.5Q251 540 222 493Q193 446 176.5 385.5Q160 325 160 252Q160 186 183.5 142Q207 98 247 76Q287 54 336 54Z" />
<glyph glyph-name="P" unicode="&#x50;" horiz-adv-x="583" d="M24 0L187 680Q227 689 271.5 694Q316 699 360 699Q479 699 537 653.5Q595 608 595 522Q595 464 572 416.5Q549 369 505.5 335Q462 301 398.5 282.5Q335 264 254 264L166 264L102 0ZM181 331L265 331Q383 331 448 379Q513 427 513 512Q513 574 472 603Q431 632 345 632Q320 632 296 629.5Q272 627 252 625Z" />
<glyph glyph-name="Q" unicode="&#x51;" horiz-adv-x="760" d="M527 -184Q487 -180 445.5 -170.5Q404 -161 369 -144.5Q334 -128 312.5 -101.5Q291 -75 291 -36Q291 -31 291.5 -25Q292 -19 293 -12Q234 -5 185 27Q136 59 107 117.5Q78 176 78 260Q78 340 99.5 409Q121 478 159 533.5Q197 589 247 628Q297 667 354.5 687.5Q412 708 473 708Q541 708 598 678Q655 648 689.5 587Q724 526 724 434Q724 340 695 261.5Q666 183 616 124Q566 65 502 30.5Q438 -4 368 -12Q367 -16 366 -19.5Q365 -23 365 -28Q365 -54 392 -73Q419 -92 462.5 -103.5Q506 -115 555 -122ZM336 54Q383 54 428 71Q473 88 512 120.5Q551 153 580 200Q609 247 625.5 308Q642 369 642 442Q642 508 618.5 551.5Q595 595 555.5 617Q516 639 466 639Q419 639 374 622Q329 605 290 572.5Q251 540 222 493Q193 446 176.5 385.5Q160 325 160 252Q160 186 183.5 142Q207 98 247 76Q287 54 336 54Z" />
<glyph glyph-name="R" unicode="&#x52;" horiz-adv-x="609" d="M24 0L187 680Q224 688 267 693.5Q310 699 353 699Q433 699 486 676.5Q539 654 565.5 613Q592 572 592 515Q592 465 570.5 421Q549 377 505 344.5Q461 312 393 294Q410 264 433 213.5Q456 163 479 106Q502 49 517 0L434 0Q416 55 395 106.5Q374 158 353 202.5Q332 247 313 280Q298 279 282.5 278Q267 277 250 277L168 277L102 0ZM183 342L263 342Q344 342 399.5 363Q455 384 483.5 423Q512 462 512 515Q512 555 494 580.5Q476 606 439 619Q402 632 344 632Q319 632 295.5 629.5Q272 627 252 625Z" />
<glyph glyph-name="S" unicode="&#x53;" horiz-adv-x="505" d="M173 -15Q139 -15 106 -8.5Q73 -2 43.5 9.5Q14 21 -11 36L28 102Q57 81 98.5 66.5Q140 52 185 52Q231 52 272 66.5Q313 81 339.5 113Q366 145 366 196Q366 231 350 254Q334 277 308.5 293.5Q283 310 254 325Q219 344 185.5 365.5Q152 387 131 421Q110 455 110 508Q110 558 137.5 604Q165 650 222 679Q279 708 366 708Q412 708 452.5 698.5Q493 689 536 667L497 603Q464 624 429 633Q394 642 355 642Q313 642 275.5 629.5Q238 617 214.5 589Q191 561 191 515Q191 480 206 457Q221 434 246 418.5Q271 403 299 388Q335 370 369.5 348Q404 326 426 291.5Q448 257 448 199Q448 158 431.5 119.5Q415 81 381.5 50.5Q348 20 296 2.5Q244 -15 173 -15Z" />
<glyph glyph-name="T" unicode="&#x54;" horiz-adv-x="544" d="M170 0L320 626L109 626L124 693L625 693L609 626L398 626L248 0Z" />
<glyph glyph-name="U" unicode="&#x55;" horiz-adv-x="662" d="M285 -16Q213 -16 167.5 9.5Q122 35 100 79.5Q78 124 78 182Q78 204 81 227.5Q84 251 90 276L189 693L268 693L167 275Q162 253 158.5 230.5Q155 208 155 188Q155 150 168 119.5Q181 89 211 71Q241 53 293 53Q352 53 392.5 75.5Q433 98 460.5 146Q488 194 506 270L608 693L686 693L582 260Q559 164 521 103Q483 42 425 13Q367 -16 285 -16Z" />
<glyph glyph-name="V" unicode="&#x56;" horiz-adv-x="616" d="M209 0Q195 72 182.5 143.5Q170 215 158 295.5Q146 376 135 473Q124 570 112 693L190 693Q202 562 213 454.5Q224 347 236.5 257Q249 167 264 88Q325 173 385.5 270.5Q446 368 504.5 474.5Q563 581 618 693L705 693Q645 581 590 484Q535 387 483.5 302.5Q432 218 382 143Q332 68 282 0Z" />
<glyph glyph-name="W" unicode="&#x57;" horiz-adv-x="885" d="M126 0Q119 68 115.5 136.5Q112 205 111.5 274Q111 343 112.5 412.5Q114 482 117.5 552Q121 622 125 693L201 693Q195 594 191 492.5Q187 391 186.5 290Q186 189 190 90Q230 154 266 213Q302 272 337 332Q372 392 409 459Q446 526 489 606L557 606Q563 512 572.5 417Q582 322 592.5 238Q603 154 613 91Q656 168 701.5 266.5Q747 365 793 475Q839 585 881 693L966 693Q934 613 901.5 538Q869 463 837 392Q805 321 772.5 254Q740 187 706.5 123.5Q673 60 639 0L558 0Q546 70 535 147.5Q524 225 515 310.5Q506 396 498 489Q450 401 402.5 319Q355 237 306.5 158.5Q258 80 206 0Z" />
<glyph glyph-name="X" unicode="&#x58;" horiz-adv-x="574" d="M-47 0L268 367L127 693L212 693L327 420Q369 468 407.5 514.5Q446 561 481 606Q516 651 546 693L633 693Q599 648 565 605.5Q531 563 497 522Q463 481 428.5 441Q394 401 358 362Q382 304 407.5 244Q433 184 458 123Q483 62 505 0L420 0Q406 43 387 93Q368 143 346 196.5Q324 250 300 304L46 0Z" />
<glyph glyph-name="Y" unicode="&#x59;" horiz-adv-x="576" d="M186 0L252 279Q233 330 215 383.5Q197 437 180.5 490.5Q164 544 149 595.5Q134 647 121 693L205 693Q225 609 250.5 519.5Q276 430 306 352Q340 390 376.5 433Q413 476 448.5 520.5Q484 565 516.5 609Q549 653 574 693L666 693Q631 646 591.5 595.5Q552 545 509.5 492Q467 439 422 385.5Q377 332 330 279L264 0Z" />
<glyph glyph-name="Z" unicode="&#x5a;" horiz-adv-x="567" d="M-17 0L-5 56Q30 104 79.5 163.5Q129 223 185.5 287.5Q242 352 300 415Q358 478 411 532.5Q464 587 506 626L149 626L165 693L617 693L602 626Q567 595 518 546Q469 497 412 437.5Q355 378 297 313.5Q239 249 185.5 186Q132 123 90 67L473 67L458 0Z" />
<glyph glyph-name="bracketleft" unicode="&#x5b;" horiz-adv-x="323" d="M-3 -185L230 783L434 783L421 725L286 725L80 -127L216 -127L201 -185Z" />
<glyph glyph-name="backslash" unicode="&#x5c;" horiz-adv-x="376" d="M222 -185L117 783L186 783L291 -185Z" />
<glyph glyph-name="bracketright" unicode="&#x5d;" horiz-adv-x="323" d="M-93 -185L-79 -127L56 -127L262 725L126 725L140 783L345 783L112 -185Z" />
<glyph glyph-name="asciicircum" unicode="&#x5e;" horiz-adv-x="564" d="M134 330L82 360L346 693L403 693L509 352L451 327L360 615Z" />
<glyph glyph-name="underscore" unicode="&#x5f;" horiz-adv-x="554" d="M-72 -185L-57 -123L443 -123L428 -185Z" />
<glyph glyph-name="grave" unicode="&#x60;" horiz-adv-x="336" d="M375 582L211 716L269 776L413 620Z" />
<glyph glyph-name="a" unicode="&#x61;" horiz-adv-x="540" d="M204 -13Q159 -13 122 8Q85 29 62.5 72Q40 115 40 181Q40 260 65.5 324Q91 388 137.5 434Q184 480 247 505Q310 530 384 530Q404 530 426 528Q448 526 470 521Q492 516 513 507L438 200Q430 166 426.5 134.5Q423 103 427.5 71.5Q432 40 447 5L373 -6Q367 6 362.5 21Q358 36 355 51Q321 19 283 3Q245 -13 204 -13ZM214 54Q253 54 287 72.5Q321 91 352 125Q353 152 360 186Q367 220 374 248L426 455Q409 459 394 461Q379 463 364 463Q306 463 260 440.5Q214 418 181.5 379.5Q149 341 132.5 293Q116 245 116 194Q116 143 129 112Q142 81 164 67.5Q186 54 214 54Z" />
<glyph glyph-name="b" unicode="&#x62;" horiz-adv-x="547" d="M170 -12Q149 -12 124.5 -9Q100 -6 75 1Q50 8 27 18L205 763L283 776L216 492Q245 511 277.5 520.5Q310 530 342 530Q399 530 436.5 506Q474 482 492.5 438Q511 394 511 334Q511 270 488.5 208Q466 146 423 96.5Q380 47 316.5 17.5Q253 -12 170 -12ZM182 55Q244 55 291 79.5Q338 104 370 144.5Q402 185 418.5 233Q435 281 435 329Q435 375 421.5 404.5Q408 434 384 448.5Q360 463 328 463Q298 463 263 449.5Q228 436 196 410L114 65Q131 61 147.5 58Q164 55 182 55Z" />
<glyph glyph-name="c" unicode="&#x63;" horiz-adv-x="470" d="M230 -12Q168 -12 126 12.5Q84 37 63 81.5Q42 126 42 186Q42 254 63.5 316Q85 378 125.5 426Q166 474 224.5 502Q283 530 358 530Q387 530 414 525.5Q441 521 466 512L436 446Q414 455 391.5 459Q369 463 347 463Q295 463 253 441.5Q211 420 181 382.5Q151 345 135 296.5Q119 248 119 194Q119 130 148.5 92.5Q178 55 244 55Q285 55 323.5 67.5Q362 80 376 90L383 24Q363 11 322 -0.5Q281 -12 230 -12Z" />
<glyph glyph-name="d" unicode="&#x64;" horiz-adv-x="557" d="M205 -12Q147 -12 111 14.5Q75 41 58 86Q41 131 41 184Q41 247 62 308.5Q83 370 125.5 420Q168 470 232.5 500Q297 530 383 530Q399 530 415.5 528Q432 526 448 523L504 763L582 776L440 184Q433 153 431 122.5Q429 92 434.5 62.5Q440 33 453 5L378 -6Q373 4 368 20Q363 36 361 51Q348 38 326.5 23.5Q305 9 274.5 -1.5Q244 -12 205 -12ZM214 55Q245 55 272 65.5Q299 76 321 92Q343 108 358 124Q358 150 365 182Q372 214 380 248L432 458Q418 460 402 461Q386 462 372 462Q306 462 258 438Q210 414 178.5 374.5Q147 335 132 287.5Q117 240 117 193Q117 154 126.5 123Q136 92 157.5 73.5Q179 55 214 55Z" />
<glyph glyph-name="e" unicode="&#x65;" horiz-adv-x="504" d="M241 -12Q167 -12 123 12.5Q79 37 60 80.5Q41 124 41 181Q41 246 61 308Q81 370 119.5 420Q158 470 213.5 500Q269 530 340 530Q410 530 449 493.5Q488 457 488 396Q488 322 441 282Q394 242 310 226Q226 210 115 205Q115 201 115 196.5Q115 192 115 188Q117 144 129 114.5Q141 85 171.5 70Q202 55 256 55Q291 55 326.5 64.5Q362 74 393 93L400 27Q367 9 325.5 -1.5Q284 -12 241 -12ZM124 269Q235 272 298 287Q361 302 387.5 328Q414 354 414 390Q414 428 391.5 446.5Q369 465 332 465Q281 465 239 438Q197 411 167.5 366.5Q138 322 124 269Z" />
<glyph glyph-name="f" unicode="&#x66;" horiz-adv-x="374" d="M-9 -189L-75 -179Q-41 -135 -20 -97Q1 -59 14.5 -19.5Q28 20 39 65L160 571Q179 650 213.5 694.5Q248 739 293.5 757.5Q339 776 389 776Q424 776 450 769.5Q476 763 496 755L463 696Q442 703 423 707Q404 711 380 711Q346 711 318 698Q290 685 269.5 654Q249 623 235 569L222 518L395 518L381 455L206 455L123 107Q107 40 89.5 -13Q72 -66 49 -108.5Q26 -151 -9 -189Z" />
<glyph glyph-name="g" unicode="&#x67;" horiz-adv-x="542" d="M114 -188Q78 -188 34 -178Q-10 -168 -40 -151L-10 -82Q13 -99 51.5 -110Q90 -121 130 -121Q219 -121 266.5 -80Q314 -39 329 34L334 59Q305 41 272 32Q239 23 206 23Q148 23 111 47.5Q74 72 56.5 113Q39 154 39 203Q39 250 53 297Q67 344 94.5 386Q122 428 163 460.5Q204 493 259 511.5Q314 530 383 530Q408 530 431.5 526.5Q455 523 476 516.5Q497 510 515 500L404 38Q393 -7 376 -47.5Q359 -88 328 -119.5Q297 -151 245.5 -169.5Q194 -188 114 -188ZM219 89Q251 89 286 101Q321 113 352 133L430 456Q416 460 401 462Q386 464 370 464Q305 464 257 441.5Q209 419 177 382Q145 345 129.5 302Q114 259 114 217Q114 182 123 153Q132 124 154.5 106.5Q177 89 219 89Z" />
<glyph glyph-name="h" unicode="&#x68;" horiz-adv-x="557" d="M24 0L205 763L283 776L218 506Q247 517 276 523.5Q305 530 332 530Q379 530 415.5 512Q452 494 473 457.5Q494 421 494 366Q494 341 490 314Q486 287 479 260L417 0L342 0L398 235Q406 267 412.5 299.5Q419 332 419 361Q419 399 404.5 421Q390 443 365.5 453Q341 463 310 463Q283 463 255 457Q227 451 202 443L98 0Z" />
<glyph glyph-name="i" unicode="&#x69;" horiz-adv-x="250" d="M24 0L149 518L223 518L98 0ZM224 642Q203 642 191 654.5Q179 667 179 688Q179 706 187 719Q195 732 207 739Q219 746 232 746Q252 746 265 733Q278 720 278 698Q278 681 269.5 668Q261 655 249 648.5Q237 642 224 642Z" />
<glyph glyph-name="j" unicode="&#x6a;" horiz-adv-x="251" d="M-83 -188Q-108 -188 -126.5 -182.5Q-145 -177 -158 -170L-140 -107Q-124 -115 -110 -119Q-96 -123 -77 -123Q-26 -123 0 -83.5Q26 -44 40 17L159 518L233 518L116 27Q99 -44 75.5 -92Q52 -140 14.5 -164Q-23 -188 -83 -188ZM227 642Q206 642 194 654.5Q182 667 182 688Q182 706 190 719Q198 732 210 739Q222 746 235 746Q255 746 268 733Q281 720 281 698Q281 681 272.5 668Q264 655 252 648.5Q240 642 227 642Z" />
<glyph glyph-name="k" unicode="&#x6b;" horiz-adv-x="514" d="M22 0L205 763L283 776L169 302Q204 326 240.5 355.5Q277 385 311 415.5Q345 446 372.5 473Q400 500 416 518L505 518Q486 494 453.5 461.5Q421 429 383 395Q345 361 309.5 332Q274 303 248 286Q292 252 331.5 202Q371 152 402 98.5Q433 45 449 0L368 0Q341 59 308 109Q275 159 237.5 199Q200 239 161 266L96 0Z" />
<glyph glyph-name="l" unicode="&#x6c;" horiz-adv-x="282" d="M187 -9Q131 -3 100.5 17.5Q70 38 58.5 70Q47 102 50 143Q53 184 64 230L192 763L269 776L143 249Q134 212 127.5 180.5Q121 149 123 124Q125 99 143.5 81.5Q162 64 203 55Z" />
<glyph glyph-name="m" unicode="&#x6d;" horiz-adv-x="834" d="M24 0L143 499Q163 506 190 512.5Q217 519 247.5 523.5Q278 528 307 528Q349 528 384 516.5Q419 505 441 476Q490 505 529 516.5Q568 528 606 528Q653 528 690 513.5Q727 499 748.5 463.5Q770 428 770 366Q770 341 766.5 314Q763 287 756 260L693 0L619 0L675 235Q682 267 689 299Q696 331 696 360Q696 419 667.5 440Q639 461 595 461Q574 461 542.5 453.5Q511 446 467 418Q470 406 471.5 393Q473 380 473 366Q473 341 469 314Q465 287 458 260L396 0L321 0L377 235Q385 267 391.5 299Q398 331 398 360Q398 419 370 440Q342 461 298 461Q276 461 251.5 457Q227 453 206 448L98 0Z" />
<glyph glyph-name="n" unicode="&#x6e;" horiz-adv-x="558" d="M24 0L143 499Q181 510 226 519Q271 528 318 528Q404 528 445 493Q486 458 492.5 397.5Q499 337 480 260L418 0L343 0L399 235Q411 283 417 324.5Q423 366 416.5 396.5Q410 427 384 444Q358 461 306 461Q281 461 255.5 457Q230 453 206 448L98 0Z" />
<glyph glyph-name="o" unicode="&#x6f;" horiz-adv-x="541" d="M218 -12Q169 -12 128.5 8.5Q88 29 64 69Q40 109 40 167Q40 257 65.5 324.5Q91 392 132.5 437.5Q174 483 225 506Q276 529 327 529Q377 529 417 508.5Q457 488 481 448.5Q505 409 505 351Q505 261 480 193Q455 125 413.5 79.5Q372 34 321 11Q270 -12 218 -12ZM223 54Q251 54 280.5 66Q310 78 336.5 101.5Q363 125 384 160Q405 195 417.5 241.5Q430 288 430 345Q430 403 399 433Q368 463 322 463Q294 463 265 451Q236 439 209 415.5Q182 392 161 357Q140 322 128 275.5Q116 229 116 172Q116 114 147 84Q178 54 223 54Z" />
<glyph glyph-name="p" unicode="&#x70;" horiz-adv-x="534" d="M-22 -185L142 497Q170 507 198.5 514.5Q227 522 256 526Q285 530 313 530Q376 530 417 508Q458 486 478 443Q498 400 498 337Q498 269 476 207Q454 145 411.5 96Q369 47 308 19Q247 -9 169 -9Q150 -9 132 -6.5Q114 -4 97 0L53 -185ZM175 58Q235 58 281 81Q327 104 358.5 142.5Q390 181 406.5 229Q423 277 423 327Q423 398 392 432Q361 466 297 466Q275 466 252 462.5Q229 459 205 452L114 66Q129 62 144.5 60Q160 58 175 58Z" />
<glyph glyph-name="q" unicode="&#x71;" horiz-adv-x="546" d="M280 -185L328 15Q305 3 273.5 -4.5Q242 -12 207 -12Q149 -12 112 14.5Q75 41 57.5 84.5Q40 128 40 179Q40 244 61.5 306.5Q83 369 127.5 419.5Q172 470 242 500Q312 530 409 530Q424 530 443.5 527Q463 524 483.5 518.5Q504 513 520 503L354 -185ZM225 53Q257 53 289.5 64.5Q322 76 347 96L434 457Q424 459 411.5 462Q399 465 389 465Q327 465 277 444.5Q227 424 191 386.5Q155 349 135.5 298.5Q116 248 116 188Q116 166 120 142.5Q124 119 136 98.5Q148 78 169.5 65.5Q191 53 225 53Z" />
<glyph glyph-name="r" unicode="&#x72;" horiz-adv-x="382" d="M23 0L141 494Q179 509 226 519.5Q273 530 319 530Q342 530 364.5 527Q387 524 406 516L386 450Q366 456 346 459.5Q326 463 304 463Q279 463 254 459Q229 455 205 447L97 0Z" />
<glyph glyph-name="s" unicode="&#x73;" horiz-adv-x="419" d="M144 -12Q101 -12 61 -2.5Q21 7 -10 24L21 89Q56 71 85 63Q114 55 150 55Q184 55 211.5 64.5Q239 74 255 93Q271 112 271 142Q271 164 261.5 178.5Q252 193 235 204Q218 215 197 225Q170 239 142 255.5Q114 272 95.5 298.5Q77 325 77 368Q77 425 104.5 460.5Q132 496 177.5 513Q223 530 275 530Q310 530 342.5 524Q375 518 403 506L374 442Q353 452 325.5 458Q298 464 269 464Q239 464 211.5 455.5Q184 447 167 427.5Q150 408 150 376Q150 353 161.5 337.5Q173 322 192 311Q211 300 232 289Q261 275 286.5 258.5Q312 242 327.5 217.5Q343 193 343 155Q343 98 316 61Q289 24 243.5 6Q198 -12 144 -12Z" />
<glyph glyph-name="t" unicode="&#x74;" horiz-adv-x="391" d="M187 -12Q135 -12 105.5 5.5Q76 23 64.5 54Q53 85 55 125.5Q57 166 68 212L177 668L255 681L216 518L396 518L381 455L200 455L141 209Q132 171 131 135.5Q130 100 146.5 77.5Q163 55 206 55Q237 55 260.5 62Q284 69 310 80L316 15Q289 4 255.5 -4Q222 -12 187 -12Z" />
<glyph glyph-name="u" unicode="&#x75;" horiz-adv-x="539" d="M193 -12Q131 -12 97 10.5Q63 33 50.5 71Q38 109 41 157.5Q44 206 57 258L120 518L195 518L138 284Q128 242 120 201.5Q112 161 114.5 127.5Q117 94 137.5 74.5Q158 55 204 55Q249 55 283.5 73Q318 91 349 125Q349 143 352.5 164.5Q356 186 361.5 208Q367 230 371 248L438 518L512 518L434 200Q421 148 421 103Q421 58 444 5L370 -6Q364 6 359.5 21Q355 36 352 52Q318 19 279 3.5Q240 -12 193 -12Z" />
<glyph glyph-name="v" unicode="&#x76;" horiz-adv-x="475" d="M139 0Q114 109 94 243Q74 377 71 518L146 518Q147 449 153.5 369Q160 289 171 213Q182 137 196 79Q225 118 259.5 172Q294 226 327.5 286.5Q361 347 389 407Q417 467 433 518L507 518Q487 454 454.5 384.5Q422 315 381.5 246Q341 177 297 114Q253 51 210 0Z" />
<glyph glyph-name="w" unicode="&#x77;" horiz-adv-x="779" d="M121 0Q111 53 102.5 113.5Q94 174 87.5 239.5Q81 305 77 375Q73 445 72 518L145 518Q146 467 149 407Q152 347 156.5 286.5Q161 226 167 172Q173 118 180 80Q222 140 264.5 215Q307 290 343.5 369Q380 448 404 518L478 518Q478 470 480 414.5Q482 359 486 300.5Q490 242 495 185.5Q500 129 507 80Q526 104 551.5 143Q577 182 604 230Q631 278 657 329.5Q683 381 703.5 429.5Q724 478 736 518L811 518Q789 446 753 371Q717 296 675.5 225.5Q634 155 593 96.5Q552 38 518 0L445 0Q435 86 426 186Q417 286 415 382Q389 320 351.5 249.5Q314 179 273 113Q232 47 194 0Z" />
<glyph glyph-name="x" unicode="&#x78;" horiz-adv-x="473" d="M-45 0L197 271L68 518L153 518L251 314Q281 350 310 386.5Q339 423 364 456.5Q389 490 406 518L487 518Q444 454 390 387.5Q336 321 285 262Q304 227 326 183Q348 139 368.5 92.5Q389 46 403 0L326 0Q317 31 301 69.5Q285 108 267 147Q249 186 233 217L43 0Z" />
<glyph glyph-name="y" unicode="&#x79;" horiz-adv-x="471" d="M-27 -188Q-47 -188 -68.5 -184.5Q-90 -181 -113 -169L-88 -108Q-74 -115 -58 -119Q-42 -123 -25 -123Q25 -123 72 -95.5Q119 -68 158 -13Q131 73 111.5 162.5Q92 252 80.5 342Q69 432 66 518L143 518Q146 456 153 378Q160 300 174.5 217Q189 134 212 56Q255 123 289.5 191.5Q324 260 350 322.5Q376 385 393.5 435.5Q411 486 420 518L494 518Q486 491 468.5 439Q451 387 423.5 320Q396 253 358 179Q320 105 272 33Q235 -22 199 -63.5Q163 -105 126.5 -133Q90 -161 52 -174.5Q14 -188 -27 -188Z" />
<glyph glyph-name="z" unicode="&#x7a;" horiz-adv-x="449" d="M-16 0L-4 51Q21 89 57 133Q93 177 135 223Q177 269 220 312.5Q263 356 301.5 393Q340 430 368 455L106 455L120 518L479 518L466 462Q441 440 401.5 402Q362 364 315.5 318Q269 272 224 224.5Q179 177 142 135Q105 93 85 64L374 64L360 0Z" />
<glyph glyph-name="braceleft" unicode="&#x7b;" horiz-adv-x="323" d="M192 -194Q127 -194 95 -173Q63 -152 57 -113Q51 -74 64 -20L101 131Q109 163 110 191.5Q111 220 97 239.5Q83 259 47 261L61 318Q100 318 122.5 341Q145 364 157.5 396.5Q170 429 177 456L204 566Q218 622 232 661.5Q246 701 268.5 725.5Q291 750 329 762Q367 774 428 774L413 716Q379 716 353.5 708.5Q328 701 310.5 678.5Q293 656 282 611L252 492Q238 432 223 391Q208 350 187.5 324.5Q167 299 135 285Q163 269 171.5 244Q180 219 177 189.5Q174 160 167 130L128 -32Q120 -62 121.5 -85.5Q123 -109 142.5 -122.5Q162 -136 208 -136Z" />
<glyph glyph-name="bar" unicode="&#x7c;" horiz-adv-x="283" d="M-3 -185L230 783L299 783L66 -185Z" />
<glyph glyph-name="braceright" unicode="&#x7d;" horiz-adv-x="325" d="M-90 -194L-75 -136Q-40 -136 -14.5 -128.5Q11 -121 28.5 -98Q46 -75 57 -31L86 89Q101 149 115.5 189.5Q130 230 150.5 256Q171 282 203 295Q176 311 167 336Q158 361 161 391Q164 421 171 451L210 612Q218 643 216.5 666Q215 689 195.5 702.5Q176 716 130 716L146 774Q212 774 244 753Q276 732 282 693.5Q288 655 274 600L237 449Q229 418 228 389Q227 360 241.5 341Q256 322 292 319L278 262Q239 262 216 239Q193 216 180.5 184Q168 152 161 124L134 14Q120 -41 106 -81Q92 -121 69.5 -145.5Q47 -170 9.5 -182Q-28 -194 -90 -194Z" />
<glyph glyph-name="asciitilde" unicode="&#x7e;" horiz-adv-x="564" d="M365 208Q333 208 310 221.5Q287 235 268 253.5Q249 272 229.5 285.5Q210 299 184 299Q159 299 140.5 283Q122 267 110.5 248Q99 229 94 218L40 235Q50 261 69.5 292Q89 323 120 345.5Q151 368 196 368Q228 368 251 354Q274 340 293 322Q312 304 332 290Q352 276 379 276Q405 276 423 292Q441 308 452.5 327.5Q464 347 469 357L522 340Q514 316 494.5 285Q475 254 443 231Q411 208 365 208Z" />
<glyph glyph-name="uni00A0" unicode="&#xa0;" horiz-adv-x="233" d="" />
<glyph glyph-name="exclamdown" unicode="&#xa1;" horiz-adv-x="244" d="M-22 -184L24 8Q29 28 39 64.5Q49 101 61.5 144.5Q74 188 86.5 228Q99 268 109 295L154 295Q149 250 142.5 205.5Q136 161 126.5 112.5Q117 64 104 8L58 -184ZM164 404Q137 404 124 419Q111 434 111 455Q111 472 118.5 487Q126 502 140 511.5Q154 521 173 521Q200 521 213 506Q226 491 226 469Q226 453 218.5 438Q211 423 197 413.5Q183 404 164 404Z" />
<glyph glyph-name="cent" unicode="&#xa2;" horiz-adv-x="564" d="M189 -109L224 35Q149 52 117.5 103.5Q86 155 86 222Q86 298 117 367.5Q148 437 206.5 486Q265 535 347 550L382 693L450 693L416 552Q441 551 470 544.5Q499 538 523 527L494 464Q468 477 442 482.5Q416 488 390 488Q327 488 275 453Q223 418 192.5 358Q162 298 162 222Q162 177 181 149Q200 121 230.5 108Q261 95 297 95Q328 95 359.5 103.5Q391 112 418 126L423 61Q407 52 370.5 41.5Q334 31 291 31L257 -109Z" />
<glyph glyph-name="sterling" unicode="&#xa3;" horiz-adv-x="564" d="M63 0Q82 47 100.5 97.5Q119 148 135.5 201Q152 254 163 305L68 305L83 367L178 367L200 460Q223 554 260 607.5Q297 661 346.5 683.5Q396 706 456 706Q491 706 524.5 697Q558 688 584 673L549 612Q527 626 501.5 632Q476 638 445 638Q405 638 372.5 622.5Q340 607 316 567.5Q292 528 275 457L253 367L447 367L431 305L239 305Q232 271 220.5 230.5Q209 190 195 147.5Q181 105 164 65L460 65L444 0Z" />
<glyph glyph-name="currency" unicode="&#xa4;" horiz-adv-x="564" d="M121 113L75 160L149 235Q133 258 124.5 286.5Q116 315 116 347Q116 379 124.5 408Q133 437 149 459L75 534L122 581L197 504Q220 520 247.5 528.5Q275 537 305 537Q335 537 362.5 528.5Q390 520 413 504L489 581L535 534L461 459Q477 437 486 408Q495 379 495 347Q495 315 486 286.5Q477 258 461 235L535 160L489 113L413 190Q390 174 362.5 165.5Q335 157 305 157Q275 157 247.5 165.5Q220 174 197 190ZM305 217Q340 217 368 233.5Q396 250 412.5 279Q429 308 429 347Q429 386 412.5 415Q396 444 368 460.5Q340 477 305 477Q271 477 243 460.5Q215 444 198.5 415Q182 386 182 347Q182 308 198.5 279Q215 250 243 233.5Q271 217 305 217Z" />
<glyph glyph-name="yen" unicode="&#xa5;" horiz-adv-x="564" d="M174 0L202 115L38 115L52 172L216 172L243 286L79 286L93 343L241 343Q204 435 175 522Q146 609 125 693L204 693Q221 610 245 533.5Q269 457 302 379Q371 456 433.5 535Q496 614 554 693L630 693Q568 607 501.5 521Q435 435 348 343L498 343L484 286L318 286L292 172L457 172L443 115L278 115L250 0Z" />
<glyph glyph-name="brokenbar" unicode="&#xa6;" horiz-adv-x="277" d="M141 405L233 783L304 783L213 405ZM0 -185L90 193L161 193L71 -185Z" />
<glyph glyph-name="section" unicode="&#xa7;" horiz-adv-x="505" d="M161 -109Q118 -109 75 -100Q32 -91 -3 -72L31 -11Q57 -28 92.5 -37Q128 -46 164 -46Q203 -46 236.5 -35.5Q270 -25 290.5 -3Q311 19 311 53Q311 82 292.5 98Q274 114 245 126Q216 138 182 151Q153 163 127.5 179Q102 195 86.5 220Q71 245 71 284Q71 340 106.5 384.5Q142 429 202 463Q187 482 179 503.5Q171 525 171 545Q171 601 201.5 637Q232 673 281 690.5Q330 708 385 708Q423 708 460.5 700Q498 692 528 676L497 619Q473 635 443 642.5Q413 650 384 650Q348 650 316.5 639Q285 628 265.5 607.5Q246 587 246 556Q246 526 262.5 508.5Q279 491 306.5 479.5Q334 468 366 455Q395 444 420 428Q445 412 460.5 387.5Q476 363 476 323Q476 268 440.5 225Q405 182 348 150Q365 135 376 114Q387 93 387 64Q387 6 355.5 -32.5Q324 -71 272.5 -90Q221 -109 161 -109ZM291 181Q341 203 371.5 238.5Q402 274 402 310Q402 335 388 355.5Q374 376 330 393L243 428Q218 414 195 394Q172 374 158 349Q144 324 144 296Q144 267 161 247.5Q178 228 215 213Z" />
<glyph glyph-name="dieresis" unicode="&#xa8;" horiz-adv-x="369" d="M412 622Q389 622 377 635.5Q365 649 365 667Q365 689 379.5 707Q394 725 419 725Q442 725 453.5 711Q465 697 465 680Q465 666 458.5 652.5Q452 639 440 630.5Q428 622 412 622ZM233 622Q211 622 199 635.5Q187 649 187 667Q187 689 201.5 707Q216 725 241 725Q264 725 276 711Q288 697 288 680Q288 666 281 652.5Q274 639 262 630.5Q250 622 233 622Z" />
<glyph glyph-name="copyright" unicode="&#xa9;" horiz-adv-x="769" d="M400 -15Q333 -15 272 9.5Q211 34 163 80.5Q115 127 87.5 194.5Q60 262 60 347Q60 433 87.5 499.5Q115 566 163 613Q211 660 272 684Q333 708 400 708Q468 708 529 684Q590 660 637.5 613Q685 566 712.5 499.5Q740 433 740 347Q740 262 712.5 194.5Q685 127 637.5 80.5Q590 34 529 9.5Q468 -15 400 -15ZM407 144Q354 144 312.5 168Q271 192 247 237.5Q223 283 223 348Q223 412 249 456.5Q275 501 318 525Q361 549 410 549Q459 549 489 536Q519 523 530 515L510 465Q495 473 472 482Q449 491 411 491Q359 491 324 454Q289 417 289 349Q289 303 304 270Q319 237 347 220Q375 203 414 203Q455 203 479.5 212Q504 221 515 228L534 175Q521 168 488 156Q455 144 407 144ZM400 43Q481 43 543 81Q605 119 640.5 187.5Q676 256 676 347Q676 438 640.5 506Q605 574 543 612Q481 650 400 650Q320 650 257.5 612Q195 574 159.5 506Q124 438 124 347Q124 256 159.5 187.5Q195 119 257.5 81Q320 43 400 43Z" />
<glyph glyph-name="ordfeminine" unicode="&#xaa;" horiz-adv-x="448" d="M239 329Q200 329 173.5 345Q147 361 134 390.5Q121 420 121 460Q121 504 137.5 547Q154 590 186.5 625.5Q219 661 267 682.5Q315 704 377 704Q392 704 417.5 699.5Q443 695 461 686L407 499Q392 447 396 410.5Q400 374 422 336L363 326Q357 335 353.5 342.5Q350 350 347 359Q328 348 302 338.5Q276 329 239 329ZM251 383Q271 383 293 390.5Q315 398 335 413Q332 432 335.5 453.5Q339 475 343 493L384 647Q380 649 374.5 650Q369 651 360 651Q306 651 267 622Q228 593 206.5 549Q185 505 185 459Q185 419 204 401Q223 383 251 383Z" />
<glyph glyph-name="guillemotleft" unicode="&#xab;" horiz-adv-x="504" d="M174 69L58 285L250 498L293 465L144 279L226 94ZM362 69L246 285L438 498L481 465L332 279L414 94Z" />
<glyph glyph-name="logicalnot" unicode="&#xac;" horiz-adv-x="564" d="M369 54L434 325L65 325L80 389L516 389L436 54Z" />
<glyph glyph-name="uni00AD" unicode="&#xad;" horiz-adv-x="0" d="" />
<glyph glyph-name="registered" unicode="&#xae;" horiz-adv-x="769" d="M400 -15Q333 -15 272 9.5Q211 34 163 80.5Q115 127 87.5 194.5Q60 262 60 347Q60 433 87.5 499.5Q115 566 163 613Q211 660 272 684Q333 708 400 708Q468 708 529 684Q590 660 637.5 613Q685 566 712.5 499.5Q740 433 740 347Q740 262 712.5 194.5Q685 127 637.5 80.5Q590 34 529 9.5Q468 -15 400 -15ZM400 43Q481 43 543 81Q605 119 640.5 187.5Q676 256 676 347Q676 438 640.5 506Q605 574 543 612Q481 650 400 650Q320 650 257.5 612Q195 574 159.5 506Q124 438 124 347Q124 256 159.5 187.5Q195 119 257.5 81Q320 43 400 43ZM264 152L264 534Q288 540 316.5 543Q345 546 370 546Q454 546 498 514.5Q542 483 542 421Q542 386 523 358Q504 330 466 316Q478 303 496.5 276Q515 249 534.5 216Q554 183 569 152L503 152Q478 198 451.5 239Q425 280 405 305Q399 304 393.5 304Q388 304 383 304L324 304L324 152ZM324 353L370 353Q417 353 448 366.5Q479 380 479 422Q479 463 447 478Q415 493 374 493Q360 493 347 492.5Q334 492 324 491Z" />
<glyph glyph-name="macron" unicode="&#xaf;" horiz-adv-x="351" d="M180 644L195 706L461 706L447 644Z" />
<glyph glyph-name="degree" unicode="&#xb0;" horiz-adv-x="327" d="M243 506Q207 506 176.5 522Q146 538 127.5 568Q109 598 109 640Q109 683 127.5 712.5Q146 742 176.5 758Q207 774 243 774Q279 774 309 758Q339 742 357.5 712.5Q376 683 376 640Q376 598 357.5 568Q339 538 309 522Q279 506 243 506ZM243 557Q276 557 299 579.5Q322 602 322 640Q322 678 299 700.5Q276 723 243 723Q210 723 187 700.5Q164 678 164 640Q164 602 187 579.5Q210 557 243 557Z" />
<glyph glyph-name="plusminus" unicode="&#xb1;" horiz-adv-x="564" d="M217 131L268 343L79 343L95 407L283 407L334 619L402 619L350 407L538 407L522 343L336 343L284 131ZM8 1L22 65L456 65L441 1Z" />
<glyph glyph-name="uni00B2" unicode="&#xb2;" horiz-adv-x="373" d="M102 435Q105 473 118.5 501.5Q132 530 154 552Q176 574 202 591Q228 608 255 624Q282 640 302.5 654.5Q323 669 335 686.5Q347 704 347 727Q347 751 332 763Q317 775 295 775Q265 775 239 764.5Q213 754 193 739L172 781Q201 806 232.5 817Q264 828 298 828Q327 828 352 819.5Q377 811 393 790.5Q409 770 409 733Q409 699 391.5 673Q374 647 346 626Q318 605 286 586Q261 571 237 555.5Q213 540 196 523.5Q179 507 174 488L362 488L349 435Z" />
<glyph glyph-name="uni00B3" unicode="&#xb3;" horiz-adv-x="373" d="M205 427Q174 427 144.5 433.5Q115 440 92 452L115 501Q133 491 158 485.5Q183 480 208 480Q242 480 267.5 489.5Q293 499 307 516.5Q321 534 321 557Q321 587 296 601Q271 615 215 615L204 615L216 664L241 664Q275 664 298.5 674Q322 684 334 700Q346 716 346 734Q346 755 331.5 765.5Q317 776 288 776Q263 776 236 768.5Q209 761 193 753L181 798Q206 812 238 820Q270 828 302 828Q352 828 378.5 803.5Q405 779 405 744Q405 715 384.5 685.5Q364 656 323 640Q354 629 368 607.5Q382 586 382 560Q382 527 363 496.5Q344 466 305 446.5Q266 427 205 427Z" />
<glyph glyph-name="acute" unicode="&#xb4;" horiz-adv-x="340" d="M249 582L217 628L382 776L424 711Z" />
<glyph glyph-name="uni00B5" unicode="&#xb5;" horiz-adv-x="579" d="M-20 -183L148 518L223 518L166 284Q157 247 149.5 212.5Q142 178 140 149.5Q138 121 145.5 99.5Q153 78 173.5 66.5Q194 55 233 55Q277 55 311 70Q345 85 376 116Q378 142 384 173Q390 204 400 248L467 518L542 518L464 200Q456 166 452.5 135.5Q449 105 462 84Q475 63 515 56L496 -9Q479 -9 457 -3.5Q435 2 415.5 15Q396 28 388 48Q350 17 307.5 2.5Q265 -12 222 -12Q180 -12 151.5 1.5Q123 15 106 34Q103 21 100 7Q97 -7 93 -23L54 -183Z" />
<glyph glyph-name="paragraph" unicode="&#xb6;" horiz-adv-x="609" d="M172 -185L279 263Q214 264 170 288Q126 312 104 351.5Q82 391 82 437Q82 489 105 536Q128 583 174 620Q220 657 289 678.5Q358 700 450 700Q477 700 510 698.5Q543 697 574.5 693.5Q606 690 627 683L419 -185L351 -185L548 630Q523 633 491.5 634.5Q460 636 437 634L240 -185Z" />
<glyph glyph-name="periodcentered" unicode="&#xb7;" horiz-adv-x="217" d="M112 235Q84 235 71 250Q58 265 58 287Q58 303 65.5 318Q73 333 87 343Q101 353 120 353Q147 353 160 337.5Q173 322 173 301Q173 285 165.5 269.5Q158 254 144.5 244.5Q131 235 112 235Z" />
<glyph glyph-name="cedilla" unicode="&#xb8;" horiz-adv-x="345" d="M109 -191Q91 -191 73.5 -188Q56 -185 36 -178L56 -130Q67 -134 80 -137Q93 -140 106 -140Q129 -140 142.5 -133Q156 -126 156 -110Q156 -95 146.5 -86Q137 -77 109 -66Q116 -52 128.5 -34.5Q141 -17 152.5 -1.5Q164 14 169 20L221 20Q213 10 200.5 -8.5Q188 -27 180 -39Q203 -51 213.5 -65.5Q224 -80 224 -103Q224 -131 208.5 -151Q193 -171 167 -181Q141 -191 109 -191Z" />
<glyph glyph-name="uni00B9" unicode="&#xb9;" horiz-adv-x="373" d="M223 435L296 739Q268 720 236.5 709Q205 698 189 693L181 740Q230 757 266 775.5Q302 794 333 819L375 819L284 435Z" />
<glyph glyph-name="ordmasculine" unicode="&#xba;" horiz-adv-x="453" d="M239 328Q198 328 171.5 346Q145 364 132.5 394Q120 424 120 459Q120 503 134.5 546.5Q149 590 177 626Q205 662 245.5 683.5Q286 705 339 705Q381 705 407 687Q433 669 445.5 639.5Q458 610 458 575Q458 530 443.5 486.5Q429 443 401 407Q373 371 332.5 349.5Q292 328 239 328ZM253 382Q285 382 311 398.5Q337 415 356 442Q375 469 385 501.5Q395 534 395 566Q395 610 378 631Q361 652 326 652Q294 652 268 635.5Q242 619 223 592Q204 565 193.5 532.5Q183 500 183 468Q183 425 200.5 403.5Q218 382 253 382Z" />
<glyph glyph-name="guillemotright" unicode="&#xbb;" horiz-adv-x="503" d="M77 69L35 102L184 288L102 474L154 498L270 282ZM264 69L222 102L371 288L289 474L341 498L457 282Z" />
<glyph glyph-name="onequarter" unicode="&#xbc;" horiz-adv-x="888" d="M107 0L664 693L741 693L185 0ZM181 315L254 619Q226 600 194.5 589Q163 578 147 573L139 620Q188 637 224 655.5Q260 674 291 699L333 699L242 315ZM608 1L630 96L444 96L452 133Q470 160 498.5 194Q527 228 562 264Q597 300 634 332Q671 364 705 385L757 385L700 144L747 144L735 96L689 96L666 1ZM516 144L643 144L684 318Q655 295 625.5 266.5Q596 238 568 207Q540 176 516 144Z" />
<glyph glyph-name="onehalf" unicode="&#xbd;" horiz-adv-x="888" d="M114 0L671 693L748 693L192 0ZM191 315L264 619Q236 600 204.5 589Q173 578 157 573L149 620Q198 637 234 655.5Q270 674 301 699L343 699L252 315ZM500 1Q503 39 516.5 67.5Q530 96 552 118Q574 140 600 157Q626 174 653 190Q680 206 700.5 220.5Q721 235 733 252.5Q745 270 745 293Q745 317 730 329Q715 341 693 341Q663 341 637 330.5Q611 320 591 305L570 347Q599 372 630.5 383Q662 394 696 394Q725 394 750 385.5Q775 377 791 356.5Q807 336 807 299Q807 265 789.5 239Q772 213 744 192Q716 171 684 152Q659 137 635 121.5Q611 106 594 89.5Q577 73 572 54L760 54L747 1Z" />
<glyph glyph-name="threequarters" unicode="&#xbe;" horiz-adv-x="888" d="M142 0L699 693L776 693L220 0ZM176 307Q145 307 115.5 313.5Q86 320 63 332L86 381Q104 371 129 365.5Q154 360 179 360Q213 360 238.5 369.5Q264 379 278 396.5Q292 414 292 437Q292 467 267 481Q242 495 186 495L175 495L187 544L212 544Q246 544 269.5 554Q293 564 305 580Q317 596 317 614Q317 635 302.5 645.5Q288 656 259 656Q234 656 207 648.5Q180 641 164 633L152 678Q177 692 209 700Q241 708 273 708Q323 708 349.5 683.5Q376 659 376 624Q376 595 355.5 565.5Q335 536 294 520Q325 509 339 487.5Q353 466 353 440Q353 407 334 376.5Q315 346 276 326.5Q237 307 176 307ZM665 1L687 96L501 96L509 133Q527 160 555.5 194Q584 228 619 264Q654 300 691 332Q728 364 762 385L814 385L757 144L804 144L792 96L746 96L723 1ZM573 144L700 144L741 318Q712 295 682.5 266.5Q653 238 625 207Q597 176 573 144Z" />
<glyph glyph-name="questiondown" unicode="&#xbf;" horiz-adv-x="381" d="M280 305Q279 258 261.5 222Q244 186 214 155.5Q184 125 143 93Q88 51 65 20Q42 -11 42 -49Q42 -91 68.5 -107Q95 -123 130 -123Q162 -123 195.5 -114Q229 -105 254 -93L263 -155Q232 -170 193 -179.5Q154 -189 116 -189Q76 -189 41 -176Q6 -163 -15 -133.5Q-36 -104 -36 -55Q-36 -10 -16.5 23.5Q3 57 34 85Q65 113 97 139Q127 163 154 187.5Q181 212 198.5 241Q216 270 216 305ZM268 531Q295 531 308 516Q321 501 321 479Q321 463 313.5 448Q306 433 292.5 423.5Q279 414 260 414Q232 414 219 429Q206 444 206 465Q206 482 213.5 497Q221 512 235 521.5Q249 531 268 531Z" />
<glyph glyph-name="Agrave" unicode="&#xc0;" horiz-adv-x="642" d="M-39 0Q32 127 104 247Q176 367 247.5 479Q319 591 388 693L469 693Q482 620 494.5 540.5Q507 461 519 375Q531 289 543 195.5Q555 102 566 0L486 0Q482 47 476.5 93Q471 139 466 186L147 186Q122 141 96.5 94.5Q71 48 46 0ZM185 251L458 251Q448 337 436 426Q424 515 409 607Q351 517 294.5 429.5Q238 342 185 251ZM484 738L320 872L378 932L522 776Z" />
<glyph glyph-name="Aacute" unicode="&#xc1;" horiz-adv-x="642" d="M-39 0Q32 127 104 247Q176 367 247.5 479Q319 591 388 693L469 693Q482 620 494.5 540.5Q507 461 519 375Q531 289 543 195.5Q555 102 566 0L486 0Q482 47 476.5 93Q471 139 466 186L147 186Q122 141 96.5 94.5Q71 48 46 0ZM185 251L458 251Q448 337 436 426Q424 515 409 607Q351 517 294.5 429.5Q238 342 185 251ZM400 738L368 784L533 932L575 867Z" />
<glyph glyph-name="Acircumflex" unicode="&#xc2;" horiz-adv-x="642" d="M-39 0Q32 127 104 247Q176 367 247.5 479Q319 591 388 693L469 693Q482 620 494.5 540.5Q507 461 519 375Q531 289 543 195.5Q555 102 566 0L486 0Q482 47 476.5 93Q471 139 466 186L147 186Q122 141 96.5 94.5Q71 48 46 0ZM185 251L458 251Q448 337 436 426Q424 515 409 607Q351 517 294.5 429.5Q238 342 185 251ZM338 738L310 774L480 921L582 773L545 738L464 832Z" />
<glyph glyph-name="Atilde" unicode="&#xc3;" horiz-adv-x="642" d="M-39 0Q32 127 104 247Q176 367 247.5 479Q319 591 388 693L469 693Q482 620 494.5 540.5Q507 461 519 375Q531 289 543 195.5Q555 102 566 0L486 0Q482 47 476.5 93Q471 139 466 186L147 186Q122 141 96.5 94.5Q71 48 46 0ZM185 251L458 251Q448 337 436 426Q424 515 409 607Q351 517 294.5 429.5Q238 342 185 251ZM329 776L290 800Q307 832 333 856Q359 880 408 880Q433 880 450.5 870.5Q468 861 485 851.5Q502 842 525 842Q546 842 560 853.5Q574 865 590 887L629 862Q612 831 586.5 806.5Q561 782 511 782Q486 782 468.5 792Q451 802 434 811.5Q417 821 394 821Q373 821 359.5 810Q346 799 329 776Z" />
<glyph glyph-name="Adieresis" unicode="&#xc4;" horiz-adv-x="642" d="M-39 0Q32 127 104 247Q176 367 247.5 479Q319 591 388 693L469 693Q482 620 494.5 540.5Q507 461 519 375Q531 289 543 195.5Q555 102 566 0L486 0Q482 47 476.5 93Q471 139 466 186L147 186Q122 141 96.5 94.5Q71 48 46 0ZM185 251L458 251Q448 337 436 426Q424 515 409 607Q351 517 294.5 429.5Q238 342 185 251ZM545 778Q522 778 510 791.5Q498 805 498 823Q498 845 512.5 863Q527 881 552 881Q575 881 586.5 867Q598 853 598 836Q598 822 591.5 808.5Q585 795 573 786.5Q561 778 545 778ZM366 778Q344 778 332 791.5Q320 805 320 823Q320 845 334.5 863Q349 881 374 881Q397 881 409 867Q421 853 421 836Q421 822 414 808.5Q407 795 395 786.5Q383 778 366 778Z" />
<glyph glyph-name="Aring" unicode="&#xc5;" horiz-adv-x="642" d="M-39 0Q28 120 97 235.5Q166 351 235.5 459.5Q305 568 371 666Q356 680 347.5 698.5Q339 717 339 740Q339 784 368 811Q397 838 437 838Q477 838 506 811Q535 784 535 740Q535 707 518.5 683.5Q502 660 477 649Q489 580 500.5 505Q512 430 523 349Q534 268 545 181Q556 94 566 0L486 0Q482 47 476.5 93Q471 139 466 186L147 186Q122 141 96.5 94.5Q71 48 46 0ZM185 251L458 251Q448 337 436 426Q424 515 409 607Q351 517 294.5 429.5Q238 342 185 251ZM437 683Q461 683 477 697.5Q493 712 493 740Q493 768 477 783Q461 798 437 798Q414 798 398 783Q382 768 382 740Q382 712 398 697.5Q414 683 437 683Z" />
<glyph glyph-name="AE" unicode="&#xc6;" horiz-adv-x="911" d="M-42 0Q30 101 99 191Q168 281 237.5 364.5Q307 448 380 529Q453 610 533 693L953 693L938 626L638 626L582 397L847 397L832 331L569 331L503 67L826 67L812 0L412 0L456 187L178 187Q142 141 107.5 93.5Q73 46 42 0ZM229 253L472 253L563 633Q534 604 495.5 563Q457 522 413 472Q369 422 322.5 366.5Q276 311 229 253Z" />
<glyph glyph-name="Ccedilla" unicode="&#xc7;" horiz-adv-x="623" d="M255 -191Q237 -191 219.5 -188Q202 -185 182 -178L202 -130Q213 -134 226 -137Q239 -140 252 -140Q275 -140 288.5 -133Q302 -126 302 -110Q302 -95 292.5 -86Q283 -77 254 -66Q260 -54 269.5 -39.5Q279 -25 289 -12Q226 -4 178.5 27Q131 58 104.5 115Q78 172 78 256Q78 360 110 443.5Q142 527 198.5 586Q255 645 328.5 676.5Q402 708 484 708Q531 708 572.5 697.5Q614 687 656 664L623 596Q586 618 548 628.5Q510 639 470 639Q408 639 352 612.5Q296 586 253 536Q210 486 185 416Q160 346 160 259Q160 159 204 107Q248 55 336 55Q413 55 456.5 71Q500 87 522 99L532 31Q493 10 442.5 -2Q392 -14 341 -15Q337 -21 332.5 -27.5Q328 -34 325 -39Q348 -51 358.5 -65.5Q369 -80 369 -103Q369 -131 354 -151Q339 -171 313 -181Q287 -191 255 -191Z" />
<glyph glyph-name="Egrave" unicode="&#xc8;" horiz-adv-x="542" d="M24 0L190 693L585 693L569 626L251 626L195 397L479 397L463 331L182 331L116 67L458 67L443 0ZM447 738L283 872L341 932L485 776Z" />
<glyph glyph-name="Eacute" unicode="&#xc9;" horiz-adv-x="542" d="M24 0L190 693L585 693L569 626L251 626L195 397L479 397L463 331L182 331L116 67L458 67L443 0ZM363 738L331 784L496 932L538 867Z" />
<glyph glyph-name="Ecircumflex" unicode="&#xca;" horiz-adv-x="542" d="M24 0L190 693L585 693L569 626L251 626L195 397L479 397L463 331L182 331L116 67L458 67L443 0ZM301 738L273 774L443 921L545 773L508 738L427 832Z" />
<glyph glyph-name="Edieresis" unicode="&#xcb;" horiz-adv-x="542" d="M24 0L190 693L585 693L569 626L251 626L195 397L479 397L463 331L182 331L116 67L458 67L443 0ZM508 778Q485 778 473 791.5Q461 805 461 823Q461 845 475.5 863Q490 881 515 881Q538 881 549.5 867Q561 853 561 836Q561 822 554.5 808.5Q548 795 536 786.5Q524 778 508 778ZM329 778Q307 778 295 791.5Q283 805 283 823Q283 845 297.5 863Q312 881 337 881Q360 881 372 867Q384 853 384 836Q384 822 377 808.5Q370 795 358 786.5Q346 778 329 778Z" />
<glyph glyph-name="Igrave" unicode="&#xcc;" horiz-adv-x="251" d="M24 0L190 693L268 693L103 0ZM285 738L121 872L179 932L323 776Z" />
<glyph glyph-name="Iacute" unicode="&#xcd;" horiz-adv-x="251" d="M24 0L190 693L268 693L103 0ZM201 738L169 784L334 932L376 867Z" />
<glyph glyph-name="Icircumflex" unicode="&#xce;" horiz-adv-x="251" d="M24 0L190 693L268 693L103 0ZM139 738L111 774L281 921L383 773L346 738L265 832Z" />
<glyph glyph-name="Idieresis" unicode="&#xcf;" horiz-adv-x="251" d="M24 0L190 693L268 693L103 0ZM346 778Q323 778 311 791.5Q299 805 299 823Q299 845 313.5 863Q328 881 353 881Q376 881 387.5 867Q399 853 399 836Q399 822 392.5 808.5Q386 795 374 786.5Q362 778 346 778ZM167 778Q145 778 133 791.5Q121 805 121 823Q121 845 135.5 863Q150 881 175 881Q198 881 210 867Q222 853 222 836Q222 822 215 808.5Q208 795 196 786.5Q184 778 167 778Z" />
<glyph glyph-name="Eth" unicode="&#xd0;" horiz-adv-x="707" d="M203 -6Q163 -6 115.5 -1Q68 4 36 13L112 331L32 331L46 393L126 393L195 680Q245 691 286 695Q327 699 367 699Q464 699 531 668.5Q598 638 633.5 577.5Q669 517 669 426Q669 361 653 298Q637 235 603 180Q569 125 514 83Q459 41 382 17.5Q305 -6 203 -6ZM216 61Q302 61 370.5 86.5Q439 112 487.5 160.5Q536 209 561.5 276.5Q587 344 587 428Q587 502 556.5 547Q526 592 474 612.5Q422 633 357 633Q334 633 309 631Q284 629 260 625L204 393L335 393L320 331L190 331L126 67Q149 64 171.5 62.5Q194 61 216 61Z" />
<glyph glyph-name="Ntilde" unicode="&#xd1;" horiz-adv-x="690" d="M24 0L190 693L263 693Q298 633 333.5 558Q369 483 401 404.5Q433 326 458 254Q483 182 497 128L629 693L706 693L542 0L469 0Q451 61 424.5 139Q398 217 367 299.5Q336 382 303.5 456.5Q271 531 241 585L101 0ZM348 776L309 800Q326 832 352 856Q378 880 427 880Q452 880 469.5 870.5Q487 861 504 851.5Q521 842 544 842Q565 842 579 853.5Q593 865 609 887L648 862Q631 831 605.5 806.5Q580 782 530 782Q505 782 487.5 792Q470 802 453 811.5Q436 821 413 821Q392 821 378.5 810Q365 799 348 776Z" />
<glyph glyph-name="Ograve" unicode="&#xd2;" horiz-adv-x="760" d="M329 -15Q261 -15 204 15Q147 45 112.5 106.5Q78 168 78 260Q78 340 99.5 409Q121 478 159 533.5Q197 589 247 628Q297 667 354.5 687.5Q412 708 473 708Q541 708 598 678Q655 648 689.5 587Q724 526 724 434Q724 353 702.5 284Q681 215 643 160Q605 105 555 65.5Q505 26 447.5 5.5Q390 -15 329 -15ZM336 54Q383 54 428 71Q473 88 512 120.5Q551 153 580 200Q609 247 625.5 308Q642 369 642 442Q642 508 618.5 551.5Q595 595 555.5 617Q516 639 466 639Q419 639 374 622Q329 605 290 572.5Q251 540 222 493Q193 446 176.5 385.5Q160 325 160 252Q160 186 183.5 142Q207 98 247 76Q287 54 336 54ZM530 738L366 872L424 932L568 776Z" />
<glyph glyph-name="Oacute" unicode="&#xd3;" horiz-adv-x="760" d="M329 -15Q261 -15 204 15Q147 45 112.5 106.5Q78 168 78 260Q78 340 99.5 409Q121 478 159 533.5Q197 589 247 628Q297 667 354.5 687.5Q412 708 473 708Q541 708 598 678Q655 648 689.5 587Q724 526 724 434Q724 353 702.5 284Q681 215 643 160Q605 105 555 65.5Q505 26 447.5 5.5Q390 -15 329 -15ZM336 54Q383 54 428 71Q473 88 512 120.5Q551 153 580 200Q609 247 625.5 308Q642 369 642 442Q642 508 618.5 551.5Q595 595 555.5 617Q516 639 466 639Q419 639 374 622Q329 605 290 572.5Q251 540 222 493Q193 446 176.5 385.5Q160 325 160 252Q160 186 183.5 142Q207 98 247 76Q287 54 336 54ZM446 738L414 784L579 932L621 867Z" />
<glyph glyph-name="Ocircumflex" unicode="&#xd4;" horiz-adv-x="760" d="M329 -15Q261 -15 204 15Q147 45 112.5 106.5Q78 168 78 260Q78 340 99.5 409Q121 478 159 533.5Q197 589 247 628Q297 667 354.5 687.5Q412 708 473 708Q541 708 598 678Q655 648 689.5 587Q724 526 724 434Q724 353 702.5 284Q681 215 643 160Q605 105 555 65.5Q505 26 447.5 5.5Q390 -15 329 -15ZM336 54Q383 54 428 71Q473 88 512 120.5Q551 153 580 200Q609 247 625.5 308Q642 369 642 442Q642 508 618.5 551.5Q595 595 555.5 617Q516 639 466 639Q419 639 374 622Q329 605 290 572.5Q251 540 222 493Q193 446 176.5 385.5Q160 325 160 252Q160 186 183.5 142Q207 98 247 76Q287 54 336 54ZM384 738L356 774L526 921L628 773L591 738L510 832Z" />
<glyph glyph-name="Otilde" unicode="&#xd5;" horiz-adv-x="760" d="M329 -15Q261 -15 204 15Q147 45 112.5 106.5Q78 168 78 260Q78 340 99.5 409Q121 478 159 533.5Q197 589 247 628Q297 667 354.5 687.5Q412 708 473 708Q541 708 598 678Q655 648 689.5 587Q724 526 724 434Q724 353 702.5 284Q681 215 643 160Q605 105 555 65.5Q505 26 447.5 5.5Q390 -15 329 -15ZM336 54Q383 54 428 71Q473 88 512 120.5Q551 153 580 200Q609 247 625.5 308Q642 369 642 442Q642 508 618.5 551.5Q595 595 555.5 617Q516 639 466 639Q419 639 374 622Q329 605 290 572.5Q251 540 222 493Q193 446 176.5 385.5Q160 325 160 252Q160 186 183.5 142Q207 98 247 76Q287 54 336 54ZM375 776L336 800Q353 832 379 856Q405 880 454 880Q479 880 496.5 870.5Q514 861 531 851.5Q548 842 571 842Q592 842 606 853.5Q620 865 636 887L675 862Q658 831 632.5 806.5Q607 782 557 782Q532 782 514.5 792Q497 802 480 811.5Q463 821 440 821Q419 821 405.5 810Q392 799 375 776Z" />
<glyph glyph-name="Odieresis" unicode="&#xd6;" horiz-adv-x="760" d="M329 -15Q261 -15 204 15Q147 45 112.5 106.5Q78 168 78 260Q78 340 99.5 409Q121 478 159 533.5Q197 589 247 628Q297 667 354.5 687.5Q412 708 473 708Q541 708 598 678Q655 648 689.5 587Q724 526 724 434Q724 353 702.5 284Q681 215 643 160Q605 105 555 65.5Q505 26 447.5 5.5Q390 -15 329 -15ZM336 54Q383 54 428 71Q473 88 512 120.5Q551 153 580 200Q609 247 625.5 308Q642 369 642 442Q642 508 618.5 551.5Q595 595 555.5 617Q516 639 466 639Q419 639 374 622Q329 605 290 572.5Q251 540 222 493Q193 446 176.5 385.5Q160 325 160 252Q160 186 183.5 142Q207 98 247 76Q287 54 336 54ZM591 778Q568 778 556 791.5Q544 805 544 823Q544 845 558.5 863Q573 881 598 881Q621 881 632.5 867Q644 853 644 836Q644 822 637.5 808.5Q631 795 619 786.5Q607 778 591 778ZM412 778Q390 778 378 791.5Q366 805 366 823Q366 845 380.5 863Q395 881 420 881Q443 881 455 867Q467 853 467 836Q467 822 460 808.5Q453 795 441 786.5Q429 778 412 778Z" />
<glyph glyph-name="multiply" unicode="&#xd7;" horiz-adv-x="564" d="M102 100L65 148L242 292L128 443L178 483L291 333L478 483L516 436L328 286L440 140L390 100L280 245Z" />
<glyph glyph-name="Oslash" unicode="&#xd8;" horiz-adv-x="760" d="M110 -31L63 9L127 82Q104 116 91 160.5Q78 205 78 260Q78 340 99.5 409Q121 478 159 533.5Q197 589 247 628Q297 667 354.5 687.5Q412 708 473 708Q517 708 558 695Q599 682 632 655L695 727L741 688L674 611Q697 578 710.5 534Q724 490 724 434Q724 353 702.5 284Q681 215 643 160Q605 105 555 65.5Q505 26 447.5 5.5Q390 -15 329 -15Q285 -15 244 -2Q203 11 170 37ZM335 54Q394 54 449 80Q504 106 547.5 156.5Q591 207 616.5 279Q642 351 642 442Q642 474 636 500.5Q630 527 619 549L220 93Q265 54 335 54ZM182 144L582 599Q560 619 530 629Q500 639 466 639Q419 639 374 622Q329 605 290.5 572.5Q252 540 222.5 493Q193 446 176.5 385Q160 324 160 251Q160 219 165.5 192.5Q171 166 182 144Z" />
<glyph glyph-name="Ugrave" unicode="&#xd9;" horiz-adv-x="662" d="M285 -16Q213 -16 167.5 9.5Q122 35 100 79.5Q78 124 78 182Q78 204 81 227.5Q84 251 90 276L189 693L268 693L167 275Q162 253 158.5 230.5Q155 208 155 188Q155 150 168 119.5Q181 89 211 71Q241 53 293 53Q352 53 392.5 75.5Q433 98 460.5 146Q488 194 506 270L608 693L686 693L582 260Q559 164 521 103Q483 42 425 13Q367 -16 285 -16ZM495 738L331 872L389 932L533 776Z" />
<glyph glyph-name="Uacute" unicode="&#xda;" horiz-adv-x="662" d="M285 -16Q213 -16 167.5 9.5Q122 35 100 79.5Q78 124 78 182Q78 204 81 227.5Q84 251 90 276L189 693L268 693L167 275Q162 253 158.5 230.5Q155 208 155 188Q155 150 168 119.5Q181 89 211 71Q241 53 293 53Q352 53 392.5 75.5Q433 98 460.5 146Q488 194 506 270L608 693L686 693L582 260Q559 164 521 103Q483 42 425 13Q367 -16 285 -16ZM411 738L379 784L544 932L586 867Z" />
<glyph glyph-name="Ucircumflex" unicode="&#xdb;" horiz-adv-x="662" d="M285 -16Q213 -16 167.5 9.5Q122 35 100 79.5Q78 124 78 182Q78 204 81 227.5Q84 251 90 276L189 693L268 693L167 275Q162 253 158.5 230.5Q155 208 155 188Q155 150 168 119.5Q181 89 211 71Q241 53 293 53Q352 53 392.5 75.5Q433 98 460.5 146Q488 194 506 270L608 693L686 693L582 260Q559 164 521 103Q483 42 425 13Q367 -16 285 -16ZM349 738L321 774L491 921L593 773L556 738L475 832Z" />
<glyph glyph-name="Udieresis" unicode="&#xdc;" horiz-adv-x="662" d="M285 -16Q213 -16 167.5 9.5Q122 35 100 79.5Q78 124 78 182Q78 204 81 227.5Q84 251 90 276L189 693L268 693L167 275Q162 253 158.5 230.5Q155 208 155 188Q155 150 168 119.5Q181 89 211 71Q241 53 293 53Q352 53 392.5 75.5Q433 98 460.5 146Q488 194 506 270L608 693L686 693L582 260Q559 164 521 103Q483 42 425 13Q367 -16 285 -16ZM556 778Q533 778 521 791.5Q509 805 509 823Q509 845 523.5 863Q538 881 563 881Q586 881 597.5 867Q609 853 609 836Q609 822 602.5 808.5Q596 795 584 786.5Q572 778 556 778ZM377 778Q355 778 343 791.5Q331 805 331 823Q331 845 345.5 863Q360 881 385 881Q408 881 420 867Q432 853 432 836Q432 822 425 808.5Q418 795 406 786.5Q394 778 377 778Z" />
<glyph glyph-name="Yacute" unicode="&#xdd;" horiz-adv-x="576" d="M186 0L252 279Q233 330 215 383.5Q197 437 180.5 490.5Q164 544 149 595.5Q134 647 121 693L205 693Q225 609 250.5 519.5Q276 430 306 352Q340 390 376.5 433Q413 476 448.5 520.5Q484 565 516.5 609Q549 653 574 693L666 693Q631 646 591.5 595.5Q552 545 509.5 492Q467 439 422 385.5Q377 332 330 279L264 0ZM354 738L322 784L487 932L529 867Z" />
<glyph glyph-name="Thorn" unicode="&#xde;" horiz-adv-x="580" d="M24 0L191 693L269 693L240 574Q254 576 266.5 576.5Q279 577 292 577Q305 577 319 577Q400 577 454 557.5Q508 538 534.5 497.5Q561 457 561 394Q561 340 539 294.5Q517 249 473 216Q429 183 362 165Q295 147 205 147L136 147L102 0ZM152 210L219 210Q312 210 369.5 233Q427 256 454 297Q481 338 481 390Q481 454 440 483Q399 512 317 512Q274 512 251.5 510Q229 508 224 507Z" />
<glyph glyph-name="germandbls" unicode="&#xdf;" horiz-adv-x="604" d="M-9 -189L-75 -179Q-49 -146 -31 -116.5Q-13 -87 -0.5 -58.5Q12 -30 21.5 0.5Q31 31 39 65L155 549Q175 632 211.5 682Q248 732 296.5 754Q345 776 401 776Q450 776 485 759.5Q520 743 539 713Q558 683 558 642Q558 600 541 567.5Q524 535 498.5 509Q473 483 447.5 461.5Q422 440 405 420.5Q388 401 388 380Q388 353 408 337Q428 321 456 303Q477 290 496 272Q515 254 527.5 228Q540 202 540 163Q540 104 510.5 65Q481 26 434 7Q387 -12 333 -12Q297 -12 259.5 -4.5Q222 3 190 22L221 88Q244 74 274.5 64.5Q305 55 336 55Q370 55 399 65.5Q428 76 446.5 98.5Q465 121 465 156Q465 179 457.5 196Q450 213 436.5 226.5Q423 240 405 253Q383 270 361.5 285.5Q340 301 326 321Q312 341 312 370Q312 405 329.5 431Q347 457 372.5 479.5Q398 502 423 525Q448 548 465.5 575Q483 602 483 638Q483 673 461.5 692Q440 711 401 711Q347 711 298.5 674.5Q250 638 230 553L123 107Q107 40 89.5 -13Q72 -66 48.5 -108.5Q25 -151 -9 -189Z" />
<glyph glyph-name="agrave" unicode="&#xe0;" horiz-adv-x="540" d="M204 -13Q159 -13 122 8Q85 29 62.5 72Q40 115 40 181Q40 260 65.5 324Q91 388 137.5 434Q184 480 247 505Q310 530 384 530Q404 530 426 528Q448 526 470 521Q492 516 513 507L438 200Q430 166 426.5 134.5Q423 103 427.5 71.5Q432 40 447 5L373 -6Q367 6 362.5 21Q358 36 355 51Q321 19 283 3Q245 -13 204 -13ZM214 54Q253 54 287 72.5Q321 91 352 125Q353 152 360 186Q367 220 374 248L426 455Q409 459 394 461Q379 463 364 463Q306 463 260 440.5Q214 418 181.5 379.5Q149 341 132.5 293Q116 245 116 194Q116 143 129 112Q142 81 164 67.5Q186 54 214 54ZM400 582L236 716L294 776L438 620Z" />
<glyph glyph-name="aacute" unicode="&#xe1;" horiz-adv-x="540" d="M204 -13Q159 -13 122 8Q85 29 62.5 72Q40 115 40 181Q40 260 65.5 324Q91 388 137.5 434Q184 480 247 505Q310 530 384 530Q404 530 426 528Q448 526 470 521Q492 516 513 507L438 200Q430 166 426.5 134.5Q423 103 427.5 71.5Q432 40 447 5L373 -6Q367 6 362.5 21Q358 36 355 51Q321 19 283 3Q245 -13 204 -13ZM214 54Q253 54 287 72.5Q321 91 352 125Q353 152 360 186Q367 220 374 248L426 455Q409 459 394 461Q379 463 364 463Q306 463 260 440.5Q214 418 181.5 379.5Q149 341 132.5 293Q116 245 116 194Q116 143 129 112Q142 81 164 67.5Q186 54 214 54ZM316 582L284 628L449 776L491 711Z" />
<glyph glyph-name="acircumflex" unicode="&#xe2;" horiz-adv-x="540" d="M204 -13Q159 -13 122 8Q85 29 62.5 72Q40 115 40 181Q40 260 65.5 324Q91 388 137.5 434Q184 480 247 505Q310 530 384 530Q404 530 426 528Q448 526 470 521Q492 516 513 507L438 200Q430 166 426.5 134.5Q423 103 427.5 71.5Q432 40 447 5L373 -6Q367 6 362.5 21Q358 36 355 51Q321 19 283 3Q245 -13 204 -13ZM214 54Q253 54 287 72.5Q321 91 352 125Q353 152 360 186Q367 220 374 248L426 455Q409 459 394 461Q379 463 364 463Q306 463 260 440.5Q214 418 181.5 379.5Q149 341 132.5 293Q116 245 116 194Q116 143 129 112Q142 81 164 67.5Q186 54 214 54ZM254 582L226 618L396 765L498 617L461 582L380 676Z" />
<glyph glyph-name="atilde" unicode="&#xe3;" horiz-adv-x="540" d="M204 -13Q159 -13 122 8Q85 29 62.5 72Q40 115 40 181Q40 260 65.5 324Q91 388 137.5 434Q184 480 247 505Q310 530 384 530Q404 530 426 528Q448 526 470 521Q492 516 513 507L438 200Q430 166 426.5 134.5Q423 103 427.5 71.5Q432 40 447 5L373 -6Q367 6 362.5 21Q358 36 355 51Q321 19 283 3Q245 -13 204 -13ZM214 54Q253 54 287 72.5Q321 91 352 125Q353 152 360 186Q367 220 374 248L426 455Q409 459 394 461Q379 463 364 463Q306 463 260 440.5Q214 418 181.5 379.5Q149 341 132.5 293Q116 245 116 194Q116 143 129 112Q142 81 164 67.5Q186 54 214 54ZM245 620L206 644Q223 676 249 700Q275 724 324 724Q349 724 366.5 714.5Q384 705 401 695.5Q418 686 441 686Q462 686 476 697.5Q490 709 506 731L545 706Q528 675 502.5 650.5Q477 626 427 626Q402 626 384.5 636Q367 646 350 655.5Q333 665 310 665Q289 665 275.5 654Q262 643 245 620Z" />
<glyph glyph-name="adieresis" unicode="&#xe4;" horiz-adv-x="540" d="M204 -13Q159 -13 122 8Q85 29 62.5 72Q40 115 40 181Q40 260 65.5 324Q91 388 137.5 434Q184 480 247 505Q310 530 384 530Q404 530 426 528Q448 526 470 521Q492 516 513 507L438 200Q430 166 426.5 134.5Q423 103 427.5 71.5Q432 40 447 5L373 -6Q367 6 362.5 21Q358 36 355 51Q321 19 283 3Q245 -13 204 -13ZM214 54Q253 54 287 72.5Q321 91 352 125Q353 152 360 186Q367 220 374 248L426 455Q409 459 394 461Q379 463 364 463Q306 463 260 440.5Q214 418 181.5 379.5Q149 341 132.5 293Q116 245 116 194Q116 143 129 112Q142 81 164 67.5Q186 54 214 54ZM461 622Q438 622 426 635.5Q414 649 414 667Q414 689 428.5 707Q443 725 468 725Q491 725 502.5 711Q514 697 514 680Q514 666 507.5 652.5Q501 639 489 630.5Q477 622 461 622ZM282 622Q260 622 248 635.5Q236 649 236 667Q236 689 250.5 707Q265 725 290 725Q313 725 325 711Q337 697 337 680Q337 666 330 652.5Q323 639 311 630.5Q299 622 282 622Z" />
<glyph glyph-name="aring" unicode="&#xe5;" horiz-adv-x="540" d="M204 -13Q159 -13 122 8Q85 29 62.5 72Q40 115 40 181Q40 260 65.5 324Q91 388 137.5 434Q184 480 247 505Q310 530 384 530Q404 530 426 528Q448 526 470 521Q492 516 513 507L438 200Q430 166 426.5 134.5Q423 103 427.5 71.5Q432 40 447 5L373 -6Q367 6 362.5 21Q358 36 355 51Q321 19 283 3Q245 -13 204 -13ZM214 54Q253 54 287 72.5Q321 91 352 125Q353 152 360 186Q367 220 374 248L426 455Q409 459 394 461Q379 463 364 463Q306 463 260 440.5Q214 418 181.5 379.5Q149 341 132.5 293Q116 245 116 194Q116 143 129 112Q142 81 164 67.5Q186 54 214 54ZM372 580Q332 580 302.5 607Q273 634 273 679Q273 723 302.5 749.5Q332 776 372 776Q411 776 440 749.5Q469 723 469 679Q469 634 440 607Q411 580 372 580ZM372 621Q395 621 411 636Q427 651 427 679Q427 706 411 721Q395 736 372 736Q349 736 332.5 721Q316 706 316 679Q316 651 332.5 636Q349 621 372 621Z" />
<glyph glyph-name="ae" unicode="&#xe6;" horiz-adv-x="811" d="M167 -12Q127 -12 94.5 3Q62 18 42 47.5Q22 77 22 122Q22 200 62.5 241Q103 282 182.5 298.5Q262 315 379 320Q379 324 379 327Q379 330 379 334Q377 380 365 409Q353 438 324 451.5Q295 465 242 465Q211 465 177 456.5Q143 448 108 431L100 496Q131 510 174 520Q217 530 261 530Q333 530 375.5 501Q418 472 435 421Q473 475 530 502.5Q587 530 643 530Q683 530 716 515.5Q749 501 769 471.5Q789 442 789 396Q789 318 749 277Q709 236 630.5 220Q552 204 434 200Q434 198 434 194.5Q434 191 434 189Q436 140 447.5 110.5Q459 81 488 68Q517 55 569 55Q600 55 634.5 63.5Q669 72 703 89L711 22Q680 8 637 -2Q594 -12 550 -12Q478 -12 435.5 16.5Q393 45 375 96Q340 47 287 17.5Q234 -12 167 -12ZM178 53Q218 53 257 74Q296 95 326 139Q356 183 369 252Q258 250 199 235.5Q140 221 118 194Q96 167 96 128Q96 91 118.5 72Q141 53 178 53ZM444 264Q554 266 612.5 281Q671 296 693 323.5Q715 351 715 390Q715 427 693 446Q671 465 633 465Q594 465 555.5 443.5Q517 422 487 378Q457 334 444 264Z" />
<glyph glyph-name="ccedilla" unicode="&#xe7;" horiz-adv-x="470" d="M153 -191Q134 -191 116.5 -188Q99 -185 79 -178L99 -130Q110 -134 123 -137Q136 -140 149 -140Q172 -140 185.5 -133Q199 -126 199 -110Q199 -95 189.5 -86Q180 -77 152 -66Q158 -53 168.5 -38Q179 -23 189 -9Q116 2 79 54.5Q42 107 42 186Q42 254 63.5 316Q85 378 125.5 426Q166 474 224.5 502Q283 530 358 530Q387 530 414 525.5Q441 521 466 512L436 446Q414 455 391.5 459Q369 463 347 463Q295 463 253 441.5Q211 420 181 382.5Q151 345 135 296.5Q119 248 119 194Q119 130 148.5 92.5Q178 55 244 55Q285 55 323.5 67.5Q362 80 376 90L383 24Q364 12 325.5 1Q287 -10 240 -12Q235 -19 230.5 -26.5Q226 -34 223 -39Q246 -51 256.5 -65.5Q267 -80 267 -103Q267 -131 251.5 -151Q236 -171 210.5 -181Q185 -191 153 -191Z" />
<glyph glyph-name="egrave" unicode="&#xe8;" horiz-adv-x="504" d="M241 -12Q167 -12 123 12.5Q79 37 60 80.5Q41 124 41 181Q41 246 61 308Q81 370 119.5 420Q158 470 213.5 500Q269 530 340 530Q410 530 449 493.5Q488 457 488 396Q488 322 441 282Q394 242 310 226Q226 210 115 205Q115 201 115 196.5Q115 192 115 188Q117 144 129 114.5Q141 85 171.5 70Q202 55 256 55Q291 55 326.5 64.5Q362 74 393 93L400 27Q367 9 325.5 -1.5Q284 -12 241 -12ZM124 269Q235 272 298 287Q361 302 387.5 328Q414 354 414 390Q414 428 391.5 446.5Q369 465 332 465Q281 465 239 438Q197 411 167.5 366.5Q138 322 124 269ZM386 582L222 716L280 776L424 620Z" />
<glyph glyph-name="eacute" unicode="&#xe9;" horiz-adv-x="504" d="M241 -12Q167 -12 123 12.5Q79 37 60 80.5Q41 124 41 181Q41 246 61 308Q81 370 119.5 420Q158 470 213.5 500Q269 530 340 530Q410 530 449 493.5Q488 457 488 396Q488 322 441 282Q394 242 310 226Q226 210 115 205Q115 201 115 196.5Q115 192 115 188Q117 144 129 114.5Q141 85 171.5 70Q202 55 256 55Q291 55 326.5 64.5Q362 74 393 93L400 27Q367 9 325.5 -1.5Q284 -12 241 -12ZM124 269Q235 272 298 287Q361 302 387.5 328Q414 354 414 390Q414 428 391.5 446.5Q369 465 332 465Q281 465 239 438Q197 411 167.5 366.5Q138 322 124 269ZM302 582L270 628L435 776L477 711Z" />
<glyph glyph-name="ecircumflex" unicode="&#xea;" horiz-adv-x="504" d="M241 -12Q167 -12 123 12.5Q79 37 60 80.5Q41 124 41 181Q41 246 61 308Q81 370 119.5 420Q158 470 213.5 500Q269 530 340 530Q410 530 449 493.5Q488 457 488 396Q488 322 441 282Q394 242 310 226Q226 210 115 205Q115 201 115 196.5Q115 192 115 188Q117 144 129 114.5Q141 85 171.5 70Q202 55 256 55Q291 55 326.5 64.5Q362 74 393 93L400 27Q367 9 325.5 -1.5Q284 -12 241 -12ZM124 269Q235 272 298 287Q361 302 387.5 328Q414 354 414 390Q414 428 391.5 446.5Q369 465 332 465Q281 465 239 438Q197 411 167.5 366.5Q138 322 124 269ZM240 582L212 618L382 765L484 617L447 582L366 676Z" />
<glyph glyph-name="edieresis" unicode="&#xeb;" horiz-adv-x="504" d="M241 -12Q167 -12 123 12.5Q79 37 60 80.5Q41 124 41 181Q41 246 61 308Q81 370 119.5 420Q158 470 213.5 500Q269 530 340 530Q410 530 449 493.5Q488 457 488 396Q488 322 441 282Q394 242 310 226Q226 210 115 205Q115 201 115 196.5Q115 192 115 188Q117 144 129 114.5Q141 85 171.5 70Q202 55 256 55Q291 55 326.5 64.5Q362 74 393 93L400 27Q367 9 325.5 -1.5Q284 -12 241 -12ZM124 269Q235 272 298 287Q361 302 387.5 328Q414 354 414 390Q414 428 391.5 446.5Q369 465 332 465Q281 465 239 438Q197 411 167.5 366.5Q138 322 124 269ZM447 622Q424 622 412 635.5Q400 649 400 667Q400 689 414.5 707Q429 725 454 725Q477 725 488.5 711Q500 697 500 680Q500 666 493.5 652.5Q487 639 475 630.5Q463 622 447 622ZM268 622Q246 622 234 635.5Q222 649 222 667Q222 689 236.5 707Q251 725 276 725Q299 725 311 711Q323 697 323 680Q323 666 316 652.5Q309 639 297 630.5Q285 622 268 622Z" />
<glyph glyph-name="igrave" unicode="&#xec;" horiz-adv-x="250" d="M24 0L149 518L223 518L98 0ZM248 582L84 716L142 776L286 620Z" />
<glyph glyph-name="iacute" unicode="&#xed;" horiz-adv-x="250" d="M24 0L149 518L223 518L98 0ZM164 582L132 628L297 776L339 711Z" />
<glyph glyph-name="icircumflex" unicode="&#xee;" horiz-adv-x="250" d="M24 0L149 518L223 518L98 0ZM102 582L74 618L244 765L346 617L309 582L228 676Z" />
<glyph glyph-name="idieresis" unicode="&#xef;" horiz-adv-x="250" d="M24 0L149 518L223 518L98 0ZM309 622Q286 622 274 635.5Q262 649 262 667Q262 689 276.5 707Q291 725 316 725Q339 725 350.5 711Q362 697 362 680Q362 666 355.5 652.5Q349 639 337 630.5Q325 622 309 622ZM130 622Q108 622 96 635.5Q84 649 84 667Q84 689 98.5 707Q113 725 138 725Q161 725 173 711Q185 697 185 680Q185 666 178 652.5Q171 639 159 630.5Q147 622 130 622Z" />
<glyph glyph-name="eth" unicode="&#xf0;" horiz-adv-x="577" d="M225 -12Q165 -12 123.5 14.5Q82 41 61 86.5Q40 132 40 189Q40 259 63 314.5Q86 370 125.5 408.5Q165 447 214.5 467.5Q264 488 316 488Q360 488 394 478Q428 468 461 443Q461 446 461 449.5Q461 453 461 455Q459 492 450.5 530Q442 568 426 603L296 562L288 617L398 652Q382 676 361.5 697.5Q341 719 315 736L374 776Q403 756 427 731Q451 706 470 674L602 717L610 661L496 625Q517 580 527 529Q537 478 537 423Q537 376 528 318.5Q519 261 497.5 203Q476 145 440 96Q404 47 351 17.5Q298 -12 225 -12ZM236 55Q289 55 328 81Q367 107 393.5 151.5Q420 196 435.5 251Q451 306 456 363Q425 395 394 408.5Q363 422 316 422Q269 422 232.5 404.5Q196 387 170.5 356.5Q145 326 131.5 284.5Q118 243 118 195Q118 136 146.5 95.5Q175 55 236 55Z" />
<glyph glyph-name="ntilde" unicode="&#xf1;" horiz-adv-x="558" d="M24 0L143 499Q181 510 226 519Q271 528 318 528Q404 528 445 493Q486 458 492.5 397.5Q499 337 480 260L418 0L343 0L399 235Q411 283 417 324.5Q423 366 416.5 396.5Q410 427 384 444Q358 461 306 461Q281 461 255.5 457Q230 453 206 448L98 0ZM238 620L199 644Q216 676 242 700Q268 724 317 724Q342 724 359.5 714.5Q377 705 394 695.5Q411 686 434 686Q455 686 469 697.5Q483 709 499 731L538 706Q521 675 495.5 650.5Q470 626 420 626Q395 626 377.5 636Q360 646 343 655.5Q326 665 303 665Q282 665 268.5 654Q255 643 238 620Z" />
<glyph glyph-name="ograve" unicode="&#xf2;" horiz-adv-x="541" d="M218 -12Q169 -12 128.5 8.5Q88 29 64 69Q40 109 40 167Q40 257 65.5 324.5Q91 392 132.5 437.5Q174 483 225 506Q276 529 327 529Q377 529 417 508.5Q457 488 481 448.5Q505 409 505 351Q505 261 480 193Q455 125 413.5 79.5Q372 34 321 11Q270 -12 218 -12ZM223 54Q251 54 280.5 66Q310 78 336.5 101.5Q363 125 384 160Q405 195 417.5 241.5Q430 288 430 345Q430 403 399 433Q368 463 322 463Q294 463 265 451Q236 439 209 415.5Q182 392 161 357Q140 322 128 275.5Q116 229 116 172Q116 114 147 84Q178 54 223 54ZM397 582L233 716L291 776L435 620Z" />
<glyph glyph-name="oacute" unicode="&#xf3;" horiz-adv-x="541" d="M218 -12Q169 -12 128.5 8.5Q88 29 64 69Q40 109 40 167Q40 257 65.5 324.5Q91 392 132.5 437.5Q174 483 225 506Q276 529 327 529Q377 529 417 508.5Q457 488 481 448.5Q505 409 505 351Q505 261 480 193Q455 125 413.5 79.5Q372 34 321 11Q270 -12 218 -12ZM223 54Q251 54 280.5 66Q310 78 336.5 101.5Q363 125 384 160Q405 195 417.5 241.5Q430 288 430 345Q430 403 399 433Q368 463 322 463Q294 463 265 451Q236 439 209 415.5Q182 392 161 357Q140 322 128 275.5Q116 229 116 172Q116 114 147 84Q178 54 223 54ZM313 582L281 628L446 776L488 711Z" />
<glyph glyph-name="ocircumflex" unicode="&#xf4;" horiz-adv-x="541" d="M218 -12Q169 -12 128.5 8.5Q88 29 64 69Q40 109 40 167Q40 257 65.5 324.5Q91 392 132.5 437.5Q174 483 225 506Q276 529 327 529Q377 529 417 508.5Q457 488 481 448.5Q505 409 505 351Q505 261 480 193Q455 125 413.5 79.5Q372 34 321 11Q270 -12 218 -12ZM223 54Q251 54 280.5 66Q310 78 336.5 101.5Q363 125 384 160Q405 195 417.5 241.5Q430 288 430 345Q430 403 399 433Q368 463 322 463Q294 463 265 451Q236 439 209 415.5Q182 392 161 357Q140 322 128 275.5Q116 229 116 172Q116 114 147 84Q178 54 223 54ZM251 582L223 618L393 765L495 617L458 582L377 676Z" />
<glyph glyph-name="otilde" unicode="&#xf5;" horiz-adv-x="541" d="M218 -12Q169 -12 128.5 8.5Q88 29 64 69Q40 109 40 167Q40 257 65.5 324.5Q91 392 132.5 437.5Q174 483 225 506Q276 529 327 529Q377 529 417 508.5Q457 488 481 448.5Q505 409 505 351Q505 261 480 193Q455 125 413.5 79.5Q372 34 321 11Q270 -12 218 -12ZM223 54Q251 54 280.5 66Q310 78 336.5 101.5Q363 125 384 160Q405 195 417.5 241.5Q430 288 430 345Q430 403 399 433Q368 463 322 463Q294 463 265 451Q236 439 209 415.5Q182 392 161 357Q140 322 128 275.5Q116 229 116 172Q116 114 147 84Q178 54 223 54ZM242 620L203 644Q220 676 246 700Q272 724 321 724Q346 724 363.5 714.5Q381 705 398 695.5Q415 686 438 686Q459 686 473 697.5Q487 709 503 731L542 706Q525 675 499.5 650.5Q474 626 424 626Q399 626 381.5 636Q364 646 347 655.5Q330 665 307 665Q286 665 272.5 654Q259 643 242 620Z" />
<glyph glyph-name="odieresis" unicode="&#xf6;" horiz-adv-x="541" d="M218 -12Q169 -12 128.5 8.5Q88 29 64 69Q40 109 40 167Q40 257 65.5 324.5Q91 392 132.5 437.5Q174 483 225 506Q276 529 327 529Q377 529 417 508.5Q457 488 481 448.5Q505 409 505 351Q505 261 480 193Q455 125 413.5 79.5Q372 34 321 11Q270 -12 218 -12ZM223 54Q251 54 280.5 66Q310 78 336.5 101.5Q363 125 384 160Q405 195 417.5 241.5Q430 288 430 345Q430 403 399 433Q368 463 322 463Q294 463 265 451Q236 439 209 415.5Q182 392 161 357Q140 322 128 275.5Q116 229 116 172Q116 114 147 84Q178 54 223 54ZM458 622Q435 622 423 635.5Q411 649 411 667Q411 689 425.5 707Q440 725 465 725Q488 725 499.5 711Q511 697 511 680Q511 666 504.5 652.5Q498 639 486 630.5Q474 622 458 622ZM279 622Q257 622 245 635.5Q233 649 233 667Q233 689 247.5 707Q262 725 287 725Q310 725 322 711Q334 697 334 680Q334 666 327 652.5Q320 639 308 630.5Q296 622 279 622Z" />
<glyph glyph-name="divide" unicode="&#xf7;" horiz-adv-x="564" d="M54 263L70 326L524 326L509 263ZM230 51Q208 51 197.5 65.5Q187 80 191 103Q196 127 213.5 142.5Q231 158 253 158Q276 158 287.5 143.5Q299 129 294 105Q290 82 271.5 66.5Q253 51 230 51ZM322 430Q300 430 289 444.5Q278 459 282 483Q287 506 305 521.5Q323 537 345 537Q368 537 379 522.5Q390 508 386 485Q381 461 363 445.5Q345 430 322 430Z" />
<glyph glyph-name="oslash" unicode="&#xf8;" horiz-adv-x="541" d="M59 -35L17 0L70 60Q56 81 48 107.5Q40 134 40 167Q40 257 65.5 324.5Q91 392 132.5 437.5Q174 483 225 506Q276 529 327 529Q362 529 393 518.5Q424 508 448 488L501 548L543 514L482 445Q493 426 499 402.5Q505 379 505 351Q505 261 480 193Q455 125 413.5 79.5Q372 34 321 11Q270 -12 218 -12Q187 -12 159 -3.5Q131 5 108 21ZM223 54Q259 54 295.5 72.5Q332 91 362.5 128Q393 165 411.5 219.5Q430 274 430 347Q430 356 429 365Q428 374 426 381L156 74Q182 54 223 54ZM123 121L400 434Q385 449 365 456.5Q345 464 322 464Q286 464 249.5 445.5Q213 427 182.5 390Q152 353 133.5 298Q115 243 115 171Q115 156 117 144Q119 132 123 121Z" />
<glyph glyph-name="ugrave" unicode="&#xf9;" horiz-adv-x="539" d="M193 -12Q131 -12 97 10.5Q63 33 50.5 71Q38 109 41 157.5Q44 206 57 258L120 518L195 518L138 284Q128 242 120 201.5Q112 161 114.5 127.5Q117 94 137.5 74.5Q158 55 204 55Q249 55 283.5 73Q318 91 349 125Q349 143 352.5 164.5Q356 186 361.5 208Q367 230 371 248L438 518L512 518L434 200Q421 148 421 103Q421 58 444 5L370 -6Q364 6 359.5 21Q355 36 352 52Q318 19 279 3.5Q240 -12 193 -12ZM373 582L209 716L267 776L411 620Z" />
<glyph glyph-name="uacute" unicode="&#xfa;" horiz-adv-x="539" d="M193 -12Q131 -12 97 10.5Q63 33 50.5 71Q38 109 41 157.5Q44 206 57 258L120 518L195 518L138 284Q128 242 120 201.5Q112 161 114.5 127.5Q117 94 137.5 74.5Q158 55 204 55Q249 55 283.5 73Q318 91 349 125Q349 143 352.5 164.5Q356 186 361.5 208Q367 230 371 248L438 518L512 518L434 200Q421 148 421 103Q421 58 444 5L370 -6Q364 6 359.5 21Q355 36 352 52Q318 19 279 3.5Q240 -12 193 -12ZM289 582L257 628L422 776L464 711Z" />
<glyph glyph-name="ucircumflex" unicode="&#xfb;" horiz-adv-x="539" d="M193 -12Q131 -12 97 10.5Q63 33 50.5 71Q38 109 41 157.5Q44 206 57 258L120 518L195 518L138 284Q128 242 120 201.5Q112 161 114.5 127.5Q117 94 137.5 74.5Q158 55 204 55Q249 55 283.5 73Q318 91 349 125Q349 143 352.5 164.5Q356 186 361.5 208Q367 230 371 248L438 518L512 518L434 200Q421 148 421 103Q421 58 444 5L370 -6Q364 6 359.5 21Q355 36 352 52Q318 19 279 3.5Q240 -12 193 -12ZM227 582L199 618L369 765L471 617L434 582L353 676Z" />
<glyph glyph-name="udieresis" unicode="&#xfc;" horiz-adv-x="539" d="M193 -12Q131 -12 97 10.5Q63 33 50.5 71Q38 109 41 157.5Q44 206 57 258L120 518L195 518L138 284Q128 242 120 201.5Q112 161 114.5 127.5Q117 94 137.5 74.5Q158 55 204 55Q249 55 283.5 73Q318 91 349 125Q349 143 352.5 164.5Q356 186 361.5 208Q367 230 371 248L438 518L512 518L434 200Q421 148 421 103Q421 58 444 5L370 -6Q364 6 359.5 21Q355 36 352 52Q318 19 279 3.5Q240 -12 193 -12ZM434 622Q411 622 399 635.5Q387 649 387 667Q387 689 401.5 707Q416 725 441 725Q464 725 475.5 711Q487 697 487 680Q487 666 480.5 652.5Q474 639 462 630.5Q450 622 434 622ZM255 622Q233 622 221 635.5Q209 649 209 667Q209 689 223.5 707Q238 725 263 725Q286 725 298 711Q310 697 310 680Q310 666 303 652.5Q296 639 284 630.5Q272 622 255 622Z" />
<glyph glyph-name="yacute" unicode="&#xfd;" horiz-adv-x="471" d="M-27 -188Q-47 -188 -68.5 -184.5Q-90 -181 -113 -169L-88 -108Q-74 -115 -58 -119Q-42 -123 -25 -123Q25 -123 72 -95.5Q119 -68 158 -13Q131 73 111.5 162.5Q92 252 80.5 342Q69 432 66 518L143 518Q146 456 153 378Q160 300 174.5 217Q189 134 212 56Q255 123 289.5 191.5Q324 260 350 322.5Q376 385 393.5 435.5Q411 486 420 518L494 518Q486 491 468.5 439Q451 387 423.5 320Q396 253 358 179Q320 105 272 33Q235 -22 199 -63.5Q163 -105 126.5 -133Q90 -161 52 -174.5Q14 -188 -27 -188ZM243 582L211 628L376 776L418 711Z" />
<glyph glyph-name="thorn" unicode="&#xfe;" horiz-adv-x="535" d="M-21 -185L206 763L284 776L223 519Q246 524 269 527Q292 530 314 530Q377 530 418 507.5Q459 485 479 442Q499 399 499 337Q499 267 477 204.5Q455 142 412.5 94Q370 46 309 18.5Q248 -9 170 -9Q151 -9 133 -6.5Q115 -4 98 0L54 -185ZM176 58Q236 58 282 80Q328 102 359.5 140Q391 178 407.5 226.5Q424 275 424 327Q424 398 393 432Q362 466 298 466Q276 466 253 462.5Q230 459 207 452L115 66Q131 62 146 60Q161 58 176 58Z" />
<glyph glyph-name="ydieresis" unicode="&#xff;" horiz-adv-x="471" d="M-27 -188Q-47 -188 -68.5 -184.5Q-90 -181 -113 -169L-88 -108Q-74 -115 -58 -119Q-42 -123 -25 -123Q25 -123 72 -95.5Q119 -68 158 -13Q131 73 111.5 162.5Q92 252 80.5 342Q69 432 66 518L143 518Q146 456 153 378Q160 300 174.5 217Q189 134 212 56Q255 123 289.5 191.5Q324 260 350 322.5Q376 385 393.5 435.5Q411 486 420 518L494 518Q486 491 468.5 439Q451 387 423.5 320Q396 253 358 179Q320 105 272 33Q235 -22 199 -63.5Q163 -105 126.5 -133Q90 -161 52 -174.5Q14 -188 -27 -188ZM388 622Q365 622 353 635.5Q341 649 341 667Q341 689 355.5 707Q370 725 395 725Q418 725 429.5 711Q441 697 441 680Q441 666 434.5 652.5Q428 639 416 630.5Q404 622 388 622ZM209 622Q187 622 175 635.5Q163 649 163 667Q163 689 177.5 707Q192 725 217 725Q240 725 252 711Q264 697 264 680Q264 666 257 652.5Q250 639 238 630.5Q226 622 209 622Z" />
<glyph glyph-name="Amacron" unicode="&#x0100;" horiz-adv-x="642" d="M-39 0Q32 127 104 247Q176 367 247.5 479Q319 591 388 693L469 693Q482 620 494.5 540.5Q507 461 519 375Q531 289 543 195.5Q555 102 566 0L486 0Q482 47 476.5 93Q471 139 466 186L147 186Q122 141 96.5 94.5Q71 48 46 0ZM185 251L458 251Q448 337 436 426Q424 515 409 607Q351 517 294.5 429.5Q238 342 185 251ZM319 800L334 862L600 862L586 800Z" />
<glyph glyph-name="amacron" unicode="&#x0101;" horiz-adv-x="540" d="M204 -13Q159 -13 122 8Q85 29 62.5 72Q40 115 40 181Q40 260 65.5 324Q91 388 137.5 434Q184 480 247 505Q310 530 384 530Q404 530 426 528Q448 526 470 521Q492 516 513 507L438 200Q430 166 426.5 134.5Q423 103 427.5 71.5Q432 40 447 5L373 -6Q367 6 362.5 21Q358 36 355 51Q321 19 283 3Q245 -13 204 -13ZM214 54Q253 54 287 72.5Q321 91 352 125Q353 152 360 186Q367 220 374 248L426 455Q409 459 394 461Q379 463 364 463Q306 463 260 440.5Q214 418 181.5 379.5Q149 341 132.5 293Q116 245 116 194Q116 143 129 112Q142 81 164 67.5Q186 54 214 54ZM235 644L250 706L516 706L502 644Z" />
<glyph glyph-name="Abreve" unicode="&#x0102;" horiz-adv-x="642" d="M-39 0Q32 127 104 247Q176 367 247.5 479Q319 591 388 693L469 693Q482 620 494.5 540.5Q507 461 519 375Q531 289 543 195.5Q555 102 566 0L486 0Q482 47 476.5 93Q471 139 466 186L147 186Q122 141 96.5 94.5Q71 48 46 0ZM185 251L458 251Q448 337 436 426Q424 515 409 607Q351 517 294.5 429.5Q238 342 185 251ZM449 767Q417 767 394 780.5Q371 794 359 817.5Q347 841 347 871Q347 878 348 886.5Q349 895 351 904L399 904Q398 900 398 895.5Q398 891 398 887Q398 859 413 843.5Q428 828 458 828Q492 828 511.5 842.5Q531 857 540.5 875Q550 893 552 904L601 904Q596 858 575 827.5Q554 797 522 782Q490 767 449 767Z" />
<glyph glyph-name="abreve" unicode="&#x0103;" horiz-adv-x="540" d="M204 -13Q159 -13 122 8Q85 29 62.5 72Q40 115 40 181Q40 260 65.5 324Q91 388 137.5 434Q184 480 247 505Q310 530 384 530Q404 530 426 528Q448 526 470 521Q492 516 513 507L438 200Q430 166 426.5 134.5Q423 103 427.5 71.5Q432 40 447 5L373 -6Q367 6 362.5 21Q358 36 355 51Q321 19 283 3Q245 -13 204 -13ZM214 54Q253 54 287 72.5Q321 91 352 125Q353 152 360 186Q367 220 374 248L426 455Q409 459 394 461Q379 463 364 463Q306 463 260 440.5Q214 418 181.5 379.5Q149 341 132.5 293Q116 245 116 194Q116 143 129 112Q142 81 164 67.5Q186 54 214 54ZM365 611Q333 611 310 624.5Q287 638 275 661.5Q263 685 263 715Q263 722 264 730.5Q265 739 267 748L315 748Q314 744 314 739.5Q314 735 314 731Q314 703 329 687.5Q344 672 374 672Q408 672 427.5 686.5Q447 701 456.5 719Q466 737 468 748L517 748Q512 702 491 671.5Q470 641 438 626Q406 611 365 611Z" />
<glyph glyph-name="Aogonek" unicode="&#x0104;" horiz-adv-x="642" d="M479 -190Q446 -190 421 -176Q396 -162 396 -124Q396 -89 426.5 -56.5Q457 -24 493 0L486 0Q482 47 476.5 93Q471 139 466 186L147 186Q122 141 96.5 94.5Q71 48 46 0L-39 0Q32 127 104 247Q176 367 247.5 479Q319 591 388 693L469 693Q482 620 494.5 540.5Q507 461 519 375Q531 289 543 195.5Q555 102 566 0Q511 -36 489 -61.5Q467 -87 467 -106Q467 -121 480 -126.5Q493 -132 509 -132Q519 -132 528 -130Q537 -128 544 -127L537 -182Q523 -185 508.5 -187.5Q494 -190 479 -190ZM185 251L458 251Q448 337 436 426Q424 515 409 607Q351 517 294.5 429.5Q238 342 185 251Z" />
<glyph glyph-name="aogonek" unicode="&#x0105;" horiz-adv-x="540" d="M356 -190Q323 -190 298 -176Q273 -162 273 -124Q273 -89 303.5 -56.5Q334 -24 370 0Q365 11 361 24.5Q357 38 355 51Q321 19 283 3Q245 -13 204 -13Q159 -13 122 8Q85 29 62.5 72Q40 115 40 181Q40 260 65.5 324Q91 388 137.5 434Q184 480 247 505Q310 530 384 530Q404 530 426 528Q448 526 470 521Q492 516 513 507L438 200Q432 176 428 154Q424 132 424 112Q424 84 429.5 59Q435 34 447 5Q391 -32 367.5 -59.5Q344 -87 344 -106Q344 -121 356.5 -126.5Q369 -132 385 -132Q395 -132 404.5 -130Q414 -128 421 -127L413 -182Q399 -185 384.5 -187.5Q370 -190 356 -190ZM214 54Q253 54 287 72.5Q321 91 352 125Q353 152 360.5 186Q368 220 374 248L426 455Q409 459 394 461Q379 463 364 463Q306 463 260 440.5Q214 418 181.5 379.5Q149 341 132.5 293Q116 245 116 194Q116 143 129 112Q142 81 164 67.5Q186 54 214 54Z" />
<glyph glyph-name="Cacute" unicode="&#x0106;" horiz-adv-x="623" d="M334 -15Q259 -15 201 13.5Q143 42 110.5 102Q78 162 78 256Q78 360 110 443.5Q142 527 198.5 586Q255 645 328.5 676.5Q402 708 484 708Q531 708 572.5 697.5Q614 687 656 664L623 596Q586 618 548 628.5Q510 639 470 639Q408 639 352 612.5Q296 586 253 536Q210 486 185 416Q160 346 160 259Q160 159 204 107Q248 55 336 55Q413 55 456.5 71Q500 87 522 99L532 31Q492 9 439.5 -3Q387 -15 334 -15ZM452 738L420 784L585 932L627 867Z" />
<glyph glyph-name="cacute" unicode="&#x0107;" horiz-adv-x="470" d="M230 -12Q168 -12 126 12.5Q84 37 63 81.5Q42 126 42 186Q42 254 63.5 316Q85 378 125.5 426Q166 474 224.5 502Q283 530 358 530Q387 530 414 525.5Q441 521 466 512L436 446Q414 455 391.5 459Q369 463 347 463Q295 463 253 441.5Q211 420 181 382.5Q151 345 135 296.5Q119 248 119 194Q119 130 148.5 92.5Q178 55 244 55Q285 55 323.5 67.5Q362 80 376 90L383 24Q363 11 322 -0.5Q281 -12 230 -12ZM305 582L273 628L438 776L480 711Z" />
<glyph glyph-name="Ccircumflex" unicode="&#x0108;" horiz-adv-x="623" d="M334 -15Q259 -15 201 13.5Q143 42 110.5 102Q78 162 78 256Q78 360 110 443.5Q142 527 198.5 586Q255 645 328.5 676.5Q402 708 484 708Q531 708 572.5 697.5Q614 687 656 664L623 596Q586 618 548 628.5Q510 639 470 639Q408 639 352 612.5Q296 586 253 536Q210 486 185 416Q160 346 160 259Q160 159 204 107Q248 55 336 55Q413 55 456.5 71Q500 87 522 99L532 31Q492 9 439.5 -3Q387 -15 334 -15ZM390 738L362 774L532 921L634 773L597 738L516 832Z" />
<glyph glyph-name="ccircumflex" unicode="&#x0109;" horiz-adv-x="470" d="M230 -12Q168 -12 126 12.5Q84 37 63 81.5Q42 126 42 186Q42 254 63.5 316Q85 378 125.5 426Q166 474 224.5 502Q283 530 358 530Q387 530 414 525.5Q441 521 466 512L436 446Q414 455 391.5 459Q369 463 347 463Q295 463 253 441.5Q211 420 181 382.5Q151 345 135 296.5Q119 248 119 194Q119 130 148.5 92.5Q178 55 244 55Q285 55 323.5 67.5Q362 80 376 90L383 24Q363 11 322 -0.5Q281 -12 230 -12ZM243 582L215 618L385 765L487 617L450 582L369 676Z" />
<glyph glyph-name="Cdotaccent" unicode="&#x010a;" horiz-adv-x="623" d="M334 -15Q259 -15 201 13.5Q143 42 110.5 102Q78 162 78 256Q78 360 110 443.5Q142 527 198.5 586Q255 645 328.5 676.5Q402 708 484 708Q531 708 572.5 697.5Q614 687 656 664L623 596Q586 618 548 628.5Q510 639 470 639Q408 639 352 612.5Q296 586 253 536Q210 486 185 416Q160 346 160 259Q160 159 204 107Q248 55 336 55Q413 55 456.5 71Q500 87 522 99L532 31Q492 9 439.5 -3Q387 -15 334 -15ZM508 775Q482 775 469.5 789.5Q457 804 457 823Q457 846 472.5 865.5Q488 885 516 885Q542 885 554 871Q566 857 566 837Q566 814 550.5 794.5Q535 775 508 775Z" />
<glyph glyph-name="cdotaccent" unicode="&#x010b;" horiz-adv-x="470" d="M230 -12Q168 -12 126 12.5Q84 37 63 81.5Q42 126 42 186Q42 254 63.5 316Q85 378 125.5 426Q166 474 224.5 502Q283 530 358 530Q387 530 414 525.5Q441 521 466 512L436 446Q414 455 391.5 459Q369 463 347 463Q295 463 253 441.5Q211 420 181 382.5Q151 345 135 296.5Q119 248 119 194Q119 130 148.5 92.5Q178 55 244 55Q285 55 323.5 67.5Q362 80 376 90L383 24Q363 11 322 -0.5Q281 -12 230 -12ZM361 619Q335 619 322.5 633.5Q310 648 310 667Q310 690 325.5 709.5Q341 729 369 729Q395 729 407 715Q419 701 419 681Q419 658 403.5 638.5Q388 619 361 619Z" />
<glyph glyph-name="Ccaron" unicode="&#x010c;" horiz-adv-x="623" d="M334 -15Q259 -15 201 13.5Q143 42 110.5 102Q78 162 78 256Q78 360 110 443.5Q142 527 198.5 586Q255 645 328.5 676.5Q402 708 484 708Q531 708 572.5 697.5Q614 687 656 664L623 596Q586 618 548 628.5Q510 639 470 639Q408 639 352 612.5Q296 586 253 536Q210 486 185 416Q160 346 160 259Q160 159 204 107Q248 55 336 55Q413 55 456.5 71Q500 87 522 99L532 31Q492 9 439.5 -3Q387 -15 334 -15ZM491 739L389 887L426 922L508 828L633 922L661 886Z" />
<glyph glyph-name="ccaron" unicode="&#x010d;" horiz-adv-x="470" d="M230 -12Q168 -12 126 12.5Q84 37 63 81.5Q42 126 42 186Q42 254 63.5 316Q85 378 125.5 426Q166 474 224.5 502Q283 530 358 530Q387 530 414 525.5Q441 521 466 512L436 446Q414 455 391.5 459Q369 463 347 463Q295 463 253 441.5Q211 420 181 382.5Q151 345 135 296.5Q119 248 119 194Q119 130 148.5 92.5Q178 55 244 55Q285 55 323.5 67.5Q362 80 376 90L383 24Q363 11 322 -0.5Q281 -12 230 -12ZM344 583L242 731L279 766L361 672L486 766L514 730Z" />
<glyph glyph-name="Dcaron" unicode="&#x010e;" horiz-adv-x="702" d="M196 -6Q156 -6 108 -1Q60 4 28 13L187 680Q237 691 278.5 695Q320 699 359 699Q461 699 528.5 665.5Q596 632 629 569Q662 506 662 416Q662 341 643 276.5Q624 212 586 160Q548 108 491.5 71Q435 34 361 14Q287 -6 196 -6ZM208 61Q299 61 368 87Q437 113 484 160.5Q531 208 555 272Q579 336 579 412Q579 522 523.5 577.5Q468 633 350 633Q326 633 301.5 631Q277 629 252 625L119 67Q142 64 164 62.5Q186 61 208 61ZM411 739L309 887L346 922L428 828L553 922L581 886Z" />
<glyph glyph-name="dcaron" unicode="&#x010f;" horiz-adv-x="557" d="M205 -12Q147 -12 111 14.5Q75 41 58 86Q41 131 41 184Q41 247 62 308.5Q83 370 125.5 420Q168 470 232.5 500Q297 530 383 530Q399 530 415.5 528Q432 526 448 523L504 763L582 776L440 184Q433 153 431 122.5Q429 92 434.5 62.5Q440 33 453 5L378 -6Q373 4 368 20Q363 36 361 51Q348 38 326.5 23.5Q305 9 274.5 -1.5Q244 -12 205 -12ZM214 55Q245 55 272 65.5Q299 76 321 92Q343 108 358 124Q358 150 365 182Q372 214 380 248L432 458Q418 460 402 461Q386 462 372 462Q306 462 258 438Q210 414 178.5 374.5Q147 335 132 287.5Q117 240 117 193Q117 154 126.5 123Q136 92 157.5 73.5Q179 55 214 55ZM598 556L651 776L728 776L649 556Z" />
<glyph glyph-name="Dcroat" unicode="&#x0110;" horiz-adv-x="707" d="M203 -6Q163 -6 115.5 -1Q68 4 36 13L112 331L32 331L46 393L126 393L195 680Q245 691 286 695Q327 699 367 699Q464 699 531 668.5Q598 638 633.5 577.5Q669 517 669 426Q669 361 653 298Q637 235 603 180Q569 125 514 83Q459 41 382 17.5Q305 -6 203 -6ZM216 61Q302 61 370.5 86.5Q439 112 487.5 160.5Q536 209 561.5 276.5Q587 344 587 428Q587 502 556.5 547Q526 592 474 612.5Q422 633 357 633Q334 633 309 631Q284 629 260 625L204 393L335 393L320 331L190 331L126 67Q149 64 171.5 62.5Q194 61 216 61Z" />
<glyph glyph-name="dcroat" unicode="&#x0111;" horiz-adv-x="557" d="M205 -12Q147 -12 111 14.5Q75 41 58 86Q41 131 41 184Q41 247 62 308.5Q83 370 125.5 420Q168 470 232.5 500Q297 530 383 530Q399 530 415.5 528Q432 526 448 523L470 620L319 620L332 677L484 677L504 763L582 776L558 677L637 677L624 620L545 620L440 184Q432 153 430.5 122.5Q429 92 434.5 62.5Q440 33 453 5L378 -6Q373 4 368 20Q363 36 361 51Q348 38 326.5 23.5Q305 9 274.5 -1.5Q244 -12 205 -12ZM214 55Q245 55 272 65.5Q299 76 321 92Q343 108 358 124Q358 150 365 182Q372 214 380 248L432 458Q418 460 402 461Q386 462 372 462Q306 462 258 438Q210 414 178.5 374.5Q147 335 132 287.5Q117 240 117 193Q117 154 126.5 123Q136 92 157.5 73.5Q179 55 214 55Z" />
<glyph glyph-name="Emacron" unicode="&#x0112;" horiz-adv-x="542" d="M24 0L190 693L585 693L569 626L251 626L195 397L479 397L463 331L182 331L116 67L458 67L443 0ZM282 800L297 862L563 862L549 800Z" />
<glyph glyph-name="emacron" unicode="&#x0113;" horiz-adv-x="504" d="M241 -12Q167 -12 123 12.5Q79 37 60 80.5Q41 124 41 181Q41 246 61 308Q81 370 119.5 420Q158 470 213.5 500Q269 530 340 530Q410 530 449 493.5Q488 457 488 396Q488 322 441 282Q394 242 310 226Q226 210 115 205Q115 201 115 196.5Q115 192 115 188Q117 144 129 114.5Q141 85 171.5 70Q202 55 256 55Q291 55 326.5 64.5Q362 74 393 93L400 27Q367 9 325.5 -1.5Q284 -12 241 -12ZM124 269Q235 272 298 287Q361 302 387.5 328Q414 354 414 390Q414 428 391.5 446.5Q369 465 332 465Q281 465 239 438Q197 411 167.5 366.5Q138 322 124 269ZM221 644L236 706L502 706L488 644Z" />
<glyph glyph-name="Ebreve" unicode="&#x0114;" horiz-adv-x="542" d="M24 0L190 693L585 693L569 626L251 626L195 397L479 397L463 331L182 331L116 67L458 67L443 0ZM412 767Q380 767 357 780.5Q334 794 322 817.5Q310 841 310 871Q310 878 311 886.5Q312 895 314 904L362 904Q361 900 361 895.5Q361 891 361 887Q361 859 376 843.5Q391 828 421 828Q455 828 474.5 842.5Q494 857 503.5 875Q513 893 515 904L564 904Q559 858 538 827.5Q517 797 485 782Q453 767 412 767Z" />
<glyph glyph-name="ebreve" unicode="&#x0115;" horiz-adv-x="504" d="M241 -12Q167 -12 123 12.5Q79 37 60 80.5Q41 124 41 181Q41 246 61 308Q81 370 119.5 420Q158 470 213.5 500Q269 530 340 530Q410 530 449 493.5Q488 457 488 396Q488 322 441 282Q394 242 310 226Q226 210 115 205Q115 201 115 196.5Q115 192 115 188Q117 144 129 114.5Q141 85 171.5 70Q202 55 256 55Q291 55 326.5 64.5Q362 74 393 93L400 27Q367 9 325.5 -1.5Q284 -12 241 -12ZM124 269Q235 272 298 287Q361 302 387.5 328Q414 354 414 390Q414 428 391.5 446.5Q369 465 332 465Q281 465 239 438Q197 411 167.5 366.5Q138 322 124 269ZM351 611Q319 611 296 624.5Q273 638 261 661.5Q249 685 249 715Q249 722 250 730.5Q251 739 253 748L301 748Q300 744 300 739.5Q300 735 300 731Q300 703 315 687.5Q330 672 360 672Q394 672 413.5 686.5Q433 701 442.5 719Q452 737 454 748L503 748Q498 702 477 671.5Q456 641 424 626Q392 611 351 611Z" />
</font>
</defs>
</svg>
