<?xml version="1.0" encoding="UTF-8" standalone="no"?>
<svg
   version="1.1"
   width="512"
   height="512"
   x="0"
   y="0"
   viewBox="0 0 512 512"
   style="enable-background:new 0 0 512 512"
   xml:space="preserve"
   class=""
   id="svg895"
   sodipodi:docname="smiles.svg"
   inkscape:version="1.1.2 (0a00cf5339, 2022-02-04)"
   xmlns:inkscape="http://www.inkscape.org/namespaces/inkscape"
   xmlns:sodipodi="http://sodipodi.sourceforge.net/DTD/sodipodi-0.dtd"
   xmlns="http://www.w3.org/2000/svg"
   xmlns:svg="http://www.w3.org/2000/svg"><defs
     id="defs899" /><sodipodi:namedview
     id="namedview897"
     pagecolor="#505050"
     bordercolor="#eeeeee"
     borderopacity="1"
     inkscape:pageshadow="0"
     inkscape:pageopacity="0"
     inkscape:pagecheckerboard="0"
     showgrid="false"
     inkscape:zoom="0.82421875"
     inkscape:cx="229.30806"
     inkscape:cy="354.88152"
     inkscape:window-width="1850"
     inkscape:window-height="1016"
     inkscape:window-x="70"
     inkscape:window-y="27"
     inkscape:window-maximized="1"
     inkscape:current-layer="svg895" /><g
     id="g893"
     transform="matrix(0.86297116,0,0,0.86297116,35.079384,35.079384)"><g
       data-name="38"
       id="g891"><rect
         width="512"
         height="512"
         fill="#ffda24"
         rx="100"
         opacity="1"
         data-original="#ffda24"
         class=""
         id="rect865"
         x="0"
         y="0" /><path
         fill="#473535"
         d="m 156.22,257.39 h 199.57 c 15.3,0 27.72,12.42 27.72,27.72 v 0.49 c 0,70.1 -56.91,127.01 -127.01,127.01 h -0.49 c -70.37,0 -127.5,-57.13 -127.5,-127.5 0,-15.3 12.42,-27.72 27.72,-27.72 z"
         opacity="1"
         data-original="#473535"
         id="path867" /><path
         fill="#ffffff"
         d="m 369.64,261.11 v 7.37 c 0,18.36 -14.89,33.26 -33.26,33.26 H 175.62 c -18.37,0 -33.26,-14.9 -33.26,-33.26 v -7.37 c 4.08,-2.36 8.81,-3.71 13.86,-3.71 h 199.57 c 5.04,0 9.78,1.35 13.86,3.71 z"
         opacity="1"
         data-original="#ffffff"
         class=""
         id="path869" /><path
         fill="#ff7e27"
         d="m 338.87,403.16 c -4.85,29.84 -39.39,71.11 -82.87,71.11 -43.48,0 -78.02,-41.27 -82.87,-71.11 -3.16,-19.4 2.17,-33.95 11.61,-43.26 12.72,-12.52 38.92,-17.45 71.26,-17.45 32.34,0 58.54,4.93 71.26,17.45 9.44,9.3 14.77,23.85 11.61,43.26 z"
         opacity="1"
         data-original="#ff7e27"
         id="path871" /><path
         fill="#ff6700"
         d="m 338.87,403.16 c -4.85,29.84 -39.39,71.11 -82.87,71.11 -43.48,0 -78.02,-41.27 -82.87,-71.11 -3.13,-19.25 2.08,-33.72 11.39,-43.03 -2.13,6.57 -2.74,14.37 -1.28,23.36 4.26,26.21 34.59,62.44 72.76,62.44 38.17,0 68.5,-36.23 72.76,-62.44 1.46,-8.99 0.85,-16.79 -1.28,-23.36 9.31,9.31 14.52,23.78 11.39,43.03 z"
         opacity="1"
         data-original="#ff6700"
         id="path873" /><circle
         cx="346.35001"
         cy="172.86"
         r="61.130001"
         fill="#ffffff"
         opacity="1"
         data-original="#ffffff"
         class=""
         id="circle875" /><circle
         cx="336.35001"
         cy="182.86"
         r="39.700001"
         fill="#473535"
         opacity="1"
         data-original="#473535"
         id="circle877" /><circle
         cx="321.48001"
         cy="160.10001"
         r="20.48"
         fill="#ffffff"
         opacity="1"
         data-original="#ffffff"
         class=""
         id="circle879" /><circle
         cx="176.94"
         cy="176.09"
         r="52.450001"
         fill="#ffffff"
         opacity="1"
         data-original="#ffffff"
         class=""
         id="circle881" /><circle
         cx="182.56"
         cy="182.86"
         r="34.060001"
         fill="#473535"
         opacity="1"
         data-original="#473535"
         id="circle883" /><circle
         cx="203.05"
         cy="193.98"
         r="17.57"
         fill="#ffffff"
         opacity="1"
         data-original="#ffffff"
         class=""
         id="circle885" /><path
         fill="#473535"
         d="m 119.53,83.14 c -0.64,11.51 10.62,20 21.49,16.16 9.91,-3.5 22.27,-6.29 35.51,-5.55 13.24,0.74 25.21,4.87 34.68,9.44 10.38,5.02 22.51,-2.18 23.14,-13.68 0.29,-5.27 -1.98,-10.37 -6.15,-13.61 -8.2,-6.38 -24.33,-15.69 -49.74,-17.1 -25.41,-1.41 -42.47,6.07 -51.33,11.5 -4.5,2.76 -7.32,7.58 -7.61,12.84 z"
         opacity="1"
         data-original="#473535"
         id="path887" /><path
         fill="#473535"
         d="m 392.47,83.14 c 0.64,11.51 -10.62,20 -21.49,16.16 -9.91,-3.5 -22.27,-6.29 -35.51,-5.55 -13.24,0.73 -25.21,4.87 -34.68,9.44 -10.38,5.02 -22.51,-2.18 -23.14,-13.68 -0.29,-5.27 1.98,-10.37 6.15,-13.61 8.2,-6.38 24.33,-15.69 49.74,-17.1 25.41,-1.41 42.47,6.07 51.33,11.5 4.5,2.76 7.32,7.58 7.61,12.84 z"
         data-name="Eyebrows"
         opacity="1"
         data-original="#473535"
         id="path889" /></g></g></svg>
