<?xml version="1.0" encoding="UTF-8" standalone="no"?>
<svg
   version="1.1"
   width="512"
   height="512"
   x="0"
   y="0"
   viewBox="0 0 512 512"
   style="enable-background:new 0 0 512 512"
   xml:space="preserve"
   class=""
   id="svg22"
   sodipodi:docname="arrows.svg"
   inkscape:version="1.1.2 (0a00cf5339, 2022-02-04)"
   xmlns:inkscape="http://www.inkscape.org/namespaces/inkscape"
   xmlns:sodipodi="http://sodipodi.sourceforge.net/DTD/sodipodi-0.dtd"
   xmlns="http://www.w3.org/2000/svg"
   xmlns:svg="http://www.w3.org/2000/svg"><defs
     id="defs26" /><sodipodi:namedview
     id="namedview24"
     pagecolor="#505050"
     bordercolor="#eeeeee"
     borderopacity="1"
     inkscape:pageshadow="0"
     inkscape:pageopacity="0"
     inkscape:pagecheckerboard="0"
     showgrid="false"
     inkscape:zoom="0.82421875"
     inkscape:cx="178.35071"
     inkscape:cy="306.35071"
     inkscape:window-width="1850"
     inkscape:window-height="1016"
     inkscape:window-x="70"
     inkscape:window-y="27"
     inkscape:window-maximized="1"
     inkscape:current-layer="svg22" /><g
     id="g861"><path
       fill="#f21544"
       d="m 206.46191,215.77257 h -65.29993 c -7.11133,0 -12.87662,5.76529 -12.87662,12.87662 v 87.12238 c 0,7.11133 5.76529,12.87662 12.87662,12.87662 h 65.29993 z"
       opacity="1"
       data-original="#f21544"
       id="path2"
       style="stroke-width:0.858442" /><path
       fill="#ff4c70"
       d="m 141.1637,355.6891 c -2.78307,0 -5.54639,-0.90136 -7.83843,-2.65945 L 41.278876,282.42712 a 12.874906,12.874906 0 0 1 0,-20.43434 l 92.046394,-70.60252 a 12.876623,12.876623 0 0 1 20.71334,10.21717 V 342.81248 A 12.87834,12.87834 0 0 1 141.1637,355.6891 Z"
       opacity="1"
       data-original="#ff4c70"
       id="path4"
       style="stroke-width:0.858442" /><path
       fill="#ffc335"
       d="m 212.48131,128.28536 c -7.11133,0 -12.87663,5.76529 -12.87663,12.87662 v 192.65918 h 56.43824 l 9.06514,-96.15146 -9.06514,-109.38434 z"
       opacity="1"
       data-original="#ffc335"
       id="path6"
       style="stroke-width:0.858442" /><path
       fill="#ffae26"
       d="m 299.60368,128.28536 h -43.56076 v 205.5358 L 312.48116,277.1211 V 141.16198 c -8.6e-4,-7.11133 -5.76529,-12.87662 -12.87748,-12.87662 z"
       opacity="1"
       data-original="#ffae26"
       class=""
       id="path8"
       style="stroke-width:0.858442" /><path
       fill="#ffd748"
       d="m 256,36.238966 a 12.876623,12.876623 0 0 0 -10.21717,5.03991 L 175.1803,133.32527 a 12.876623,12.876623 0 0 0 10.21718,20.71334 h 70.64544 l 13.51445,-49.27197 -13.51445,-68.525098 c -0.0146,0 -0.0283,-0.0026 -0.0429,-0.0026 z"
       opacity="1"
       data-original="#ffd748"
       class=""
       id="path10"
       style="stroke-width:0.858442" /><path
       fill="#ffc335"
       d="M 336.8197,133.32527 266.21717,41.278876 A 12.874048,12.874048 0 0 0 256.04292,36.241542 V 154.03861 h 70.5596 a 12.874906,12.874906 0 0 0 10.21718,-20.71334 z"
       opacity="1"
       data-original="#ffc335"
       id="path12"
       style="stroke-width:0.858442" /><path
       fill="#4bc6ff"
       d="m 199.60468,333.82116 v 129.06325 c 0,7.11133 5.7653,12.87662 12.87663,12.87662 h 43.56161 L 269.55737,364.06663 256.04292,233.1646 c -33.8286,20.78201 -56.43824,58.12679 -56.43824,100.65656 z"
       opacity="1"
       data-original="#4bc6ff"
       id="path14"
       style="stroke-width:0.858442" /><path
       fill="#0eb9ff"
       d="m 370.83716,215.77257 h -53.18389 c -22.56242,0 -43.66463,6.36706 -61.61121,17.39203 v 242.59643 h 43.56162 c 7.11133,0 12.87662,-5.76529 12.87662,-12.87662 v -125.9514 c 0,-4.56863 3.7162,-8.28482 8.28482,-8.28482 h 50.07204 c 7.11133,0 12.87662,-5.76529 12.87662,-12.87662 v -87.12238 c 0,-7.11218 -5.76443,-12.87662 -12.87662,-12.87662 z"
       opacity="1"
       data-original="#0eb9ff"
       class=""
       id="path16"
       style="stroke-width:0.858442" /><path
       fill="#6bd6ff"
       d="m 370.83544,355.6891 a 12.876623,12.876623 0 0 1 -12.8749,-12.87662 V 201.60743 a 12.876623,12.876623 0 0 1 20.71333,-10.21717 l 92.04725,70.60252 a 12.874906,12.874906 0 0 1 0,20.43434 l -92.04639,70.60253 a 12.869756,12.869756 0 0 1 -7.83929,2.65945 z"
       opacity="1"
       data-original="#6bd6ff"
       id="path18"
       style="stroke-width:0.858442" /></g></svg>
