<?xml version="1.0" encoding="UTF-8" standalone="no"?>
<svg
   version="1.1"
   width="512"
   height="512"
   x="0"
   y="0"
   viewBox="0 0 128 128"
   style="enable-background:new 0 0 512 512"
   xml:space="preserve"
   class=""
   id="svg4909"
   sodipodi:docname="interface.svg"
   inkscape:version="1.1.2 (0a00cf5339, 2022-02-04)"
   xmlns:inkscape="http://www.inkscape.org/namespaces/inkscape"
   xmlns:sodipodi="http://sodipodi.sourceforge.net/DTD/sodipodi-0.dtd"
   xmlns="http://www.w3.org/2000/svg"
   xmlns:svg="http://www.w3.org/2000/svg"><defs
     id="defs4913" /><sodipodi:namedview
     id="namedview4911"
     pagecolor="#505050"
     bordercolor="#eeeeee"
     borderopacity="1"
     inkscape:pageshadow="0"
     inkscape:pageopacity="0"
     inkscape:pagecheckerboard="0"
     showgrid="false"
     inkscape:zoom="0.58281067"
     inkscape:cx="408.3659"
     inkscape:cy="289.11619"
     inkscape:window-width="1850"
     inkscape:window-height="1016"
     inkscape:window-x="70"
     inkscape:window-y="27"
     inkscape:window-maximized="1"
     inkscape:current-layer="svg4909" /><g
     id="g4907"
     transform="matrix(0.86511268,0,0,0.86511268,8.6327885,8.6327885)"><rect
       width="125"
       height="125"
       x="1.5"
       y="1.5"
       fill="#e0f7fa"
       rx="12"
       opacity="1"
       data-original="#e0f7fa"
       class=""
       id="rect4891" /><path
       fill="#455a64"
       d="m 126.5,13.5 v 15 H 1.5 v -15 a 12,12 0 0 1 12,-12 h 101 a 12,12 0 0 1 12,12 z"
       opacity="1"
       data-original="#455a64"
       class=""
       id="path4893" /><circle
       cx="15.5"
       cy="15.5"
       r="3"
       fill="#e91e63"
       opacity="1"
       data-original="#e91e63"
       id="circle4895" /><circle
       cx="47.5"
       cy="15.5"
       r="3"
       fill="#cddc39"
       opacity="1"
       data-original="#cddc39"
       id="circle4897" /><circle
       cx="31.5"
       cy="15.5"
       r="3"
       fill="#ffc107"
       opacity="1"
       data-original="#ffc107"
       id="circle4899" /><path
       fill="#ffffff"
       d="m 111.5,12.5 h -16 a 3,3 0 0 0 0,6 h 16 a 3,3 0 0 0 0,-6 z"
       opacity="1"
       data-original="#ffffff"
       id="path4901" /><g
       fill="#455a64"
       id="g4905"><path
         d="M 96.5,90.375 H 89.625 V 61.625 H 96.5 a 4.375,4.375 0 0 0 0,-8.75 H 74 a 4.375,4.375 0 0 0 0,8.75 h 6.875 v 28.75 H 74 a 4.375,4.375 0 0 0 0,8.75 h 22.5 a 4.375,4.375 0 0 0 0,-8.75 z M 54,52.875 A 4.375,4.375 0 0 0 49.625,57.25 V 83.5 a 6.875,6.875 0 0 1 -13.75,0 V 57.25 a 4.375,4.375 0 0 0 -8.75,0 V 83.5 a 15.625,15.625 0 0 0 31.25,0 V 57.25 A 4.375,4.375 0 0 0 54,52.875 Z"
         fill="#455a64"
         opacity="1"
         data-original="#455a64"
         class=""
         id="path4903" /></g></g></svg>
