<?xml version="1.0" encoding="UTF-8" standalone="no"?>
<svg
   width="512"
   height="512"
   viewBox="0 0 32 32"
   version="1.1"
   id="svg8"
   xmlns="http://www.w3.org/2000/svg"
   xmlns:svg="http://www.w3.org/2000/svg">
  <path
     id="path934"
     fill="currentColor"
     style="fill-opacity:1;stroke-width:1.88032"
     d="m 21.528969,15.27125 c -0.898402,0.04031 -2.147819,-0.195284 -2.622635,0.800226 -0.517293,1.116399 -0.13671,2.386355 -0.254161,3.570174 0.008,3.594468 -0.07558,7.193694 0.03229,10.785121 0.240751,1.067362 1.469832,1.394526 2.412965,1.236036 2.271885,-0.07344 4.572231,0.179773 6.823917,-0.178914 2.706598,-0.692775 4.370663,-3.955352 3.242356,-6.536851 -0.319779,-0.849814 -0.975276,-1.531706 -1.539794,-2.172506 -0.05424,-0.781985 0.547717,-1.432673 0.506839,-2.228022 0.266785,-2.774999 -2.241808,-5.481921 -5.060821,-5.25573 -1.179623,-0.04603 -2.360789,-0.03309 -3.540962,-0.01953 z m 3.022416,3.206533 c 0.882257,-0.04331 1.998722,0.162201 2.259053,1.154351 0.388401,1.036494 -0.438295,2.226966 -1.551547,2.211473 -0.929297,0.07097 -1.866843,-0.06959 -2.790718,0.02896 -0.612808,-0.06986 -0.705818,-0.742621 -0.573039,-1.228826 0.06025,-0.678705 -0.281765,-1.61363 0.295828,-2.110106 0.779101,-0.0424 1.575155,-0.02678 2.360423,-0.05585 z m 0.107573,6.593044 c 0.978744,0.09432 2.112988,-0.208926 2.981042,0.366166 0.960305,0.736325 0.776472,2.486535 -0.44064,2.846574 -1.213281,0.35459 -2.499562,0.02592 -3.743688,0.154553 -0.485797,-0.0016 -1.129755,0.08298 -1.49227,-0.212478 -0.209956,-0.937209 -0.09181,-1.923125 -0.04964,-2.865192 0.40607,-0.559725 1.22871,-0.157616 1.810944,-0.276137 0.311421,-0.0044 0.622841,-0.009 0.93426,-0.01349 z" />
  <path
     id="path2"
     fill="currentColor"
     style="fill-opacity:1;stroke-width:1.81414"
     d="M 7.6216408,1.0364962 C 6.2399354,1.2831168 6.1256995,2.9058838 5.617771,3.9477048 4.1430211,7.7409459 2.549772,11.495297 1.1920255,15.331426 c -0.20020248,1.340003 1.7049112,2.280727 2.6118199,1.235276 0.6505845,-0.66293 0.6053317,-1.815168 1.2856689,-2.406178 1.8437547,-0.0828 3.6987616,-0.04936 5.5379917,-0.02483 0.769535,0.470086 0.640241,1.567948 1.190669,2.218342 0.670138,1.007169 2.4325,0.808738 2.722575,-0.411008 0.263257,-1.229715 -0.664883,-2.28624 -0.985532,-3.415505 C 12.039931,8.8899658 10.654004,5.1871731 9.0221719,1.6053971 8.6892659,1.1893389 8.1487417,0.97842252 7.6216408,1.0364962 Z m 0.084817,6.5351206 C 8.4603731,7.9048487 8.5514176,8.4121452 8.868852,8.9445598 9.0476857,9.5053628 9.2141756,10.092519 9.1959459,10.867105 8.4900905,11.221731 7.8486051,11.074848 6.9327533,11.040878 6.2807332,10.941799 6.252306,10.259876 6.5276031,9.6966419 6.8623155,8.9994315 7.1044722,8.0791356 7.7064578,7.5716168 Z"
      />
</svg>
