<?xml version="1.0" encoding="UTF-8" standalone="no"?>
<svg
   width="512"
   height="512"
   viewBox="0 0 36 36"
   version="1.1"
   id="svg6"
   xmlns="http://www.w3.org/2000/svg"
   xmlns:svg="http://www.w3.org/2000/svg">
  <path
     id="path2152"
     fill="currentColor"
     style="stroke:none;stroke-width:1.67893"
     d="m 25.528993,10.453686 c -3.759413,0.147168 -7.175081,3.491206 -6.990234,7.316406 0.0286,1.318586 1.422938,2.24398 2.666016,1.90625 1.303091,-0.375714 1.406578,-1.949016 1.836705,-3.0152 0.308523,-1.13234 1.27832,-2.142419 2.519318,-2.09197 1.62852,-0.134216 2.874003,1.610043 2.527851,3.135484 -0.337114,1.989488 -1.868287,3.461285 -2.997156,5.038092 -2.045806,2.577914 -4.384124,4.915275 -6.414062,7.505859 -0.740178,1.009888 -0.206351,2.658463 1.070312,2.888672 1.492753,0.263257 3.031357,0.04672 4.541407,0.117188 2.526278,-0.03381 5.061014,0.06619 7.582371,-0.04719 1.183476,-0.103503 1.891018,-1.399596 1.551576,-2.488877 -0.292204,-1.271136 -1.786178,-1.481607 -2.876916,-1.393625 -1.84362,0 -3.68724,0 -5.53086,0 2.516126,-3.196031 5.726599,-5.986424 7.296563,-9.828301 1.132663,-2.660062 0.367754,-6.097714 -2.085723,-7.748281 -1.370471,-0.97309 -3.050875,-1.362011 -4.697168,-1.294511 z" />
  <path
     id="path4"
     fill="currentColor"
     style="stroke:none;stroke-width:1.68298"
     d="m 4.3495411,3.04514 c -1.6044858,0.093916 -2.325043,2.224416 -1.3634643,3.4098039 0.866534,1.0863483 2.400254,0.5992257 3.5904174,0.7093367 0.096221,1.1975295 0.012496,2.5750045 0.040625,3.8406254 0.024725,4.277511 -0.049218,8.559866 0.036526,12.834393 0.1049471,1.340296 1.5660716,2.142818 2.7991327,1.806136 C 10.694916,25.445217 11.283018,24.09426 11.132745,22.949827 11.119615,16.910363 11.158935,10.868689 11.113195,4.8305967 11.079065,3.8058633 10.083733,2.9125332 9.0249309,3.0334212 7.4666127,3.0416912 5.9073617,3.0171562 4.3495411,3.04514 Z" />
</svg>
