<?xml version="1.0" encoding="UTF-8" standalone="no"?>
<svg
   width="512"
   height="512"
   viewBox="0 0 36 36"
   version="1.1"
   id="svg6"
   sodipodi:docname="other-signs.svg"
   inkscape:version="1.1.2 (0a00cf5339, 2022-02-04)"
   xmlns:inkscape="http://www.inkscape.org/namespaces/inkscape"
   xmlns:sodipodi="http://sodipodi.sourceforge.net/DTD/sodipodi-0.dtd"
   xmlns="http://www.w3.org/2000/svg"
   xmlns:svg="http://www.w3.org/2000/svg">
  <defs
     id="defs10" />
  <sodipodi:namedview
     id="namedview8"
     pagecolor="#505050"
     bordercolor="#eeeeee"
     borderopacity="1"
     inkscape:pageshadow="0"
     inkscape:pageopacity="0"
     inkscape:pagecheckerboard="0"
     showgrid="false"
     showguides="true"
     inkscape:guide-bbox="true"
     inkscape:zoom="0.82421875"
     inkscape:cx="118.90047"
     inkscape:cy="375.50711"
     inkscape:window-width="1850"
     inkscape:window-height="1016"
     inkscape:window-x="70"
     inkscape:window-y="27"
     inkscape:window-maximized="1"
     inkscape:current-layer="svg6" />
  <path
     id="path913"
     fill="currentColor"
     style="fill-opacity:1;stroke-width:1.19601"
     d="m 30.339388,1.0852815 c -0.763963,0.1303823 -0.867553,1.1504 -1.26301,1.7078786 -2.293203,4.5929867 -4.639207,9.1604389 -6.899677,13.7692569 -0.527651,0.964305 0.822489,2.240181 1.599827,1.433776 0.946836,-1.480897 1.621784,-3.143658 2.462623,-4.695402 1.787507,-3.5736833 3.663848,-7.1507906 5.39647,-10.7216915 0.244317,-0.8160159 -0.52436,-1.61406987 -1.296233,-1.493818 z m -7.733305,0.1514689 c -2.071516,0.1874972 -3.401397,2.6697555 -2.78072,4.6917233 0.437894,1.8406331 2.435029,3.028811 4.145634,2.3832513 C 26.0593,7.6290957 26.866892,4.7061901 25.692134,2.8377273 25.054505,1.7329221 23.82843,1.0837626 22.606083,1.2367504 Z m 0.356221,2.0841454 c 1.413713,-0.025878 1.747354,2.3518264 0.528883,2.9354437 -0.874198,0.461063 -1.905108,-0.4031164 -1.810194,-1.3977381 -0.02341,-0.7702247 0.498385,-1.563193 1.281311,-1.5377056 z m 7.431608,7.5543072 c -2.045377,0.184925 -3.378301,2.612944 -2.796918,4.621815 0.401538,1.877729 2.428994,3.108003 4.161831,2.45124 2.086936,-0.679563 2.892714,-3.604566 1.721139,-5.47208 -0.639412,-1.103881 -1.86268,-1.754267 -3.086052,-1.600975 z m 0.352588,2.084144 c 1.414312,-0.02838 1.748642,2.350515 0.530698,2.935444 -0.87932,0.463571 -1.909104,-0.411611 -1.810193,-1.409244 -0.01934,-0.762934 0.503805,-1.552819 1.279495,-1.5262 z" />
  <path
     id="path4"
     fill="currentColor"
     style="fill-opacity:1;stroke:none;stroke-width:1.22525;stroke-opacity:1"
     d="M 7.6095802,0.43047736 C 5.9008448,0.50179835 3.9307145,1.5983398 3.6605592,3.639217 3.3808017,5.1749239 4.2343823,6.6313243 5.2337328,7.6102612 3.3324538,8.6227423 1.5698551,10.680217 1.7370149,13.160434 c 0.010275,2.273064 1.7607421,4.196383 3.7461147,4.534179 2.1252651,0.544644 4.4122148,-0.295373 5.9360854,-1.936303 0.240716,-0.318678 0.700919,-0.232409 0.811264,0.16625 0.759653,0.686219 1.280721,2.04539 2.422765,1.923095 0.949754,-0.129029 1.555323,-1.601161 0.739886,-2.335579 -0.553245,-0.71769 -1.127672,-1.415063 -1.690785,-2.123277 0.719981,-1.005298 1.939031,-1.915188 1.827227,-3.347526 C 15.376769,9.129797 14.220503,8.8431572 13.682477,9.5340045 13.054959,10.105853 12.613105,10.87131 12.046702,11.508902 11.136518,10.397113 10.226535,9.2851093 9.3148917,8.174778 10.913549,7.3679327 12.493998,5.6438691 12.248753,3.5496448 12.008726,1.6839346 10.246606,0.65810601 8.6923706,0.46884259 8.3329292,0.42261091 7.970992,0.40570463 7.6095802,0.43047736 Z M 8.1890552,2.6410468 C 9.2466286,2.6422067 10.153823,4.0217247 9.5400601,5.076327 9.1623584,5.8079191 8.4586049,6.2077794 7.8115686,6.5926681 7.1001569,5.8461926 6.1261723,4.841901 6.5267898,3.6403704 6.8241912,2.9616143 7.5271947,2.6090435 8.1890552,2.6410468 Z M 6.6824201,9.2691005 C 7.8355983,10.676455 8.9857882,12.090318 10.137747,13.500242 9.0175875,14.925948 6.9852168,15.761484 5.4196563,14.72705 4.0619086,13.745647 4.135282,11.346134 5.3393094,10.252657 5.7235049,9.8412555 6.1664191,9.5059646 6.6145385,9.1850631 l 0.056402,0.069833 z" />
  <path
     id="path1172"
     fill="currentColor"
     style="fill-opacity:1;stroke-width:2.62544"
     d="m 27.578125,20.09375 c -1.09108,0.02836 -1.641414,1.196714 -1.549577,2.166779 0.0084,1.238551 0.01074,2.477339 0.0086,3.716033 -1.662636,0.103172 -3.38117,-0.214158 -5.003906,0.201172 -1.187181,0.596517 -1.144816,2.590125 0.162109,3.017578 1.143521,0.359551 2.365478,0.04894 3.541797,0.158204 0.454066,0.127456 1.497487,-0.346349 1.305959,0.438612 0.06681,1.519732 -0.194546,3.09029 0.189354,4.573106 0.595778,1.183603 2.579054,1.157795 3.017578,-0.144531 0.367115,-1.148764 0.05498,-2.378339 0.164062,-3.561328 0.128708,-0.45545 -0.348273,-1.504564 0.438613,-1.313791 1.518456,-0.06764 3.087786,0.196451 4.5692,-0.189334 1.189315,-0.594226 1.157043,-2.579049 -0.144531,-3.017578 -1.148635,-0.36722 -2.378378,-0.0549 -3.561328,-0.164063 -0.454076,-0.127456 -1.497466,0.346348 -1.305979,-0.438612 -0.06181,-1.503211 0.181223,-3.05246 -0.175662,-4.522325 -0.307992,-0.601945 -0.985647,-0.967028 -1.65625,-0.919922 z" />
  <path
     id="path1159"
     fill="currentColor"
     style="fill-opacity:1;stroke-width:3.30424"
     d="m 14.260203,20.234408 c -1.613384,0.279932 -2.389629,1.940939 -3.573596,2.869152 -0.56644,0.550858 -1.1243749,1.10833 -1.6817063,1.668664 C 7.3174039,23.334112 6.0468812,21.365785 4.0803131,20.286313 2.686,19.927275 1.2558163,21.758023 2.2263538,22.95222 c 0.910315,1.32475 2.2711706,2.246367 3.3128193,3.459812 0.2218085,0.403242 1.2789499,0.792125 0.6222526,1.211716 -1.354092,1.506429 -3.1097759,2.72668 -4.1009438,4.487566 -0.4120283,1.4094 1.4450929,2.882369 2.65914,1.897567 1.261973,-0.868477 2.1468737,-2.159384 3.302216,-3.153525 0.4028877,-0.195798 0.7907782,-1.261769 1.2061886,-0.749059 1.5352675,1.373569 2.7667185,3.133392 4.5575855,4.189979 1.415596,0.426278 2.927295,-1.45714 1.90979,-2.673101 -0.924177,-1.309417 -2.257117,-2.250915 -3.302599,-3.456271 -0.279693,-0.401521 -1.22105,-0.792423 -0.482699,-1.211587 1.374685,-1.518981 3.147658,-2.743593 4.161328,-4.549541 0.244925,-1.057149 -0.693196,-2.288778 -1.811229,-2.171368 z" />
</svg>
