<?xml version="1.0" encoding="UTF-8" standalone="no"?>
<svg
   width="512"
   height="512"
   viewBox="0 0 32 32"
   version="1.1"
   id="svg6"
   sodipodi:docname="logo.svg"
   inkscape:version="1.1.2 (0a00cf5339, 2022-02-04)"
   inkscape:export-filename="/home/sergey/projects/characters/images/logo-64x64.png"
   inkscape:export-xdpi="12"
   inkscape:export-ydpi="12"
   xmlns:inkscape="http://www.inkscape.org/namespaces/inkscape"
   xmlns:sodipodi="http://sodipodi.sourceforge.net/DTD/sodipodi-0.dtd"
   xmlns="http://www.w3.org/2000/svg"
   xmlns:svg="http://www.w3.org/2000/svg">
  <defs
     id="defs10">
    <linearGradient
       id="linearGradient2585"
       inkscape:swatch="gradient">
      <stop
         style="stop-color:#0381fd;stop-opacity:1;"
         offset="0"
         id="stop2581" />
      <stop
         style="stop-color:#0381fd;stop-opacity:0;"
         offset="1"
         id="stop2583" />
    </linearGradient>
  </defs>
  <sodipodi:namedview
     id="namedview8"
     pagecolor="#505050"
     bordercolor="#eeeeee"
     borderopacity="1"
     inkscape:pageshadow="0"
     inkscape:pageopacity="0"
     inkscape:pagecheckerboard="0"
     showgrid="false"
     inkscape:zoom="0.58281067"
     inkscape:cx="274.53169"
     inkscape:cy="398.92887"
     inkscape:window-width="1850"
     inkscape:window-height="1016"
     inkscape:window-x="70"
     inkscape:window-y="27"
     inkscape:window-maximized="1"
     inkscape:current-layer="svg6" />
  <path
     fill="#0381fd"
     d="M 2,6 C 1.8950695,3.1412929 4.7361134,1.7659454 7.1879394,2 13.458626,2 19.729313,2 26,2 28.389933,1.9236959 30.278241,4.245724 30,6.5543717 30,13.036248 30,19.518124 30,26 30.10493,28.858707 27.263887,30.234055 24.812061,30 18.541374,30 12.270687,30 6,30 3.1412929,30.10493 1.7659454,27.263887 2,24.812061 2,18.541374 2,12.270687 2,6 Z"
     id="path2"
     style="mix-blend-mode:normal;fill:#0381fd;fill-opacity:1;stroke:none;stroke-linejoin:round;stroke-opacity:1;paint-order:markers fill stroke" />
  <path
     fill="#ffffff"
     d="m 16.481589,7.3219202 c -0.689596,-1.6889746 -1.755551,0.090626 -1.441939,1.1087435 0,2.6265283 0,5.2530573 0,7.8795863 0.46144,-0.515 1.074052,-0.967384 1.441939,-1.521135 0,-1.047125 0,-2.094251 0,-3.141376 0.65322,-0.05757 1.360904,0.159028 1.952053,-0.210997 0.738361,-1.31423 -0.956049,-1.285791 -1.777248,-1.230943 -0.397399,-0.08325 -0.06643,-0.8948676 -0.174805,-1.2671354 0,-0.5389145 0,-1.0778289 0,-1.6167434 z m 8.416602,5.2832668 c -1.686254,-1.803474 -4.14823,-0.759245 -5.464301,0.84 -1.983845,1.983845 -3.96769,3.96769 -5.951535,5.951535 -0.943475,1.150878 -1.068049,2.69191 -1.538347,4.06475 -0.144719,0.729672 -0.568423,1.430967 -0.4447,2.187943 0.571388,0.79715 1.484547,0.120751 2.223958,8.34e-4 1.267579,-0.400319 2.589196,-0.64869 3.808701,-1.184184 1.362321,-1.092425 2.503715,-2.435708 3.768851,-3.638484 1.294923,-1.322328 2.647884,-2.590608 3.903037,-3.949972 0.972728,-1.252317 0.835645,-3.17104 -0.305664,-4.272422 z m -3.60485,1.020172 c 2.235023,-1.913287 4.191488,1.796778 2.081399,3.088676 -2.143772,2.132851 -4.266393,4.288235 -6.423383,6.407003 -1.08078,0.531853 -2.31067,0.714793 -3.456203,1.094407 -0.591279,0.249956 0.04636,-0.72879 0.03539,-1.059043 0.374829,-1.130162 0.467819,-2.460398 1.475286,-3.244202 2.095836,-2.095614 4.191672,-4.191227 6.287508,-6.286841 z M 7.1234018,14.683022 c 0.885604,1.367689 2.7337077,-0.325351 3.7320052,-0.862103 1.85278,-1.378326 2.931642,-3.763192 2.68541,-6.0579691 -0.446081,-0.715346 -1.38528,-0.3513507 -2.089609,-0.4410308 -1.298868,0.03418 -2.6117282,-0.070757 -3.9011949,0.056889 -1.190398,0.8746134 0.3331966,1.6399653 1.2302907,1.3850506 1.1131394,0 2.2262792,0 3.3394182,0 -0.152279,2.4402473 -2.098545,4.5097113 -4.4411735,5.0612093 -0.378127,0.0741 -0.6487263,0.480575 -0.5551467,0.857954 z"
     id="path4"
     style="stroke-width:0.720969" />
</svg>
