<?xml version="1.0" encoding="UTF-8" standalone="no"?>
<svg
   inkscape:version="1.2.2 (b0a8486541, 2022-12-01)"
   sodipodi:docname="logo-source.svg"
   id="svg9216"
   version="1.1"
   viewBox="0 0 32 32"
   height="512"
   width="512"
   xmlns:inkscape="http://www.inkscape.org/namespaces/inkscape"
   xmlns:sodipodi="http://sodipodi.sourceforge.net/DTD/sodipodi-0.dtd"
   xmlns="http://www.w3.org/2000/svg"
   xmlns:svg="http://www.w3.org/2000/svg">
  <defs
     id="defs9220">
    <filter
       style="color-interpolation-filters:sRGB"
       inkscape:label="Drop Shadow"
       id="filter7492"
       x="-0.051601087"
       y="-0.049694018"
       width="1.1032022"
       height="1.099388">
      <feFlood
         flood-opacity="0.24588429889329924"
         flood-color="rgb(0,0,0)"
         result="flood"
         id="feFlood7482" />
      <feComposite
         in="flood"
         in2="SourceGraphic"
         operator="in"
         result="composite1"
         id="feComposite7484" />
      <feGaussianBlur
         in="composite1"
         stdDeviation="6.3"
         result="blur"
         id="feGaussianBlur7486" />
      <feOffset
         dx="0"
         dy="0"
         result="offset"
         id="feOffset7488" />
      <feComposite
         in="SourceGraphic"
         in2="offset"
         operator="over"
         result="composite2"
         id="feComposite7490" />
    </filter>
  </defs>
  <sodipodi:namedview
     id="namedview9218"
     pagecolor="#505050"
     bordercolor="#ffffff"
     borderopacity="1"
     inkscape:showpageshadow="0"
     inkscape:pageopacity="0"
     inkscape:pagecheckerboard="1"
     inkscape:deskcolor="#505050"
     showgrid="false"
     inkscape:zoom="0.66285471"
     inkscape:cx="329.63483"
     inkscape:cy="27.909585"
     inkscape:window-width="1854"
     inkscape:window-height="1011"
     inkscape:window-x="66"
     inkscape:window-y="32"
     inkscape:window-maximized="1"
     inkscape:current-layer="svg9216" />
  <path
     fill="#0381fd"
     d="M 2,6 C 1.895,3.141 4.736,1.766 7.188,2 H 26 c 2.39,-0.076 4.278,2.246 4,4.554 V 26 c 0.105,2.859 -2.736,4.234 -5.188,4 H 6 C 3.141,30.105 1.766,27.264 2,24.812 Z"
     style="display:none;mix-blend-mode:normal;fill:#0381fd;fill-opacity:1;stroke:none;stroke-linejoin:round;stroke-opacity:1;paint-order:markers fill stroke"
     id="path9212" />
  <path
     fill="#ffffff"
     d="m 16.482,7.322 c -0.69,-1.69 -1.756,0.09 -1.442,1.109 v 7.88 c 0.461,-0.516 1.074,-0.968 1.442,-1.522 v -3.141 c 0.653,-0.058 1.36,0.159 1.952,-0.211 0.738,-1.314 -0.956,-1.286 -1.778,-1.231 C 16.259,10.123 16.59,9.311 16.482,8.939 Z m 8.416,5.283 c -1.686,-1.803 -4.148,-0.76 -5.464,0.84 l -5.952,5.952 c -0.943,1.15 -1.068,2.692 -1.538,4.064 -0.145,0.73 -0.568,1.431 -0.445,2.188 0.572,0.798 1.485,0.121 2.224,10e-4 1.268,-0.4 2.59,-0.648 3.809,-1.184 1.362,-1.092 2.504,-2.436 3.769,-3.638 1.295,-1.323 2.648,-2.591 3.903,-3.95 0.973,-1.253 0.836,-3.171 -0.306,-4.273 m -3.605,1.02 c 2.235,-1.913 4.192,1.797 2.082,3.089 -2.144,2.133 -4.267,4.288 -6.424,6.407 -1.08,0.532 -2.31,0.715 -3.456,1.094 -0.591,0.25 0.047,-0.728 0.036,-1.059 0.374,-1.13 0.467,-2.46 1.475,-3.244 z m -14.17,1.058 c 0.886,1.368 2.734,-0.325 3.732,-0.862 1.853,-1.378 2.932,-3.763 2.686,-6.058 C 13.095,7.048 12.156,7.412 11.451,7.322 10.152,7.356 8.839,7.252 7.55,7.379 6.36,8.253 7.883,9.019 8.78,8.764 h 3.34 c -0.153,2.44 -2.099,4.51 -4.441,5.061 -0.379,0.074 -0.65,0.48 -0.556,0.858"
     style="display:none;stroke-width:0.720969"
     id="path9214" />
  <g
     id="g1541"
     transform="matrix(0.06259828,0,0,0.06137559,39.567543,25.945423)"
     style="display:inline;stroke:none;stroke-width:0;stroke-dasharray:none;enable-background:new">
    <g
       id="g1547"
       style="stroke:none;stroke-width:0;stroke-dasharray:none"
       inkscape:label="g1547">
      <path
         fill="#0381fd"
         d="m -600.72585,-317.55256 c -1.68168,-45.77059 43.81977,-67.78338 83.09101,-64.0372 h 301.29299 c 38.27824,-1.21671 68.51644,35.95688 64.064,72.90635 V 2.6334546 c 1.68168,45.7705904 -43.81978,67.7833794 -83.09101,64.0372034 h -301.29299 c -45.78975,1.680976 -67.81174,-43.801448 -64.064,-83.056253 z"
         style="mix-blend-mode:normal;fill:#1a5fb4;fill-opacity:1;stroke:none;stroke-width:0;stroke-linejoin:round;stroke-dasharray:none;stroke-opacity:1;paint-order:markers fill stroke"
         id="path1543" />
      <path
         fill="#0381fd"
         d="m -600.72585,-326.71741 c -1.68168,-45.77059 43.81978,-67.78338 83.09101,-64.0372 h 301.29301 c 38.27825,-1.21671 68.51646,35.95689 64.06401,72.90636 V -6.5313956 c 1.68168,45.7705916 -43.81978,67.7833796 -83.09102,64.0372036 h -301.29301 c -45.78974,1.680976 -67.81175,-43.801448 -64.064,-83.056253 z"
         style="mix-blend-mode:normal;fill:#3584e4;fill-opacity:1;stroke:none;stroke-width:0;stroke-linejoin:round;stroke-dasharray:none;stroke-opacity:1;paint-order:markers fill stroke"
         id="path1523" />
    </g>
    <g
       id="g9406">
      <path
         fill="currentColor"
         d="m -372.44467,-306.57855 a 11.267018,11.267018 0 1 0 -22.53402,0 v 140.46592 l 22.53402,-22.53404 v -50.32977 h 22.53404 a 11.26702,11.26702 0 1 0 0,-22.53402 h -22.53404 z m 131.53117,82.56472 a 51.107193,51.107193 0 0 0 -72.26665,0 l -106.1353,106.1353 a 45.068068,45.068068 0 0 0 -11.45856,19.491947 l -20.12291,70.418865 a 11.267018,11.267018 0 0 0 13.92605,13.9373 l 70.46393,-20.134157 a 45.068068,45.068068 0 0 0 19.49193,-11.469829 L -240.9135,-151.73592 a 51.095921,51.095921 0 0 0 0,-72.27791 m -56.33508,15.94284 a 28.573157,28.573157 0 0 1 40.40353,40.39224 l -106.11278,106.112784 c -2.70409,2.704086 -6.06166,4.687083 -9.74598,5.734914 l -50.96072,14.556981 14.557,-50.926915 a 22.534035,22.534035 0 0 1 5.72364,-9.745974 z m -221.44197,16.52871 c 1.1267,5.29549 5.85885,8.90093 11.04168,8.90093 0.78869,0 1.57738,0 2.36607,-0.22531 l 0.0565,-0.0116 c 2.67029,-0.64224 87.71374,-20.9116 87.71374,-112.43357 0,-6.19686 -5.07016,-11.267 -11.26702,-11.267 h -78.86913 c -6.19685,0 -11.26701,5.07014 -11.26701,11.267 0,6.19687 5.07016,11.26702 11.26701,11.26702 h 67.03875 c -6.30952,64.44733 -66.70073,78.5311 -69.40481,79.09446 -6.0842,1.35203 -10.02765,7.32356 -8.67562,13.40774"
         id="path3620"
         style="display:inline;fill:#000000;fill-opacity:0.28741;stroke:none;stroke-width:0;stroke-dasharray:none;stroke-opacity:1;enable-background:new" />
      <path
         fill="currentColor"
         d="m -372.44458,-299.48301 a 11.267018,11.267018 0 1 0 -22.53402,0 v 140.46592 l 22.53402,-22.53404 v -50.32977 h 22.53404 a 11.26702,11.26702 0 1 0 0,-22.53402 h -22.53404 z m 131.53117,82.56472 a 51.107193,51.107193 0 0 0 -72.26665,0 l -106.1353,106.1353 a 45.068068,45.068068 0 0 0 -11.45856,19.491942 l -20.12291,70.418865 a 11.267018,11.267018 0 0 0 13.92605,13.9373005 l 70.46393,-20.1341575 a 45.068068,45.068068 0 0 0 19.49193,-11.469829 l 106.10151,-106.101511 a 51.095921,51.095921 0 0 0 0,-72.27791 m -56.33508,15.94284 a 28.573157,28.573157 0 0 1 40.40353,40.39224 l -106.11278,106.112779 c -2.70409,2.704086 -6.06166,4.687083 -9.74598,5.734914 l -50.96072,14.556981 14.557,-50.926915 a 22.534035,22.534035 0 0 1 5.72364,-9.745973 z m -221.44197,16.52871 c 1.1267,5.29549 5.85885,8.90093 11.04168,8.90093 0.78869,0 1.57738,0 2.36607,-0.22531 l 0.0565,-0.0116 c 2.67029,-0.64224 87.71374,-20.9116 87.71374,-112.43357 0,-6.19686 -5.07016,-11.267 -11.26702,-11.267 h -78.86913 c -6.19685,0 -11.26701,5.07014 -11.26701,11.267 0,6.19687 5.07016,11.26702 11.26701,11.26702 h 67.03875 c -6.30952,64.44733 -66.70073,78.5311 -69.40481,79.09446 -6.0842,1.35203 -10.02765,7.32356 -8.67562,13.40774"
         id="path9402"
         style="display:inline;fill:#ffffff;fill-opacity:1;stroke:none;stroke-width:0;stroke-dasharray:none;stroke-opacity:1;enable-background:new" />
    </g>
  </g>
</svg>
