<svg xmlns="http://www.w3.org/2000/svg" width="512" height="512" viewBox="0 0 32 32">
  <path fill="#1a5fb4" d="M-600.73-317.55c-1.682-45.771 43.82-67.783 83.091-64.037h301.29c38.278-1.217 68.516 35.957 64.064 72.906V2.639c1.682 45.771-43.82 67.783-83.091 64.037h-301.29c-45.79 1.681-67.812-43.801-64.064-83.056z" style="mix-blend-mode:normal;paint-order:markers fill stroke" transform="matrix(.0626 0 0 .06138 39.568 25.945)"/>
  <path fill="#3584e4" d="M-600.73-326.72c-1.682-45.771 43.82-67.783 83.091-64.037h301.29c38.278-1.217 68.516 35.957 64.064 72.906v311.32c1.682 45.771-43.82 67.783-83.091 64.037h-301.29c-45.79 1.681-67.812-43.801-64.064-83.056z" style="mix-blend-mode:normal;paint-order:markers fill stroke" transform="matrix(.0626 0 0 .06138 39.568 25.945)"/>
  <path fill-opacity=".287" d="M16.254 7.128a.705.692 0 1 0-1.41 0v8.622l1.41-1.383v-3.09h1.41a.705.692 0 1 0 0-1.382h-1.41zm8.234 5.068a3.2 3.137 0 0 0-4.524 0L13.32 18.71a2.821 2.766 0 0 0-.718 1.197l-1.26 4.322a.705.692 0 0 0 .872.855l4.411-1.236a2.821 2.766 0 0 0 1.22-.704l6.642-6.512a3.199 3.136 0 0 0 0-4.436m-3.526.979a1.789 1.754 0 0 1 2.529 2.479l-6.642 6.512a1.4 1.4 0 0 1-.61.352l-3.19.894.91-3.126a1.41 1.383 0 0 1 .359-.598zM7.099 14.189c.07.325.367.547.691.547.05 0 .099 0 .148-.014l.004-.001c.167-.04 5.49-1.284 5.49-6.9a.7.7 0 0 0-.705-.692H7.79a.7.7 0 0 0-.705.691.7.7 0 0 0 .705.692h4.197c-.395 3.956-4.176 4.82-4.345 4.854a.694.694 0 0 0-.543.823"/>
  <path fill="#fff" d="M16.254 7.564a.705.692 0 1 0-1.41 0v8.622l1.41-1.383v-3.09h1.41a.705.692 0 1 0 0-1.383h-1.41zm8.234 5.068a3.2 3.137 0 0 0-4.524 0l-6.644 6.514a2.821 2.766 0 0 0-.718 1.196l-1.26 4.322a.705.692 0 0 0 .872.856l4.411-1.236a2.821 2.766 0 0 0 1.22-.704l6.642-6.512a3.199 3.136 0 0 0 0-4.436m-3.526.979a1.789 1.754 0 0 1 2.529 2.479l-6.642 6.512a1.4 1.4 0 0 1-.61.352l-3.19.894.91-3.126a1.41 1.383 0 0 1 .359-.598zM7.099 14.625c.07.325.367.546.691.546.05 0 .099 0 .148-.014h.004c.167-.04 5.49-1.284 5.49-6.9a.7.7 0 0 0-.705-.692H7.79a.7.7 0 0 0-.705.691.7.7 0 0 0 .705.692h4.197c-.395 3.955-4.176 4.82-4.345 4.854a.694.694 0 0 0-.543.823"/>
</svg>
