<?xml version="1.0" encoding="UTF-8" standalone="no"?>
<svg
   width="512"
   height="512"
   viewBox="0 0 24 24"
   version="1.1"
   id="svg8"
   sodipodi:docname="code.svg"
   inkscape:export-filename="/home/sergey/projects/characters/assets/icons/code.png"
   inkscape:export-xdpi="3.75"
   inkscape:export-ydpi="3.75"
   inkscape:version="1.1.2 (0a00cf5339, 2022-02-04)"
   xmlns:inkscape="http://www.inkscape.org/namespaces/inkscape"
   xmlns:sodipodi="http://sodipodi.sourceforge.net/DTD/sodipodi-0.dtd"
   xmlns="http://www.w3.org/2000/svg"
   xmlns:svg="http://www.w3.org/2000/svg">
  <defs
     id="defs12" />
  <sodipodi:namedview
     id="namedview10"
     pagecolor="#505050"
     bordercolor="#eeeeee"
     borderopacity="1"
     inkscape:pageshadow="0"
     inkscape:pageopacity="0"
     inkscape:pagecheckerboard="0"
     showgrid="false"
     inkscape:zoom="0.58281067"
     inkscape:cx="106.38103"
     inkscape:cy="359.46494"
     inkscape:window-width="1850"
     inkscape:window-height="1016"
     inkscape:window-x="70"
     inkscape:window-y="27"
     inkscape:window-maximized="1"
     inkscape:current-layer="svg8" />
  <g
     fill="#ffffff"
     id="g6"
     transform="matrix(0.81356051,0,0,0.81356051,2.2244095,2.1810624)">
    <path
       d="M 3.463,12.86 3.458,12.79 Z m 7.264,0.69 -3.034,-3.049 1.014,-1.014 3.209,3.225 3.163,-3.163 1.014,1.014 -3.034,3.034 3.034,3.05 -1.014,1.014 L 11.87,14.436 8.707,17.6 7.693,16.586 10.727,13.552 Z"
       id="path2" />
    <path
       fill-rule="evenodd"
       d="M 16.933,5.003 V 6 h 1.345 l 2.843,-2.842 1.014,1.014 -2.692,2.691 0.033,0.085 a 13.75,13.75 0 0 1 0.885,4.912 c 0,0.335 -0.011,0.667 -0.034,0.995 l -0.005,0.075 h 3.54 v 1.434 h -3.72 l -0.01,0.058 c -0.303,1.653 -0.891,3.16 -1.692,4.429 l -0.06,0.094 3.423,3.44 -1.017,1.012 -3.274,-3.29 -0.099,0.11 c -1.479,1.654 -3.395,2.646 -5.483,2.646 -2.12,0 -4.063,-1.023 -5.552,-2.723 L 6.28,20.027 3.071,23.235 2.057,22.221 5.423,18.856 5.364,18.761 C 4.592,17.511 4.024,16.036 3.728,14.421 L 3.718,14.364 H 0 V 12.93 H 3.538 L 3.533,12.855 A 14.23,14.23 0 0 1 3.499,11.86 c 0,-1.743 0.31,-3.39 0.863,-4.854 L 4.394,6.922 1.632,4.146 2.65,3.135 5.5,6 H 6.927 V 5.003 a 5.003,5.003 0 0 1 10.006,0 m -8.572,0 V 6 H 15.5 V 5.003 a 3.569,3.569 0 0 0 -7.138,0 z m 9.8,2.522 -0.034,-0.09 H 5.733 L 5.699,7.525 A 12.328,12.328 0 0 0 4.933,11.86 c 0,2.76 0.862,5.201 2.184,6.92 1.32,1.716 3.036,2.649 4.813,2.649 1.777,0 3.492,-0.933 4.813,-2.65 1.322,-1.718 2.184,-4.16 2.184,-6.919 0,-1.574 -0.28,-3.044 -0.766,-4.335"
       clip-rule="evenodd"
       id="path4" />
  </g>
</svg>
