<?xml version="1.0" encoding="UTF-8" standalone="no"?>
<svg
   width="512"
   height="512"
   viewBox="0 0 16 16"
   version="1.1"
   id="svg4"
   sodipodi:docname="hide-menu.svg"
   inkscape:export-filename="/home/sergey/projects/characters/assets/icons/hide-menu.png"
   inkscape:export-xdpi="3.75"
   inkscape:export-ydpi="3.75"
   inkscape:version="1.1.2 (0a00cf5339, 2022-02-04)"
   xmlns:inkscape="http://www.inkscape.org/namespaces/inkscape"
   xmlns:sodipodi="http://sodipodi.sourceforge.net/DTD/sodipodi-0.dtd"
   xmlns="http://www.w3.org/2000/svg"
   xmlns:svg="http://www.w3.org/2000/svg">
  <defs
     id="defs8" />
  <sodipodi:namedview
     id="namedview6"
     pagecolor="#505050"
     bordercolor="#eeeeee"
     borderopacity="1"
     inkscape:pageshadow="0"
     inkscape:pageopacity="0"
     inkscape:pagecheckerboard="0"
     showgrid="false"
     inkscape:zoom="0.82421875"
     inkscape:cx="121.32701"
     inkscape:cy="125.57346"
     inkscape:window-width="1850"
     inkscape:window-height="1016"
     inkscape:window-x="70"
     inkscape:window-y="27"
     inkscape:window-maximized="1"
     inkscape:current-layer="svg4" />
  <path
     fill="#ffffff"
     d="m 2.5964015,2.5963928 a 0.41438264,0.41438264 0 0 0 -0.04061,0.5386974 l 0.04061,0.04724 2.2293786,2.2293786 a 5.5170905,5.5170905 0 0 0 -2.185454,3.176657 0.41438264,0.41438264 0 0 0 0.8039023,0.2005611 4.6908115,4.6908115 0 0 1 1.9774339,-2.7813362 l 1.0003198,1.0003197 a 2.210317,2.210317 0 0 0 3.1252738,3.1252736 l 3.2703081,3.270308 A 0.41438264,0.41438264 0 0 0 13.44411,12.864795 L 13.4035,12.817555 10.026281,9.4395077 V 9.438679 L 9.3632701,8.7764954 7.7778421,7.1910674 h 8.287e-4 L 6.1874415,5.6006669 V 5.5998382 L 5.5617237,4.9749491 3.1823386,2.5963928 a 0.41438264,0.41438264 0 0 0 -0.5859371,0 m 4.4115176,4.9974546 1.952571,1.9533998 A 1.3815517,1.3815517 0 0 1 7.0070903,7.5938474 m 0.9928608,-3.184945 c -0.5527864,0 -1.0889975,0.081219 -1.5962018,0.2345406 L 7.0874805,5.3263456 A 4.6982704,4.6982704 0 0 1 12.557332,8.7914132 0.41438264,0.41438264 0 0 0 13.361234,8.5908521 5.5270357,5.5270357 0 0 0 7.9999511,4.4089024 M 8.1076906,6.3482131 10.207782,8.4474756 A 2.2111457,2.2111457 0 0 0 8.1076907,6.3473844"
     id="path2"
     style="stroke-width:0.828765"
     inkscape:export-filename="/home/sergey/projects/characters/assets/icons/path2.png"
     inkscape:export-xdpi="3.75"
     inkscape:export-ydpi="3.75" />
</svg>
