<?xml version="1.0" standalone="no"?><!DOCTYPE svg PUBLIC "-//W3C//DTD SVG 1.1//EN" "http://www.w3.org/Graphics/SVG/1.1/DTD/svg11.dtd" ><svg xmlns="http://www.w3.org/2000/svg"><metadata></metadata><defs>
<font id="Roboto-Bold" >
<font-face font-family="Roboto" font-stretch="normal" units-per-em="2048" weight="700" panose-1="2,0,0,0,0,0,0,0,0,0" ascent="1900" descent="-500" x-height="1082" underline-thickness="100" underline-position="-250" unicode-range="U+00000000-00065533" bbox="-1488,-555,2439,2163" />
<missing-glyph horiz-adv-x="908" d="M808 0L100 0L100 1456L808 1456ZM754 84L754 1371L480 728ZM154 1359L154 96L422 728ZM194 54L709 54L451 660ZM451 796L709 1402L194 1402Z" />
<glyph glyph-name="space" unicode="&#x20;" horiz-adv-x="510" d="" />
<glyph glyph-name="exclam" unicode="&#x21;" horiz-adv-x="557" d="M405 447L165 447L131 1456L439 1456ZM285 289Q358 289 402.5 246Q447 203 447 136Q447 70 402.5 27Q358 -16 285 -16Q213 -16 168.5 27Q124 70 124 136Q124 202 168.5 245.5Q213 289 285 289Z" />
<glyph glyph-name="quotedbl" unicode="&#x22;" horiz-adv-x="657" d="M266 1398L226 987L64 987L64 1536L266 1536ZM591 1398L552 987L390 987L390 1536L591 1536Z" />
<glyph glyph-name="numbersign" unicode="&#x23;" horiz-adv-x="1220" d="M667 410L474 410L402 0L219 0L291 410L64 410L64 582L321 582L371 866L139 866L139 1040L402 1040L475 1456L657 1456L584 1040L778 1040L851 1456L1034 1456L961 1040L1180 1040L1180 866L930 866L880 582L1104 582L1104 410L850 410L778 0L595 0ZM504 582L697 582L747 866L553 866Z" />
<glyph glyph-name="dollar" unicode="&#x24;" horiz-adv-x="1175" d="M790 383Q790 465 744.5 513.5Q699 562 590 603Q481 644 402 684.5Q323 725 266.5 777.5Q210 830 178.5 901Q147 972 147 1070Q147 1239 255 1347Q363 1455 542 1473L542 1687L702 1687L702 1470Q879 1445 979 1322.5Q1079 1200 1079 1005L790 1005Q790 1125 740.5 1184.5Q691 1244 608 1244Q526 1244 481 1197.5Q436 1151 436 1069Q436 993 480 947Q524 901 643.5 853Q763 805 840 762.5Q917 720 970 666.5Q1023 613 1051 544.5Q1079 476 1079 385Q1079 215 973 109Q867 3 681 -16L681 -215L522 -215L522 -17Q317 5 204.5 128.5Q92 252 92 457L381 457Q381 338 437.5 274.5Q494 211 600 211Q688 211 739 257.5Q790 304 790 383Z" />
<glyph glyph-name="percent" unicode="&#x25;" horiz-adv-x="1512" d="M95 1176Q95 1310 182 1393.5Q269 1477 410 1477Q553 1477 640 1394.5Q727 1312 727 1171L727 1099Q727 964 640 882Q553 800 412 800Q270 800 182.5 882.5Q95 965 95 1105ZM287 1099Q287 1039 321.5 1002.5Q356 966 412 966Q468 966 501 1003Q534 1040 534 1102L534 1176Q534 1236 501 1273Q468 1310 410 1310Q355 1310 321 1273.5Q287 1237 287 1172ZM791 357Q791 492 879 574.5Q967 657 1107 657Q1249 657 1336.5 575.5Q1424 494 1424 351L1424 279Q1424 145 1338 62.5Q1252 -20 1109 -20Q965 -20 878 63Q791 146 791 283ZM983 279Q983 224 1019 185Q1055 146 1109 146Q1231 146 1231 281L1231 357Q1231 417 1197 453.5Q1163 490 1107 490Q1051 490 1017 453.5Q983 417 983 354ZM469 109L328 185L1039 1323L1180 1247Z" />
<glyph glyph-name="ampersand" unicode="&#x26;" horiz-adv-x="1344" d="M71 392Q71 493 127.5 579Q184 665 335 770Q270 857 233 933.5Q196 1010 196 1093Q196 1263 303.5 1369.5Q411 1476 593 1476Q756 1476 860.5 1379Q965 1282 965 1137Q965 963 789 830L677 749L928 457Q987 573 987 713L1233 713Q1233 429 1102 253L1320 0L992 0L917 86Q756 -20 547 -20Q331 -20 201 93.5Q71 207 71 392ZM561 212Q665 212 758 270L471 602L450 587Q361 511 361 408Q361 321 416.5 266.5Q472 212 561 212ZM455 1097Q455 1022 543 908L620 959Q679 997 701.5 1033Q724 1069 724 1119Q724 1169 687 1206Q650 1243 592 1243Q530 1243 492.5 1203Q455 1163 455 1097Z" />
<glyph glyph-name="quotesingle" unicode="&#x27;" horiz-adv-x="331" d="M275 1389L246 985L63 985L63 1536L275 1536Z" />
<glyph glyph-name="parenleft" unicode="&#x28;" horiz-adv-x="719" d="M124 592Q124 821 185 1028Q246 1235 365 1394.5Q484 1554 623 1616L679 1460Q533 1352 451 1126Q369 900 369 598L369 567Q369 264 450 37Q531 -190 679 -302L623 -455Q487 -394 369.5 -239.5Q252 -85 190 117Q128 319 124 539Z" />
<glyph glyph-name="parenright" unicode="&#x29;" horiz-adv-x="722" d="M609 569Q609 343 544 134Q479 -75 357 -235Q235 -395 96 -455L40 -302Q182 -195 264 28Q346 251 349 541L349 594Q349 893 267.5 1121Q186 1349 40 1463L96 1616Q232 1557 352.5 1402Q473 1247 539.5 1041Q606 835 609 614Z" />
<glyph glyph-name="asterisk" unicode="&#x2a;" horiz-adv-x="928" d="M341 962L27 1051L86 1232L397 1107L377 1456L573 1456L553 1100L856 1223L915 1040L595 951L805 685L646 572L464 864L284 582L125 690Z" />
<glyph glyph-name="plus" unicode="&#x2b;" horiz-adv-x="1118" d="M694 815L1055 815L1055 554L694 554L694 146L419 146L419 554L57 554L57 815L419 815L419 1206L694 1206Z" />
<glyph glyph-name="comma" unicode="&#x2c;" horiz-adv-x="500" d="M186 -365L35 -286L71 -221Q138 -99 140 22L140 246L384 246L383 46Q382 -65 327 -178Q272 -291 186 -365Z" />
<glyph glyph-name="hyphen" unicode="&#x2d;" horiz-adv-x="794" d="M673 507L110 507L110 740L673 740Z" />
<glyph glyph-name="period" unicode="&#x2e;" horiz-adv-x="595" d="M126 142Q126 211 172.5 254Q219 297 289 297Q360 297 406.5 254Q453 211 453 142Q453 74 407 31.5Q361 -11 289 -11Q218 -11 172 31.5Q126 74 126 142Z" />
<glyph glyph-name="slash" unicode="&#x2f;" horiz-adv-x="765" d="M202 -125L-13 -125L523 1456L738 1456Z" />
<glyph glyph-name="zero" unicode="&#x30;" horiz-adv-x="1175" d="M1079 602Q1079 300 954 140Q829 -20 588 -20Q350 -20 224 137Q98 294 95 587L95 855Q95 1160 221.5 1318Q348 1476 586 1476Q824 1476 950 1319.5Q1076 1163 1079 870ZM790 896Q790 1077 740.5 1159.5Q691 1242 586 1242Q484 1242 435.5 1163.5Q387 1085 384 918L384 564Q384 386 432.5 299.5Q481 213 588 213Q694 213 741 296Q788 379 790 550Z" />
<glyph glyph-name="one" unicode="&#x31;" horiz-adv-x="1175" d="M801 0L512 0L512 1114L167 1007L167 1242L770 1458L801 1458Z" />
<glyph glyph-name="two" unicode="&#x32;" horiz-adv-x="1175" d="M1097 0L99 0L99 198L570 700Q667 806 713.5 885Q760 964 760 1035Q760 1132 711 1187.5Q662 1243 571 1243Q473 1243 416.5 1175.5Q360 1108 360 998L70 998Q70 1131 133.5 1241Q197 1351 313 1413.5Q429 1476 576 1476Q801 1476 925.5 1368Q1050 1260 1050 1063Q1050 955 994 843Q938 731 802 582L471 233L1097 233Z" />
<glyph glyph-name="three" unicode="&#x33;" horiz-adv-x="1175" d="M393 856L547 856Q657 856 710 911Q763 966 763 1057Q763 1145 710.5 1194Q658 1243 566 1243Q483 1243 427 1197.5Q371 1152 371 1079L82 1079Q82 1193 143.5 1283.5Q205 1374 315.5 1425Q426 1476 559 1476Q790 1476 921 1365.5Q1052 1255 1052 1061Q1052 961 991 877Q930 793 831 748Q954 704 1014.5 616Q1075 528 1075 408Q1075 214 933.5 97Q792 -20 559 -20Q341 -20 202.5 95Q64 210 64 399L353 399Q353 317 414.5 265Q476 213 566 213Q669 213 727.5 267.5Q786 322 786 412Q786 630 546 630L393 630Z" />
<glyph glyph-name="four" unicode="&#x34;" horiz-adv-x="1175" d="M954 548L1119 548L1119 315L954 315L954 0L665 0L665 315L68 315L55 497L662 1456L954 1456ZM343 548L665 548L665 1062L646 1029Z" />
<glyph glyph-name="five" unicode="&#x35;" horiz-adv-x="1175" d="M142 716L226 1456L1042 1456L1042 1215L463 1215L427 902Q530 957 646 957Q854 957 972 828Q1090 699 1090 467Q1090 326 1030.5 214.5Q971 103 860 41.5Q749 -20 598 -20Q466 -20 353 33.5Q240 87 174.5 184Q109 281 105 405L391 405Q400 314 454.5 263.5Q509 213 597 213Q695 213 748 283.5Q801 354 801 483Q801 607 740 673Q679 739 567 739Q464 739 400 685L372 659Z" />
<glyph glyph-name="six" unicode="&#x36;" horiz-adv-x="1175" d="M883 1471L883 1233L855 1233Q659 1230 539.5 1131Q420 1032 396 856Q512 974 689 974Q879 974 991 838Q1103 702 1103 480Q1103 338 1041.5 223Q980 108 867.5 44Q755 -20 613 -20Q383 -20 241.5 140Q100 300 100 567L100 671Q100 908 189.5 1089.5Q279 1271 446.5 1370.5Q614 1470 835 1471ZM601 742Q531 742 474 705.5Q417 669 390 609L390 521Q390 376 447 294.5Q504 213 607 213Q700 213 757.5 286.5Q815 360 815 477Q815 596 757 669Q699 742 601 742Z" />
<glyph glyph-name="seven" unicode="&#x37;" horiz-adv-x="1175" d="M1089 1294L526 0L221 0L785 1222L61 1222L61 1456L1089 1456Z" />
<glyph glyph-name="eight" unicode="&#x38;" horiz-adv-x="1175" d="M1048 1069Q1048 963 995 881Q942 799 849 750Q955 699 1017 609.5Q1079 520 1079 399Q1079 205 947 92.5Q815 -20 588 -20Q361 -20 228 93Q95 206 95 399Q95 520 157 610Q219 700 324 750Q231 799 178.5 881Q126 963 126 1069Q126 1255 250 1365.5Q374 1476 587 1476Q799 1476 923.5 1366.5Q1048 1257 1048 1069ZM789 420Q789 515 734 572Q679 629 586 629Q494 629 439 572.5Q384 516 384 420Q384 327 438 270Q492 213 588 213Q682 213 735.5 268Q789 323 789 420ZM759 1055Q759 1140 714 1191.5Q669 1243 587 1243Q506 1243 461 1193Q416 1143 416 1055Q416 968 461 915Q506 862 588 862Q670 862 714.5 915Q759 968 759 1055Z" />
<glyph glyph-name="nine" unicode="&#x39;" horiz-adv-x="1175" d="M775 582Q662 471 511 471Q318 471 202 603.5Q86 736 86 961Q86 1104 148.5 1223.5Q211 1343 323 1409.5Q435 1476 575 1476Q719 1476 831 1404Q943 1332 1005 1197Q1067 1062 1068 888L1068 781Q1068 417 887 209Q706 1 374 -13L303 -14L303 227L367 228Q744 245 775 582ZM582 692Q652 692 702.5 728Q753 764 779 815L779 934Q779 1081 723 1162Q667 1243 573 1243Q486 1243 430 1163.5Q374 1084 374 964Q374 845 428.5 768.5Q483 692 582 692Z" />
<glyph glyph-name="colon" unicode="&#x3a;" horiz-adv-x="578" d="M125 142Q125 211 171.5 254Q218 297 288 297Q359 297 405.5 254Q452 211 452 142Q452 74 406 31.5Q360 -11 288 -11Q217 -11 171 31.5Q125 74 125 142ZM125 961Q125 1030 171.5 1073Q218 1116 288 1116Q359 1116 405.5 1073Q452 1030 452 961Q452 893 406 850.5Q360 808 288 808Q217 808 171 850.5Q125 893 125 961Z" />
<glyph glyph-name="semicolon" unicode="&#x3b;" horiz-adv-x="537" d="M108 961Q108 1030 154.5 1073Q201 1116 271 1116Q342 1116 388.5 1073Q435 1030 435 961Q435 893 389 850.5Q343 808 271 808Q200 808 154 850.5Q108 893 108 961ZM208 -365L57 -286L93 -221Q160 -99 162 22L162 246L406 246L405 46Q404 -65 349 -178Q294 -291 208 -365Z" />
<glyph glyph-name="less" unicode="&#x3c;" horiz-adv-x="1042" d="M345 618L915 417L915 137L54 502L54 738L915 1103L915 823Z" />
<glyph glyph-name="equal" unicode="&#x3d;" horiz-adv-x="1172" d="M1030 746L136 746L136 982L1030 982ZM1030 313L136 313L136 549L1030 549Z" />
<glyph glyph-name="greater" unicode="&#x3e;" horiz-adv-x="1058" d="M701 621L120 824L120 1102L991 737L991 502L120 136L120 415Z" />
<glyph glyph-name="question" unicode="&#x3f;" horiz-adv-x="1019" d="M347 447Q347 587 381 670Q415 753 505.5 833.5Q596 914 626 964.5Q656 1015 656 1071Q656 1240 500 1240Q426 1240 381.5 1194.5Q337 1149 335 1069L45 1069Q47 1260 168.5 1368Q290 1476 500 1476Q712 1476 829 1373.5Q946 1271 946 1084Q946 999 908 923.5Q870 848 775 756L694 679Q618 606 607 508L603 447ZM318 140Q318 207 363.5 250.5Q409 294 480 294Q551 294 596.5 250.5Q642 207 642 140Q642 74 597.5 31Q553 -12 480 -12Q407 -12 362.5 31Q318 74 318 140Z" />
<glyph glyph-name="at" unicode="&#x40;" horiz-adv-x="1833" d="M1749 536Q1738 280 1622.5 129.5Q1507 -21 1312 -21Q1226 -21 1163.5 16Q1101 53 1069 122Q969 -18 808 -18Q662 -18 582 105Q502 228 522 430Q540 595 605.5 723.5Q671 852 771 921Q871 990 987 990Q1130 990 1231 924L1294 881L1243 303Q1233 224 1260.5 182Q1288 140 1348 140Q1440 140 1502 247.5Q1564 355 1570 529Q1587 878 1429.5 1065.5Q1272 1253 963 1253Q770 1253 619 1155Q468 1057 381 876.5Q294 696 283 463Q267 109 425 -84.5Q583 -278 898 -278Q981 -278 1072 -259.5Q1163 -241 1229 -210L1267 -364Q1206 -404 1102.5 -428.5Q999 -453 894 -453Q630 -453 444 -346.5Q258 -240 166.5 -32.5Q75 175 87 463Q99 739 213 958Q327 1177 523.5 1296.5Q720 1416 967 1416Q1218 1416 1399 1308.5Q1580 1201 1670 1001Q1760 801 1749 536ZM744 430Q733 298 767 229.5Q801 161 877 161Q926 161 970 204Q1014 247 1043 328L1085 801Q1046 814 1005 814Q890 814 826.5 716Q763 618 744 430Z" />
<glyph glyph-name="A" unicode="&#x41;" horiz-adv-x="1378" d="M952 300L426 300L326 0L7 0L549 1456L827 1456L1372 0L1053 0ZM507 543L871 543L688 1088Z" />
<glyph glyph-name="B" unicode="&#x42;" horiz-adv-x="1307" d="M130 0L130 1456L640 1456Q905 1456 1042 1354.5Q1179 1253 1179 1057Q1179 950 1124 868.5Q1069 787 971 749Q1083 721 1147.5 636Q1212 551 1212 428Q1212 218 1078 110Q944 2 696 0ZM430 634L430 241L687 241Q793 241 852.5 291.5Q912 342 912 431Q912 631 705 634ZM430 846L652 846Q879 850 879 1027Q879 1126 821.5 1169.5Q764 1213 640 1213L430 1213Z" />
<glyph glyph-name="C" unicode="&#x43;" horiz-adv-x="1340" d="M1273 485Q1256 250 1099.5 115Q943 -20 687 -20Q407 -20 246.5 168.5Q86 357 86 686L86 775Q86 985 160 1145Q234 1305 371.5 1390.5Q509 1476 691 1476Q943 1476 1097 1341Q1251 1206 1275 962L975 962Q964 1103 896.5 1166.5Q829 1230 691 1230Q541 1230 466.5 1122.5Q392 1015 390 789L390 679Q390 443 461.5 334Q533 225 687 225Q826 225 894.5 288.5Q963 352 973 485Z" />
<glyph glyph-name="D" unicode="&#x44;" horiz-adv-x="1331" d="M130 0L130 1456L578 1456Q770 1456 921.5 1369.5Q1073 1283 1158 1123.5Q1243 964 1243 761L1243 694Q1243 491 1159.5 333Q1076 175 924 88Q772 1 581 0ZM430 1213L430 241L575 241Q751 241 844 356Q937 471 939 685L939 762Q939 984 847 1098.5Q755 1213 578 1213Z" />
<glyph glyph-name="E" unicode="&#x45;" horiz-adv-x="1152" d="M1006 631L430 631L430 241L1106 241L1106 0L130 0L130 1456L1104 1456L1104 1213L430 1213L430 866L1006 866Z" />
<glyph glyph-name="F" unicode="&#x46;" horiz-adv-x="1122" d="M1006 595L430 595L430 0L130 0L130 1456L1078 1456L1078 1213L430 1213L430 837L1006 837Z" />
<glyph glyph-name="G" unicode="&#x47;" horiz-adv-x="1395" d="M1282 184Q1201 87 1053 33.5Q905 -20 725 -20Q536 -20 393.5 62.5Q251 145 173.5 302Q96 459 94 671L94 770Q94 988 167.5 1147.5Q241 1307 379.5 1391.5Q518 1476 704 1476Q963 1476 1109 1352.5Q1255 1229 1282 993L990 993Q970 1118 901.5 1176Q833 1234 713 1234Q560 1234 480 1119Q400 1004 399 777L399 684Q399 455 486 338Q573 221 741 221Q910 221 982 293L982 544L709 544L709 765L1282 765Z" />
<glyph glyph-name="H" unicode="&#x48;" horiz-adv-x="1447" d="M1315 0L1015 0L1015 624L430 624L430 0L130 0L130 1456L430 1456L430 866L1015 866L1015 1456L1315 1456Z" />
<glyph glyph-name="I" unicode="&#x49;" horiz-adv-x="597" d="M449 0L149 0L149 1456L449 1456Z" />
<glyph glyph-name="J" unicode="&#x4a;" horiz-adv-x="1144" d="M717 1456L1017 1456L1017 448Q1017 309 955.5 202.5Q894 96 782 38Q670 -20 529 -20Q298 -20 169 97.5Q40 215 40 430L342 430Q342 323 387 272Q432 221 529 221Q615 221 666 280Q717 339 717 448Z" />
<glyph glyph-name="K" unicode="&#x4b;" horiz-adv-x="1300" d="M586 584L430 416L430 0L130 0L130 1456L430 1456L430 796L562 977L933 1456L1302 1456L785 809L1317 0L960 0Z" />
<glyph glyph-name="L" unicode="&#x4c;" horiz-adv-x="1109" d="M430 241L1067 241L1067 0L130 0L130 1456L430 1456Z" />
<glyph glyph-name="M" unicode="&#x4d;" horiz-adv-x="1794" d="M522 1456L896 400L1268 1456L1662 1456L1662 0L1361 0L1361 398L1391 1085L998 0L792 0L400 1084L430 398L430 0L130 0L130 1456Z" />
<glyph glyph-name="N" unicode="&#x4e;" horiz-adv-x="1446" d="M1314 0L1014 0L430 958L430 0L130 0L130 1456L430 1456L1015 496L1015 1456L1314 1456Z" />
<glyph glyph-name="O" unicode="&#x4f;" horiz-adv-x="1414" d="M1326 695Q1326 480 1250 318Q1174 156 1032.5 68Q891 -20 708 -20Q527 -20 385 67Q243 154 165 315.5Q87 477 86 687L86 759Q86 974 163.5 1137.5Q241 1301 382.5 1388.5Q524 1476 706 1476Q888 1476 1029.5 1388.5Q1171 1301 1248.5 1137.5Q1326 974 1326 760ZM1022 761Q1022 990 940 1109Q858 1228 706 1228Q555 1228 473 1110.5Q391 993 390 766L390 695Q390 472 472 349Q554 226 708 226Q859 226 940 344.5Q1021 463 1022 690Z" />
<glyph glyph-name="P" unicode="&#x50;" horiz-adv-x="1321" d="M430 513L430 0L130 0L130 1456L698 1456Q862 1456 986.5 1396Q1111 1336 1178 1225.5Q1245 1115 1245 974Q1245 760 1098.5 636.5Q952 513 693 513ZM430 756L698 756Q817 756 879.5 812Q942 868 942 972Q942 1079 879 1145Q816 1211 705 1213L430 1213Z" />
<glyph glyph-name="Q" unicode="&#x51;" horiz-adv-x="1414" d="M1324 695Q1324 491 1258 340.5Q1192 190 1075 99L1317 -91L1126 -260L816 -11Q763 -20 706 -20Q525 -20 383 67Q241 154 163 315.5Q85 477 84 687L84 759Q84 974 161.5 1137.5Q239 1301 380.5 1388.5Q522 1476 704 1476Q886 1476 1027.5 1388.5Q1169 1301 1246.5 1137.5Q1324 974 1324 760ZM1020 761Q1020 990 938 1109Q856 1228 704 1228Q553 1228 471 1110.5Q389 993 388 766L388 695Q388 472 470 349Q552 226 706 226Q857 226 938 344.5Q1019 463 1020 690Z" />
<glyph glyph-name="R" unicode="&#x52;" horiz-adv-x="1307" d="M669 533L430 533L430 0L130 0L130 1456L671 1456Q929 1456 1069 1341Q1209 1226 1209 1016Q1209 867 1144.5 767.5Q1080 668 949 609L1264 14L1264 0L942 0ZM430 776L672 776Q785 776 847 833.5Q909 891 909 992Q909 1095 850.5 1154Q792 1213 671 1213L430 1213Z" />
<glyph glyph-name="S" unicode="&#x53;" horiz-adv-x="1259" d="M885 382Q885 467 825 512.5Q765 558 609 608.5Q453 659 362 708Q114 842 114 1069Q114 1187 180.5 1279.5Q247 1372 371.5 1424Q496 1476 651 1476Q807 1476 929 1419.5Q1051 1363 1118.5 1260Q1186 1157 1186 1026L886 1026Q886 1126 823 1181.5Q760 1237 646 1237Q536 1237 475 1190.5Q414 1144 414 1068Q414 997 485.5 949Q557 901 696 859Q952 782 1069 668Q1186 554 1186 384Q1186 195 1043 87.5Q900 -20 658 -20Q490 -20 352 41.5Q214 103 141.5 210Q69 317 69 458L370 458Q370 217 658 217Q765 217 825 260.5Q885 304 885 382Z" />
<glyph glyph-name="T" unicode="&#x54;" horiz-adv-x="1267" d="M1226 1213L780 1213L780 0L480 0L480 1213L40 1213L40 1456L1226 1456Z" />
<glyph glyph-name="U" unicode="&#x55;" horiz-adv-x="1348" d="M1232 1456L1232 497Q1232 258 1082.5 119Q933 -20 674 -20Q419 -20 269 115Q119 250 116 486L116 1456L416 1456L416 495Q416 352 484.5 286.5Q553 221 674 221Q927 221 931 487L931 1456Z" />
<glyph glyph-name="V" unicode="&#x56;" horiz-adv-x="1339" d="M668 361L998 1456L1332 1456L825 0L512 0L7 1456L340 1456Z" />
<glyph glyph-name="W" unicode="&#x57;" horiz-adv-x="1791" d="M1264 420L1460 1456L1759 1456L1436 0L1134 0L897 974L660 0L358 0L35 1456L334 1456L531 422L771 1456L1025 1456Z" />
<glyph glyph-name="X" unicode="&#x58;" horiz-adv-x="1301" d="M651 954L924 1456L1269 1456L845 734L1280 0L931 0L651 510L371 0L22 0L457 734L33 1456L378 1456Z" />
<glyph glyph-name="Y" unicode="&#x59;" horiz-adv-x="1266" d="M632 800L935 1456L1263 1456L785 528L785 0L480 0L480 528L2 1456L331 1456Z" />
<glyph glyph-name="Z" unicode="&#x5a;" horiz-adv-x="1241" d="M448 241L1182 241L1182 0L73 0L73 176L793 1213L74 1213L74 1456L1166 1456L1166 1284Z" />
<glyph glyph-name="bracketleft" unicode="&#x5b;" horiz-adv-x="569" d="M552 1471L410 1471L410 -116L552 -116L552 -339L120 -339L120 1694L552 1694Z" />
<glyph glyph-name="backslash" unicode="&#x5c;" horiz-adv-x="864" d="M0 1456L295 1456L903 -125L607 -125Z" />
<glyph glyph-name="bracketright" unicode="&#x5d;" horiz-adv-x="569" d="M13 1694L445 1694L445 -339L13 -339L13 -116L156 -116L156 1471L13 1471Z" />
<glyph glyph-name="asciicircum" unicode="&#x5e;" horiz-adv-x="895" d="M448 1186L274 729L44 729L343 1456L553 1456L852 729L623 729Z" />
<glyph glyph-name="underscore" unicode="&#x5f;" horiz-adv-x="914" d="M912 -226L1 -226L1 0L912 0Z" />
<glyph glyph-name="grave" unicode="&#x60;" horiz-adv-x="677" d="M565 1226L328 1226L52 1536L367 1536Z" />
<glyph glyph-name="a" unicode="&#x61;" horiz-adv-x="1098" d="M738 0Q718 39 709 97Q604 -20 436 -20Q277 -20 172.5 72Q68 164 68 304Q68 476 195.5 568Q323 660 564 661L697 661L697 723Q697 798 658.5 843Q620 888 537 888Q464 888 422.5 853Q381 818 381 757L92 757Q92 851 150 931Q208 1011 314 1056.5Q420 1102 552 1102Q752 1102 869.5 1001.5Q987 901 987 719L987 250Q988 96 1030 17L1030 0ZM499 201Q563 201 617 229.5Q671 258 697 306L697 492L589 492Q372 492 358 342L357 325Q357 271 395 236Q433 201 499 201Z" />
<glyph glyph-name="b" unicode="&#x62;" horiz-adv-x="1153" d="M1086 531Q1086 271 975 125.5Q864 -20 665 -20Q489 -20 384 115L371 0L111 0L111 1536L400 1536L400 985Q500 1102 663 1102Q861 1102 973.5 956.5Q1086 811 1086 547ZM797 552Q797 716 745 791.5Q693 867 590 867Q452 867 400 754L400 327Q453 213 592 213Q732 213 776 351Q797 417 797 552Z" />
<glyph glyph-name="c" unicode="&#x63;" horiz-adv-x="1068" d="M561 213Q641 213 691 257Q741 301 743 374L1014 374Q1013 264 954 172.5Q895 81 792.5 30.5Q690 -20 566 -20Q334 -20 200 127.5Q66 275 66 535L66 554Q66 804 199 953Q332 1102 564 1102Q767 1102 889.5 986.5Q1012 871 1014 679L743 679Q741 763 691 815.5Q641 868 559 868Q458 868 406.5 794.5Q355 721 355 556L355 526Q355 359 406 286Q457 213 561 213Z" />
<glyph glyph-name="d" unicode="&#x64;" horiz-adv-x="1154" d="M66 549Q66 802 179.5 952Q293 1102 490 1102Q648 1102 751 984L751 1536L1041 1536L1041 0L780 0L766 115Q658 -20 488 -20Q297 -20 181.5 130.5Q66 281 66 549ZM355 528Q355 376 408 295Q461 214 562 214Q696 214 751 327L751 754Q697 867 564 867Q355 867 355 528Z" />
<glyph glyph-name="e" unicode="&#x65;" horiz-adv-x="1107" d="M609 -20Q371 -20 221.5 126Q72 272 72 515L72 543Q72 706 135 834.5Q198 963 313.5 1032.5Q429 1102 577 1102Q799 1102 926.5 962Q1054 822 1054 565L1054 447L365 447Q379 341 449.5 277Q520 213 628 213Q795 213 889 334L1031 175Q966 83 855 31.5Q744 -20 609 -20ZM576 868Q490 868 436.5 810Q383 752 368 644L770 644L770 667Q768 763 718 815.5Q668 868 576 868Z" />
<glyph glyph-name="f" unicode="&#x66;" horiz-adv-x="734" d="M190 0L190 870L29 870L29 1082L190 1082L190 1174Q190 1356 294.5 1456.5Q399 1557 587 1557Q647 1557 734 1537L731 1313Q695 1322 643 1322Q480 1322 480 1169L480 1082L695 1082L695 870L480 870L480 0Z" />
<glyph glyph-name="g" unicode="&#x67;" horiz-adv-x="1169" d="M69 549Q69 798 187.5 950Q306 1102 507 1102Q685 1102 784 980L796 1082L1058 1082L1058 36Q1058 -106 993.5 -211Q929 -316 812 -371Q695 -426 538 -426Q419 -426 306 -378.5Q193 -331 135 -256L263 -80Q371 -201 525 -201Q640 -201 704 -139.5Q768 -78 768 35L768 93Q668 -20 505 -20Q310 -20 189.5 132.5Q69 285 69 537ZM358 528Q358 381 417 297.5Q476 214 579 214Q711 214 768 313L768 768Q710 867 581 867Q477 867 417.5 782Q358 697 358 528Z" />
<glyph glyph-name="h" unicode="&#x68;" horiz-adv-x="1146" d="M393 964Q508 1102 682 1102Q1034 1102 1039 693L1039 0L750 0L750 685Q750 778 710 822.5Q670 867 577 867Q450 867 393 769L393 0L104 0L104 1536L393 1536Z" />
<glyph glyph-name="i" unicode="&#x69;" horiz-adv-x="543" d="M416 0L126 0L126 1082L416 1082ZM109 1362Q109 1427 152.5 1469Q196 1511 271 1511Q345 1511 389 1469Q433 1427 433 1362Q433 1296 388.5 1254Q344 1212 271 1212Q198 1212 153.5 1254Q109 1296 109 1362Z" />
<glyph glyph-name="j" unicode="&#x6a;" horiz-adv-x="532" d="M417 1082L417 -59Q417 -238 322 -337.5Q227 -437 48 -437Q-27 -437 -95 -420L-95 -191Q-43 -200 -4 -200Q127 -200 127 -61L127 1082ZM104 1362Q104 1427 147.5 1469Q191 1511 266 1511Q341 1511 384.5 1469Q428 1427 428 1362Q428 1296 383.5 1254Q339 1212 266 1212Q193 1212 148.5 1254Q104 1296 104 1362Z" />
<glyph glyph-name="k" unicode="&#x6b;" horiz-adv-x="1094" d="M504 434L400 330L400 0L111 0L111 1536L400 1536L400 685L456 757L733 1082L1080 1082L689 631L1114 0L782 0Z" />
<glyph glyph-name="l" unicode="&#x6c;" horiz-adv-x="543" d="M416 0L126 0L126 1536L416 1536Z" />
<glyph glyph-name="m" unicode="&#x6d;" horiz-adv-x="1773" d="M382 1082L391 961Q506 1102 702 1102Q911 1102 989 937Q1103 1102 1314 1102Q1490 1102 1576 999.5Q1662 897 1662 691L1662 0L1372 0L1372 690Q1372 782 1336 824.5Q1300 867 1209 867Q1079 867 1029 743L1030 0L741 0L741 689Q741 783 704 825Q667 867 578 867Q455 867 400 765L400 0L111 0L111 1082Z" />
<glyph glyph-name="n" unicode="&#x6e;" horiz-adv-x="1147" d="M377 1082L386 957Q502 1102 697 1102Q869 1102 953 1001Q1037 900 1039 699L1039 0L750 0L750 692Q750 784 710 825.5Q670 867 577 867Q455 867 394 763L394 0L105 0L105 1082Z" />
<glyph glyph-name="o" unicode="&#x6f;" horiz-adv-x="1158" d="M66 551Q66 712 128 838Q190 964 306.5 1033Q423 1102 577 1102Q796 1102 934.5 968Q1073 834 1089 604L1091 530Q1091 281 952 130.5Q813 -20 579 -20Q345 -20 205.5 130Q66 280 66 538ZM355 530Q355 376 413 294.5Q471 213 579 213Q684 213 743 293.5Q802 374 802 551Q802 702 743 785Q684 868 577 868Q471 868 413 785.5Q355 703 355 530Z" />
<glyph glyph-name="p" unicode="&#x70;" horiz-adv-x="1153" d="M1085 531Q1085 281 971.5 130.5Q858 -20 665 -20Q501 -20 400 94L400 -416L111 -416L111 1082L379 1082L389 976Q494 1102 663 1102Q863 1102 974 954Q1085 806 1085 546ZM796 552Q796 703 742.5 785Q689 867 587 867Q451 867 400 763L400 320Q453 213 589 213Q796 213 796 552Z" />
<glyph glyph-name="q" unicode="&#x71;" horiz-adv-x="1157" d="M66 551Q66 806 179.5 954Q293 1102 491 1102Q665 1102 768 969L787 1082L1041 1082L1041 -416L751 -416L751 93Q651 -20 489 -20Q296 -20 181 130Q66 280 66 551ZM355 530Q355 375 409.5 294Q464 213 563 213Q696 213 751 319L751 766Q697 868 565 868Q465 868 410 787Q355 706 355 530Z" />
<glyph glyph-name="r" unicode="&#x72;" horiz-adv-x="747" d="M719 811Q660 819 615 819Q451 819 400 708L400 0L111 0L111 1082L384 1082L392 953Q479 1102 633 1102Q681 1102 723 1089Z" />
<glyph glyph-name="s" unicode="&#x73;" horiz-adv-x="1053" d="M697 299Q697 352 644.5 382.5Q592 413 476 437Q90 518 90 765Q90 909 209.5 1005.5Q329 1102 522 1102Q728 1102 851.5 1005Q975 908 975 753L686 753Q686 815 646 855.5Q606 896 521 896Q448 896 408 863Q368 830 368 779Q368 731 413.5 701.5Q459 672 567 650.5Q675 629 749 602Q978 518 978 311Q978 163 851 71.5Q724 -20 523 -20Q387 -20 281.5 28.5Q176 77 116 161.5Q56 246 56 344L330 344Q334 267 387 226Q440 185 529 185Q612 185 654.5 216.5Q697 248 697 299Z" />
<glyph glyph-name="t" unicode="&#x74;" horiz-adv-x="692" d="M457 1348L457 1082L642 1082L642 870L457 870L457 330Q457 270 480 244Q503 218 568 218Q616 218 653 225L653 6Q568 -20 478 -20Q174 -20 168 287L168 870L10 870L10 1082L168 1082L168 1348Z" />
<glyph glyph-name="u" unicode="&#x75;" horiz-adv-x="1146" d="M759 110Q652 -20 463 -20Q289 -20 197.5 80Q106 180 104 373L104 1082L393 1082L393 383Q393 214 547 214Q694 214 749 316L749 1082L1039 1082L1039 0L767 0Z" />
<glyph glyph-name="v" unicode="&#x76;" horiz-adv-x="1035" d="M516 353L717 1082L1019 1082L654 0L378 0L13 1082L315 1082Z" />
<glyph glyph-name="w" unicode="&#x77;" horiz-adv-x="1505" d="M1052 393L1194 1082L1473 1082L1197 0L955 0L750 681L545 0L304 0L28 1082L307 1082L448 394L646 1082L855 1082Z" />
<glyph glyph-name="x" unicode="&#x78;" horiz-adv-x="1042" d="M523 759L705 1082L1014 1082L706 552L1027 0L717 0L524 340L332 0L21 0L342 552L35 1082L345 1082Z" />
<glyph glyph-name="y" unicode="&#x79;" horiz-adv-x="1028" d="M515 409L715 1082L1025 1082L590 -168L566 -225Q469 -437 246 -437Q183 -437 118 -418L118 -199L162 -200Q244 -200 284.5 -175Q325 -150 348 -92L382 -3L3 1082L314 1082Z" />
<glyph glyph-name="z" unicode="&#x7a;" horiz-adv-x="1042" d="M443 233L972 233L972 0L74 0L74 176L583 848L89 848L89 1082L956 1082L956 911Z" />
<glyph glyph-name="braceleft" unicode="&#x7b;" horiz-adv-x="676" d="M586 -360Q226 -259 226 105L226 304Q226 515 48 515L48 722Q222 722 226 921L226 1133Q226 1318 316 1432Q406 1546 586 1597L642 1436Q566 1408 527 1338.5Q488 1269 486 1146L486 936Q486 710 307 619Q486 527 486 300L486 88Q491 -146 642 -198Z" />
<glyph glyph-name="bar" unicode="&#x7c;" horiz-adv-x="518" d="M348 -270L173 -270L173 1456L348 1456Z" />
<glyph glyph-name="braceright" unicode="&#x7d;" horiz-adv-x="676" d="M34 -198Q186 -144 190 92L190 304Q190 530 373 618Q190 706 190 937L190 1146Q186 1379 34 1436L90 1597Q269 1547 359 1433.5Q449 1320 450 1136L450 921Q454 722 628 722L628 515Q450 515 450 306L450 89Q442 -261 90 -360Z" />
<glyph glyph-name="asciitilde" unicode="&#x7e;" horiz-adv-x="1328" d="M1221 793Q1221 607 1128 491Q1035 375 888 375Q814 375 750.5 403.5Q687 432 604 511.5Q521 591 451 591Q393 591 357 541Q321 491 321 413L106 415Q106 601 196.5 714Q287 827 437 827Q515 827 579 797Q643 767 724.5 689.5Q806 612 873 612Q932 612 969.5 665Q1007 718 1007 794Z" />
<glyph glyph-name="uni00A0" unicode="&#xa0;" horiz-adv-x="510" d="" />
<glyph glyph-name="exclamdown" unicode="&#xa1;" horiz-adv-x="578" d="M170 639L411 639L444 -369L137 -369ZM452 948Q452 881 406 838Q360 795 290 795Q220 795 174 838Q128 881 128 948Q128 1015 172.5 1058Q217 1101 290 1101Q363 1101 407.5 1058Q452 1015 452 948Z" />
<glyph glyph-name="cent" unicode="&#xa2;" horiz-adv-x="1178" d="M594 213Q674 213 724 257Q774 301 776 374L1048 374Q1046 229 949.5 123.5Q853 18 698 -11L698 -245L498 -245L498 -12Q311 18 205 162Q99 306 99 532L99 554Q99 772 204 917Q309 1062 498 1094L498 1318L698 1318L698 1093Q861 1064 953.5 953Q1046 842 1048 679L776 679Q774 765 724 816.5Q674 868 593 868Q491 868 440 793.5Q389 719 388 559L388 526Q388 358 439.5 285.5Q491 213 594 213Z" />
<glyph glyph-name="sterling" unicode="&#xa3;" horiz-adv-x="1217" d="M564 576L570 437Q570 314 508 241L1161 241L1161 0L102 0L102 241L194 241Q266 259 266 420L261 576L99 576L99 812L253 812L246 1039Q246 1241 369.5 1358Q493 1475 700 1475Q912 1475 1033 1362.5Q1154 1250 1154 1058L867 1058Q867 1143 823.5 1188Q780 1233 699 1233Q633 1233 589.5 1184Q546 1135 546 1039L555 812L864 812L864 576Z" />
<glyph glyph-name="currency" unicode="&#xa4;" horiz-adv-x="1418" d="M1073 107Q914 -20 712 -20Q509 -20 351 106L222 -26L81 118L216 255Q116 411 116 608Q116 812 225 973L81 1120L222 1264L364 1119Q519 1234 712 1234Q906 1234 1061 1117L1205 1265L1347 1120L1199 969Q1306 810 1306 608Q1306 415 1208 259L1347 118L1205 -27ZM302 608Q302 490 356 388.5Q410 287 505.5 228.5Q601 170 712 170Q822 170 917.5 228.5Q1013 287 1067 388.5Q1121 490 1121 608Q1121 727 1067 827.5Q1013 928 918 986Q823 1044 712 1044Q600 1044 505 986Q410 928 356 827.5Q302 727 302 608Z" />
<glyph glyph-name="yen" unicode="&#xa5;" horiz-adv-x="1098" d="M550 892L774 1456L1087 1456L765 742L983 742L983 567L695 567L695 452L983 452L983 278L695 278L695 0L395 0L395 278L89 278L89 452L395 452L395 567L89 567L89 742L333 742L10 1456L325 1456Z" />
<glyph glyph-name="brokenbar" unicode="&#xa6;" horiz-adv-x="516" d="M128 -270L128 525L388 525L388 -270ZM388 698L128 698L128 1456L388 1456Z" />
<glyph glyph-name="section" unicode="&#xa7;" horiz-adv-x="1287" d="M1180 481Q1180 299 1018 210Q1153 108 1153 -78Q1153 -253 1015.5 -352.5Q878 -452 636 -452Q379 -452 235.5 -345Q92 -238 92 -35L381 -34Q381 -123 445 -170.5Q509 -218 636 -218Q748 -218 806 -180.5Q864 -143 864 -80Q864 -15 799.5 26Q735 67 552.5 117.5Q370 168 277.5 223Q185 278 139.5 353Q94 428 94 534Q94 714 256 807Q120 910 120 1095Q120 1266 260.5 1371Q401 1476 640 1476Q887 1476 1023 1363Q1159 1250 1159 1049L870 1049Q870 1136 808.5 1189.5Q747 1243 640 1243Q530 1243 470 1204Q410 1165 410 1097Q410 1024 465.5 987Q521 950 706 901Q891 852 988.5 797Q1086 742 1133 665.5Q1180 589 1180 481ZM458 704Q383 662 383 563Q383 494 424.5 456.5Q466 419 590 379L812 312Q894 359 894 452Q894 514 848.5 553.5Q803 593 685 633Z" />
<glyph glyph-name="dieresis" unicode="&#xa8;" horiz-adv-x="956" d="M371 1365Q371 1312 332 1275.5Q293 1239 232 1239Q170 1239 132 1276Q94 1313 94 1365Q94 1417 132 1454.5Q170 1492 232 1492Q294 1492 332.5 1454.5Q371 1417 371 1365ZM581 1365Q581 1419 621.5 1455.5Q662 1492 720 1492Q779 1492 818.5 1455Q858 1418 858 1365Q858 1313 820 1275.5Q782 1238 720 1238Q658 1238 619.5 1275.5Q581 1313 581 1365Z" />
<glyph glyph-name="copyright" unicode="&#xa9;" horiz-adv-x="1606" d="M1117 596Q1117 444 1029.5 363Q942 282 782 282Q622 282 527.5 388.5Q433 495 433 675L433 788Q433 962 528.5 1068.5Q624 1175 782 1175Q945 1175 1031.5 1092.5Q1118 1010 1118 861L962 861Q962 957 916 998.5Q870 1040 782 1040Q690 1040 639.5 972.5Q589 905 588 792L588 669Q588 552 639 484.5Q690 417 782 417Q871 417 916 457.5Q961 498 961 596ZM1383 729Q1383 895 1308 1037.5Q1233 1180 1096 1265.5Q959 1351 796 1351Q637 1351 500.5 1269Q364 1187 286 1043Q208 899 208 729Q208 559 285.5 415Q363 271 499.5 187.5Q636 104 796 104Q956 104 1093.5 189Q1231 274 1307 418Q1383 562 1383 729ZM86 729Q86 931 179.5 1104Q273 1277 438.5 1376.5Q604 1476 796 1476Q988 1476 1153.5 1376.5Q1319 1277 1412.5 1104Q1506 931 1506 729Q1506 525 1411 351.5Q1316 178 1151.5 79Q987 -20 796 -20Q603 -20 438.5 80Q274 180 180 353Q86 526 86 729Z" />
<glyph glyph-name="ordfeminine" unicode="&#xaa;" horiz-adv-x="909" d="M604 705Q594 732 587 773Q510 691 386 691Q268 691 202.5 752.5Q137 814 137 919Q137 1029 221 1089.5Q305 1150 478 1150L580 1150L580 1201Q580 1328 464 1328Q399 1328 362.5 1302.5Q326 1277 326 1229L153 1243Q153 1347 240.5 1411.5Q328 1476 464 1476Q599 1476 677 1404Q755 1332 755 1199L755 883Q755 786 781 705ZM429 835Q469 835 511 853.5Q553 872 580 897L580 1033L474 1033Q398 1032 355 1002Q312 972 312 923Q312 835 429 835Z" />
<glyph glyph-name="guillemotleft" unicode="&#xab;" horiz-adv-x="1023" d="M303 524L543 125L357 125L77 515L77 534L357 924L543 924ZM688 524L928 125L742 125L462 515L462 534L742 924L928 924Z" />
<glyph glyph-name="logicalnot" unicode="&#xac;" horiz-adv-x="1129" d="M961 374L761 374L761 634L126 634L126 805L961 805Z" />
<glyph glyph-name="uni00AD" unicode="&#xad;" horiz-adv-x="794" d="M673 507L110 507L110 740L673 740Z" />
<glyph glyph-name="registered" unicode="&#xae;" horiz-adv-x="1606" d="M86 729Q86 931 179.5 1104Q273 1277 438.5 1376.5Q604 1476 796 1476Q988 1476 1153.5 1376.5Q1319 1277 1412.5 1104Q1506 931 1506 729Q1506 525 1411 351.5Q1316 178 1151.5 79Q987 -20 796 -20Q603 -20 438.5 80Q274 180 180 353Q86 526 86 729ZM1383 729Q1383 895 1308 1037.5Q1233 1180 1096 1265.5Q959 1351 796 1351Q637 1351 500.5 1269Q364 1187 286 1043Q208 899 208 729Q208 559 285.5 415Q363 271 499.5 187.5Q636 104 796 104Q956 104 1093.5 189Q1231 274 1307 418Q1383 562 1383 729ZM652 653L652 316L501 316L501 1166L782 1166Q933 1166 1020 1097.5Q1107 1029 1107 903Q1107 791 994 729Q1055 698 1079.5 642.5Q1104 587 1104 505Q1104 423 1107.5 389Q1111 355 1121 332L1121 316L966 316Q953 350 953 510Q953 586 920 619.5Q887 653 810 653ZM652 787L788 787Q862 787 909.5 819Q957 851 957 903Q957 973 921.5 1002.5Q886 1032 793 1033L652 1033Z" />
<glyph glyph-name="macron" unicode="&#xaf;" horiz-adv-x="1026" d="M858 1287L168 1287L168 1454L858 1454Z" />
<glyph glyph-name="degree" unicode="&#xb0;" horiz-adv-x="795" d="M126 1200Q126 1314 207 1395Q288 1476 398 1476Q507 1476 586.5 1395.5Q666 1315 666 1200Q666 1085 586.5 1006.5Q507 928 398 928Q290 928 208 1006.5Q126 1085 126 1200ZM398 1076Q451 1076 485.5 1111.5Q520 1147 520 1200Q520 1252 485.5 1290Q451 1328 398 1328Q345 1328 309 1290Q273 1252 273 1200Q273 1148 309.5 1112Q346 1076 398 1076Z" />
<glyph glyph-name="plusminus" unicode="&#xb1;" horiz-adv-x="1100" d="M677 942L1005 942L1005 701L677 701L677 337L424 337L424 701L89 701L89 942L424 942L424 1285L677 1285ZM977 1L113 1L113 236L977 236Z" />
<glyph glyph-name="uni00B2" unicode="&#xb2;" horiz-adv-x="763" d="M693 667L73 667L73 805L360 1062Q416 1111 440.5 1153Q465 1195 465 1218Q465 1302 370 1302Q320 1302 290.5 1271Q261 1240 261 1193L55 1193Q55 1309 140.5 1388Q226 1467 361 1467Q509 1467 589.5 1402.5Q670 1338 670 1219Q670 1149 634 1091Q598 1033 490 946L342 831L693 831Z" />
<glyph glyph-name="uni00B3" unicode="&#xb3;" horiz-adv-x="763" d="M273 1137L355 1137Q474 1137 474 1225Q474 1260 445.5 1281Q417 1302 368 1302Q326 1302 296.5 1286.5Q267 1271 267 1242L62 1242Q62 1344 146.5 1405.5Q231 1467 362 1467Q507 1467 592.5 1407.5Q678 1348 678 1241Q678 1122 543 1072Q693 1031 693 888Q693 783 601.5 719.5Q510 656 362 656Q220 656 134 722.5Q48 789 48 903L254 903Q254 869 288 844.5Q322 820 374 820Q434 820 460.5 846.5Q487 873 487 908Q487 1000 365 1001L273 1001Z" />
<glyph glyph-name="acute" unicode="&#xb4;" horiz-adv-x="679" d="M298 1536L613 1536L336 1226L101 1226Z" />
<glyph glyph-name="mu" unicode="&#xb5;" horiz-adv-x="1261" d="M428 1082L428 459Q428 333 468.5 273.5Q509 214 608 214Q757 214 813 319L813 1082L1102 1082L1102 0L833 0L827 68Q738 -21 602 -21Q500 -21 428 24L428 -416L139 -416L139 1082Z" />
<glyph glyph-name="paragraph" unicode="&#xb6;" horiz-adv-x="1003" d="M650 0L650 520L570 520Q340 520 207.5 647Q75 774 75 988Q75 1201 208 1328.5Q341 1456 571 1456L869 1456L869 0Z" />
<glyph glyph-name="periodcentered" unicode="&#xb7;" horiz-adv-x="617" d="M140 697Q140 766 186 809Q232 852 303 852Q374 852 420.5 809Q467 766 467 697Q467 628 420 585.5Q373 543 303 543Q231 543 185.5 586.5Q140 630 140 697Z" />
<glyph glyph-name="cedilla" unicode="&#xb8;" horiz-adv-x="548" d="M345 7L334 -51Q484 -78 484 -224Q484 -334 392.5 -398Q301 -462 135 -462L128 -295Q240 -295 240 -214Q240 -172 206.5 -156.5Q173 -141 98 -136L129 7Z" />
<glyph glyph-name="uni00B9" unicode="&#xb9;" horiz-adv-x="763" d="M528 667L324 667L324 1215L135 1174L135 1332L509 1453L528 1453Z" />
<glyph glyph-name="ordmasculine" unicode="&#xba;" horiz-adv-x="936" d="M118 1121Q118 1281 213.5 1378.5Q309 1476 464 1476Q619 1476 715 1379Q811 1282 811 1116L811 1044Q811 885 717 787.5Q623 690 466 690Q308 690 213 788Q118 886 118 1049ZM293 1044Q293 946 339.5 891Q386 836 466 836Q544 836 589.5 890Q635 944 636 1041L636 1121Q636 1218 589.5 1273Q543 1328 464 1328Q386 1328 339.5 1273.5Q293 1219 293 1117Z" />
<glyph glyph-name="guillemotright" unicode="&#xbb;" horiz-adv-x="1023" d="M272 923L552 533L552 514L272 124L85 124L325 523L85 923ZM665 923L945 533L945 514L665 124L478 124L718 523L478 923Z" />
<glyph glyph-name="onequarter" unicode="&#xbc;" horiz-adv-x="1470" d="M494 664L290 664L290 1212L101 1171L101 1329L475 1450L494 1450ZM458 117L317 193L1028 1331L1169 1255ZM1302 326L1390 326L1390 159L1302 159L1302 0L1097 0L1097 159L751 159L739 294L1096 789L1302 789ZM935 326L1097 326L1097 538L1083 516Z" />
<glyph glyph-name="onehalf" unicode="&#xbd;" horiz-adv-x="1559" d="M416 117L275 193L986 1331L1127 1255ZM477 670L273 670L273 1218L84 1177L84 1335L458 1456L477 1456ZM1477 0L857 0L857 138L1144 395Q1200 444 1224.5 486Q1249 528 1249 551Q1249 635 1154 635Q1104 635 1074.5 604Q1045 573 1045 526L839 526Q839 642 924.5 721Q1010 800 1145 800Q1293 800 1373.5 735.5Q1454 671 1454 552Q1454 482 1418 424Q1382 366 1274 279L1126 164L1477 164Z" />
<glyph glyph-name="threequarters" unicode="&#xbe;" horiz-adv-x="1655" d="M619 117L478 193L1189 1331L1330 1255ZM1460 326L1548 326L1548 159L1460 159L1460 0L1255 0L1255 159L909 159L897 294L1254 789L1460 789ZM1093 326L1255 326L1255 538L1241 516ZM319 1137L401 1137Q520 1137 520 1225Q520 1260 491.5 1281Q463 1302 414 1302Q372 1302 342.5 1286.5Q313 1271 313 1242L108 1242Q108 1344 192.5 1405.5Q277 1467 408 1467Q553 1467 638.5 1407.5Q724 1348 724 1241Q724 1122 589 1072Q739 1031 739 888Q739 783 647.5 719.5Q556 656 408 656Q266 656 180 722.5Q94 789 94 903L300 903Q300 869 334 844.5Q368 820 420 820Q480 820 506.5 846.5Q533 873 533 908Q533 1000 411 1001L319 1001Z" />
<glyph glyph-name="questiondown" unicode="&#xbf;" horiz-adv-x="1019" d="M666 643Q666 510 635 428Q604 346 524.5 272Q445 198 416.5 162Q388 126 373.5 89Q359 52 359 8Q359 -149 513 -149Q590 -149 635.5 -104Q681 -59 683 22L972 22Q970 -170 849 -277.5Q728 -385 518 -385Q305 -385 187 -283.5Q69 -182 69 6Q69 165 222 318L319 411Q369 456 388.5 505Q408 554 410 643ZM702 949Q702 882 656 839Q610 796 540 796Q470 796 424 839Q378 882 378 949Q378 1016 422.5 1059Q467 1102 540 1102Q613 1102 657.5 1059Q702 1016 702 949Z" />
<glyph glyph-name="Agrave" unicode="&#xc0;" horiz-adv-x="1378" d="M952 300L426 300L326 0L7 0L549 1456L827 1456L1372 0L1053 0ZM507 543L871 543L688 1088ZM836 1536L599 1536L323 1846L638 1846Z" />
<glyph glyph-name="Aacute" unicode="&#xc1;" horiz-adv-x="1378" d="M952 300L426 300L326 0L7 0L549 1456L827 1456L1372 0L1053 0ZM507 543L871 543L688 1088ZM750 1846L1065 1846L788 1536L553 1536Z" />
<glyph glyph-name="Acircumflex" unicode="&#xc2;" horiz-adv-x="1378" d="M952 300L426 300L326 0L7 0L549 1456L827 1456L1372 0L1053 0ZM507 543L871 543L688 1088ZM1076 1566L1076 1554L846 1554L692 1699L538 1554L312 1554L312 1570L608 1846L776 1846Z" />
<glyph glyph-name="Atilde" unicode="&#xc3;" horiz-adv-x="1378" d="M952 300L426 300L326 0L7 0L549 1456L827 1456L1372 0L1053 0ZM507 543L871 543L688 1088ZM1068 1832Q1068 1719 1002 1642.5Q936 1566 841 1566Q803 1566 773.5 1574.5Q744 1583 692 1611Q640 1639 617 1645.5Q594 1652 567 1652Q532 1652 507.5 1627Q483 1602 483 1556L315 1566Q315 1677 380.5 1755Q446 1833 541 1833Q571 1833 597.5 1825.5Q624 1818 684 1789Q744 1760 767 1754Q790 1748 815 1748Q850 1748 875.5 1772.5Q901 1797 901 1843Z" />
<glyph glyph-name="Adieresis" unicode="&#xc4;" horiz-adv-x="1378" d="M952 300L426 300L326 0L7 0L549 1456L827 1456L1372 0L1053 0ZM507 543L871 543L688 1088ZM587 1675Q587 1622 548 1585.5Q509 1549 448 1549Q386 1549 348 1586Q310 1623 310 1675Q310 1727 348 1764.5Q386 1802 448 1802Q510 1802 548.5 1764.5Q587 1727 587 1675ZM797 1675Q797 1729 837.5 1765.5Q878 1802 936 1802Q995 1802 1034.5 1765Q1074 1728 1074 1675Q1074 1623 1036 1585.5Q998 1548 936 1548Q874 1548 835.5 1585.5Q797 1623 797 1675Z" />
<glyph glyph-name="Aring" unicode="&#xc5;" horiz-adv-x="1378" d="M952 300L426 300L326 0L7 0L549 1456L827 1456L1372 0L1053 0ZM507 543L871 543L688 1088ZM470 1730Q470 1816 535 1875.5Q600 1935 693 1935Q785 1935 850.5 1876.5Q916 1818 916 1730Q916 1645 852 1587Q788 1529 693 1529Q596 1529 533 1588Q470 1647 470 1730ZM585 1730Q585 1686 614 1654.5Q643 1623 693 1623Q743 1623 772 1654.5Q801 1686 801 1730Q801 1776 771.5 1807.5Q742 1839 693 1839Q644 1839 614.5 1807.5Q585 1776 585 1730Z" />
<glyph glyph-name="AE" unicode="&#xc6;" horiz-adv-x="1925" d="M1865 0L968 0L954 333L508 333L341 0L2 0L788 1456L1804 1456L1804 1220L1206 1220L1221 865L1723 865L1723 629L1231 629L1247 235L1865 235ZM633 580L944 580L920 1150Z" />
<glyph glyph-name="Ccedilla" unicode="&#xc7;" horiz-adv-x="1340" d="M1273 485Q1256 250 1099.5 115Q943 -20 687 -20Q407 -20 246.5 168.5Q86 357 86 686L86 775Q86 985 160 1145Q234 1305 371.5 1390.5Q509 1476 691 1476Q943 1476 1097 1341Q1251 1206 1275 962L975 962Q964 1103 896.5 1166.5Q829 1230 691 1230Q541 1230 466.5 1122.5Q392 1015 390 789L390 679Q390 443 461.5 334Q533 225 687 225Q826 225 894.5 288.5Q963 352 973 485ZM797 6L786 -52Q936 -79 936 -225Q936 -335 844.5 -399Q753 -463 587 -463L580 -296Q692 -296 692 -215Q692 -173 658.5 -157.5Q625 -142 550 -137L581 6Z" />
<glyph glyph-name="Egrave" unicode="&#xc8;" horiz-adv-x="1152" d="M1006 631L430 631L430 241L1106 241L1106 0L130 0L130 1456L1104 1456L1104 1213L430 1213L430 866L1006 866ZM779 1539L542 1539L266 1849L581 1849Z" />
<glyph glyph-name="Eacute" unicode="&#xc9;" horiz-adv-x="1152" d="M1006 631L430 631L430 241L1106 241L1106 0L130 0L130 1456L1104 1456L1104 1213L430 1213L430 866L1006 866ZM693 1849L1008 1849L731 1539L496 1539Z" />
<glyph glyph-name="Ecircumflex" unicode="&#xca;" horiz-adv-x="1152" d="M1006 631L430 631L430 241L1106 241L1106 0L130 0L130 1456L1104 1456L1104 1213L430 1213L430 866L1006 866ZM1019 1569L1019 1557L789 1557L635 1702L481 1557L255 1557L255 1573L551 1849L719 1849Z" />
<glyph glyph-name="Edieresis" unicode="&#xcb;" horiz-adv-x="1152" d="M1006 631L430 631L430 241L1106 241L1106 0L130 0L130 1456L1104 1456L1104 1213L430 1213L430 866L1006 866ZM530 1678Q530 1625 491 1588.5Q452 1552 391 1552Q329 1552 291 1589Q253 1626 253 1678Q253 1730 291 1767.5Q329 1805 391 1805Q453 1805 491.5 1767.5Q530 1730 530 1678ZM740 1678Q740 1732 780.5 1768.5Q821 1805 879 1805Q938 1805 977.5 1768Q1017 1731 1017 1678Q1017 1626 979 1588.5Q941 1551 879 1551Q817 1551 778.5 1588.5Q740 1626 740 1678Z" />
<glyph glyph-name="Igrave" unicode="&#xcc;" horiz-adv-x="597" d="M449 0L149 0L149 1456L449 1456ZM443 1539L206 1539L-70 1849L245 1849Z" />
<glyph glyph-name="Iacute" unicode="&#xcd;" horiz-adv-x="597" d="M449 0L149 0L149 1456L449 1456ZM356 1849L671 1849L394 1539L159 1539Z" />
<glyph glyph-name="Icircumflex" unicode="&#xce;" horiz-adv-x="597" d="M449 0L149 0L149 1456L449 1456ZM683 1569L683 1557L453 1557L299 1702L145 1557L-81 1557L-81 1573L215 1849L383 1849Z" />
<glyph glyph-name="Idieresis" unicode="&#xcf;" horiz-adv-x="597" d="M449 0L149 0L149 1456L449 1456ZM194 1678Q194 1625 155 1588.5Q116 1552 55 1552Q-7 1552 -45 1589Q-83 1626 -83 1678Q-83 1730 -45 1767.5Q-7 1805 55 1805Q117 1805 155.5 1767.5Q194 1730 194 1678ZM404 1678Q404 1732 444.5 1768.5Q485 1805 543 1805Q602 1805 641.5 1768Q681 1731 681 1678Q681 1626 643 1588.5Q605 1551 543 1551Q481 1551 442.5 1588.5Q404 1626 404 1678Z" />
<glyph glyph-name="Eth" unicode="&#xd0;" horiz-adv-x="1361" d="M160 0L160 642L-20 642L-20 825L160 825L160 1456L608 1456Q800 1456 951.5 1369.5Q1103 1283 1188 1123.5Q1273 964 1273 761L1273 694Q1273 491 1189.5 333Q1106 175 954 88Q802 1 611 0ZM679 642L460 642L460 241L605 241Q783 241 876 358.5Q969 476 969 694L969 762Q969 984 877 1098.5Q785 1213 608 1213L460 1213L460 825L679 825Z" />
<glyph glyph-name="Ntilde" unicode="&#xd1;" horiz-adv-x="1446" d="M1314 0L1014 0L430 958L430 0L130 0L130 1456L430 1456L1015 496L1015 1456L1314 1456ZM1102 1832Q1102 1719 1036 1642.5Q970 1566 875 1566Q837 1566 807.5 1574.5Q778 1583 726 1611Q674 1639 651 1645.5Q628 1652 601 1652Q566 1652 541.5 1627Q517 1602 517 1556L349 1566Q349 1677 414.5 1755Q480 1833 575 1833Q605 1833 631.5 1825.5Q658 1818 718 1789Q778 1760 801 1754Q824 1748 849 1748Q884 1748 909.5 1772.5Q935 1797 935 1843Z" />
<glyph glyph-name="Ograve" unicode="&#xd2;" horiz-adv-x="1414" d="M1326 695Q1326 480 1250 318Q1174 156 1032.5 68Q891 -20 708 -20Q527 -20 385 67Q243 154 165 315.5Q87 477 86 687L86 759Q86 974 163.5 1137.5Q241 1301 382.5 1388.5Q524 1476 706 1476Q888 1476 1029.5 1388.5Q1171 1301 1248.5 1137.5Q1326 974 1326 760ZM1022 761Q1022 990 940 1109Q858 1228 706 1228Q555 1228 473 1110.5Q391 993 390 766L390 695Q390 472 472 349Q554 226 708 226Q859 226 940 344.5Q1021 463 1022 690ZM850 1536L613 1536L337 1846L652 1846Z" />
<glyph glyph-name="Oacute" unicode="&#xd3;" horiz-adv-x="1414" d="M1326 695Q1326 480 1250 318Q1174 156 1032.5 68Q891 -20 708 -20Q527 -20 385 67Q243 154 165 315.5Q87 477 86 687L86 759Q86 974 163.5 1137.5Q241 1301 382.5 1388.5Q524 1476 706 1476Q888 1476 1029.5 1388.5Q1171 1301 1248.5 1137.5Q1326 974 1326 760ZM1022 761Q1022 990 940 1109Q858 1228 706 1228Q555 1228 473 1110.5Q391 993 390 766L390 695Q390 472 472 349Q554 226 708 226Q859 226 940 344.5Q1021 463 1022 690ZM764 1846L1079 1846L802 1536L567 1536Z" />
<glyph glyph-name="Ocircumflex" unicode="&#xd4;" horiz-adv-x="1414" d="M1326 695Q1326 480 1250 318Q1174 156 1032.5 68Q891 -20 708 -20Q527 -20 385 67Q243 154 165 315.5Q87 477 86 687L86 759Q86 974 163.5 1137.5Q241 1301 382.5 1388.5Q524 1476 706 1476Q888 1476 1029.5 1388.5Q1171 1301 1248.5 1137.5Q1326 974 1326 760ZM1022 761Q1022 990 940 1109Q858 1228 706 1228Q555 1228 473 1110.5Q391 993 390 766L390 695Q390 472 472 349Q554 226 708 226Q859 226 940 344.5Q1021 463 1022 690ZM1090 1566L1090 1554L860 1554L706 1699L552 1554L326 1554L326 1570L622 1846L790 1846Z" />
<glyph glyph-name="Otilde" unicode="&#xd5;" horiz-adv-x="1414" d="M1326 695Q1326 480 1250 318Q1174 156 1032.5 68Q891 -20 708 -20Q527 -20 385 67Q243 154 165 315.5Q87 477 86 687L86 759Q86 974 163.5 1137.5Q241 1301 382.5 1388.5Q524 1476 706 1476Q888 1476 1029.5 1388.5Q1171 1301 1248.5 1137.5Q1326 974 1326 760ZM1022 761Q1022 990 940 1109Q858 1228 706 1228Q555 1228 473 1110.5Q391 993 390 766L390 695Q390 472 472 349Q554 226 708 226Q859 226 940 344.5Q1021 463 1022 690ZM1082 1832Q1082 1719 1016 1642.5Q950 1566 855 1566Q817 1566 787.5 1574.5Q758 1583 706 1611Q654 1639 631 1645.5Q608 1652 581 1652Q546 1652 521.5 1627Q497 1602 497 1556L329 1566Q329 1677 394.5 1755Q460 1833 555 1833Q585 1833 611.5 1825.5Q638 1818 698 1789Q758 1760 781 1754Q804 1748 829 1748Q864 1748 889.5 1772.5Q915 1797 915 1843Z" />
<glyph glyph-name="Odieresis" unicode="&#xd6;" horiz-adv-x="1414" d="M1326 695Q1326 480 1250 318Q1174 156 1032.5 68Q891 -20 708 -20Q527 -20 385 67Q243 154 165 315.5Q87 477 86 687L86 759Q86 974 163.5 1137.5Q241 1301 382.5 1388.5Q524 1476 706 1476Q888 1476 1029.5 1388.5Q1171 1301 1248.5 1137.5Q1326 974 1326 760ZM1022 761Q1022 990 940 1109Q858 1228 706 1228Q555 1228 473 1110.5Q391 993 390 766L390 695Q390 472 472 349Q554 226 708 226Q859 226 940 344.5Q1021 463 1022 690ZM601 1675Q601 1622 562 1585.5Q523 1549 462 1549Q400 1549 362 1586Q324 1623 324 1675Q324 1727 362 1764.5Q400 1802 462 1802Q524 1802 562.5 1764.5Q601 1727 601 1675ZM811 1675Q811 1729 851.5 1765.5Q892 1802 950 1802Q1009 1802 1048.5 1765Q1088 1728 1088 1675Q1088 1623 1050 1585.5Q1012 1548 950 1548Q888 1548 849.5 1585.5Q811 1623 811 1675Z" />
<glyph glyph-name="multiply" unicode="&#xd7;" horiz-adv-x="1088" d="M65 373L372 686L65 999L235 1167L539 856L844 1167L1014 999L707 686L1014 373L844 205L539 515L235 205Z" />
<glyph glyph-name="Oslash" unicode="&#xd8;" horiz-adv-x="1411" d="M1333 695Q1333 480 1257 318Q1181 156 1039.5 68Q898 -20 715 -20Q551 -20 420 50L335 -95L147 -95L290 147Q93 342 93 702L93 759Q93 974 170.5 1137.5Q248 1301 389.5 1388.5Q531 1476 713 1476Q888 1476 1027 1394L1101 1518L1288 1518L1154 1291Q1333 1093 1333 754ZM397 695Q397 523 446 410L893 1167Q820 1228 713 1228Q562 1228 480 1110.5Q398 993 397 766ZM1030 761Q1030 912 992 1017L552 273Q622 226 715 226Q866 226 947.5 344.5Q1029 463 1030 690Z" />
<glyph glyph-name="Ugrave" unicode="&#xd9;" horiz-adv-x="1348" d="M1232 1456L1232 497Q1232 258 1082.5 119Q933 -20 674 -20Q419 -20 269 115Q119 250 116 486L116 1456L416 1456L416 495Q416 352 484.5 286.5Q553 221 674 221Q927 221 931 487L931 1456ZM814 1536L577 1536L301 1846L616 1846Z" />
<glyph glyph-name="Uacute" unicode="&#xda;" horiz-adv-x="1348" d="M1232 1456L1232 497Q1232 258 1082.5 119Q933 -20 674 -20Q419 -20 269 115Q119 250 116 486L116 1456L416 1456L416 495Q416 352 484.5 286.5Q553 221 674 221Q927 221 931 487L931 1456ZM728 1846L1043 1846L766 1536L531 1536Z" />
<glyph glyph-name="Ucircumflex" unicode="&#xdb;" horiz-adv-x="1348" d="M1232 1456L1232 497Q1232 258 1082.5 119Q933 -20 674 -20Q419 -20 269 115Q119 250 116 486L116 1456L416 1456L416 495Q416 352 484.5 286.5Q553 221 674 221Q927 221 931 487L931 1456ZM1054 1566L1054 1554L824 1554L670 1699L516 1554L290 1554L290 1570L586 1846L754 1846Z" />
<glyph glyph-name="Udieresis" unicode="&#xdc;" horiz-adv-x="1348" d="M1232 1456L1232 497Q1232 258 1082.5 119Q933 -20 674 -20Q419 -20 269 115Q119 250 116 486L116 1456L416 1456L416 495Q416 352 484.5 286.5Q553 221 674 221Q927 221 931 487L931 1456ZM565 1675Q565 1622 526 1585.5Q487 1549 426 1549Q364 1549 326 1586Q288 1623 288 1675Q288 1727 326 1764.5Q364 1802 426 1802Q488 1802 526.5 1764.5Q565 1727 565 1675ZM775 1675Q775 1729 815.5 1765.5Q856 1802 914 1802Q973 1802 1012.5 1765Q1052 1728 1052 1675Q1052 1623 1014 1585.5Q976 1548 914 1548Q852 1548 813.5 1585.5Q775 1623 775 1675Z" />
<glyph glyph-name="Yacute" unicode="&#xdd;" horiz-adv-x="1266" d="M632 800L935 1456L1263 1456L785 528L785 0L480 0L480 528L2 1456L331 1456ZM693 1846L1008 1846L731 1536L496 1536Z" />
<glyph glyph-name="Thorn" unicode="&#xde;" horiz-adv-x="1246" d="M422 1456L422 1189L652 1189Q814 1188 933.5 1132.5Q1053 1077 1117 974.5Q1181 872 1181 738Q1181 536 1042.5 414Q904 292 664 287L422 287L422 0L133 0L133 1456ZM422 956L422 520L645 520Q762 520 827 579Q892 638 892 736Q892 834 828.5 894Q765 954 653 956Z" />
<glyph glyph-name="germandbls" unicode="&#xdf;" horiz-adv-x="1292" d="M424 0L135 0L135 1101Q135 1321 259 1440Q383 1559 609 1559Q800 1559 915.5 1459.5Q1031 1360 1031 1189Q1031 1081 977.5 994Q924 907 924 830Q924 793 954.5 753.5Q985 714 1073 636Q1224 502 1224 354Q1224 177 1109 78.5Q994 -20 779 -20Q698 -20 619 -4Q540 12 500 36L554 265Q652 213 773 213Q852 213 894 249.5Q936 286 936 349Q936 395 901.5 438.5Q867 482 785 548Q635 668 635 818Q635 914 690 1004.5Q745 1095 745 1174Q745 1244 700.5 1285.5Q656 1327 588 1327Q429 1327 424 1114Z" />
<glyph glyph-name="agrave" unicode="&#xe0;" horiz-adv-x="1098" d="M738 0Q718 39 709 97Q604 -20 436 -20Q277 -20 172.5 72Q68 164 68 304Q68 476 195.5 568Q323 660 564 661L697 661L697 723Q697 798 658.5 843Q620 888 537 888Q464 888 422.5 853Q381 818 381 757L92 757Q92 851 150 931Q208 1011 314 1056.5Q420 1102 552 1102Q752 1102 869.5 1001.5Q987 901 987 719L987 250Q988 96 1030 17L1030 0ZM499 201Q563 201 617 229.5Q671 258 697 306L697 492L589 492Q372 492 358 342L357 325Q357 271 395 236Q433 201 499 201ZM695 1226L458 1226L182 1536L497 1536Z" />
<glyph glyph-name="aacute" unicode="&#xe1;" horiz-adv-x="1098" d="M738 0Q718 39 709 97Q604 -20 436 -20Q277 -20 172.5 72Q68 164 68 304Q68 476 195.5 568Q323 660 564 661L697 661L697 723Q697 798 658.5 843Q620 888 537 888Q464 888 422.5 853Q381 818 381 757L92 757Q92 851 150 931Q208 1011 314 1056.5Q420 1102 552 1102Q752 1102 869.5 1001.5Q987 901 987 719L987 250Q988 96 1030 17L1030 0ZM499 201Q563 201 617 229.5Q671 258 697 306L697 492L589 492Q372 492 358 342L357 325Q357 271 395 236Q433 201 499 201ZM609 1536L924 1536L647 1226L412 1226Z" />
<glyph glyph-name="acircumflex" unicode="&#xe2;" horiz-adv-x="1098" d="M738 0Q718 39 709 97Q604 -20 436 -20Q277 -20 172.5 72Q68 164 68 304Q68 476 195.5 568Q323 660 564 661L697 661L697 723Q697 798 658.5 843Q620 888 537 888Q464 888 422.5 853Q381 818 381 757L92 757Q92 851 150 931Q208 1011 314 1056.5Q420 1102 552 1102Q752 1102 869.5 1001.5Q987 901 987 719L987 250Q988 96 1030 17L1030 0ZM499 201Q563 201 617 229.5Q671 258 697 306L697 492L589 492Q372 492 358 342L357 325Q357 271 395 236Q433 201 499 201ZM935 1256L935 1244L705 1244L551 1389L397 1244L171 1244L171 1260L467 1536L635 1536Z" />
<glyph glyph-name="atilde" unicode="&#xe3;" horiz-adv-x="1098" d="M738 0Q718 39 709 97Q604 -20 436 -20Q277 -20 172.5 72Q68 164 68 304Q68 476 195.5 568Q323 660 564 661L697 661L697 723Q697 798 658.5 843Q620 888 537 888Q464 888 422.5 853Q381 818 381 757L92 757Q92 851 150 931Q208 1011 314 1056.5Q420 1102 552 1102Q752 1102 869.5 1001.5Q987 901 987 719L987 250Q988 96 1030 17L1030 0ZM499 201Q563 201 617 229.5Q671 258 697 306L697 492L589 492Q372 492 358 342L357 325Q357 271 395 236Q433 201 499 201ZM927 1523Q927 1410 861 1333.5Q795 1257 700 1257Q662 1257 632.5 1265.5Q603 1274 551 1302Q499 1330 476 1336.5Q453 1343 426 1343Q391 1343 366.5 1318Q342 1293 342 1247L174 1257Q174 1368 239.5 1446Q305 1524 400 1524Q430 1524 456.5 1516.5Q483 1509 543 1480Q603 1451 626 1445Q649 1439 674 1439Q709 1439 734.5 1463.5Q760 1488 760 1534Z" />
<glyph glyph-name="adieresis" unicode="&#xe4;" horiz-adv-x="1098" d="M738 0Q718 39 709 97Q604 -20 436 -20Q277 -20 172.5 72Q68 164 68 304Q68 476 195.5 568Q323 660 564 661L697 661L697 723Q697 798 658.5 843Q620 888 537 888Q464 888 422.5 853Q381 818 381 757L92 757Q92 851 150 931Q208 1011 314 1056.5Q420 1102 552 1102Q752 1102 869.5 1001.5Q987 901 987 719L987 250Q988 96 1030 17L1030 0ZM499 201Q563 201 617 229.5Q671 258 697 306L697 492L589 492Q372 492 358 342L357 325Q357 271 395 236Q433 201 499 201ZM446 1365Q446 1312 407 1275.5Q368 1239 307 1239Q245 1239 207 1276Q169 1313 169 1365Q169 1417 207 1454.5Q245 1492 307 1492Q369 1492 407.5 1454.5Q446 1417 446 1365ZM656 1365Q656 1419 696.5 1455.5Q737 1492 795 1492Q854 1492 893.5 1455Q933 1418 933 1365Q933 1313 895 1275.5Q857 1238 795 1238Q733 1238 694.5 1275.5Q656 1313 656 1365Z" />
<glyph glyph-name="aring" unicode="&#xe5;" horiz-adv-x="1098" d="M738 0Q718 39 709 97Q604 -20 436 -20Q277 -20 172.5 72Q68 164 68 304Q68 476 195.5 568Q323 660 564 661L697 661L697 723Q697 798 658.5 843Q620 888 537 888Q464 888 422.5 853Q381 818 381 757L92 757Q92 851 150 931Q208 1011 314 1056.5Q420 1102 552 1102Q752 1102 869.5 1001.5Q987 901 987 719L987 250Q988 96 1030 17L1030 0ZM499 201Q563 201 617 229.5Q671 258 697 306L697 492L589 492Q372 492 358 342L357 325Q357 271 395 236Q433 201 499 201ZM329 1420Q329 1506 394 1565.5Q459 1625 552 1625Q644 1625 709.5 1566.5Q775 1508 775 1420Q775 1335 711 1277Q647 1219 552 1219Q455 1219 392 1278Q329 1337 329 1420ZM444 1420Q444 1376 473 1344.5Q502 1313 552 1313Q602 1313 631 1344.5Q660 1376 660 1420Q660 1466 630.5 1497.5Q601 1529 552 1529Q503 1529 473.5 1497.5Q444 1466 444 1420Z" />
<glyph glyph-name="ae" unicode="&#xe6;" horiz-adv-x="1729" d="M1246 -20Q999 -20 860 127Q796 58 693.5 19Q591 -20 466 -20Q280 -20 173 69Q66 158 66 319Q66 476 190 562Q314 648 557 649L725 649L725 706Q725 782 684.5 825Q644 868 567 868Q485 868 437.5 832.5Q390 797 390 745L101 764Q101 913 231.5 1007.5Q362 1102 570 1102Q781 1102 897 992Q1023 1104 1223 1102Q1435 1102 1556 970.5Q1677 839 1677 607L1677 450L1009 450Q1020 334 1089.5 273Q1159 212 1276 212Q1353 212 1418.5 228Q1484 244 1571 289L1648 100Q1575 44 1467.5 12Q1360 -20 1246 -20ZM521 192Q570 192 628 214.5Q686 237 725 272L725 461L561 461Q466 460 410.5 418Q355 376 355 315Q355 259 395.5 225.5Q436 192 521 192ZM1223 868Q1133 868 1078.5 810.5Q1024 753 1011 644L1393 644L1393 672Q1393 766 1349.5 817Q1306 868 1223 868Z" />
<glyph glyph-name="ccedilla" unicode="&#xe7;" horiz-adv-x="1068" d="M561 213Q641 213 691 257Q741 301 743 374L1014 374Q1013 264 954 172.5Q895 81 792.5 30.5Q690 -20 566 -20Q334 -20 200 127.5Q66 275 66 535L66 554Q66 804 199 953Q332 1102 564 1102Q767 1102 889.5 986.5Q1012 871 1014 679L743 679Q741 763 691 815.5Q641 868 559 868Q458 868 406.5 794.5Q355 721 355 556L355 526Q355 359 406 286Q457 213 561 213ZM666 6L655 -52Q805 -79 805 -225Q805 -335 713.5 -399Q622 -463 456 -463L449 -296Q561 -296 561 -215Q561 -173 527.5 -157.5Q494 -142 419 -137L450 6Z" />
<glyph glyph-name="egrave" unicode="&#xe8;" horiz-adv-x="1107" d="M609 -20Q371 -20 221.5 126Q72 272 72 515L72 543Q72 706 135 834.5Q198 963 313.5 1032.5Q429 1102 577 1102Q799 1102 926.5 962Q1054 822 1054 565L1054 447L365 447Q379 341 449.5 277Q520 213 628 213Q795 213 889 334L1031 175Q966 83 855 31.5Q744 -20 609 -20ZM576 868Q490 868 436.5 810Q383 752 368 644L770 644L770 667Q768 763 718 815.5Q668 868 576 868ZM688 1226L451 1226L175 1536L490 1536Z" />
<glyph glyph-name="eacute" unicode="&#xe9;" horiz-adv-x="1107" d="M609 -20Q371 -20 221.5 126Q72 272 72 515L72 543Q72 706 135 834.5Q198 963 313.5 1032.5Q429 1102 577 1102Q799 1102 926.5 962Q1054 822 1054 565L1054 447L365 447Q379 341 449.5 277Q520 213 628 213Q795 213 889 334L1031 175Q966 83 855 31.5Q744 -20 609 -20ZM576 868Q490 868 436.5 810Q383 752 368 644L770 644L770 667Q768 763 718 815.5Q668 868 576 868ZM602 1536L917 1536L640 1226L405 1226Z" />
<glyph glyph-name="ecircumflex" unicode="&#xea;" horiz-adv-x="1107" d="M609 -20Q371 -20 221.5 126Q72 272 72 515L72 543Q72 706 135 834.5Q198 963 313.5 1032.5Q429 1102 577 1102Q799 1102 926.5 962Q1054 822 1054 565L1054 447L365 447Q379 341 449.5 277Q520 213 628 213Q795 213 889 334L1031 175Q966 83 855 31.5Q744 -20 609 -20ZM576 868Q490 868 436.5 810Q383 752 368 644L770 644L770 667Q768 763 718 815.5Q668 868 576 868ZM928 1256L928 1244L698 1244L544 1389L390 1244L164 1244L164 1260L460 1536L628 1536Z" />
<glyph glyph-name="edieresis" unicode="&#xeb;" horiz-adv-x="1107" d="M609 -20Q371 -20 221.5 126Q72 272 72 515L72 543Q72 706 135 834.5Q198 963 313.5 1032.5Q429 1102 577 1102Q799 1102 926.5 962Q1054 822 1054 565L1054 447L365 447Q379 341 449.5 277Q520 213 628 213Q795 213 889 334L1031 175Q966 83 855 31.5Q744 -20 609 -20ZM576 868Q490 868 436.5 810Q383 752 368 644L770 644L770 667Q768 763 718 815.5Q668 868 576 868ZM439 1365Q439 1312 400 1275.5Q361 1239 300 1239Q238 1239 200 1276Q162 1313 162 1365Q162 1417 200 1454.5Q238 1492 300 1492Q362 1492 400.5 1454.5Q439 1417 439 1365ZM649 1365Q649 1419 689.5 1455.5Q730 1492 788 1492Q847 1492 886.5 1455Q926 1418 926 1365Q926 1313 888 1275.5Q850 1238 788 1238Q726 1238 687.5 1275.5Q649 1313 649 1365Z" />
<glyph glyph-name="igrave" unicode="&#xec;" horiz-adv-x="561" d="M423 0L134 0L134 1082L423 1082ZM425 1211L188 1211L-88 1521L227 1521Z" />
<glyph glyph-name="iacute" unicode="&#xed;" horiz-adv-x="561" d="M423 0L134 0L134 1082L423 1082ZM338 1521L653 1521L376 1211L141 1211Z" />
<glyph glyph-name="icircumflex" unicode="&#xee;" horiz-adv-x="561" d="M423 0L134 0L134 1082L423 1082ZM665 1241L665 1229L435 1229L281 1374L127 1229L-99 1229L-99 1245L197 1521L365 1521Z" />
<glyph glyph-name="idieresis" unicode="&#xef;" horiz-adv-x="561" d="M423 0L134 0L134 1082L423 1082ZM176 1350Q176 1297 137 1260.5Q98 1224 37 1224Q-25 1224 -63 1261Q-101 1298 -101 1350Q-101 1402 -63 1439.5Q-25 1477 37 1477Q99 1477 137.5 1439.5Q176 1402 176 1350ZM386 1350Q386 1404 426.5 1440.5Q467 1477 525 1477Q584 1477 623.5 1440Q663 1403 663 1350Q663 1298 625 1260.5Q587 1223 525 1223Q463 1223 424.5 1260.5Q386 1298 386 1350Z" />
<glyph glyph-name="eth" unicode="&#xf0;" horiz-adv-x="1178" d="M849 1305Q1104 1043 1105 651L1105 577Q1105 405 1038.5 268Q972 131 853 55.5Q734 -20 587 -20Q443 -20 328 43.5Q213 107 148.5 219.5Q84 332 84 468Q84 699 207 832.5Q330 966 536 966Q672 966 780 890Q731 1042 614 1155L423 1033L345 1147L497 1244Q381 1316 233 1355L324 1579Q562 1531 740 1399L911 1508L988 1394ZM816 663Q748 746 601 746Q488 746 430.5 671.5Q373 597 373 468Q373 356 433 284.5Q493 213 591 213Q694 213 755 303.5Q816 394 816 552Z" />
<glyph glyph-name="ntilde" unicode="&#xf1;" horiz-adv-x="1147" d="M377 1082L386 957Q502 1102 697 1102Q869 1102 953 1001Q1037 900 1039 699L1039 0L750 0L750 692Q750 784 710 825.5Q670 867 577 867Q455 867 394 763L394 0L105 0L105 1082ZM951 1523Q951 1410 885 1333.5Q819 1257 724 1257Q686 1257 656.5 1265.5Q627 1274 575 1302Q523 1330 500 1336.5Q477 1343 450 1343Q415 1343 390.5 1318Q366 1293 366 1247L198 1257Q198 1368 263.5 1446Q329 1524 424 1524Q454 1524 480.5 1516.5Q507 1509 567 1480Q627 1451 650 1445Q673 1439 698 1439Q733 1439 758.5 1463.5Q784 1488 784 1534Z" />
<glyph glyph-name="ograve" unicode="&#xf2;" horiz-adv-x="1158" d="M66 551Q66 712 128 838Q190 964 306.5 1033Q423 1102 577 1102Q796 1102 934.5 968Q1073 834 1089 604L1091 530Q1091 281 952 130.5Q813 -20 579 -20Q345 -20 205.5 130Q66 280 66 538ZM355 530Q355 376 413 294.5Q471 213 579 213Q684 213 743 293.5Q802 374 802 551Q802 702 743 785Q684 868 577 868Q471 868 413 785.5Q355 703 355 530ZM720 1226L483 1226L207 1536L522 1536Z" />
<glyph glyph-name="oacute" unicode="&#xf3;" horiz-adv-x="1158" d="M66 551Q66 712 128 838Q190 964 306.5 1033Q423 1102 577 1102Q796 1102 934.5 968Q1073 834 1089 604L1091 530Q1091 281 952 130.5Q813 -20 579 -20Q345 -20 205.5 130Q66 280 66 538ZM355 530Q355 376 413 294.5Q471 213 579 213Q684 213 743 293.5Q802 374 802 551Q802 702 743 785Q684 868 577 868Q471 868 413 785.5Q355 703 355 530ZM634 1536L949 1536L672 1226L437 1226Z" />
<glyph glyph-name="ocircumflex" unicode="&#xf4;" horiz-adv-x="1158" d="M66 551Q66 712 128 838Q190 964 306.5 1033Q423 1102 577 1102Q796 1102 934.5 968Q1073 834 1089 604L1091 530Q1091 281 952 130.5Q813 -20 579 -20Q345 -20 205.5 130Q66 280 66 538ZM355 530Q355 376 413 294.5Q471 213 579 213Q684 213 743 293.5Q802 374 802 551Q802 702 743 785Q684 868 577 868Q471 868 413 785.5Q355 703 355 530ZM960 1256L960 1244L730 1244L576 1389L422 1244L196 1244L196 1260L492 1536L660 1536Z" />
<glyph glyph-name="otilde" unicode="&#xf5;" horiz-adv-x="1158" d="M66 551Q66 712 128 838Q190 964 306.5 1033Q423 1102 577 1102Q796 1102 934.5 968Q1073 834 1089 604L1091 530Q1091 281 952 130.5Q813 -20 579 -20Q345 -20 205.5 130Q66 280 66 538ZM355 530Q355 376 413 294.5Q471 213 579 213Q684 213 743 293.5Q802 374 802 551Q802 702 743 785Q684 868 577 868Q471 868 413 785.5Q355 703 355 530ZM952 1523Q952 1410 886 1333.5Q820 1257 725 1257Q687 1257 657.5 1265.5Q628 1274 576 1302Q524 1330 501 1336.5Q478 1343 451 1343Q416 1343 391.5 1318Q367 1293 367 1247L199 1257Q199 1368 264.5 1446Q330 1524 425 1524Q455 1524 481.5 1516.5Q508 1509 568 1480Q628 1451 651 1445Q674 1439 699 1439Q734 1439 759.5 1463.5Q785 1488 785 1534Z" />
<glyph glyph-name="odieresis" unicode="&#xf6;" horiz-adv-x="1158" d="M66 551Q66 712 128 838Q190 964 306.5 1033Q423 1102 577 1102Q796 1102 934.5 968Q1073 834 1089 604L1091 530Q1091 281 952 130.5Q813 -20 579 -20Q345 -20 205.5 130Q66 280 66 538ZM355 530Q355 376 413 294.5Q471 213 579 213Q684 213 743 293.5Q802 374 802 551Q802 702 743 785Q684 868 577 868Q471 868 413 785.5Q355 703 355 530ZM471 1365Q471 1312 432 1275.5Q393 1239 332 1239Q270 1239 232 1276Q194 1313 194 1365Q194 1417 232 1454.5Q270 1492 332 1492Q394 1492 432.5 1454.5Q471 1417 471 1365ZM681 1365Q681 1419 721.5 1455.5Q762 1492 820 1492Q879 1492 918.5 1455Q958 1418 958 1365Q958 1313 920 1275.5Q882 1238 820 1238Q758 1238 719.5 1275.5Q681 1313 681 1365Z" />
<glyph glyph-name="divide" unicode="&#xf7;" horiz-adv-x="1168" d="M1091 571L63 571L63 801L1091 801ZM415 1089Q415 1157 460.5 1199Q506 1241 578 1241Q649 1241 695.5 1199.5Q742 1158 742 1089Q742 1022 697 980.5Q652 939 578 939Q503 939 459 981Q415 1023 415 1089ZM415 277Q415 345 460.5 387Q506 429 578 429Q649 429 695.5 387.5Q742 346 742 277Q742 210 697 168.5Q652 127 578 127Q503 127 459 169Q415 211 415 277Z" />
<glyph glyph-name="oslash" unicode="&#xf8;" horiz-adv-x="1156" d="M66 551Q66 712 128 838Q190 964 306.5 1033Q423 1102 577 1102Q678 1102 763 1073L833 1216L994 1216L891 1005Q1091 856 1091 530Q1091 281 952 130.5Q813 -20 579 -20Q484 -20 403 6L331 -142L170 -142L273 70Q66 216 66 551ZM355 530Q355 400 396 322L656 854Q620 868 577 868Q471 868 413 785.5Q355 703 355 530ZM802 551Q802 665 765 747L509 223Q539 213 579 213Q684 213 743 293.5Q802 374 802 551Z" />
<glyph glyph-name="ugrave" unicode="&#xf9;" horiz-adv-x="1146" d="M759 110Q652 -20 463 -20Q289 -20 197.5 80Q106 180 104 373L104 1082L393 1082L393 383Q393 214 547 214Q694 214 749 316L749 1082L1039 1082L1039 0L767 0ZM716 1226L479 1226L203 1536L518 1536Z" />
<glyph glyph-name="uacute" unicode="&#xfa;" horiz-adv-x="1146" d="M759 110Q652 -20 463 -20Q289 -20 197.5 80Q106 180 104 373L104 1082L393 1082L393 383Q393 214 547 214Q694 214 749 316L749 1082L1039 1082L1039 0L767 0ZM630 1536L945 1536L668 1226L433 1226Z" />
<glyph glyph-name="ucircumflex" unicode="&#xfb;" horiz-adv-x="1146" d="M759 110Q652 -20 463 -20Q289 -20 197.5 80Q106 180 104 373L104 1082L393 1082L393 383Q393 214 547 214Q694 214 749 316L749 1082L1039 1082L1039 0L767 0ZM956 1256L956 1244L726 1244L572 1389L418 1244L192 1244L192 1260L488 1536L656 1536Z" />
<glyph glyph-name="udieresis" unicode="&#xfc;" horiz-adv-x="1146" d="M759 110Q652 -20 463 -20Q289 -20 197.5 80Q106 180 104 373L104 1082L393 1082L393 383Q393 214 547 214Q694 214 749 316L749 1082L1039 1082L1039 0L767 0ZM467 1365Q467 1312 428 1275.5Q389 1239 328 1239Q266 1239 228 1276Q190 1313 190 1365Q190 1417 228 1454.5Q266 1492 328 1492Q390 1492 428.5 1454.5Q467 1417 467 1365ZM677 1365Q677 1419 717.5 1455.5Q758 1492 816 1492Q875 1492 914.5 1455Q954 1418 954 1365Q954 1313 916 1275.5Q878 1238 816 1238Q754 1238 715.5 1275.5Q677 1313 677 1365Z" />
<glyph glyph-name="yacute" unicode="&#xfd;" horiz-adv-x="1028" d="M515 409L715 1082L1025 1082L590 -168L566 -225Q469 -437 246 -437Q183 -437 118 -418L118 -199L162 -200Q244 -200 284.5 -175Q325 -150 348 -92L382 -3L3 1082L314 1082ZM578 1536L893 1536L616 1226L381 1226Z" />
<glyph glyph-name="thorn" unicode="&#xfe;" horiz-adv-x="1162" d="M1087 531Q1087 281 973.5 130.5Q860 -20 667 -20Q503 -20 403 93L403 -416L113 -416L113 1536L403 1536L403 989Q503 1102 665 1102Q863 1102 975 955Q1087 808 1087 545ZM798 552Q798 703 744.5 785Q691 867 589 867Q457 867 403 765L403 318Q457 213 591 213Q798 213 798 552Z" />
<glyph glyph-name="ydieresis" unicode="&#xff;" horiz-adv-x="1028" d="M515 409L715 1082L1025 1082L590 -168L566 -225Q469 -437 246 -437Q183 -437 118 -418L118 -199L162 -200Q244 -200 284.5 -175Q325 -150 348 -92L382 -3L3 1082L314 1082ZM415 1365Q415 1312 376 1275.5Q337 1239 276 1239Q214 1239 176 1276Q138 1313 138 1365Q138 1417 176 1454.5Q214 1492 276 1492Q338 1492 376.5 1454.5Q415 1417 415 1365ZM625 1365Q625 1419 665.5 1455.5Q706 1492 764 1492Q823 1492 862.5 1455Q902 1418 902 1365Q902 1313 864 1275.5Q826 1238 764 1238Q702 1238 663.5 1275.5Q625 1313 625 1365Z" />
<glyph glyph-name="Amacron" unicode="&#x0100;" horiz-adv-x="1378" d="M952 300L426 300L326 0L7 0L549 1456L827 1456L1372 0L1053 0ZM507 543L871 543L688 1088ZM1039 1595L349 1595L349 1762L1039 1762Z" />
<glyph glyph-name="amacron" unicode="&#x0101;" horiz-adv-x="1098" d="M738 0Q718 39 709 97Q604 -20 436 -20Q277 -20 172.5 72Q68 164 68 304Q68 476 195.5 568Q323 660 564 661L697 661L697 723Q697 798 658.5 843Q620 888 537 888Q464 888 422.5 853Q381 818 381 757L92 757Q92 851 150 931Q208 1011 314 1056.5Q420 1102 552 1102Q752 1102 869.5 1001.5Q987 901 987 719L987 250Q988 96 1030 17L1030 0ZM499 201Q563 201 617 229.5Q671 258 697 306L697 492L589 492Q372 492 358 342L357 325Q357 271 395 236Q433 201 499 201ZM898 1286L208 1286L208 1453L898 1453Z" />
<glyph glyph-name="Abreve" unicode="&#x0102;" horiz-adv-x="1378" d="M952 300L426 300L326 0L7 0L549 1456L827 1456L1372 0L1053 0ZM507 543L871 543L688 1088ZM1039 1836Q1039 1703 943.5 1621Q848 1539 693 1539Q538 1539 442.5 1620Q347 1701 347 1836L552 1836Q552 1773 589.5 1738.5Q627 1704 693 1704Q758 1704 795 1738.5Q832 1773 832 1836Z" />
<glyph glyph-name="abreve" unicode="&#x0103;" horiz-adv-x="1098" d="M738 0Q718 39 709 97Q604 -20 436 -20Q277 -20 172.5 72Q68 164 68 304Q68 476 195.5 568Q323 660 564 661L697 661L697 723Q697 798 658.5 843Q620 888 537 888Q464 888 422.5 853Q381 818 381 757L92 757Q92 851 150 931Q208 1011 314 1056.5Q420 1102 552 1102Q752 1102 869.5 1001.5Q987 901 987 719L987 250Q988 96 1030 17L1030 0ZM499 201Q563 201 617 229.5Q671 258 697 306L697 492L589 492Q372 492 358 342L357 325Q357 271 395 236Q433 201 499 201ZM898 1526Q898 1393 802.5 1311Q707 1229 552 1229Q397 1229 301.5 1310Q206 1391 206 1526L411 1526Q411 1463 448.5 1428.5Q486 1394 552 1394Q617 1394 654 1428.5Q691 1463 691 1526Z" />
<glyph glyph-name="Aogonek" unicode="&#x0104;" horiz-adv-x="1378" d="M827 1456L1372 0L1288 0Q1214 -42 1174 -82.5Q1134 -123 1134 -176Q1134 -241 1200 -241Q1233 -241 1280 -221L1309 -378Q1236 -422 1144 -422Q1044 -422 980.5 -366.5Q917 -311 917 -213Q917 -78 1049 11L952 300L426 300L326 0L7 0L549 1456ZM507 543L871 543L688 1088Z" />
<glyph glyph-name="aogonek" unicode="&#x0105;" horiz-adv-x="1098" d="M735 5Q718 46 709 97Q604 -20 436 -20Q277 -20 172.5 72Q68 164 68 304Q68 476 195.5 568Q323 660 564 661L697 661L697 723Q697 798 658.5 843Q620 888 537 888Q464 888 422.5 853Q381 818 381 757L92 757Q92 851 150 931Q208 1011 314 1056.5Q420 1102 552 1102Q752 1102 869.5 1001.5Q987 901 987 719L987 250Q988 96 1030 17L1030 0L982 0Q908 -42 868 -82.5Q828 -123 828 -176Q828 -241 894 -241Q927 -241 974 -221L1003 -378Q930 -422 838 -422Q738 -422 674.5 -366.5Q611 -311 611 -213Q611 -82 735 5ZM499 201Q563 201 617 229.5Q671 258 697 306L697 492L589 492Q372 492 358 342L357 325Q357 271 395 236Q433 201 499 201Z" />
<glyph glyph-name="Cacute" unicode="&#x0106;" horiz-adv-x="1340" d="M1273 485Q1256 250 1099.5 115Q943 -20 687 -20Q407 -20 246.5 168.5Q86 357 86 686L86 775Q86 985 160 1145Q234 1305 371.5 1390.5Q509 1476 691 1476Q943 1476 1097 1341Q1251 1206 1275 962L975 962Q964 1103 896.5 1166.5Q829 1230 691 1230Q541 1230 466.5 1122.5Q392 1015 390 789L390 679Q390 443 461.5 334Q533 225 687 225Q826 225 894.5 288.5Q963 352 973 485ZM746 1854L1061 1854L784 1544L549 1544Z" />
<glyph glyph-name="cacute" unicode="&#x0107;" horiz-adv-x="1068" d="M561 213Q641 213 691 257Q741 301 743 374L1014 374Q1013 264 954 172.5Q895 81 792.5 30.5Q690 -20 566 -20Q334 -20 200 127.5Q66 275 66 535L66 554Q66 804 199 953Q332 1102 564 1102Q767 1102 889.5 986.5Q1012 871 1014 679L743 679Q741 763 691 815.5Q641 868 559 868Q458 868 406.5 794.5Q355 721 355 556L355 526Q355 359 406 286Q457 213 561 213ZM592 1536L907 1536L630 1226L395 1226Z" />
<glyph glyph-name="Ccircumflex" unicode="&#x0108;" horiz-adv-x="1340" d="M1273 485Q1256 250 1099.5 115Q943 -20 687 -20Q407 -20 246.5 168.5Q86 357 86 686L86 775Q86 985 160 1145Q234 1305 371.5 1390.5Q509 1476 691 1476Q943 1476 1097 1341Q1251 1206 1275 962L975 962Q964 1103 896.5 1166.5Q829 1230 691 1230Q541 1230 466.5 1122.5Q392 1015 390 789L390 679Q390 443 461.5 334Q533 225 687 225Q826 225 894.5 288.5Q963 352 973 485ZM1072 1574L1072 1562L842 1562L688 1707L534 1562L308 1562L308 1578L604 1854L772 1854Z" />
<glyph glyph-name="ccircumflex" unicode="&#x0109;" horiz-adv-x="1068" d="M561 213Q641 213 691 257Q741 301 743 374L1014 374Q1013 264 954 172.5Q895 81 792.5 30.5Q690 -20 566 -20Q334 -20 200 127.5Q66 275 66 535L66 554Q66 804 199 953Q332 1102 564 1102Q767 1102 889.5 986.5Q1012 871 1014 679L743 679Q741 763 691 815.5Q641 868 559 868Q458 868 406.5 794.5Q355 721 355 556L355 526Q355 359 406 286Q457 213 561 213ZM918 1256L918 1244L688 1244L534 1389L380 1244L154 1244L154 1260L450 1536L618 1536Z" />
<glyph glyph-name="Cdotaccent" unicode="&#x010a;" horiz-adv-x="1340" d="M1273 485Q1256 250 1099.5 115Q943 -20 687 -20Q407 -20 246.5 168.5Q86 357 86 686L86 775Q86 985 160 1145Q234 1305 371.5 1390.5Q509 1476 691 1476Q943 1476 1097 1341Q1251 1206 1275 962L975 962Q964 1103 896.5 1166.5Q829 1230 691 1230Q541 1230 466.5 1122.5Q392 1015 390 789L390 679Q390 443 461.5 334Q533 225 687 225Q826 225 894.5 288.5Q963 352 973 485ZM687 1846Q756 1846 795.5 1807.5Q835 1769 835 1709Q835 1649 795.5 1611Q756 1573 687 1573Q619 1573 579 1611Q539 1649 539 1709Q539 1769 579.5 1807.5Q620 1846 687 1846Z" />
<glyph glyph-name="cdotaccent" unicode="&#x010b;" horiz-adv-x="1068" d="M561 213Q641 213 691 257Q741 301 743 374L1014 374Q1013 264 954 172.5Q895 81 792.5 30.5Q690 -20 566 -20Q334 -20 200 127.5Q66 275 66 535L66 554Q66 804 199 953Q332 1102 564 1102Q767 1102 889.5 986.5Q1012 871 1014 679L743 679Q741 763 691 815.5Q641 868 559 868Q458 868 406.5 794.5Q355 721 355 556L355 526Q355 359 406 286Q457 213 561 213ZM533 1528Q602 1528 641.5 1489.5Q681 1451 681 1391Q681 1331 641.5 1293Q602 1255 533 1255Q465 1255 425 1293Q385 1331 385 1391Q385 1451 425.5 1489.5Q466 1528 533 1528Z" />
<glyph glyph-name="Ccaron" unicode="&#x010c;" horiz-adv-x="1340" d="M1273 485Q1256 250 1099.5 115Q943 -20 687 -20Q407 -20 246.5 168.5Q86 357 86 686L86 775Q86 985 160 1145Q234 1305 371.5 1390.5Q509 1476 691 1476Q943 1476 1097 1341Q1251 1206 1275 962L975 962Q964 1103 896.5 1166.5Q829 1230 691 1230Q541 1230 466.5 1122.5Q392 1015 390 789L390 679Q390 443 461.5 334Q533 225 687 225Q826 225 894.5 288.5Q963 352 973 485ZM688 1712L834 1855L1081 1855L1081 1844L779 1563L596 1563L294 1846L294 1855L541 1855Z" />
<glyph glyph-name="ccaron" unicode="&#x010d;" horiz-adv-x="1068" d="M561 213Q641 213 691 257Q741 301 743 374L1014 374Q1013 264 954 172.5Q895 81 792.5 30.5Q690 -20 566 -20Q334 -20 200 127.5Q66 275 66 535L66 554Q66 804 199 953Q332 1102 564 1102Q767 1102 889.5 986.5Q1012 871 1014 679L743 679Q741 763 691 815.5Q641 868 559 868Q458 868 406.5 794.5Q355 721 355 556L355 526Q355 359 406 286Q457 213 561 213ZM534 1394L680 1537L927 1537L927 1526L625 1245L442 1245L140 1528L140 1537L387 1537Z" />
<glyph glyph-name="Dcaron" unicode="&#x010e;" horiz-adv-x="1331" d="M130 0L130 1456L578 1456Q770 1456 921.5 1369.5Q1073 1283 1158 1123.5Q1243 964 1243 761L1243 694Q1243 491 1159.5 333Q1076 175 924 88Q772 1 581 0ZM430 1213L430 241L575 241Q751 241 844 356Q937 471 939 685L939 762Q939 984 847 1098.5Q755 1213 578 1213ZM527 1707L673 1850L920 1850L920 1839L618 1558L435 1558L133 1841L133 1850L380 1850Z" />
<glyph glyph-name="dcaron" unicode="&#x010f;" horiz-adv-x="1304" d="M66 549Q66 802 179.5 952Q293 1102 490 1102Q648 1102 751 984L751 1536L1041 1536L1041 0L780 0L766 115Q658 -20 488 -20Q297 -20 181.5 130.5Q66 281 66 549ZM355 528Q355 376 408 295Q461 214 562 214Q696 214 751 327L751 754Q697 867 564 867Q355 867 355 528ZM1262 1113L1119 1192Q1192 1307 1195 1434L1195 1537L1407 1537L1407 1466Q1407 1373 1365.5 1274Q1324 1175 1262 1113Z" />
<glyph glyph-name="Dcroat" unicode="&#x0110;" horiz-adv-x="1361" d="M160 0L160 642L-20 642L-20 825L160 825L160 1456L608 1456Q800 1456 951.5 1369.5Q1103 1283 1188 1123.5Q1273 964 1273 761L1273 694Q1273 491 1189.5 333Q1106 175 954 88Q802 1 611 0ZM679 642L460 642L460 241L605 241Q783 241 876 358.5Q969 476 969 694L969 762Q969 984 877 1098.5Q785 1213 608 1213L460 1213L460 825L679 825Z" />
<glyph glyph-name="dcroat" unicode="&#x0111;" horiz-adv-x="1291" d="M1199 1218L1041 1218L1041 0L780 0L766 115Q658 -20 488 -20Q297 -20 181.5 130.5Q66 281 66 549Q66 802 179.5 952Q293 1102 490 1102Q648 1102 751 984L751 1218L499 1218L499 1401L751 1401L751 1536L1041 1536L1041 1401L1199 1401ZM355 528Q355 376 408 295Q461 214 562 214Q696 214 751 327L751 754Q697 867 564 867Q355 867 355 528Z" />
<glyph glyph-name="Emacron" unicode="&#x0112;" horiz-adv-x="1152" d="M1006 631L430 631L430 241L1106 241L1106 0L130 0L130 1456L1104 1456L1104 1213L430 1213L430 866L1006 866ZM982 1598L292 1598L292 1765L982 1765Z" />
<glyph glyph-name="emacron" unicode="&#x0113;" horiz-adv-x="1107" d="M609 -20Q371 -20 221.5 126Q72 272 72 515L72 543Q72 706 135 834.5Q198 963 313.5 1032.5Q429 1102 577 1102Q799 1102 926.5 962Q1054 822 1054 565L1054 447L365 447Q379 341 449.5 277Q520 213 628 213Q795 213 889 334L1031 175Q966 83 855 31.5Q744 -20 609 -20ZM576 868Q490 868 436.5 810Q383 752 368 644L770 644L770 667Q768 763 718 815.5Q668 868 576 868ZM891 1286L201 1286L201 1453L891 1453Z" />
<glyph glyph-name="Ebreve" unicode="&#x0114;" horiz-adv-x="1152" d="M1006 631L430 631L430 241L1106 241L1106 0L130 0L130 1456L1104 1456L1104 1213L430 1213L430 866L1006 866ZM982 1839Q982 1706 886.5 1624Q791 1542 636 1542Q481 1542 385.5 1623Q290 1704 290 1839L495 1839Q495 1776 532.5 1741.5Q570 1707 636 1707Q701 1707 738 1741.5Q775 1776 775 1839Z" />
<glyph glyph-name="ebreve" unicode="&#x0115;" horiz-adv-x="1107" d="M609 -20Q371 -20 221.5 126Q72 272 72 515L72 543Q72 706 135 834.5Q198 963 313.5 1032.5Q429 1102 577 1102Q799 1102 926.5 962Q1054 822 1054 565L1054 447L365 447Q379 341 449.5 277Q520 213 628 213Q795 213 889 334L1031 175Q966 83 855 31.5Q744 -20 609 -20ZM576 868Q490 868 436.5 810Q383 752 368 644L770 644L770 667Q768 763 718 815.5Q668 868 576 868ZM891 1526Q891 1393 795.5 1311Q700 1229 545 1229Q390 1229 294.5 1310Q199 1391 199 1526L404 1526Q404 1463 441.5 1428.5Q479 1394 545 1394Q610 1394 647 1428.5Q684 1463 684 1526Z" />
<glyph glyph-name="Edotaccent" unicode="&#x0116;" horiz-adv-x="1152" d="M1006 631L430 631L430 241L1106 241L1106 0L130 0L130 1456L1104 1456L1104 1213L430 1213L430 866L1006 866ZM634 1841Q703 1841 742.5 1802.5Q782 1764 782 1704Q782 1644 742.5 1606Q703 1568 634 1568Q566 1568 526 1606Q486 1644 486 1704Q486 1764 526.5 1802.5Q567 1841 634 1841Z" />
<glyph glyph-name="edotaccent" unicode="&#x0117;" horiz-adv-x="1107" d="M609 -20Q371 -20 221.5 126Q72 272 72 515L72 543Q72 706 135 834.5Q198 963 313.5 1032.5Q429 1102 577 1102Q799 1102 926.5 962Q1054 822 1054 565L1054 447L365 447Q379 341 449.5 277Q520 213 628 213Q795 213 889 334L1031 175Q966 83 855 31.5Q744 -20 609 -20ZM576 868Q490 868 436.5 810Q383 752 368 644L770 644L770 667Q768 763 718 815.5Q668 868 576 868ZM543 1528Q612 1528 651.5 1489.5Q691 1451 691 1391Q691 1331 651.5 1293Q612 1255 543 1255Q475 1255 435 1293Q395 1331 395 1391Q395 1451 435.5 1489.5Q476 1528 543 1528Z" />
<glyph glyph-name="Eogonek" unicode="&#x0118;" horiz-adv-x="1152" d="M1006 631L430 631L430 241L1106 241L1106 0L954 0Q880 -42 840 -82.5Q800 -123 800 -176Q800 -241 866 -241Q899 -241 946 -221L975 -378Q902 -422 810 -422Q710 -422 646.5 -366.5Q583 -311 583 -213Q583 -86 699 0L130 0L130 1456L1104 1456L1104 1213L430 1213L430 866L1006 866Z" />
<glyph glyph-name="eogonek" unicode="&#x0119;" horiz-adv-x="1107" d="M1031 175Q969 84 854 31L855 31Q781 -11 741 -51.5Q701 -92 701 -145Q701 -210 767 -210Q800 -210 847 -190L876 -347Q803 -391 711 -391Q611 -391 547.5 -335.5Q484 -280 484 -182Q484 -85 547 -17Q333 2 202.5 145.5Q72 289 72 512L72 543Q72 706 135 834.5Q198 963 313.5 1032.5Q429 1102 577 1102Q799 1102 926.5 962Q1054 822 1054 565L1054 447L365 447Q379 341 449.5 277Q520 213 628 213Q795 213 889 334ZM576 868Q490 868 436.5 810Q383 752 368 644L770 644L770 667Q768 763 718 815.5Q668 868 576 868Z" />
<glyph glyph-name="Ecaron" unicode="&#x011a;" horiz-adv-x="1152" d="M1006 631L430 631L430 241L1106 241L1106 0L130 0L130 1456L1104 1456L1104 1213L430 1213L430 866L1006 866ZM635 1707L781 1850L1028 1850L1028 1839L726 1558L543 1558L241 1841L241 1850L488 1850Z" />
<glyph glyph-name="ecaron" unicode="&#x011b;" horiz-adv-x="1107" d="M609 -20Q371 -20 221.5 126Q72 272 72 515L72 543Q72 706 135 834.5Q198 963 313.5 1032.5Q429 1102 577 1102Q799 1102 926.5 962Q1054 822 1054 565L1054 447L365 447Q379 341 449.5 277Q520 213 628 213Q795 213 889 334L1031 175Q966 83 855 31.5Q744 -20 609 -20ZM576 868Q490 868 436.5 810Q383 752 368 644L770 644L770 667Q768 763 718 815.5Q668 868 576 868ZM544 1394L690 1537L937 1537L937 1526L635 1245L452 1245L150 1528L150 1537L397 1537Z" />
<glyph glyph-name="Gcircumflex" unicode="&#x011c;" horiz-adv-x="1395" d="M1282 184Q1201 87 1053 33.5Q905 -20 725 -20Q536 -20 393.5 62.5Q251 145 173.5 302Q96 459 94 671L94 770Q94 988 167.5 1147.5Q241 1307 379.5 1391.5Q518 1476 704 1476Q963 1476 1109 1352.5Q1255 1229 1282 993L990 993Q970 1118 901.5 1176Q833 1234 713 1234Q560 1234 480 1119Q400 1004 399 777L399 684Q399 455 486 338Q573 221 741 221Q910 221 982 293L982 544L709 544L709 765L1282 765ZM1079 1574L1079 1562L849 1562L695 1707L541 1562L315 1562L315 1578L611 1854L779 1854Z" />
<glyph glyph-name="gcircumflex" unicode="&#x011d;" horiz-adv-x="1169" d="M69 549Q69 798 187.5 950Q306 1102 507 1102Q685 1102 784 980L796 1082L1058 1082L1058 36Q1058 -106 993.5 -211Q929 -316 812 -371Q695 -426 538 -426Q419 -426 306 -378.5Q193 -331 135 -256L263 -80Q371 -201 525 -201Q640 -201 704 -139.5Q768 -78 768 35L768 93Q668 -20 505 -20Q310 -20 189.5 132.5Q69 285 69 537ZM358 528Q358 381 417 297.5Q476 214 579 214Q711 214 768 313L768 768Q710 867 581 867Q477 867 417.5 782Q358 697 358 528ZM938 1256L938 1244L708 1244L554 1389L400 1244L174 1244L174 1260L470 1536L638 1536Z" />
<glyph glyph-name="Gbreve" unicode="&#x011e;" horiz-adv-x="1395" d="M1282 184Q1201 87 1053 33.5Q905 -20 725 -20Q536 -20 393.5 62.5Q251 145 173.5 302Q96 459 94 671L94 770Q94 988 167.5 1147.5Q241 1307 379.5 1391.5Q518 1476 704 1476Q963 1476 1109 1352.5Q1255 1229 1282 993L990 993Q970 1118 901.5 1176Q833 1234 713 1234Q560 1234 480 1119Q400 1004 399 777L399 684Q399 455 486 338Q573 221 741 221Q910 221 982 293L982 544L709 544L709 765L1282 765ZM1042 1844Q1042 1711 946.5 1629Q851 1547 696 1547Q541 1547 445.5 1628Q350 1709 350 1844L555 1844Q555 1781 592.5 1746.5Q630 1712 696 1712Q761 1712 798 1746.5Q835 1781 835 1844Z" />
<glyph glyph-name="gbreve" unicode="&#x011f;" horiz-adv-x="1169" d="M69 549Q69 798 187.5 950Q306 1102 507 1102Q685 1102 784 980L796 1082L1058 1082L1058 36Q1058 -106 993.5 -211Q929 -316 812 -371Q695 -426 538 -426Q419 -426 306 -378.5Q193 -331 135 -256L263 -80Q371 -201 525 -201Q640 -201 704 -139.5Q768 -78 768 35L768 93Q668 -20 505 -20Q310 -20 189.5 132.5Q69 285 69 537ZM358 528Q358 381 417 297.5Q476 214 579 214Q711 214 768 313L768 768Q710 867 581 867Q477 867 417.5 782Q358 697 358 528ZM901 1526Q901 1393 805.5 1311Q710 1229 555 1229Q400 1229 304.5 1310Q209 1391 209 1526L414 1526Q414 1463 451.5 1428.5Q489 1394 555 1394Q620 1394 657 1428.5Q694 1463 694 1526Z" />
<glyph glyph-name="Gdotaccent" unicode="&#x0120;" horiz-adv-x="1395" d="M1282 184Q1201 87 1053 33.5Q905 -20 725 -20Q536 -20 393.5 62.5Q251 145 173.5 302Q96 459 94 671L94 770Q94 988 167.5 1147.5Q241 1307 379.5 1391.5Q518 1476 704 1476Q963 1476 1109 1352.5Q1255 1229 1282 993L990 993Q970 1118 901.5 1176Q833 1234 713 1234Q560 1234 480 1119Q400 1004 399 777L399 684Q399 455 486 338Q573 221 741 221Q910 221 982 293L982 544L709 544L709 765L1282 765ZM694 1846Q763 1846 802.5 1807.5Q842 1769 842 1709Q842 1649 802.5 1611Q763 1573 694 1573Q626 1573 586 1611Q546 1649 546 1709Q546 1769 586.5 1807.5Q627 1846 694 1846Z" />
<glyph glyph-name="gdotaccent" unicode="&#x0121;" horiz-adv-x="1169" d="M69 549Q69 798 187.5 950Q306 1102 507 1102Q685 1102 784 980L796 1082L1058 1082L1058 36Q1058 -106 993.5 -211Q929 -316 812 -371Q695 -426 538 -426Q419 -426 306 -378.5Q193 -331 135 -256L263 -80Q371 -201 525 -201Q640 -201 704 -139.5Q768 -78 768 35L768 93Q668 -20 505 -20Q310 -20 189.5 132.5Q69 285 69 537ZM358 528Q358 381 417 297.5Q476 214 579 214Q711 214 768 313L768 768Q710 867 581 867Q477 867 417.5 782Q358 697 358 528ZM553 1528Q622 1528 661.5 1489.5Q701 1451 701 1391Q701 1331 661.5 1293Q622 1255 553 1255Q485 1255 445 1293Q405 1331 405 1391Q405 1451 445.5 1489.5Q486 1528 553 1528Z" />
<glyph glyph-name="uni0122" unicode="&#x0122;" horiz-adv-x="1395" d="M1282 184Q1201 87 1053 33.5Q905 -20 725 -20Q536 -20 393.5 62.5Q251 145 173.5 302Q96 459 94 671L94 770Q94 988 167.5 1147.5Q241 1307 379.5 1391.5Q518 1476 704 1476Q963 1476 1109 1352.5Q1255 1229 1282 993L990 993Q970 1118 901.5 1176Q833 1234 713 1234Q560 1234 480 1119Q400 1004 399 777L399 684Q399 455 486 338Q573 221 741 221Q910 221 982 293L982 544L709 544L709 765L1282 765ZM690 -518L547 -439Q620 -324 623 -197L623 -94L835 -94L835 -165Q835 -258 793.5 -357Q752 -456 690 -518Z" />
<glyph glyph-name="uni0123" unicode="&#x0123;" horiz-adv-x="1169" d="M69 549Q69 798 187.5 950Q306 1102 507 1102Q685 1102 784 980L796 1082L1058 1082L1058 36Q1058 -106 993.5 -211Q929 -316 812 -371Q695 -426 538 -426Q419 -426 306 -378.5Q193 -331 135 -256L263 -80Q371 -201 525 -201Q640 -201 704 -139.5Q768 -78 768 35L768 93Q668 -20 505 -20Q310 -20 189.5 132.5Q69 285 69 537ZM358 528Q358 381 417 297.5Q476 214 579 214Q711 214 768 313L768 768Q710 867 581 867Q477 867 417.5 782Q358 697 358 528ZM581 1720L730 1642Q665 1524 663 1393L662 1259L437 1259L437 1399Q438 1499 477.5 1588Q517 1677 581 1720Z" />
<glyph glyph-name="Hcircumflex" unicode="&#x0124;" horiz-adv-x="1447" d="M1315 0L1015 0L1015 624L430 624L430 0L130 0L130 1456L430 1456L430 866L1015 866L1015 1456L1315 1456ZM1106 1569L1106 1557L876 1557L722 1702L568 1557L342 1557L342 1573L638 1849L806 1849Z" />
<glyph glyph-name="hcircumflex" unicode="&#x0125;" horiz-adv-x="1146" d="M393 964Q508 1102 682 1102Q1034 1102 1039 693L1039 0L750 0L750 685Q750 778 710 822.5Q670 867 577 867Q450 867 393 769L393 0L104 0L104 1536L393 1536ZM908 1636L908 1624L678 1624L524 1769L370 1624L144 1624L144 1640L440 1916L608 1916Z" />
<glyph glyph-name="Hbar" unicode="&#x0126;" horiz-adv-x="1474" d="M1331 1224L1453 1224L1453 1050L1331 1050L1331 0L1031 0L1031 624L446 624L446 0L145 0L145 1050L32 1050L32 1224L145 1224L145 1456L446 1456L446 1224L1031 1224L1031 1456L1331 1456ZM446 866L1031 866L1031 1050L446 1050Z" />
<glyph glyph-name="hbar" unicode="&#x0127;" horiz-adv-x="1176" d="M646 1216L423 1216L423 964Q538 1102 712 1102Q1064 1102 1069 693L1069 0L780 0L780 685Q780 778 740 822.5Q700 867 607 867Q480 867 423 769L423 0L134 0L134 1216L-53 1216L-53 1399L134 1399L134 1536L423 1536L423 1399L646 1399Z" />
<glyph glyph-name="Itilde" unicode="&#x0128;" horiz-adv-x="597" d="M449 0L149 0L149 1456L449 1456ZM675 1835Q675 1722 609 1645.5Q543 1569 448 1569Q410 1569 380.5 1577.5Q351 1586 299 1614Q247 1642 224 1648.5Q201 1655 174 1655Q139 1655 114.5 1630Q90 1605 90 1559L-78 1569Q-78 1680 -12.5 1758Q53 1836 148 1836Q178 1836 204.5 1828.5Q231 1821 291 1792Q351 1763 374 1757Q397 1751 422 1751Q457 1751 482.5 1775.5Q508 1800 508 1846Z" />
<glyph glyph-name="itilde" unicode="&#x0129;" horiz-adv-x="561" d="M423 0L134 0L134 1082L423 1082ZM657 1507Q657 1394 591 1317.5Q525 1241 430 1241Q392 1241 362.5 1249.5Q333 1258 281 1286Q229 1314 206 1320.5Q183 1327 156 1327Q121 1327 96.5 1302Q72 1277 72 1231L-96 1241Q-96 1352 -30.5 1430Q35 1508 130 1508Q160 1508 186.5 1500.5Q213 1493 273 1464Q333 1435 356 1429Q379 1423 404 1423Q439 1423 464.5 1447.5Q490 1472 490 1518Z" />
<glyph glyph-name="Imacron" unicode="&#x012a;" horiz-adv-x="597" d="M449 0L149 0L149 1456L449 1456ZM646 1598L-44 1598L-44 1765L646 1765Z" />
<glyph glyph-name="imacron" unicode="&#x012b;" horiz-adv-x="561" d="M423 0L134 0L134 1082L423 1082ZM628 1270L-62 1270L-62 1437L628 1437Z" />
<glyph glyph-name="Ibreve" unicode="&#x012c;" horiz-adv-x="597" d="M449 0L149 0L149 1456L449 1456ZM646 1839Q646 1706 550.5 1624Q455 1542 300 1542Q145 1542 49.5 1623Q-46 1704 -46 1839L159 1839Q159 1776 196.5 1741.5Q234 1707 300 1707Q365 1707 402 1741.5Q439 1776 439 1839Z" />
<glyph glyph-name="ibreve" unicode="&#x012d;" horiz-adv-x="561" d="M423 0L134 0L134 1082L423 1082ZM628 1511Q628 1378 532.5 1296Q437 1214 282 1214Q127 1214 31.5 1295Q-64 1376 -64 1511L141 1511Q141 1448 178.5 1413.5Q216 1379 282 1379Q347 1379 384 1413.5Q421 1448 421 1511Z" />
<glyph glyph-name="Iogonek" unicode="&#x012e;" horiz-adv-x="597" d="M449 0L149 0L149 1456L449 1456ZM394 2Q320 -40 280 -80.5Q240 -121 240 -174Q240 -239 306 -239Q339 -239 386 -219L415 -376Q342 -420 250 -420Q150 -420 86.5 -364.5Q23 -309 23 -211Q23 -39 246 62Z" />
<glyph glyph-name="iogonek" unicode="&#x012f;" horiz-adv-x="543" d="M416 0L126 0L126 1082L416 1082ZM109 1362Q109 1427 152.5 1469Q196 1511 271 1511Q345 1511 389 1469Q433 1427 433 1362Q433 1296 388.5 1254Q344 1212 271 1212Q198 1212 153.5 1254Q109 1296 109 1362ZM374 0Q300 -42 260 -82.5Q220 -123 220 -176Q220 -241 286 -241Q319 -241 366 -221L395 -378Q322 -422 230 -422Q130 -422 66.5 -366.5Q3 -311 3 -213Q3 -41 226 60Z" />
<glyph glyph-name="Idotaccent" unicode="&#x0130;" horiz-adv-x="597" d="M449 0L149 0L149 1456L449 1456ZM297 1841Q366 1841 405.5 1802.5Q445 1764 445 1704Q445 1644 405.5 1606Q366 1568 297 1568Q229 1568 189 1606Q149 1644 149 1704Q149 1764 189.5 1802.5Q230 1841 297 1841Z" />
<glyph glyph-name="dotlessi" unicode="&#x0131;" horiz-adv-x="561" d="M423 0L134 0L134 1082L423 1082Z" />
<glyph glyph-name="IJ" unicode="&#x0132;" horiz-adv-x="1741" d="M449 0L149 0L149 1456L449 1456ZM1314 1456L1614 1456L1614 448Q1614 309 1552.5 202.5Q1491 96 1379 38Q1267 -20 1126 -20Q895 -20 766 97.5Q637 215 637 430L939 430Q939 323 984 272Q1029 221 1126 221Q1212 221 1263 280Q1314 339 1314 448Z" />
<glyph glyph-name="ij" unicode="&#x0133;" horiz-adv-x="1075" d="M416 0L126 0L126 1082L416 1082ZM109 1362Q109 1427 152.5 1469Q196 1511 271 1511Q345 1511 389 1469Q433 1427 433 1362Q433 1296 388.5 1254Q344 1212 271 1212Q198 1212 153.5 1254Q109 1296 109 1362ZM960 1082L960 -59Q960 -238 865 -337.5Q770 -437 591 -437Q516 -437 448 -420L448 -191Q500 -200 539 -200Q670 -200 670 -61L670 1082ZM647 1362Q647 1427 690.5 1469Q734 1511 809 1511Q884 1511 927.5 1469Q971 1427 971 1362Q971 1296 926.5 1254Q882 1212 809 1212Q736 1212 691.5 1254Q647 1296 647 1362Z" />
<glyph glyph-name="Jcircumflex" unicode="&#x0134;" horiz-adv-x="1144" d="M717 1456L1017 1456L1017 448Q1017 309 955.5 202.5Q894 96 782 38Q670 -20 529 -20Q298 -20 169 97.5Q40 215 40 430L342 430Q342 323 387 272Q432 221 529 221Q615 221 666 280Q717 339 717 448ZM1238 1566L1238 1554L1008 1554L854 1699L700 1554L474 1554L474 1570L770 1846L938 1846Z" />
<glyph glyph-name="jcircumflex" unicode="&#x0135;" horiz-adv-x="577" d="M439 1082L439 -36Q438 -228 338.5 -332.5Q239 -437 59 -437Q-18 -437 -83 -420L-69 -191Q-25 -203 29 -203Q150 -203 150 -27L150 1082ZM659 1230L659 1218L429 1218L275 1363L121 1218L-105 1218L-105 1234L191 1510L359 1510Z" />
<glyph glyph-name="uni0136" unicode="&#x0136;" horiz-adv-x="1300" d="M586 584L430 416L430 0L130 0L130 1456L430 1456L430 796L562 977L933 1456L1302 1456L785 809L1317 0L960 0ZM615 -454L472 -375Q545 -260 548 -133L548 -30L760 -30L760 -101Q760 -194 718.5 -293Q677 -392 615 -454Z" />
<glyph glyph-name="uni0137" unicode="&#x0137;" horiz-adv-x="1094" d="M504 434L400 330L400 0L111 0L111 1536L400 1536L400 685L456 757L733 1082L1080 1082L689 631L1114 0L782 0ZM526 -476L383 -397Q456 -282 459 -155L459 -52L671 -52L671 -123Q671 -216 629.5 -315Q588 -414 526 -476Z" />
<glyph glyph-name="kgreenlandic" unicode="&#x0138;" horiz-adv-x="1208" d="M537 399L419 399L419 0L130 0L130 1082L419 1082L419 675L506 675L788 1082L1153 1082L773 561L1170 0L799 0Z" />
<glyph glyph-name="Lacute" unicode="&#x0139;" horiz-adv-x="1109" d="M430 241L1067 241L1067 0L130 0L130 1456L430 1456ZM344 1846L659 1846L382 1536L147 1536Z" />
<glyph glyph-name="lacute" unicode="&#x013a;" horiz-adv-x="543" d="M416 0L126 0L126 1536L416 1536ZM329 1928L644 1928L367 1618L132 1618Z" />
<glyph glyph-name="uni013B" unicode="&#x013b;" horiz-adv-x="1109" d="M430 241L1067 241L1067 0L130 0L130 1456L430 1456ZM564 -506L421 -427Q494 -312 497 -185L497 -82L709 -82L709 -153Q709 -246 667.5 -345Q626 -444 564 -506Z" />
<glyph glyph-name="uni013C" unicode="&#x013c;" horiz-adv-x="543" d="M416 0L126 0L126 1536L416 1536ZM234 -506L91 -427Q164 -312 167 -185L167 -82L379 -82L379 -153Q379 -246 337.5 -345Q296 -444 234 -506Z" />
<glyph glyph-name="Lcaron" unicode="&#x013d;" horiz-adv-x="1109" d="M430 241L1067 241L1067 0L130 0L130 1456L430 1456ZM763 1032L620 1111Q693 1226 696 1353L696 1456L908 1456L908 1385Q908 1292 866.5 1193Q825 1094 763 1032Z" />
<glyph glyph-name="lcaron" unicode="&#x013e;" horiz-adv-x="693" d="M416 0L126 0L126 1536L416 1536ZM638 1113L495 1192Q568 1307 571 1434L571 1537L783 1537L783 1466Q783 1373 741.5 1274Q700 1175 638 1113Z" />
<glyph glyph-name="Ldot" unicode="&#x013f;" horiz-adv-x="1109" d="M430 241L1067 241L1067 0L130 0L130 1456L430 1456ZM740 966Q809 966 848.5 927.5Q888 889 888 829Q888 769 848.5 731Q809 693 740 693Q672 693 632 731Q592 769 592 829Q592 889 632.5 927.5Q673 966 740 966Z" />
<glyph glyph-name="ldot" unicode="&#x0140;" horiz-adv-x="763" d="M416 0L126 0L126 1536L416 1536ZM661 910Q730 910 769.5 871.5Q809 833 809 773Q809 713 769.5 675Q730 637 661 637Q593 637 553 675Q513 713 513 773Q513 833 553.5 871.5Q594 910 661 910Z" />
<glyph glyph-name="Lslash" unicode="&#x0141;" horiz-adv-x="1142" d="M463 895L678 957L678 791L463 729L463 241L1100 241L1100 0L163 0L163 642L29 604L29 770L163 808L163 1456L463 1456Z" />
<glyph glyph-name="lslash" unicode="&#x0142;" horiz-adv-x="626" d="M451 910L593 957L593 791L451 744L451 0L162 0L162 648L30 604L30 770L162 814L162 1536L451 1536Z" />
<glyph glyph-name="Nacute" unicode="&#x0143;" horiz-adv-x="1446" d="M1314 0L1014 0L430 958L430 0L130 0L130 1456L430 1456L1015 496L1015 1456L1314 1456ZM784 1846L1099 1846L822 1536L587 1536Z" />
<glyph glyph-name="nacute" unicode="&#x0144;" horiz-adv-x="1147" d="M377 1082L386 957Q502 1102 697 1102Q869 1102 953 1001Q1037 900 1039 699L1039 0L750 0L750 692Q750 784 710 825.5Q670 867 577 867Q455 867 394 763L394 0L105 0L105 1082ZM633 1536L948 1536L671 1226L436 1226Z" />
<glyph glyph-name="uni0145" unicode="&#x0145;" horiz-adv-x="1446" d="M1314 0L1014 0L430 958L430 0L130 0L130 1456L430 1456L1015 496L1015 1456L1314 1456ZM687 -514L544 -435Q617 -320 620 -193L620 -90L832 -90L832 -161Q832 -254 790.5 -353Q749 -452 687 -514Z" />
<glyph glyph-name="uni0146" unicode="&#x0146;" horiz-adv-x="1147" d="M377 1082L386 957Q502 1102 697 1102Q869 1102 953 1001Q1037 900 1039 699L1039 0L750 0L750 692Q750 784 710 825.5Q670 867 577 867Q455 867 394 763L394 0L105 0L105 1082ZM535 -506L392 -427Q465 -312 468 -185L468 -82L680 -82L680 -153Q680 -246 638.5 -345Q597 -444 535 -506Z" />
<glyph glyph-name="Ncaron" unicode="&#x0147;" horiz-adv-x="1446" d="M1314 0L1014 0L430 958L430 0L130 0L130 1456L430 1456L1015 496L1015 1456L1314 1456ZM726 1704L872 1847L1119 1847L1119 1836L817 1555L634 1555L332 1838L332 1847L579 1847Z" />
<glyph glyph-name="ncaron" unicode="&#x0148;" horiz-adv-x="1147" d="M377 1082L386 957Q502 1102 697 1102Q869 1102 953 1001Q1037 900 1039 699L1039 0L750 0L750 692Q750 784 710 825.5Q670 867 577 867Q455 867 394 763L394 0L105 0L105 1082ZM575 1394L721 1537L968 1537L968 1526L666 1245L483 1245L181 1528L181 1537L428 1537Z" />
<glyph glyph-name="napostrophe" unicode="&#x0149;" horiz-adv-x="1147" d="M377 1082L386 957Q502 1102 697 1102Q869 1102 953 1001Q1037 900 1039 699L1039 0L750 0L750 692Q750 784 710 825.5Q670 867 577 867Q455 867 394 763L394 0L105 0L105 1082ZM33 1112L-110 1191Q-37 1306 -34 1433L-34 1536L178 1536L178 1465Q178 1372 136.5 1273Q95 1174 33 1112Z" />
<glyph glyph-name="Eng" unicode="&#x014a;" horiz-adv-x="1440" d="M1312 1456L1312 -26Q1312 -222 1210 -329.5Q1108 -437 925 -437Q844 -437 778 -420L792 -182Q838 -194 891 -194Q1012 -194 1012 -20L1012 0L429 980L429 0L128 0L128 1456L429 1456L1012 477L1012 1456Z" />
<glyph glyph-name="eng" unicode="&#x014b;" horiz-adv-x="1156" d="M377 1082L390 930Q503 1102 699 1102Q871 1102 958.5 992Q1046 882 1047 666L1047 -34Q1047 -228 946 -332.5Q845 -437 666 -437Q588 -437 523 -420L537 -189Q582 -201 636 -201Q757 -201 757 -28L757 660Q757 768 718 817.5Q679 867 593 867Q465 867 397 780L397 0L108 0L108 1082Z" />
<glyph glyph-name="Omacron" unicode="&#x014c;" horiz-adv-x="1414" d="M1326 695Q1326 480 1250 318Q1174 156 1032.5 68Q891 -20 708 -20Q527 -20 385 67Q243 154 165 315.5Q87 477 86 687L86 759Q86 974 163.5 1137.5Q241 1301 382.5 1388.5Q524 1476 706 1476Q888 1476 1029.5 1388.5Q1171 1301 1248.5 1137.5Q1326 974 1326 760ZM1022 761Q1022 990 940 1109Q858 1228 706 1228Q555 1228 473 1110.5Q391 993 390 766L390 695Q390 472 472 349Q554 226 708 226Q859 226 940 344.5Q1021 463 1022 690ZM1053 1595L363 1595L363 1762L1053 1762Z" />
<glyph glyph-name="omacron" unicode="&#x014d;" horiz-adv-x="1158" d="M66 551Q66 712 128 838Q190 964 306.5 1033Q423 1102 577 1102Q796 1102 934.5 968Q1073 834 1089 604L1091 530Q1091 281 952 130.5Q813 -20 579 -20Q345 -20 205.5 130Q66 280 66 538ZM355 530Q355 376 413 294.5Q471 213 579 213Q684 213 743 293.5Q802 374 802 551Q802 702 743 785Q684 868 577 868Q471 868 413 785.5Q355 703 355 530ZM923 1286L233 1286L233 1453L923 1453Z" />
<glyph glyph-name="Obreve" unicode="&#x014e;" horiz-adv-x="1414" d="M1326 695Q1326 480 1250 318Q1174 156 1032.5 68Q891 -20 708 -20Q527 -20 385 67Q243 154 165 315.5Q87 477 86 687L86 759Q86 974 163.5 1137.5Q241 1301 382.5 1388.5Q524 1476 706 1476Q888 1476 1029.5 1388.5Q1171 1301 1248.5 1137.5Q1326 974 1326 760ZM1022 761Q1022 990 940 1109Q858 1228 706 1228Q555 1228 473 1110.5Q391 993 390 766L390 695Q390 472 472 349Q554 226 708 226Q859 226 940 344.5Q1021 463 1022 690ZM1053 1836Q1053 1703 957.5 1621Q862 1539 707 1539Q552 1539 456.5 1620Q361 1701 361 1836L566 1836Q566 1773 603.5 1738.5Q641 1704 707 1704Q772 1704 809 1738.5Q846 1773 846 1836Z" />
<glyph glyph-name="obreve" unicode="&#x014f;" horiz-adv-x="1158" d="M66 551Q66 712 128 838Q190 964 306.5 1033Q423 1102 577 1102Q796 1102 934.5 968Q1073 834 1089 604L1091 530Q1091 281 952 130.5Q813 -20 579 -20Q345 -20 205.5 130Q66 280 66 538ZM355 530Q355 376 413 294.5Q471 213 579 213Q684 213 743 293.5Q802 374 802 551Q802 702 743 785Q684 868 577 868Q471 868 413 785.5Q355 703 355 530ZM923 1526Q923 1393 827.5 1311Q732 1229 577 1229Q422 1229 326.5 1310Q231 1391 231 1526L436 1526Q436 1463 473.5 1428.5Q511 1394 577 1394Q642 1394 679 1428.5Q716 1463 716 1526Z" />
<glyph glyph-name="Ohungarumlaut" unicode="&#x0150;" horiz-adv-x="1414" d="M1326 695Q1326 480 1250 318Q1174 156 1032.5 68Q891 -20 708 -20Q527 -20 385 67Q243 154 165 315.5Q87 477 86 687L86 759Q86 974 163.5 1137.5Q241 1301 382.5 1388.5Q524 1476 706 1476Q888 1476 1029.5 1388.5Q1171 1301 1248.5 1137.5Q1326 974 1326 760ZM1022 761Q1022 990 940 1109Q858 1228 706 1228Q555 1228 473 1110.5Q391 993 390 766L390 695Q390 472 472 349Q554 226 708 226Q859 226 940 344.5Q1021 463 1022 690ZM978 1845L1237 1845L971 1544L753 1544ZM587 1845L842 1845L613 1544L401 1544Z" />
<glyph glyph-name="ohungarumlaut" unicode="&#x0151;" horiz-adv-x="1158" d="M66 551Q66 712 128 838Q190 964 306.5 1033Q423 1102 577 1102Q796 1102 934.5 968Q1073 834 1089 604L1091 530Q1091 281 952 130.5Q813 -20 579 -20Q345 -20 205.5 130Q66 280 66 538ZM355 530Q355 376 413 294.5Q471 213 579 213Q684 213 743 293.5Q802 374 802 551Q802 702 743 785Q684 868 577 868Q471 868 413 785.5Q355 703 355 530ZM848 1535L1107 1535L841 1234L623 1234ZM457 1535L712 1535L483 1234L271 1234Z" />
<glyph glyph-name="OE" unicode="&#x0152;" horiz-adv-x="1983" d="M1876 0L990 0Q823 -20 702 -20Q528 -20 390 53.5Q252 127 175.5 260.5Q99 394 96 563L96 880Q96 1053 171.5 1189.5Q247 1326 385.5 1401Q524 1476 700 1476Q823 1476 990 1456L1874 1456L1874 1213L1201 1213L1201 866L1776 866L1776 631L1201 631L1201 241L1876 241ZM702 212Q796 212 900 225L900 1229Q788 1243 700 1243Q550 1243 468 1150.5Q386 1058 385 885L385 576Q385 400 468.5 306Q552 212 702 212Z" />
<glyph glyph-name="oe" unicode="&#x0153;" horiz-adv-x="1847" d="M83 551Q83 712 144 837.5Q205 963 321 1032.5Q437 1102 591 1102Q822 1102 962 953Q1096 1104 1311 1102Q1525 1102 1648 973Q1771 844 1771 608L1771 450L1117 450Q1133 337 1198.5 274.5Q1264 212 1367 212Q1452 212 1519 228.5Q1586 245 1668 290L1747 103Q1674 45 1565 12.5Q1456 -20 1337 -20Q1104 -20 964 129Q826 -20 593 -20Q360 -20 221.5 129.5Q83 279 83 538ZM372 530Q372 375 428.5 293.5Q485 212 593 212Q699 212 756 292.5Q813 373 813 551Q813 704 755 786Q697 868 591 868Q486 868 429 786Q372 704 372 530ZM1311 868Q1234 868 1185 811Q1136 754 1120 647L1487 647L1487 673Q1487 770 1440.5 819Q1394 868 1311 868Z" />
<glyph glyph-name="Racute" unicode="&#x0154;" horiz-adv-x="1307" d="M669 533L430 533L430 0L130 0L130 1456L671 1456Q929 1456 1069 1341Q1209 1226 1209 1016Q1209 867 1144.5 767.5Q1080 668 949 609L1264 14L1264 0L942 0ZM430 776L672 776Q785 776 847 833.5Q909 891 909 992Q909 1095 850.5 1154Q792 1213 671 1213L430 1213ZM656 1846L971 1846L694 1536L459 1536Z" />
<glyph glyph-name="racute" unicode="&#x0155;" horiz-adv-x="747" d="M719 811Q660 819 615 819Q451 819 400 708L400 0L111 0L111 1082L384 1082L392 953Q479 1102 633 1102Q681 1102 723 1089ZM468 1536L783 1536L506 1226L271 1226Z" />
<glyph glyph-name="uni0156" unicode="&#x0156;" horiz-adv-x="1307" d="M669 533L430 533L430 0L130 0L130 1456L671 1456Q929 1456 1069 1341Q1209 1226 1209 1016Q1209 867 1144.5 767.5Q1080 668 949 609L1264 14L1264 0L942 0ZM430 776L672 776Q785 776 847 833.5Q909 891 909 992Q909 1095 850.5 1154Q792 1213 671 1213L430 1213ZM575 -506L432 -427Q505 -312 508 -185L508 -82L720 -82L720 -153Q720 -246 678.5 -345Q637 -444 575 -506Z" />
<glyph glyph-name="uni0157" unicode="&#x0157;" horiz-adv-x="747" d="M719 811Q660 819 615 819Q451 819 400 708L400 0L111 0L111 1082L384 1082L392 953Q479 1102 633 1102Q681 1102 723 1089ZM223 -506L80 -427Q153 -312 156 -185L156 -82L368 -82L368 -153Q368 -246 326.5 -345Q285 -444 223 -506Z" />
<glyph glyph-name="Rcaron" unicode="&#x0158;" horiz-adv-x="1307" d="M669 533L430 533L430 0L130 0L130 1456L671 1456Q929 1456 1069 1341Q1209 1226 1209 1016Q1209 867 1144.5 767.5Q1080 668 949 609L1264 14L1264 0L942 0ZM430 776L672 776Q785 776 847 833.5Q909 891 909 992Q909 1095 850.5 1154Q792 1213 671 1213L430 1213ZM598 1704L744 1847L991 1847L991 1836L689 1555L506 1555L204 1838L204 1847L451 1847Z" />
</font>
</defs>
</svg>
