<?xml version="1.0" standalone="no"?><!DOCTYPE svg PUBLIC "-//W3C//DTD SVG 1.1//EN" "http://www.w3.org/Graphics/SVG/1.1/DTD/svg11.dtd" ><svg xmlns="http://www.w3.org/2000/svg"><metadata></metadata><defs>
<font id="Roboto-Thin" >
<font-face font-family="Roboto Thin" font-stretch="normal" units-per-em="2048" weight="250" panose-1="2,0,0,0,0,0,0,0,0,0" ascent="1900" descent="-500" x-height="1082" underline-thickness="100" underline-position="-250" unicode-range="U+00000000-00065533" bbox="-1500,-555,2308,2163" />
<missing-glyph horiz-adv-x="908" d="M808 0L100 0L100 1456L808 1456ZM754 84L754 1371L480 728ZM154 1359L154 96L422 728ZM194 54L709 54L451 660ZM451 796L709 1402L194 1402Z" />
<glyph glyph-name="space" unicode="&#x20;" horiz-adv-x="490" d="" />
<glyph glyph-name="exclam" unicode="&#x21;" horiz-adv-x="397" d="M221 401L167 401L167 1456L221 1456ZM147 49Q147 72 163 88.5Q179 105 202 105Q225 105 241.5 88.5Q258 72 258 49Q258 26 241.5 10Q225 -6 202 -6Q179 -6 163 10Q147 26 147 49Z" />
<glyph glyph-name="quotedbl" unicode="&#x22;" horiz-adv-x="521" d="M210 1393L200 1122L150 1122Q155 1390 155 1536L210 1536ZM411 1393L401 1122L351 1122L357 1390L357 1536L411 1536Z" />
<glyph glyph-name="numbersign" unicode="&#x23;" horiz-adv-x="1121" d="M742 410L378 410L304 0L248 0L322 410L51 410L51 462L332 462L427 986L127 986L127 1040L437 1040L512 1456L568 1456L492 1040L857 1040L933 1456L989 1456L913 1040L1167 1040L1167 986L903 986L807 462L1092 462L1092 410L798 410L723 0L667 0ZM388 462L751 462L847 986L482 986Z" />
<glyph glyph-name="dollar" unicode="&#x24;" horiz-adv-x="1121" d="M947 344Q947 435 912.5 494.5Q878 554 796 604Q714 654 553.5 709.5Q393 765 317 817.5Q241 870 204.5 940Q168 1010 168 1110Q168 1273 275 1371.5Q382 1470 554 1476L554 1663L609 1663L609 1476Q793 1466 893 1353.5Q993 1241 993 1047L939 1047Q939 1217 842.5 1320.5Q746 1424 579 1424Q417 1424 319.5 1337Q222 1250 222 1112Q222 1014 254.5 957Q287 900 362.5 853.5Q438 807 575 760Q712 713 785 676.5Q858 640 906 592Q954 544 977.5 485Q1001 426 1001 346Q1001 187 897.5 88.5Q794 -10 620 -20L620 -208L565 -208L565 -21Q353 -13 237 99.5Q121 212 121 409L175 409Q175 232 285.5 132Q396 32 586 32Q743 32 845 122Q947 212 947 344Z" />
<glyph glyph-name="percent" unicode="&#x25;" horiz-adv-x="1527" d="M114 1176Q114 1305 192 1391Q270 1477 386 1477Q503 1477 580 1390.5Q657 1304 657 1171L657 1099Q657 972 580.5 886Q504 800 388 800Q271 800 192.5 885Q114 970 114 1105ZM169 1099Q169 995 228.5 925Q288 855 388 855Q484 855 543 924Q602 993 602 1104L602 1176Q602 1284 542.5 1353Q483 1422 386 1422Q291 1422 230 1353Q169 1284 169 1169ZM870 357Q870 486 947.5 571.5Q1025 657 1141 657Q1258 657 1335.5 571.5Q1413 486 1413 350L1413 279Q1413 150 1335.5 64.5Q1258 -21 1143 -21Q1027 -21 948.5 64Q870 149 870 284ZM925 279Q925 172 984.5 103Q1044 34 1143 34Q1241 34 1299.5 103.5Q1358 173 1358 284L1358 357Q1358 470 1299.5 536Q1241 602 1141 602Q1042 602 983.5 534.5Q925 467 925 353ZM422 131L377 162L1088 1300L1133 1269Z" />
<glyph glyph-name="ampersand" unicode="&#x26;" horiz-adv-x="1247" d="M422 802Q334 910 295.5 996Q257 1082 257 1167Q257 1308 341.5 1392.5Q426 1477 562 1477Q687 1477 762.5 1403.5Q838 1330 838 1213Q838 1077 650 921L494 797L969 258Q1084 418 1084 632L1139 632Q1139 395 1006 216L1196 0L1129 0L972 176Q776 -20 549 -20Q348 -20 231.5 80.5Q115 181 115 352Q115 450 171.5 545.5Q228 641 371 762ZM549 34Q660 34 760.5 81.5Q861 129 937 217L454 764L402 723Q284 621 226.5 532Q169 443 169 352Q169 210 272.5 122Q376 34 549 34ZM312 1169Q312 1011 462 834L637 973Q782 1094 782 1213Q782 1305 720.5 1364Q659 1423 562 1423Q449 1423 380.5 1352.5Q312 1282 312 1169Z" />
<glyph glyph-name="quotesingle" unicode="&#x27;" horiz-adv-x="340" d="M200 1367L186 1122L136 1122L145 1365L145 1536L200 1536Z" />
<glyph glyph-name="parenleft" unicode="&#x28;" horiz-adv-x="607" d="M148 586Q148 802 201 1011Q254 1220 351.5 1386Q449 1552 562 1623L581 1580Q483 1515 396 1363Q309 1211 257 1011Q205 811 202 616L202 564Q202 366 252 162.5Q302 -41 391 -200.5Q480 -360 581 -427L562 -470Q446 -397 350.5 -238.5Q255 -80 201.5 130.5Q148 341 148 586Z" />
<glyph glyph-name="parenright" unicode="&#x29;" horiz-adv-x="623" d="M461 566Q461 341 407.5 130.5Q354 -80 258.5 -238.5Q163 -397 47 -470L28 -427Q132 -357 221 -195Q310 -33 358.5 167Q407 367 407 590Q407 792 356 995.5Q305 1199 216.5 1356.5Q128 1514 28 1580L47 1623Q160 1552 257.5 1386Q355 1220 408 1011Q461 802 461 566Z" />
<glyph glyph-name="asterisk" unicode="&#x2a;" horiz-adv-x="856" d="M393 1017L30 1141L48 1195L410 1062L411 1456L467 1456L460 1061L812 1204L832 1151L472 1014L721 697L674 664L432 986L204 661L159 693Z" />
<glyph glyph-name="plus" unicode="&#x2b;" horiz-adv-x="1151" d="M590 702L1071 702L1071 649L590 649L590 146L535 146L535 649L73 649L73 702L535 702L535 1206L590 1206Z" />
<glyph glyph-name="comma" unicode="&#x2c;" horiz-adv-x="383" d="M129 -255L92 -223Q173 -119 180 -8L181 159L235 159L235 13Q231 -146 129 -255Z" />
<glyph glyph-name="hyphen" unicode="&#x2d;" horiz-adv-x="607" d="M531 639L61 639L61 693L531 693Z" />
<glyph glyph-name="period" unicode="&#x2e;" horiz-adv-x="439" d="M147 49Q147 72 163 88.5Q179 105 202 105Q225 105 241.5 88.5Q258 72 258 49Q258 26 241.5 10Q225 -6 202 -6Q179 -6 163 10Q147 26 147 49Z" />
<glyph glyph-name="slash" unicode="&#x2f;" horiz-adv-x="782" d="M101 -125L42 -125L650 1456L709 1456Z" />
<glyph glyph-name="zero" unicode="&#x30;" horiz-adv-x="1121" d="M996 594Q996 301 882 140.5Q768 -20 562 -20Q357 -20 241 142Q125 304 125 598L125 862Q125 1152 239.5 1314.5Q354 1477 560 1477Q767 1477 881.5 1314.5Q996 1152 996 858ZM942 862Q942 1127 842.5 1275Q743 1423 560 1423Q376 1423 277.5 1274.5Q179 1126 179 857L179 596Q179 332 280 183Q381 34 562 34Q744 34 843 183Q942 332 942 601Z" />
<glyph glyph-name="one" unicode="&#x31;" horiz-adv-x="1121" d="M659 0L605 0L605 1388L187 1231L187 1290L648 1460L659 1460Z" />
<glyph glyph-name="two" unicode="&#x32;" horiz-adv-x="1121" d="M1024 0L153 0L153 54L650 627Q772 770 831.5 881Q891 992 891 1085Q891 1245 798 1333.5Q705 1422 536 1422Q434 1422 350 1373Q266 1324 218.5 1237.5Q171 1151 171 1045L117 1045Q117 1162 171 1262Q225 1362 321 1419Q417 1476 536 1476Q730 1476 838 1373Q946 1270 946 1085Q946 915 755 678L664 567L224 54L1024 54Z" />
<glyph glyph-name="three" unicode="&#x33;" horiz-adv-x="1121" d="M417 770L539 770Q710 773 815.5 861Q921 949 921 1085Q921 1240 826.5 1331Q732 1422 564 1422Q400 1422 294 1326Q188 1230 188 1074L134 1074Q134 1190 190 1282Q246 1374 345 1425Q444 1476 564 1476Q753 1476 864 1369.5Q975 1263 975 1081Q975 965 901.5 874Q828 783 703 745Q846 712 926.5 621Q1007 530 1007 386Q1007 200 888 90Q769 -20 573 -20Q441 -20 329 37Q217 94 160 188Q103 282 103 405L157 405Q157 245 275 139.5Q393 34 573 34Q752 34 852.5 126.5Q953 219 953 382Q953 543 845.5 628Q738 713 531 714L417 714Z" />
<glyph glyph-name="four" unicode="&#x34;" horiz-adv-x="1121" d="M842 451L1094 451L1094 397L842 397L842 0L788 0L788 397L82 397L82 427L777 1456L842 1456ZM166 451L788 451L788 1391L704 1253Z" />
<glyph glyph-name="five" unicode="&#x35;" horiz-adv-x="1121" d="M231 762L299 1456L1009 1456L1009 1403L348 1403L289 819Q341 862 426.5 889Q512 916 594 916Q790 916 907 792Q1024 668 1024 464Q1024 227 918 103.5Q812 -20 614 -20Q427 -20 312 87Q197 194 182 383L237 383Q253 212 349 123Q445 34 614 34Q794 34 881.5 142.5Q969 251 969 462Q969 644 867.5 753Q766 862 595 862Q490 862 412 834Q334 806 272 746Z" />
<glyph glyph-name="six" unicode="&#x36;" horiz-adv-x="1121" d="M840 1476L840 1422Q534 1422 365 1241Q196 1060 183 733Q241 836 351 896.5Q461 957 592 957Q784 957 898.5 826Q1013 695 1013 480Q1013 341 961 226Q909 111 814 45.5Q719 -20 602 -20Q468 -20 360 42Q252 104 191 219Q130 334 128 481L128 660Q128 1048 311 1262Q494 1476 840 1476ZM585 903Q445 903 328.5 822.5Q212 742 182 621L182 493Q182 287 299 160Q416 33 602 33Q757 33 858 162.5Q959 292 959 480Q959 674 859 788.5Q759 903 585 903Z" />
<glyph glyph-name="seven" unicode="&#x37;" horiz-adv-x="1121" d="M1007 1422L366 0L311 0L945 1402L77 1402L77 1456L1007 1456Z" />
<glyph glyph-name="eight" unicode="&#x38;" horiz-adv-x="1121" d="M986 1086Q986 964 910.5 872.5Q835 781 715 745Q858 707 943 607Q1028 507 1028 379Q1028 194 901.5 87Q775 -20 565 -20Q351 -20 225.5 87Q100 194 100 379Q100 508 182.5 607.5Q265 707 408 745Q288 781 214.5 872.5Q141 964 141 1086Q141 1266 256.5 1371Q372 1476 561 1476Q751 1476 868.5 1369Q986 1262 986 1086ZM973 374Q973 524 858 621Q743 718 563 718Q382 718 268 621.5Q154 525 154 374Q154 220 265.5 127Q377 34 565 34Q749 34 861 127.5Q973 221 973 374ZM932 1091Q932 1233 825 1327.5Q718 1422 561 1422Q400 1422 297.5 1331Q195 1240 195 1091Q195 949 297 860.5Q399 772 563 772Q725 772 828.5 861.5Q932 951 932 1091Z" />
<glyph glyph-name="nine" unicode="&#x39;" horiz-adv-x="1121" d="M939 724Q886 609 774.5 538.5Q663 468 523 468Q403 468 307 532.5Q211 597 157 710Q103 823 103 958Q103 1101 158 1220.5Q213 1340 312 1408Q411 1476 531 1476Q756 1476 874 1329.5Q992 1183 993 907L993 740Q993 371 829 177.5Q665 -16 346 -20L298 -20L300 34L343 34Q635 37 787 212Q939 387 939 724ZM523 522Q671 522 785 609Q899 696 939 840L939 902Q939 1155 834.5 1288.5Q730 1422 535 1422Q428 1422 341 1359Q254 1296 205.5 1187.5Q157 1079 157 958Q157 839 204 737.5Q251 636 334 579Q417 522 523 522Z" />
<glyph glyph-name="colon" unicode="&#x3a;" horiz-adv-x="364" d="M120 49Q120 72 136 88.5Q152 105 175 105Q198 105 214.5 88.5Q231 72 231 49Q231 26 214.5 10Q198 -6 175 -6Q152 -6 136 10Q120 26 120 49ZM125 1011Q125 1034 141 1050.5Q157 1067 180 1067Q203 1067 219.5 1050.5Q236 1034 236 1011Q236 988 219.5 972Q203 956 180 956Q157 956 141 972Q125 988 125 1011Z" />
<glyph glyph-name="semicolon" unicode="&#x3b;" horiz-adv-x="364" d="M126 1011Q126 1034 142 1050.5Q158 1067 181 1067Q204 1067 220.5 1050.5Q237 1034 237 1011Q237 988 220.5 972Q204 956 181 956Q158 956 142 972Q126 988 126 1011ZM118 -255L81 -223Q162 -119 169 -8L170 159L224 159L224 13Q220 -146 118 -255Z" />
<glyph glyph-name="less" unicode="&#x3c;" horiz-adv-x="1053" d="M155 666L919 321L919 262L82 641L82 691L919 1069L919 1011Z" />
<glyph glyph-name="equal" unicode="&#x3d;" horiz-adv-x="1142" d="M981 843L147 843L147 897L981 897ZM981 436L147 436L147 490L981 490Z" />
<glyph glyph-name="greater" unicode="&#x3e;" horiz-adv-x="1053" d="M872 668L114 1013L114 1072L950 694L950 644L114 265L114 324Z" />
<glyph glyph-name="question" unicode="&#x3f;" horiz-adv-x="893" d="M395 400Q397 512 429.5 583.5Q462 655 552 739Q642 823 678 874Q714 925 730.5 980Q747 1035 747 1112Q747 1257 670 1340Q593 1423 458 1423Q314 1423 231.5 1337Q149 1251 147 1116L93 1116Q95 1278 198 1377Q301 1476 458 1476Q615 1476 708 1377Q801 1278 801 1110Q801 995 756 905.5Q711 816 581 698Q449 595 449 400ZM371 49Q371 72 387 88.5Q403 105 426 105Q449 105 465.5 88.5Q482 72 482 49Q482 26 465.5 10Q449 -6 426 -6Q403 -6 387 10Q371 26 371 49Z" />
<glyph glyph-name="at" unicode="&#x40;" horiz-adv-x="1902" d="M1770 523Q1765 369 1715 240Q1665 111 1584 45.5Q1503 -20 1400 -20Q1300 -20 1238 41Q1176 102 1165 210Q1055 -20 832 -20Q696 -20 629.5 104.5Q563 229 581 436Q605 687 726 837.5Q847 988 1018 988Q1133 988 1216 922L1268 878L1219 293Q1208 170 1256.5 102.5Q1305 35 1403 35Q1537 35 1619.5 164Q1702 293 1713 523Q1735 934 1553 1144Q1371 1354 1000 1354Q776 1354 593 1242Q410 1130 305 930Q200 730 187 478Q175 223 259 23.5Q343 -176 513 -287Q683 -398 913 -398Q1003 -398 1091 -376.5Q1179 -355 1243 -318L1267 -364Q1203 -406 1101.5 -429.5Q1000 -453 909 -453Q659 -453 479 -340.5Q299 -228 209.5 -16.5Q120 195 132 478Q144 758 255 970Q366 1182 560.5 1296.5Q755 1411 1004 1411Q1396 1411 1592.5 1181.5Q1789 952 1770 523ZM634 279Q645 163 696.5 98.5Q748 34 830 34Q955 34 1036 111.5Q1117 189 1168 344L1211 851Q1142 933 1015 933Q888 933 791.5 833Q695 733 655 557Q621 405 634 279Z" />
<glyph glyph-name="A" unicode="&#x41;" horiz-adv-x="1223" d="M967 435L254 435L92 0L33 0L578 1456L644 1456L1189 0L1130 0ZM274 489L947 489L611 1391Z" />
<glyph glyph-name="B" unicode="&#x42;" horiz-adv-x="1235" d="M200 0L200 1456L583 1456Q818 1456 938.5 1360.5Q1059 1265 1059 1083Q1059 951 992 864Q925 777 803 753Q941 735 1033 633.5Q1125 532 1125 401Q1125 215 1004.5 107.5Q884 0 669 0ZM254 719L254 54L675 54Q860 54 965.5 145.5Q1071 237 1071 399Q1071 537 969 626.5Q867 716 696 719ZM254 773L603 773Q802 773 903 849.5Q1004 926 1004 1087Q1004 1397 595 1402L254 1402Z" />
<glyph glyph-name="C" unicode="&#x43;" horiz-adv-x="1327" d="M1190 446Q1169 221 1035 100.5Q901 -20 671 -20Q516 -20 396.5 58.5Q277 137 211 281.5Q145 426 144 612L144 837Q144 1023 209 1169.5Q274 1316 394.5 1396Q515 1476 671 1476Q899 1476 1034 1356Q1169 1236 1190 1012L1136 1012Q1113 1213 996 1317.5Q879 1422 671 1422Q459 1422 328.5 1262Q198 1102 198 833L198 619Q198 447 256 314.5Q314 182 422.5 108Q531 34 671 34Q880 34 997.5 137Q1115 240 1136 446Z" />
<glyph glyph-name="D" unicode="&#x44;" horiz-adv-x="1340" d="M200 0L200 1456L603 1456Q772 1456 909 1376Q1046 1296 1124 1151.5Q1202 1007 1204 828L1204 639Q1204 457 1127.5 311Q1051 165 914 83Q777 1 608 0ZM254 1402L254 54L603 54Q756 54 881.5 128.5Q1007 203 1078 336.5Q1149 470 1150 633L1150 820Q1150 983 1080.5 1116Q1011 1249 886.5 1324.5Q762 1400 611 1402Z" />
<glyph glyph-name="E" unicode="&#x45;" horiz-adv-x="1166" d="M984 722L254 722L254 54L1086 54L1086 0L200 0L200 1456L1086 1456L1086 1402L254 1402L254 776L984 776Z" />
<glyph glyph-name="F" unicode="&#x46;" horiz-adv-x="1172" d="M1000 716L254 716L254 0L200 0L200 1456L1102 1456L1102 1402L254 1402L254 772L1000 772Z" />
<glyph glyph-name="G" unicode="&#x47;" horiz-adv-x="1406" d="M1226 156Q1171 80 1033 30Q895 -20 729 -20Q567 -20 440 59Q313 138 241.5 282Q170 426 168 608L168 858Q168 1037 237 1179Q306 1321 431 1398.5Q556 1476 712 1476Q929 1476 1065.5 1365Q1202 1254 1224 1062L1170 1062Q1143 1236 1025 1329Q907 1422 712 1422Q492 1422 357 1265Q222 1108 222 852L222 620Q222 449 285.5 315Q349 181 464.5 107.5Q580 34 729 34Q875 34 1000 77Q1125 120 1172 181L1172 605L727 605L727 660L1226 660Z" />
<glyph glyph-name="H" unicode="&#x48;" horiz-adv-x="1438" d="M1238 0L1184 0L1184 722L254 722L254 0L200 0L200 1456L254 1456L254 776L1184 776L1184 1456L1238 1456Z" />
<glyph glyph-name="I" unicode="&#x49;" horiz-adv-x="534" d="M294 0L240 0L240 1456L294 1456Z" />
<glyph glyph-name="J" unicode="&#x4a;" horiz-adv-x="1125" d="M876 1456L930 1456L930 442Q930 231 815 105.5Q700 -20 510 -20Q306 -20 198 89Q90 198 90 401L144 401Q144 223 235.5 128.5Q327 34 510 34Q670 34 771.5 141Q873 248 876 432Z" />
<glyph glyph-name="K" unicode="&#x4b;" horiz-adv-x="1300" d="M487 766L254 551L254 0L200 0L200 1456L254 1456L254 614L494 849L1098 1456L1176 1456L527 803L1226 0L1156 0Z" />
<glyph glyph-name="L" unicode="&#x4c;" horiz-adv-x="1057" d="M255 54L1002 54L1002 0L200 0L200 1456L255 1456Z" />
<glyph glyph-name="M" unicode="&#x4d;" horiz-adv-x="1756" d="M277 1456L876 79L1477 1456L1556 1456L1556 0L1502 0L1502 1376L898 0L855 0L254 1369L254 0L200 0L200 1456Z" />
<glyph glyph-name="N" unicode="&#x4e;" horiz-adv-x="1449" d="M1249 0L1195 0L255 1364L255 0L200 0L200 1456L255 1456L1195 95L1195 1456L1249 1456Z" />
<glyph glyph-name="O" unicode="&#x4f;" horiz-adv-x="1364" d="M1231 619Q1231 430 1163.5 284.5Q1096 139 971 59.5Q846 -20 683 -20Q437 -20 285 155Q133 330 133 627L133 837Q133 1025 200.5 1171Q268 1317 393.5 1396.5Q519 1476 681 1476Q844 1476 969.5 1396.5Q1095 1317 1163 1170.5Q1231 1024 1231 837ZM1177 839Q1177 1103 1043 1262.5Q909 1422 681 1422Q456 1422 322 1263.5Q188 1105 188 832L188 619Q188 445 248.5 311.5Q309 178 421 106Q533 34 683 34Q911 34 1044 193Q1177 352 1177 627Z" />
<glyph glyph-name="P" unicode="&#x50;" horiz-adv-x="1230" d="M254 615L254 0L200 0L200 1456L655 1456Q878 1456 1001.5 1343.5Q1125 1231 1125 1031Q1125 833 1004.5 725Q884 617 662 615ZM254 669L655 669Q852 669 961.5 764Q1071 859 1071 1029Q1071 1205 961.5 1303.5Q852 1402 655 1402L254 1402Z" />
<glyph glyph-name="Q" unicode="&#x51;" horiz-adv-x="1364" d="M1231 619Q1231 415 1151.5 261Q1072 107 924 33L1191 -228L1152 -263L868 10Q778 -20 683 -20Q437 -20 285 155Q133 330 133 627L133 837Q133 1025 200.5 1171Q268 1317 393.5 1396.5Q519 1476 681 1476Q844 1476 969.5 1396.5Q1095 1317 1163 1170.5Q1231 1024 1231 837ZM1177 839Q1177 1103 1043 1262.5Q909 1422 681 1422Q456 1422 322 1263.5Q188 1105 188 832L188 619Q188 445 248.5 311.5Q309 178 421 106Q533 34 683 34Q911 34 1044 193Q1177 352 1177 627Z" />
<glyph glyph-name="R" unicode="&#x52;" horiz-adv-x="1340" d="M754 623L249 623L249 0L195 0L195 1456L659 1456Q878 1456 1007.5 1343Q1137 1230 1137 1036Q1137 887 1044.5 775.5Q952 664 809 637L1198 14L1198 0L1141 0ZM249 677L708 677Q876 677 979.5 779Q1083 881 1083 1036Q1083 1206 968.5 1304Q854 1402 655 1402L249 1402Z" />
<glyph glyph-name="S" unicode="&#x53;" horiz-adv-x="1211" d="M1072 349Q1072 442 1028.5 506.5Q985 571 891.5 620.5Q798 670 609 722Q420 774 325.5 827Q231 880 187 950Q143 1020 143 1120Q143 1279 277 1377.5Q411 1476 626 1476Q766 1476 877.5 1421.5Q989 1367 1050 1268.5Q1111 1170 1111 1046L1057 1046Q1057 1209 937 1315.5Q817 1422 626 1422Q434 1422 315.5 1336.5Q197 1251 197 1122Q197 991 300 911Q403 831 640 769.5Q877 708 987 627Q1127 524 1127 351Q1127 241 1065 156.5Q1003 72 889 26Q775 -20 633 -20Q475 -20 349 32.5Q223 85 159.5 182Q96 279 96 411L150 411Q150 232 284 133Q418 34 633 34Q824 34 948 121.5Q1072 209 1072 349Z" />
<glyph glyph-name="T" unicode="&#x54;" horiz-adv-x="1224" d="M1169 1402L639 1402L639 0L585 0L585 1402L55 1402L55 1456L1169 1456Z" />
<glyph glyph-name="U" unicode="&#x55;" horiz-adv-x="1365" d="M1180 1456L1180 470Q1180 239 1046 109.5Q912 -20 683 -20Q454 -20 320 109.5Q186 239 185 466L185 1456L239 1456L239 472Q239 270 360.5 152Q482 34 683 34Q884 34 1005 152Q1126 270 1126 473L1126 1456Z" />
<glyph glyph-name="V" unicode="&#x56;" horiz-adv-x="1223" d="M583 142L612 54L641 142L1130 1456L1189 1456L645 0L579 0L35 1456L94 1456Z" />
<glyph glyph-name="W" unicode="&#x57;" horiz-adv-x="1855" d="M489 90L555 330L899 1456L959 1456L1301 330L1366 90L1434 330L1734 1456L1793 1456L1401 0L1340 0L979 1214L928 1368L879 1214L515 0L454 0L61 1456L121 1456L423 330Z" />
<glyph glyph-name="X" unicode="&#x58;" horiz-adv-x="1223" d="M611 785L1081 1456L1149 1456L645 743L1168 0L1101 0L611 701L119 0L54 0L577 743L73 1456L141 1456Z" />
<glyph glyph-name="Y" unicode="&#x59;" horiz-adv-x="1223" d="M609 602L1119 1456L1185 1456L636 553L636 0L582 0L582 553L33 1456L105 1456Z" />
<glyph glyph-name="Z" unicode="&#x5a;" horiz-adv-x="1224" d="M168 54L1130 54L1130 0L94 0L94 44L1023 1403L134 1403L134 1456L1098 1456L1098 1418Z" />
<glyph glyph-name="bracketleft" unicode="&#x5b;" horiz-adv-x="439" d="M464 1610L235 1610L235 -258L464 -258L464 -312L181 -312L181 1664L464 1664Z" />
<glyph glyph-name="backslash" unicode="&#x5c;" horiz-adv-x="774" d="M57 1456L115 1456L723 -125L665 -125Z" />
<glyph glyph-name="bracketright" unicode="&#x5d;" horiz-adv-x="439" d="M-8 1664L275 1664L275 -312L-8 -312L-8 -258L220 -258L220 1610L-8 1610Z" />
<glyph glyph-name="asciicircum" unicode="&#x5e;" horiz-adv-x="849" d="M416 1382L150 729L91 729L390 1456L442 1456L741 729L680 729Z" />
<glyph glyph-name="underscore" unicode="&#x5f;" horiz-adv-x="845" d="M845 -54L-1 -54L-1 0L845 0Z" />
<glyph glyph-name="grave" unicode="&#x60;" horiz-adv-x="537" d="M403 1270L344 1270L149 1536L215 1536Z" />
<glyph glyph-name="a" unicode="&#x61;" horiz-adv-x="1081" d="M871 0Q851 69 851 198Q787 94 676 37Q565 -20 425 -20Q275 -20 183.5 61.5Q92 143 92 274Q92 423 226.5 512.5Q361 602 584 604L851 604L851 762Q851 898 765.5 973Q680 1048 521 1048Q373 1048 274 972Q175 896 175 784L121 786Q121 918 237 1010Q353 1102 521 1102Q696 1102 799 1014.5Q902 927 905 768L905 251Q905 73 933 9L933 0ZM425 33Q577 33 686.5 101Q796 169 851 292L851 549L601 549Q369 549 246 457Q146 382 146 270Q146 171 225 102Q304 33 425 33Z" />
<glyph glyph-name="b" unicode="&#x62;" horiz-adv-x="1121" d="M999 531Q999 278 890 129Q781 -20 593 -20Q471 -20 375 30.5Q279 81 224 171L224 0L170 0L170 1536L224 1536L224 885Q281 992 374.5 1047Q468 1102 591 1102Q781 1102 890 956.5Q999 811 999 548ZM943 552Q943 785 850.5 916.5Q758 1048 592 1048Q456 1048 361.5 978Q267 908 224 770L224 274Q267 159 361.5 96.5Q456 34 594 34Q761 34 852 167Q943 300 943 552Z" />
<glyph glyph-name="c" unicode="&#x63;" horiz-adv-x="1039" d="M539 34Q686 34 781.5 112Q877 190 886 328L940 328Q932 171 819 75.5Q706 -20 539 -20Q336 -20 216.5 127Q97 274 97 526L97 562Q97 808 216.5 955Q336 1102 537 1102Q709 1102 821 999Q933 896 940 725L886 725Q879 871 783.5 959.5Q688 1048 537 1048Q356 1048 253.5 917.5Q151 787 151 555L151 520Q151 293 254.5 163.5Q358 34 539 34Z" />
<glyph glyph-name="d" unicode="&#x64;" horiz-adv-x="1121" d="M122 552Q122 811 231 956.5Q340 1102 530 1102Q652 1102 745.5 1047Q839 992 897 883L897 1536L951 1536L951 0L897 0L897 173Q842 81 746 30.5Q650 -20 528 -20Q340 -20 231 129Q122 278 122 538ZM178 531Q178 301 269 167.5Q360 34 527 34Q661 34 756 93.5Q851 153 897 268L897 775Q804 1048 529 1048Q363 1048 270.5 917Q178 786 178 531Z" />
<glyph glyph-name="e" unicode="&#x65;" horiz-adv-x="1032" d="M561 -20Q430 -20 320.5 50.5Q211 121 149 244Q87 367 87 517L87 562Q87 712 147 837Q207 962 312 1032Q417 1102 541 1102Q722 1102 837 973Q952 844 952 634L952 577L141 577L141 518Q141 386 196.5 273.5Q252 161 349.5 97Q447 33 561 33Q670 33 746.5 69.5Q823 106 882 182L920 155Q799 -20 561 -20ZM541 1048Q383 1048 273 930.5Q163 813 144 631L898 631L898 644Q898 754 851.5 848.5Q805 943 723.5 995.5Q642 1048 541 1048Z" />
<glyph glyph-name="f" unicode="&#x66;" horiz-adv-x="645" d="M254 0L254 1027L66 1027L66 1082L254 1082L254 1240Q255 1390 329.5 1473.5Q404 1557 537 1557Q611 1557 665 1540L657 1488Q605 1503 538 1503Q431 1503 369.5 1433.5Q308 1364 308 1236L308 1082L594 1082L594 1027L308 1027L308 0Z" />
<glyph glyph-name="g" unicode="&#x67;" horiz-adv-x="1123" d="M121 552Q121 811 230 956.5Q339 1102 529 1102Q650 1102 744 1046.5Q838 991 895 884L895 1082L950 1082L950 19Q950 -195 840 -315.5Q730 -436 541 -436Q432 -436 341.5 -389Q251 -342 187 -254L225 -218Q288 -298 363 -340.5Q438 -383 539 -383Q706 -383 799 -281.5Q892 -180 895 5L895 171Q839 79 743.5 29.5Q648 -20 527 -20Q339 -20 230 129Q121 278 121 538ZM176 531Q176 299 268 166.5Q360 34 526 34Q663 34 759 97.5Q855 161 895 276L895 767Q807 1048 528 1048Q361 1048 268.5 917Q176 786 176 531Z" />
<glyph glyph-name="h" unicode="&#x68;" horiz-adv-x="1121" d="M226 830Q279 956 382 1029Q485 1102 610 1102Q784 1102 868.5 1003.5Q953 905 954 706L954 0L900 0L900 708Q899 882 829 965.5Q759 1049 607 1049Q467 1049 364.5 949.5Q262 850 226 693L226 0L172 0L172 1536L226 1536Z" />
<glyph glyph-name="i" unicode="&#x69;" horiz-adv-x="422" d="M239 0L185 0L185 1082L239 1082ZM157 1420Q157 1443 173 1459.5Q189 1476 212 1476Q235 1476 251.5 1459.5Q268 1443 268 1420Q268 1397 251.5 1381Q235 1365 212 1365Q189 1365 173 1381Q157 1397 157 1420Z" />
<glyph glyph-name="j" unicode="&#x6a;" horiz-adv-x="445" d="M240 1082L240 -129Q240 -279 165 -358Q90 -437 -45 -437Q-94 -437 -143 -417L-140 -365Q-92 -383 -45 -383Q67 -383 126.5 -316.5Q186 -250 186 -129L186 1082ZM163 1420Q163 1443 179 1459.5Q195 1476 218 1476Q241 1476 257.5 1459.5Q274 1443 274 1420Q274 1397 257.5 1381Q241 1365 218 1365Q195 1365 179 1381Q163 1397 163 1420Z" />
<glyph glyph-name="k" unicode="&#x6b;" horiz-adv-x="969" d="M385 585L383 583L226 448L226 0L172 0L172 1536L226 1536L226 507L353 627L845 1082L922 1082L425 621L953 0L883 0Z" />
<glyph glyph-name="l" unicode="&#x6c;" horiz-adv-x="422" d="M239 0L185 0L185 1536L239 1536Z" />
<glyph glyph-name="m" unicode="&#x6d;" horiz-adv-x="1836" d="M946 0L892 0L892 727Q891 890 820.5 969.5Q750 1049 596 1049Q418 1049 305 892Q238 798 216 684L216 0L161 0L161 1082L216 1082L216 826Q271 958 373 1030Q475 1102 599 1102Q735 1102 821.5 1042Q908 982 935 846Q983 963 1091 1032.5Q1199 1102 1333 1102Q1508 1102 1593.5 1003Q1679 904 1680 706L1680 0L1626 0L1626 702Q1626 880 1554.5 965.5Q1483 1051 1330 1049Q1133 1046 1018 892Q952 803 946 720Z" />
<glyph glyph-name="n" unicode="&#x6e;" horiz-adv-x="1121" d="M226 830Q279 956 382 1029Q485 1102 610 1102Q784 1102 868.5 1003.5Q953 905 954 706L954 0L900 0L900 708Q899 882 829 965.5Q759 1049 607 1049Q467 1049 364.5 949.5Q262 850 226 693L226 0L172 0L172 1082L226 1082Z" />
<glyph glyph-name="o" unicode="&#x6f;" horiz-adv-x="1127" d="M90 562Q90 717 149.5 840.5Q209 964 317.5 1033Q426 1102 563 1102Q699 1102 807 1035Q915 968 975.5 845Q1036 722 1037 568L1037 520Q1037 364 978 241Q919 118 810.5 49Q702 -20 565 -20Q428 -20 319.5 48Q211 116 151 238.5Q91 361 90 514ZM144 520Q144 385 197.5 272.5Q251 160 346.5 97Q442 34 565 34Q750 34 866.5 173Q983 312 983 531L983 562Q983 695 929 808Q875 921 779.5 984.5Q684 1048 563 1048Q378 1048 261 907Q144 766 144 552Z" />
<glyph glyph-name="p" unicode="&#x70;" horiz-adv-x="1121" d="M999 531Q999 278 890 129Q781 -20 593 -20Q470 -20 374 30Q278 80 224 168L224 -416L170 -416L170 1082L224 1082L224 889Q280 992 375 1047Q470 1102 591 1102Q781 1102 890 956.5Q999 811 999 548ZM944 552Q944 785 851.5 916.5Q759 1048 592 1048Q456 1048 361 977.5Q266 907 224 775L224 269Q266 157 361.5 95.5Q457 34 594 34Q760 34 852 166Q944 298 944 552Z" />
<glyph glyph-name="q" unicode="&#x71;" horiz-adv-x="1121" d="M122 552Q122 811 231 956.5Q340 1102 530 1102Q651 1102 746 1047Q841 992 897 889L897 1082L951 1082L951 -416L897 -416L897 168Q839 77 743.5 28.5Q648 -20 528 -20Q340 -20 231 129Q122 278 122 538ZM178 531Q178 301 269 167.5Q360 34 527 34Q661 34 756 93.5Q851 153 897 268L897 775Q850 910 755 979Q660 1048 529 1048Q363 1048 270.5 917Q178 786 178 531Z" />
<glyph glyph-name="r" unicode="&#x72;" horiz-adv-x="685" d="M649 1043L579 1049Q441 1049 348 959.5Q255 870 226 709L226 0L172 0L172 1082L226 1082L226 857Q270 970 358 1036Q446 1102 579 1102Q626 1102 655 1091Z" />
<glyph glyph-name="s" unicode="&#x73;" horiz-adv-x="1019" d="M839 265Q839 462 503 533Q301 576 222 643.5Q143 711 143 829Q143 948 243.5 1025Q344 1102 505 1102Q680 1102 786 1018.5Q892 935 892 793L837 793Q837 902 745 975Q653 1048 505 1048Q363 1048 280 986Q197 924 197 831Q197 758 228 716.5Q259 675 329 641.5Q399 608 533 577Q667 546 745 504Q823 462 858 404.5Q893 347 893 264Q893 136 788 58Q683 -20 513 -20Q331 -20 219.5 62.5Q108 145 108 275L162 275Q170 161 262.5 97.5Q355 34 513 34Q658 34 748.5 101.5Q839 169 839 265Z" />
<glyph glyph-name="t" unicode="&#x74;" horiz-adv-x="648" d="M293 1374L293 1082L539 1082L539 1027L293 1027L293 259Q293 144 330.5 89Q368 34 456 34Q500 34 563 43L572 -8Q539 -20 459 -20Q341 -20 290 45.5Q239 111 238 252L238 1027L38 1027L38 1082L238 1082L238 1374Z" />
<glyph glyph-name="u" unicode="&#x75;" horiz-adv-x="1121" d="M897 0L897 175Q849 85 757 32.5Q665 -20 524 -20Q347 -20 258.5 83.5Q170 187 168 385L168 1082L222 1082L222 383Q224 211 300 122.5Q376 34 522 34Q677 34 774 107Q871 180 897 321L897 1082L952 1082L952 0Z" />
<glyph glyph-name="v" unicode="&#x76;" horiz-adv-x="978" d="M490 86L879 1082L937 1082L516 0L463 0L43 1082L101 1082Z" />
<glyph glyph-name="w" unicode="&#x77;" horiz-adv-x="1550" d="M366 313L425 80L742 1082L797 1082L1112 80L1173 313L1393 1082L1456 1082L1141 0L1087 0L820 813L769 1007L714 813L451 0L397 0L83 1082L145 1082Z" />
<glyph glyph-name="x" unicode="&#x78;" horiz-adv-x="978" d="M489 602L834 1082L902 1082L522 555L922 0L855 0L488 508L122 0L55 0L455 555L75 1082L143 1082Z" />
<glyph glyph-name="y" unicode="&#x79;" horiz-adv-x="978" d="M503 84L510 104L884 1082L944 1082L460 -188L436 -248Q358 -437 178 -437Q120 -437 98 -426L97 -375Q129 -384 170 -384Q255 -384 311 -334.5Q367 -285 408 -173L474 6L43 1082L102 1082Z" />
<glyph glyph-name="z" unicode="&#x7a;" horiz-adv-x="978" d="M160 54L930 54L930 0L87 0L87 44L798 1027L118 1027L118 1082L871 1082L871 1034Z" />
<glyph glyph-name="braceleft" unicode="&#x7b;" horiz-adv-x="660" d="M642 -441Q482 -391 402.5 -278Q323 -165 323 20L323 261Q323 543 73 543L73 609Q323 609 323 889L323 1136Q324 1321 403.5 1434Q483 1547 642 1597L657 1552Q377 1461 377 1125L377 897Q377 625 166 576Q377 523 377 255L377 26Q377 -299 662 -395Z" />
<glyph glyph-name="bar" unicode="&#x7c;" horiz-adv-x="406" d="M235 -270L181 -270L181 1456L235 1456Z" />
<glyph glyph-name="braceright" unicode="&#x7d;" horiz-adv-x="660" d="M0 -395Q284 -298 284 22L284 255Q284 523 495 576Q284 625 284 897L284 1124Q284 1462 5 1552L19 1597Q179 1547 257.5 1434.5Q336 1322 338 1141L338 892Q338 609 588 609L588 543Q338 543 338 258L338 21Q338 -165 259.5 -277.5Q181 -390 19 -441Z" />
<glyph glyph-name="asciitilde" unicode="&#x7e;" horiz-adv-x="1412" d="M1246 752Q1246 614 1172.5 528.5Q1099 443 977 443Q906 443 845 471Q784 499 686.5 586Q589 673 539 696.5Q489 720 428 720Q328 720 271.5 655Q215 590 215 462L160 462Q160 605 231.5 689.5Q303 774 428 774Q500 774 563 744.5Q626 715 723 628.5Q820 542 870 519Q920 496 977 496Q1078 496 1134 563.5Q1190 631 1190 753Z" />
<glyph glyph-name="uni00A0" unicode="&#xa0;" horiz-adv-x="490" d="" />
<glyph glyph-name="exclamdown" unicode="&#xa1;" horiz-adv-x="406" d="M179 696L233 696L233 -359L179 -359ZM253 1048Q253 1025 237 1008.5Q221 992 198 992Q175 992 158.5 1008.5Q142 1025 142 1048Q142 1071 158.5 1087Q175 1103 198 1103Q221 1103 237 1087Q253 1071 253 1048Z" />
<glyph glyph-name="cent" unicode="&#xa2;" horiz-adv-x="1110" d="M576 34Q723 34 818.5 112Q914 190 923 328L977 328Q969 178 864 83.5Q759 -11 604 -19L604 -245L549 -245L549 -19Q358 -9 246 136Q134 281 134 526L134 562Q134 802 246 946.5Q358 1091 549 1101L549 1318L604 1318L604 1101Q767 1090 868.5 989Q970 888 977 725L923 725Q916 871 820.5 959.5Q725 1048 574 1048Q393 1048 290.5 917.5Q188 787 188 555L188 520Q188 293 291.5 163.5Q395 34 576 34Z" />
<glyph glyph-name="sterling" unicode="&#xa3;" horiz-adv-x="1150" d="M360 667L370 336Q374 142 303 54L1060 54L1061 0L99 0L99 54L219 54Q267 68 292.5 148.5Q318 229 316 336L306 667L95 667L95 721L304 721L295 1039Q295 1243 394 1359.5Q493 1476 661 1476Q834 1476 934.5 1372Q1035 1268 1035 1089L981 1089Q981 1248 895.5 1335Q810 1422 661 1422Q514 1422 431.5 1322Q349 1222 349 1039L358 721L728 721L728 667Z" />
<glyph glyph-name="currency" unicode="&#xa4;" horiz-adv-x="1502" d="M1159 156Q1078 73 972 26.5Q866 -20 745 -20Q624 -20 517.5 26Q411 72 330 154L154 -26L114 13L293 195Q149 371 149 608Q149 854 303 1032L114 1225L154 1264L342 1072Q513 1234 745 1234Q863 1234 965.5 1190.5Q1068 1147 1148 1070L1339 1265L1380 1225L1187 1029Q1339 851 1339 608Q1339 374 1198 199L1380 13L1339 -27ZM204 608Q204 454 277.5 320Q351 186 476 109.5Q601 33 745 33Q888 33 1013 109.5Q1138 186 1211.5 320Q1285 454 1285 608Q1285 761 1212.5 893.5Q1140 1026 1014.5 1103.5Q889 1181 745 1181Q601 1181 475 1103.5Q349 1026 276.5 893.5Q204 761 204 608Z" />
<glyph glyph-name="yen" unicode="&#xa5;" horiz-adv-x="1038" d="M938 1456L1000 1456L568 676L935 676L935 621L543 621L543 381L935 381L935 326L543 326L543 0L489 0L489 326L99 326L99 381L489 381L489 621L99 621L99 676L464 676L33 1456L95 1456L487 738L512 687L521 687L547 738Z" />
<glyph glyph-name="brokenbar" unicode="&#xa6;" horiz-adv-x="398" d="M172 -270L172 482L226 482L226 -270ZM226 698L172 698L172 1456L226 1456Z" />
<glyph glyph-name="section" unicode="&#xa7;" horiz-adv-x="1223" d="M1094 431Q1094 326 1012 255Q930 184 790 164Q932 110 991 36.5Q1050 -37 1050 -149Q1050 -309 928.5 -402Q807 -495 600 -495Q374 -495 244.5 -382.5Q115 -270 115 -64L169 -62Q169 -242 285 -341.5Q401 -441 600 -441Q783 -441 889 -361.5Q995 -282 995 -151Q995 -63 958.5 -9.5Q922 44 840 85Q758 126 607 166Q336 230 228.5 319.5Q121 409 121 551Q121 660 198 731Q275 802 407 822Q278 873 222 947Q166 1021 166 1129Q166 1286 288.5 1381Q411 1476 618 1476Q833 1476 952.5 1363.5Q1072 1251 1072 1045L1018 1045Q1018 1212 909 1317Q800 1422 618 1422Q434 1422 327 1345Q220 1268 220 1132Q220 1041 256 987Q292 933 374.5 891Q457 849 616 804Q824 752 914.5 705Q1005 658 1049.5 592.5Q1094 527 1094 431ZM590 766Q531 779 482 796Q339 791 257 725.5Q175 660 175 553Q175 460 214 406Q253 352 347.5 308.5Q442 265 693 196Q850 198 945 262.5Q1040 327 1040 428Q1040 513 999 569Q958 625 865 670Q772 715 590 766Z" />
<glyph glyph-name="dieresis" unicode="&#xa8;" horiz-adv-x="906" d="M174 1421Q174 1444 190 1460.5Q206 1477 229 1477Q252 1477 268.5 1460.5Q285 1444 285 1421Q285 1398 268.5 1382Q252 1366 229 1366Q206 1366 190 1382Q174 1398 174 1421ZM619 1421Q619 1444 635 1460.5Q651 1477 674 1477Q697 1477 713.5 1460.5Q730 1444 730 1421Q730 1398 713.5 1382Q697 1366 674 1366Q651 1366 635 1382Q619 1398 619 1421Z" />
<glyph glyph-name="copyright" unicode="&#xa9;" horiz-adv-x="1666" d="M1124 616Q1124 464 1045.5 383Q967 302 826 302Q682 302 594 409.5Q506 517 506 693L506 768Q506 941 595 1048Q684 1155 826 1155Q969 1155 1047 1072.5Q1125 990 1125 842L1073 842Q1073 973 1009 1037.5Q945 1102 826 1102Q707 1102 634 1010Q561 918 561 763L561 689Q561 540 633.5 448.5Q706 357 826 357Q1072 357 1072 616ZM179 729Q179 541 267.5 379.5Q356 218 507.5 126Q659 34 833 34Q1009 34 1161 128Q1313 222 1400 382.5Q1487 543 1487 729Q1487 916 1400 1075.5Q1313 1235 1160.5 1328Q1008 1421 833 1421Q660 1421 508 1330Q356 1239 267.5 1078.5Q179 918 179 729ZM123 729Q123 931 216.5 1104Q310 1277 475.5 1376.5Q641 1476 833 1476Q1025 1476 1190.5 1376.5Q1356 1277 1449.5 1104Q1543 931 1543 729Q1543 530 1452 358Q1361 186 1195.5 82.5Q1030 -21 833 -21Q636 -21 470.5 82.5Q305 186 214 358Q123 530 123 729Z" />
<glyph glyph-name="ordfeminine" unicode="&#xaa;" horiz-adv-x="898" d="M680 705Q662 759 658 823Q619 763 553.5 727Q488 691 417 691Q296 691 232 748Q168 805 168 900Q168 1009 251.5 1070.5Q335 1132 487 1132L657 1132L657 1201Q657 1305 607.5 1363.5Q558 1422 458 1422Q349 1422 285 1378Q221 1334 221 1243L167 1243Q167 1345 248 1410.5Q329 1476 458 1476Q574 1476 643 1404Q712 1332 712 1200L712 884Q712 792 738 705ZM418 746Q488 746 562.5 793Q637 840 657 899L657 1078L490 1078Q222 1078 222 904Q222 746 418 746Z" />
<glyph glyph-name="guillemotleft" unicode="&#xab;" horiz-adv-x="905" d="M216 525L510 146L440 146L145 516L145 535L440 905L510 905ZM503 525L797 146L727 146L432 516L432 535L727 905L797 905Z" />
<glyph glyph-name="logicalnot" unicode="&#xac;" horiz-adv-x="1101" d="M915 396L861 396L861 700L122 700L122 753L915 753Z" />
<glyph glyph-name="uni00AD" unicode="&#xad;" horiz-adv-x="607" d="M531 639L61 639L61 693L531 693Z" />
<glyph glyph-name="registered" unicode="&#xae;" horiz-adv-x="1674" d="M115 729Q115 931 208.5 1104Q302 1277 467.5 1376.5Q633 1476 825 1476Q1017 1476 1182.5 1376.5Q1348 1277 1441.5 1104Q1535 931 1535 729Q1535 530 1444 358Q1353 186 1187.5 82.5Q1022 -21 825 -21Q628 -21 462.5 82.5Q297 186 206 358Q115 530 115 729ZM170 729Q170 543 257 382.5Q344 222 496 128Q648 34 825 34Q1001 34 1153 128Q1305 222 1392 382.5Q1479 543 1479 729Q1479 916 1392 1075.5Q1305 1235 1152.5 1328Q1000 1421 825 1421Q649 1421 496.5 1328Q344 1235 257 1075.5Q170 916 170 729ZM648 678L648 326L593 326L593 1156L832 1156Q1121 1156 1121 916Q1121 772 968 710Q1100 671 1100 502Q1100 391 1117 342L1117 326L1058 326Q1044 362 1044 502Q1044 594 1005.5 635Q967 676 873 678ZM648 734L853 734Q949 734 1007.5 784.5Q1066 835 1066 917Q1066 1015 1014.5 1057Q963 1099 846 1101L648 1101Z" />
<glyph glyph-name="macron" unicode="&#xaf;" horiz-adv-x="811" d="M699 1383L132 1383L132 1436L699 1436Z" />
<glyph glyph-name="degree" unicode="&#xb0;" horiz-adv-x="783" d="M156 1236Q156 1333 225 1404.5Q294 1476 392 1476Q488 1476 556 1404.5Q624 1333 624 1236Q624 1138 556 1068.5Q488 999 392 999Q294 999 225 1068Q156 1137 156 1236ZM211 1236Q211 1159 262 1107Q313 1055 392 1055Q468 1055 518 1105.5Q568 1156 568 1236Q568 1318 517.5 1369.5Q467 1421 392 1421Q314 1421 262.5 1368Q211 1315 211 1236Z" />
<glyph glyph-name="plusminus" unicode="&#xb1;" horiz-adv-x="1077" d="M569 805L988 805L988 751L569 751L569 289L515 289L515 751L72 751L72 805L515 805L515 1267L569 1267ZM957 -1L122 -1L122 53L957 53Z" />
<glyph glyph-name="uni00B2" unicode="&#xb2;" horiz-adv-x="728" d="M651 664L108 664L108 708L398 1003Q477 1080 514 1138Q551 1196 551 1247Q551 1324 502 1369.5Q453 1415 356 1415Q254 1415 197 1363Q140 1311 140 1226L86 1226Q86 1329 161.5 1396.5Q237 1464 356 1464Q472 1464 538.5 1405Q605 1346 605 1248Q605 1154 492 1031L426 961L175 713L651 713Z" />
<glyph glyph-name="uni00B3" unicode="&#xb3;" horiz-adv-x="728" d="M270 1090L345 1090Q446 1091 505 1135.5Q564 1180 564 1249Q564 1326 510.5 1370.5Q457 1415 362 1415Q271 1415 210.5 1368.5Q150 1322 150 1246L97 1246Q97 1342 172.5 1403Q248 1464 362 1464Q481 1464 549.5 1406Q618 1348 618 1246Q618 1189 578 1139.5Q538 1090 463 1067Q549 1047 593 997Q637 947 637 875Q637 775 563 714Q489 653 367 653Q243 653 161.5 716.5Q80 780 80 881L134 881Q134 803 199 752Q264 701 367 701Q470 701 526.5 747Q583 793 583 874Q583 1041 330 1041L270 1041Z" />
<glyph glyph-name="acute" unicode="&#xb4;" horiz-adv-x="511" d="M315 1536L381 1536L186 1270L126 1270Z" />
<glyph glyph-name="mu" unicode="&#xb5;" horiz-adv-x="1121" d="M223 1082L223 421Q226 232 302.5 133Q379 34 529 34Q705 34 794.5 124.5Q884 215 899 414L899 1082L953 1082L953 0L902 0L899 203Q803 -20 538 -20Q424 -20 344.5 30Q265 80 223 171L223 -416L171 -416L171 1082Z" />
<glyph glyph-name="paragraph" unicode="&#xb6;" horiz-adv-x="946" d="M716 0L716 520L589 520Q439 520 328 578Q217 636 158 742.5Q99 849 99 988Q99 1201 232 1328.5Q365 1456 593 1456L770 1456L770 0Z" />
<glyph glyph-name="periodcentered" unicode="&#xb7;" horiz-adv-x="472" d="M179 706Q179 729 195 745.5Q211 762 234 762Q257 762 273.5 745.5Q290 729 290 706Q290 683 273.5 667Q257 651 234 651Q211 651 195 667Q179 683 179 706Z" />
<glyph glyph-name="cedilla" unicode="&#xb8;" horiz-adv-x="490" d="M207 0L196 -76Q373 -92 373 -245Q373 -330 297 -382.5Q221 -435 88 -435L81 -386Q182 -386 250 -346.5Q318 -307 318 -245Q318 -189 279.5 -161Q241 -133 129 -121L154 0Z" />
<glyph glyph-name="uni00B9" unicode="&#xb9;" horiz-adv-x="728" d="M433 664L379 664L379 1386L131 1305L131 1358L424 1455L433 1455Z" />
<glyph glyph-name="ordmasculine" unicode="&#xba;" horiz-adv-x="914" d="M148 1141Q148 1291 231.5 1383.5Q315 1476 452 1476Q589 1476 673 1384Q757 1292 757 1136L757 1024Q757 873 673.5 781.5Q590 690 454 690Q317 690 232.5 781Q148 872 148 1029ZM202 1024Q202 893 268.5 818.5Q335 744 454 744Q570 744 637 820.5Q704 897 704 1028L704 1141Q704 1269 635.5 1345.5Q567 1422 452 1422Q338 1422 270 1346Q202 1270 202 1135Z" />
<glyph glyph-name="guillemotright" unicode="&#xbb;" horiz-adv-x="897" d="M198 940L492 560L492 541L198 171L128 171L421 550L128 940ZM488 940L782 560L782 541L488 171L418 171L711 550L418 940Z" />
<glyph glyph-name="onequarter" unicode="&#xbc;" horiz-adv-x="1467" d="M447 664L393 664L393 1386L145 1305L145 1358L438 1455L447 1455ZM386 139L341 170L1052 1308L1097 1277ZM1225 253L1372 253L1372 204L1225 204L1225 0L1172 0L1172 204L749 204L748 236L1165 789L1225 789ZM818 253L1172 253L1172 727L1128 656Z" />
<glyph glyph-name="onehalf" unicode="&#xbd;" horiz-adv-x="1508" d="M343 139L298 170L1009 1308L1054 1277ZM424 664L370 664L370 1386L122 1305L122 1358L415 1455L424 1455ZM1392 0L849 0L849 44L1139 339Q1218 416 1255 474Q1292 532 1292 583Q1292 660 1243 705.5Q1194 751 1097 751Q995 751 938 699Q881 647 881 562L827 562Q827 665 902.5 732.5Q978 800 1097 800Q1213 800 1279.5 741Q1346 682 1346 584Q1346 490 1233 367L1167 297L916 49L1392 49Z" />
<glyph glyph-name="threequarters" unicode="&#xbe;" horiz-adv-x="1586" d="M548 139L503 170L1214 1308L1259 1277ZM1365 253L1512 253L1512 204L1365 204L1365 0L1312 0L1312 204L889 204L888 236L1305 789L1365 789ZM958 253L1312 253L1312 727L1268 656ZM314 1090L389 1090Q490 1091 549 1135.5Q608 1180 608 1249Q608 1326 554.5 1370.5Q501 1415 406 1415Q315 1415 254.5 1368.5Q194 1322 194 1246L141 1246Q141 1342 216.5 1403Q292 1464 406 1464Q525 1464 593.5 1406Q662 1348 662 1246Q662 1189 622 1139.5Q582 1090 507 1067Q593 1047 637 997Q681 947 681 875Q681 775 607 714Q533 653 411 653Q287 653 205.5 716.5Q124 780 124 881L178 881Q178 803 243 752Q308 701 411 701Q514 701 570.5 747Q627 793 627 874Q627 1041 374 1041L314 1041Z" />
<glyph glyph-name="questiondown" unicode="&#xbf;" horiz-adv-x="912" d="M514 695Q512 593 502.5 556.5Q493 520 469 487Q445 454 389 403L311 327Q232 248 197 166Q162 84 162 -17Q162 -166 241 -247Q320 -328 461 -328Q599 -328 678.5 -245.5Q758 -163 762 -21L816 -21Q814 -188 718.5 -284.5Q623 -381 461 -381Q296 -381 202 -280.5Q108 -180 108 -15Q108 106 160 207.5Q212 309 361 445Q412 485 434.5 526Q457 567 459 626L460 695ZM538 1046Q538 1023 522 1006.5Q506 990 483 990Q460 990 443.5 1006.5Q427 1023 427 1046Q427 1069 443.5 1085Q460 1101 483 1101Q506 1101 522 1085Q538 1069 538 1046Z" />
<glyph glyph-name="Agrave" unicode="&#xc0;" horiz-adv-x="1223" d="M967 435L254 435L92 0L33 0L578 1456L644 1456L1189 0L1130 0ZM274 489L947 489L611 1391ZM655 1589L596 1589L401 1855L467 1855Z" />
<glyph glyph-name="Aacute" unicode="&#xc1;" horiz-adv-x="1223" d="M967 435L254 435L92 0L33 0L578 1456L644 1456L1189 0L1130 0ZM274 489L947 489L611 1391ZM761 1855L827 1855L632 1589L572 1589Z" />
<glyph glyph-name="Acircumflex" unicode="&#xc2;" horiz-adv-x="1223" d="M967 435L254 435L92 0L33 0L578 1456L644 1456L1189 0L1130 0ZM274 489L947 489L611 1391ZM866 1593L866 1583L798 1583L611 1779L426 1583L362 1583L362 1597L592 1836L632 1836Z" />
<glyph glyph-name="Atilde" unicode="&#xc3;" horiz-adv-x="1223" d="M967 435L254 435L92 0L33 0L578 1456L644 1456L1189 0L1130 0ZM274 489L947 489L611 1391ZM940 1806Q940 1724 889.5 1672Q839 1620 764 1620Q683 1620 611 1682.5Q539 1745 477 1745Q421 1745 388.5 1711Q356 1677 356 1620L301 1620Q301 1700 351 1749.5Q401 1799 477 1799Q555 1799 630.5 1737Q706 1675 764 1675Q818 1675 851.5 1711Q885 1747 885 1806Z" />
<glyph glyph-name="Adieresis" unicode="&#xc4;" horiz-adv-x="1223" d="M967 435L254 435L92 0L33 0L578 1456L644 1456L1189 0L1130 0ZM274 489L947 489L611 1391ZM336 1740Q336 1763 352 1779.5Q368 1796 391 1796Q414 1796 430.5 1779.5Q447 1763 447 1740Q447 1717 430.5 1701Q414 1685 391 1685Q368 1685 352 1701Q336 1717 336 1740ZM781 1740Q781 1763 797 1779.5Q813 1796 836 1796Q859 1796 875.5 1779.5Q892 1763 892 1740Q892 1717 875.5 1701Q859 1685 836 1685Q813 1685 797 1701Q781 1717 781 1740Z" />
<glyph glyph-name="Aring" unicode="&#xc5;" horiz-adv-x="1223" d="M967 435L254 435L92 0L33 0L578 1456L644 1456L1189 0L1130 0ZM274 489L947 489L611 1391ZM614 1875Q686 1875 735.5 1824Q785 1773 785 1701Q785 1629 735.5 1580Q686 1531 614 1531Q545 1531 494 1578.5Q443 1626 443 1701Q443 1776 493.5 1825.5Q544 1875 614 1875ZM497 1701Q497 1649 530 1617Q563 1585 614 1585Q665 1585 698 1617Q731 1649 731 1701Q731 1755 698 1788Q665 1821 614 1821Q563 1821 530 1788Q497 1755 497 1701Z" />
<glyph glyph-name="AE" unicode="&#xc6;" horiz-adv-x="1816" d="M1768 0L1016 0L998 425L371 425L115 0L50 0L931 1456L1707 1456L1707 1402L1011 1402L1037 786L1625 786L1625 732L1039 732L1067 54L1768 54ZM403 478L996 478L957 1398Z" />
<glyph glyph-name="Ccedilla" unicode="&#xc7;" horiz-adv-x="1327" d="M1190 446Q1169 221 1035 100.5Q901 -20 671 -20Q516 -20 396.5 58.5Q277 137 211 281.5Q145 426 144 612L144 837Q144 1023 209 1169.5Q274 1316 394.5 1396Q515 1476 671 1476Q899 1476 1034 1356Q1169 1236 1190 1012L1136 1012Q1113 1213 996 1317.5Q879 1422 671 1422Q459 1422 328.5 1262Q198 1102 198 833L198 619Q198 447 256 314.5Q314 182 422.5 108Q531 34 671 34Q880 34 997.5 137Q1115 240 1136 446ZM706 -9L695 -85Q872 -101 872 -254Q872 -339 796 -391.5Q720 -444 587 -444L580 -395Q681 -395 749 -355.5Q817 -316 817 -254Q817 -198 778.5 -170Q740 -142 628 -130L653 -9Z" />
<glyph glyph-name="Egrave" unicode="&#xc8;" horiz-adv-x="1166" d="M984 722L254 722L254 54L1086 54L1086 0L200 0L200 1456L1086 1456L1086 1402L254 1402L254 776L984 776ZM662 1589L603 1589L408 1855L474 1855Z" />
<glyph glyph-name="Eacute" unicode="&#xc9;" horiz-adv-x="1166" d="M984 722L254 722L254 54L1086 54L1086 0L200 0L200 1456L1086 1456L1086 1402L254 1402L254 776L984 776ZM768 1855L834 1855L639 1589L579 1589Z" />
<glyph glyph-name="Ecircumflex" unicode="&#xca;" horiz-adv-x="1166" d="M984 722L254 722L254 54L1086 54L1086 0L200 0L200 1456L1086 1456L1086 1402L254 1402L254 776L984 776ZM873 1593L873 1583L805 1583L618 1779L433 1583L369 1583L369 1597L599 1836L639 1836Z" />
<glyph glyph-name="Edieresis" unicode="&#xcb;" horiz-adv-x="1166" d="M984 722L254 722L254 54L1086 54L1086 0L200 0L200 1456L1086 1456L1086 1402L254 1402L254 776L984 776ZM343 1740Q343 1763 359 1779.5Q375 1796 398 1796Q421 1796 437.5 1779.5Q454 1763 454 1740Q454 1717 437.5 1701Q421 1685 398 1685Q375 1685 359 1701Q343 1717 343 1740ZM788 1740Q788 1763 804 1779.5Q820 1796 843 1796Q866 1796 882.5 1779.5Q899 1763 899 1740Q899 1717 882.5 1701Q866 1685 843 1685Q820 1685 804 1701Q788 1717 788 1740Z" />
<glyph glyph-name="Igrave" unicode="&#xcc;" horiz-adv-x="534" d="M294 0L240 0L240 1456L294 1456ZM312 1589L253 1589L58 1855L124 1855Z" />
<glyph glyph-name="Iacute" unicode="&#xcd;" horiz-adv-x="534" d="M294 0L240 0L240 1456L294 1456ZM417 1855L483 1855L288 1589L228 1589Z" />
<glyph glyph-name="Icircumflex" unicode="&#xce;" horiz-adv-x="534" d="M294 0L240 0L240 1456L294 1456ZM523 1593L523 1583L455 1583L268 1779L83 1583L19 1583L19 1597L249 1836L289 1836Z" />
<glyph glyph-name="Idieresis" unicode="&#xcf;" horiz-adv-x="534" d="M294 0L240 0L240 1456L294 1456ZM-7 1740Q-7 1763 9 1779.5Q25 1796 48 1796Q71 1796 87.5 1779.5Q104 1763 104 1740Q104 1717 87.5 1701Q71 1685 48 1685Q25 1685 9 1701Q-7 1717 -7 1740ZM438 1740Q438 1763 454 1779.5Q470 1796 493 1796Q516 1796 532.5 1779.5Q549 1763 549 1740Q549 1717 532.5 1701Q516 1685 493 1685Q470 1685 454 1701Q438 1717 438 1740Z" />
<glyph glyph-name="Eth" unicode="&#xd0;" horiz-adv-x="1370" d="M230 0L230 713L60 713L60 767L230 767L230 1456L633 1456Q802 1456 939 1376Q1076 1296 1154 1151.5Q1232 1007 1234 828L1234 639Q1234 457 1157.5 311Q1081 165 944 83Q807 1 638 0ZM647 713L284 713L284 54L623 54Q870 54 1025 220Q1180 386 1180 647L1180 820Q1180 983 1110.5 1116Q1041 1249 916.5 1324.5Q792 1400 641 1402L284 1402L284 767L647 767Z" />
<glyph glyph-name="Ntilde" unicode="&#xd1;" horiz-adv-x="1449" d="M1249 0L1195 0L255 1364L255 0L200 0L200 1456L255 1456L1195 95L1195 1456L1249 1456ZM1054 1806Q1054 1724 1003.5 1672Q953 1620 878 1620Q797 1620 725 1682.5Q653 1745 591 1745Q535 1745 502.5 1711Q470 1677 470 1620L415 1620Q415 1700 465 1749.5Q515 1799 591 1799Q669 1799 744.5 1737Q820 1675 878 1675Q932 1675 965.5 1711Q999 1747 999 1806Z" />
<glyph glyph-name="Ograve" unicode="&#xd2;" horiz-adv-x="1364" d="M1231 619Q1231 430 1163.5 284.5Q1096 139 971 59.5Q846 -20 683 -20Q437 -20 285 155Q133 330 133 627L133 837Q133 1025 200.5 1171Q268 1317 393.5 1396.5Q519 1476 681 1476Q844 1476 969.5 1396.5Q1095 1317 1163 1170.5Q1231 1024 1231 837ZM1177 839Q1177 1103 1043 1262.5Q909 1422 681 1422Q456 1422 322 1263.5Q188 1105 188 832L188 619Q188 445 248.5 311.5Q309 178 421 106Q533 34 683 34Q911 34 1044 193Q1177 352 1177 627ZM719 1610L660 1610L465 1876L531 1876Z" />
<glyph glyph-name="Oacute" unicode="&#xd3;" horiz-adv-x="1364" d="M1231 619Q1231 430 1163.5 284.5Q1096 139 971 59.5Q846 -20 683 -20Q437 -20 285 155Q133 330 133 627L133 837Q133 1025 200.5 1171Q268 1317 393.5 1396.5Q519 1476 681 1476Q844 1476 969.5 1396.5Q1095 1317 1163 1170.5Q1231 1024 1231 837ZM1177 839Q1177 1103 1043 1262.5Q909 1422 681 1422Q456 1422 322 1263.5Q188 1105 188 832L188 619Q188 445 248.5 311.5Q309 178 421 106Q533 34 683 34Q911 34 1044 193Q1177 352 1177 627ZM825 1876L891 1876L696 1610L636 1610Z" />
<glyph glyph-name="Ocircumflex" unicode="&#xd4;" horiz-adv-x="1364" d="M1231 619Q1231 430 1163.5 284.5Q1096 139 971 59.5Q846 -20 683 -20Q437 -20 285 155Q133 330 133 627L133 837Q133 1025 200.5 1171Q268 1317 393.5 1396.5Q519 1476 681 1476Q844 1476 969.5 1396.5Q1095 1317 1163 1170.5Q1231 1024 1231 837ZM1177 839Q1177 1103 1043 1262.5Q909 1422 681 1422Q456 1422 322 1263.5Q188 1105 188 832L188 619Q188 445 248.5 311.5Q309 178 421 106Q533 34 683 34Q911 34 1044 193Q1177 352 1177 627ZM930 1614L930 1604L862 1604L675 1800L490 1604L426 1604L426 1618L656 1857L696 1857Z" />
<glyph glyph-name="Otilde" unicode="&#xd5;" horiz-adv-x="1364" d="M1231 619Q1231 430 1163.5 284.5Q1096 139 971 59.5Q846 -20 683 -20Q437 -20 285 155Q133 330 133 627L133 837Q133 1025 200.5 1171Q268 1317 393.5 1396.5Q519 1476 681 1476Q844 1476 969.5 1396.5Q1095 1317 1163 1170.5Q1231 1024 1231 837ZM1177 839Q1177 1103 1043 1262.5Q909 1422 681 1422Q456 1422 322 1263.5Q188 1105 188 832L188 619Q188 445 248.5 311.5Q309 178 421 106Q533 34 683 34Q911 34 1044 193Q1177 352 1177 627ZM1004 1827Q1004 1745 953.5 1693Q903 1641 828 1641Q747 1641 675 1703.5Q603 1766 541 1766Q485 1766 452.5 1732Q420 1698 420 1641L365 1641Q365 1721 415 1770.5Q465 1820 541 1820Q619 1820 694.5 1758Q770 1696 828 1696Q882 1696 915.5 1732Q949 1768 949 1827Z" />
<glyph glyph-name="Odieresis" unicode="&#xd6;" horiz-adv-x="1364" d="M1231 619Q1231 430 1163.5 284.5Q1096 139 971 59.5Q846 -20 683 -20Q437 -20 285 155Q133 330 133 627L133 837Q133 1025 200.5 1171Q268 1317 393.5 1396.5Q519 1476 681 1476Q844 1476 969.5 1396.5Q1095 1317 1163 1170.5Q1231 1024 1231 837ZM1177 839Q1177 1103 1043 1262.5Q909 1422 681 1422Q456 1422 322 1263.5Q188 1105 188 832L188 619Q188 445 248.5 311.5Q309 178 421 106Q533 34 683 34Q911 34 1044 193Q1177 352 1177 627ZM400 1761Q400 1784 416 1800.5Q432 1817 455 1817Q478 1817 494.5 1800.5Q511 1784 511 1761Q511 1738 494.5 1722Q478 1706 455 1706Q432 1706 416 1722Q400 1738 400 1761ZM845 1761Q845 1784 861 1800.5Q877 1817 900 1817Q923 1817 939.5 1800.5Q956 1784 956 1761Q956 1738 939.5 1722Q923 1706 900 1706Q877 1706 861 1722Q845 1738 845 1761Z" />
<glyph glyph-name="multiply" unicode="&#xd7;" horiz-adv-x="1052" d="M98 36L482 429L125 793L164 832L520 468L877 832L916 793L559 429L944 36L905 -1L521 390L137 -1Z" />
<glyph glyph-name="Oslash" unicode="&#xd8;" horiz-adv-x="1364" d="M1231 619Q1231 430 1163.5 284.5Q1096 139 971 59.5Q846 -20 683 -20Q488 -20 349 92L243 -75L177 -75L307 130Q133 306 133 629L133 837Q133 1025 200.5 1171Q268 1317 393.5 1396.5Q519 1476 681 1476Q912 1476 1063 1319L1174 1495L1240 1495L1100 1275Q1230 1103 1231 839ZM188 619Q188 335 337 176L1033 1273Q901 1422 681 1422Q456 1422 322 1263.5Q188 1105 188 832ZM1177 839Q1177 1076 1070 1227L378 137Q502 34 683 34Q911 34 1044 193Q1177 352 1177 627Z" />
<glyph glyph-name="Ugrave" unicode="&#xd9;" horiz-adv-x="1365" d="M1180 1456L1180 470Q1180 239 1046 109.5Q912 -20 683 -20Q454 -20 320 109.5Q186 239 185 466L185 1456L239 1456L239 472Q239 270 360.5 152Q482 34 683 34Q884 34 1005 152Q1126 270 1126 473L1126 1456ZM740 1589L681 1589L486 1855L552 1855Z" />
<glyph glyph-name="Uacute" unicode="&#xda;" horiz-adv-x="1365" d="M1180 1456L1180 470Q1180 239 1046 109.5Q912 -20 683 -20Q454 -20 320 109.5Q186 239 185 466L185 1456L239 1456L239 472Q239 270 360.5 152Q482 34 683 34Q884 34 1005 152Q1126 270 1126 473L1126 1456ZM846 1855L912 1855L717 1589L657 1589Z" />
<glyph glyph-name="Ucircumflex" unicode="&#xdb;" horiz-adv-x="1365" d="M1180 1456L1180 470Q1180 239 1046 109.5Q912 -20 683 -20Q454 -20 320 109.5Q186 239 185 466L185 1456L239 1456L239 472Q239 270 360.5 152Q482 34 683 34Q884 34 1005 152Q1126 270 1126 473L1126 1456ZM951 1593L951 1583L883 1583L696 1779L511 1583L447 1583L447 1597L677 1836L717 1836Z" />
<glyph glyph-name="Udieresis" unicode="&#xdc;" horiz-adv-x="1365" d="M1180 1456L1180 470Q1180 239 1046 109.5Q912 -20 683 -20Q454 -20 320 109.5Q186 239 185 466L185 1456L239 1456L239 472Q239 270 360.5 152Q482 34 683 34Q884 34 1005 152Q1126 270 1126 473L1126 1456ZM421 1740Q421 1763 437 1779.5Q453 1796 476 1796Q499 1796 515.5 1779.5Q532 1763 532 1740Q532 1717 515.5 1701Q499 1685 476 1685Q453 1685 437 1701Q421 1717 421 1740ZM866 1740Q866 1763 882 1779.5Q898 1796 921 1796Q944 1796 960.5 1779.5Q977 1763 977 1740Q977 1717 960.5 1701Q944 1685 921 1685Q898 1685 882 1701Q866 1717 866 1740Z" />
<glyph glyph-name="Yacute" unicode="&#xdd;" horiz-adv-x="1223" d="M609 602L1119 1456L1185 1456L636 553L636 0L582 0L582 553L33 1456L105 1456ZM757 1844L823 1844L628 1578L568 1578Z" />
<glyph glyph-name="Thorn" unicode="&#xde;" horiz-adv-x="1219" d="M254 1456L254 1143L631 1143Q837 1141 956 1030Q1075 919 1075 738Q1075 558 957.5 448Q840 338 639 334L254 334L254 0L200 0L200 1456ZM254 1089L254 388L625 388Q806 388 913.5 486Q1021 584 1021 736Q1021 889 917.5 987Q814 1085 640 1089Z" />
<glyph glyph-name="germandbls" unicode="&#xdf;" horiz-adv-x="1183" d="M218 0L164 0L164 1143Q164 1334 248.5 1434.5Q333 1535 493 1535Q619 1535 711.5 1455.5Q804 1376 804 1257Q804 1157 744.5 1050Q685 943 685 829Q685 770 727.5 717Q770 664 871 588.5Q972 513 1017 445Q1062 377 1062 297Q1062 207 1010 134.5Q958 62 871 20.5Q784 -21 695 -21Q604 -21 512.5 6.5Q421 34 383 68L408 117Q452 82 533 57Q614 32 687 32Q822 32 915 111Q1008 190 1008 306Q1008 371 966.5 428Q925 485 821.5 561Q718 637 674.5 698.5Q631 760 631 831Q631 942 687.5 1055Q744 1168 744 1259Q744 1349 671 1415Q598 1481 503 1481Q222 1481 218 1153Z" />
<glyph glyph-name="agrave" unicode="&#xe0;" horiz-adv-x="1081" d="M871 0Q851 69 851 198Q787 94 676 37Q565 -20 425 -20Q275 -20 183.5 61.5Q92 143 92 274Q92 423 226.5 512.5Q361 602 584 604L851 604L851 762Q851 898 765.5 973Q680 1048 521 1048Q373 1048 274 972Q175 896 175 784L121 786Q121 918 237 1010Q353 1102 521 1102Q696 1102 799 1014.5Q902 927 905 768L905 251Q905 73 933 9L933 0ZM425 33Q577 33 686.5 101Q796 169 851 292L851 549L601 549Q369 549 246 457Q146 382 146 270Q146 171 225 102Q304 33 425 33ZM620 1270L561 1270L366 1536L432 1536Z" />
<glyph glyph-name="aacute" unicode="&#xe1;" horiz-adv-x="1081" d="M871 0Q851 69 851 198Q787 94 676 37Q565 -20 425 -20Q275 -20 183.5 61.5Q92 143 92 274Q92 423 226.5 512.5Q361 602 584 604L851 604L851 762Q851 898 765.5 973Q680 1048 521 1048Q373 1048 274 972Q175 896 175 784L121 786Q121 918 237 1010Q353 1102 521 1102Q696 1102 799 1014.5Q902 927 905 768L905 251Q905 73 933 9L933 0ZM425 33Q577 33 686.5 101Q796 169 851 292L851 549L601 549Q369 549 246 457Q146 382 146 270Q146 171 225 102Q304 33 425 33ZM726 1536L792 1536L597 1270L537 1270Z" />
<glyph glyph-name="acircumflex" unicode="&#xe2;" horiz-adv-x="1081" d="M871 0Q851 69 851 198Q787 94 676 37Q565 -20 425 -20Q275 -20 183.5 61.5Q92 143 92 274Q92 423 226.5 512.5Q361 602 584 604L851 604L851 762Q851 898 765.5 973Q680 1048 521 1048Q373 1048 274 972Q175 896 175 784L121 786Q121 918 237 1010Q353 1102 521 1102Q696 1102 799 1014.5Q902 927 905 768L905 251Q905 73 933 9L933 0ZM425 33Q577 33 686.5 101Q796 169 851 292L851 549L601 549Q369 549 246 457Q146 382 146 270Q146 171 225 102Q304 33 425 33ZM831 1274L831 1264L763 1264L576 1460L391 1264L327 1264L327 1278L557 1517L597 1517Z" />
<glyph glyph-name="atilde" unicode="&#xe3;" horiz-adv-x="1081" d="M871 0Q851 69 851 198Q787 94 676 37Q565 -20 425 -20Q275 -20 183.5 61.5Q92 143 92 274Q92 423 226.5 512.5Q361 602 584 604L851 604L851 762Q851 898 765.5 973Q680 1048 521 1048Q373 1048 274 972Q175 896 175 784L121 786Q121 918 237 1010Q353 1102 521 1102Q696 1102 799 1014.5Q902 927 905 768L905 251Q905 73 933 9L933 0ZM425 33Q577 33 686.5 101Q796 169 851 292L851 549L601 549Q369 549 246 457Q146 382 146 270Q146 171 225 102Q304 33 425 33ZM905 1486Q905 1404 854.5 1352Q804 1300 729 1300Q648 1300 576 1362.5Q504 1425 442 1425Q386 1425 353.5 1391Q321 1357 321 1300L266 1300Q266 1380 316 1429.5Q366 1479 442 1479Q520 1479 595.5 1417Q671 1355 729 1355Q783 1355 816.5 1391Q850 1427 850 1486Z" />
<glyph glyph-name="adieresis" unicode="&#xe4;" horiz-adv-x="1081" d="M871 0Q851 69 851 198Q787 94 676 37Q565 -20 425 -20Q275 -20 183.5 61.5Q92 143 92 274Q92 423 226.5 512.5Q361 602 584 604L851 604L851 762Q851 898 765.5 973Q680 1048 521 1048Q373 1048 274 972Q175 896 175 784L121 786Q121 918 237 1010Q353 1102 521 1102Q696 1102 799 1014.5Q902 927 905 768L905 251Q905 73 933 9L933 0ZM425 33Q577 33 686.5 101Q796 169 851 292L851 549L601 549Q369 549 246 457Q146 382 146 270Q146 171 225 102Q304 33 425 33ZM301 1421Q301 1444 317 1460.5Q333 1477 356 1477Q379 1477 395.5 1460.5Q412 1444 412 1421Q412 1398 395.5 1382Q379 1366 356 1366Q333 1366 317 1382Q301 1398 301 1421ZM746 1421Q746 1444 762 1460.5Q778 1477 801 1477Q824 1477 840.5 1460.5Q857 1444 857 1421Q857 1398 840.5 1382Q824 1366 801 1366Q778 1366 762 1382Q746 1398 746 1421Z" />
<glyph glyph-name="aring" unicode="&#xe5;" horiz-adv-x="1081" d="M871 0Q851 69 851 198Q787 94 676 37Q565 -20 425 -20Q275 -20 183.5 61.5Q92 143 92 274Q92 423 226.5 512.5Q361 602 584 604L851 604L851 762Q851 898 765.5 973Q680 1048 521 1048Q373 1048 274 972Q175 896 175 784L121 786Q121 918 237 1010Q353 1102 521 1102Q696 1102 799 1014.5Q902 927 905 768L905 251Q905 73 933 9L933 0ZM425 33Q577 33 686.5 101Q796 169 851 292L851 549L601 549Q369 549 246 457Q146 382 146 270Q146 171 225 102Q304 33 425 33ZM579 1556Q651 1556 700.5 1505Q750 1454 750 1382Q750 1310 700.5 1261Q651 1212 579 1212Q510 1212 459 1259.5Q408 1307 408 1382Q408 1457 458.5 1506.5Q509 1556 579 1556ZM462 1382Q462 1330 495 1298Q528 1266 579 1266Q630 1266 663 1298Q696 1330 696 1382Q696 1436 663 1469Q630 1502 579 1502Q528 1502 495 1469Q462 1436 462 1382Z" />
<glyph glyph-name="ae" unicode="&#xe6;" horiz-adv-x="1735" d="M1268 -20Q1121 -20 1020.5 47.5Q920 115 868 230L868 218L869 218Q821 111 706.5 45.5Q592 -20 448 -20Q280 -20 186.5 62Q93 144 93 284Q93 442 203.5 535Q314 628 516 630L813 630L813 720Q813 876 741 962Q669 1048 521 1048Q363 1048 268.5 972Q174 896 174 771L121 778Q121 923 232.5 1012.5Q344 1102 521 1102Q662 1102 749.5 1028Q837 954 860 814Q916 951 1019.5 1026.5Q1123 1102 1253 1102Q1439 1102 1548 985.5Q1657 869 1657 656L1657 577L870 577L870 500Q870 282 974.5 158Q1079 34 1268 34Q1472 34 1600 164L1630 122Q1551 43 1464.5 11.5Q1378 -20 1268 -20ZM447 32Q528 32 606 60.5Q684 89 741.5 136Q799 183 813 225L813 575L512 575Q345 572 246.5 492Q148 412 148 280Q148 164 224.5 98Q301 32 447 32ZM1253 1048Q1100 1048 996 934.5Q892 821 873 632L1603 632L1603 664Q1603 838 1509.5 943Q1416 1048 1253 1048Z" />
<glyph glyph-name="ccedilla" unicode="&#xe7;" horiz-adv-x="1039" d="M539 34Q686 34 781.5 112Q877 190 886 328L940 328Q932 171 819 75.5Q706 -20 539 -20Q336 -20 216.5 127Q97 274 97 526L97 562Q97 808 216.5 955Q336 1102 537 1102Q709 1102 821 999Q933 896 940 725L886 725Q879 871 783.5 959.5Q688 1048 537 1048Q356 1048 253.5 917.5Q151 787 151 555L151 520Q151 293 254.5 163.5Q358 34 539 34ZM575 -9L564 -85Q741 -101 741 -254Q741 -339 665 -391.5Q589 -444 456 -444L449 -395Q550 -395 618 -355.5Q686 -316 686 -254Q686 -198 647.5 -170Q609 -142 497 -130L522 -9Z" />
<glyph glyph-name="egrave" unicode="&#xe8;" horiz-adv-x="1032" d="M561 -20Q430 -20 320.5 50.5Q211 121 149 244Q87 367 87 517L87 562Q87 712 147 837Q207 962 312 1032Q417 1102 541 1102Q722 1102 837 973Q952 844 952 634L952 577L141 577L141 518Q141 386 196.5 273.5Q252 161 349.5 97Q447 33 561 33Q670 33 746.5 69.5Q823 106 882 182L920 155Q799 -20 561 -20ZM541 1048Q383 1048 273 930.5Q163 813 144 631L898 631L898 644Q898 754 851.5 848.5Q805 943 723.5 995.5Q642 1048 541 1048ZM610 1269L551 1269L356 1535L422 1535Z" />
<glyph glyph-name="eacute" unicode="&#xe9;" horiz-adv-x="1032" d="M561 -20Q430 -20 320.5 50.5Q211 121 149 244Q87 367 87 517L87 562Q87 712 147 837Q207 962 312 1032Q417 1102 541 1102Q722 1102 837 973Q952 844 952 634L952 577L141 577L141 518Q141 386 196.5 273.5Q252 161 349.5 97Q447 33 561 33Q670 33 746.5 69.5Q823 106 882 182L920 155Q799 -20 561 -20ZM541 1048Q383 1048 273 930.5Q163 813 144 631L898 631L898 644Q898 754 851.5 848.5Q805 943 723.5 995.5Q642 1048 541 1048ZM716 1535L782 1535L587 1269L527 1269Z" />
<glyph glyph-name="ecircumflex" unicode="&#xea;" horiz-adv-x="1032" d="M561 -20Q430 -20 320.5 50.5Q211 121 149 244Q87 367 87 517L87 562Q87 712 147 837Q207 962 312 1032Q417 1102 541 1102Q722 1102 837 973Q952 844 952 634L952 577L141 577L141 518Q141 386 196.5 273.5Q252 161 349.5 97Q447 33 561 33Q670 33 746.5 69.5Q823 106 882 182L920 155Q799 -20 561 -20ZM541 1048Q383 1048 273 930.5Q163 813 144 631L898 631L898 644Q898 754 851.5 848.5Q805 943 723.5 995.5Q642 1048 541 1048ZM821 1273L821 1263L753 1263L566 1459L381 1263L317 1263L317 1277L547 1516L587 1516Z" />
<glyph glyph-name="edieresis" unicode="&#xeb;" horiz-adv-x="1032" d="M561 -20Q430 -20 320.5 50.5Q211 121 149 244Q87 367 87 517L87 562Q87 712 147 837Q207 962 312 1032Q417 1102 541 1102Q722 1102 837 973Q952 844 952 634L952 577L141 577L141 518Q141 386 196.5 273.5Q252 161 349.5 97Q447 33 561 33Q670 33 746.5 69.5Q823 106 882 182L920 155Q799 -20 561 -20ZM541 1048Q383 1048 273 930.5Q163 813 144 631L898 631L898 644Q898 754 851.5 848.5Q805 943 723.5 995.5Q642 1048 541 1048ZM291 1420Q291 1443 307 1459.5Q323 1476 346 1476Q369 1476 385.5 1459.5Q402 1443 402 1420Q402 1397 385.5 1381Q369 1365 346 1365Q323 1365 307 1381Q291 1397 291 1420ZM736 1420Q736 1443 752 1459.5Q768 1476 791 1476Q814 1476 830.5 1459.5Q847 1443 847 1420Q847 1397 830.5 1381Q814 1365 791 1365Q768 1365 752 1381Q736 1397 736 1420Z" />
<glyph glyph-name="igrave" unicode="&#xec;" horiz-adv-x="406" d="M235 0L181 0L181 1082L235 1082ZM253 1247L194 1247L-1 1513L65 1513Z" />
<glyph glyph-name="iacute" unicode="&#xed;" horiz-adv-x="406" d="M235 0L181 0L181 1082L235 1082ZM358 1513L424 1513L229 1247L169 1247Z" />
<glyph glyph-name="icircumflex" unicode="&#xee;" horiz-adv-x="406" d="M235 0L181 0L181 1082L235 1082ZM464 1251L464 1241L396 1241L209 1437L24 1241L-40 1241L-40 1255L190 1494L230 1494Z" />
<glyph glyph-name="idieresis" unicode="&#xef;" horiz-adv-x="406" d="M235 0L181 0L181 1082L235 1082ZM-66 1398Q-66 1421 -50 1437.5Q-34 1454 -11 1454Q12 1454 28.5 1437.5Q45 1421 45 1398Q45 1375 28.5 1359Q12 1343 -11 1343Q-34 1343 -50 1359Q-66 1375 -66 1398ZM379 1398Q379 1421 395 1437.5Q411 1454 434 1454Q457 1454 473.5 1437.5Q490 1421 490 1398Q490 1375 473.5 1359Q457 1343 434 1343Q411 1343 395 1359Q379 1375 379 1398Z" />
<glyph glyph-name="eth" unicode="&#xf0;" horiz-adv-x="1183" d="M802 1308Q923 1183 982 1013.5Q1041 844 1041 615L1041 535Q1041 376 989.5 249.5Q938 123 843 51.5Q748 -20 629 -20Q500 -20 395.5 43Q291 106 232 218Q173 330 173 465Q173 696 286 824.5Q399 953 601 953Q714 953 815.5 908.5Q917 864 977 780Q957 948 899 1069Q841 1190 752 1280L517 1149L489 1197L709 1320Q571 1441 338 1527L358 1577Q610 1485 760 1348L962 1461L991 1413ZM987 617L986 672Q940 777 837 836Q734 895 601 895Q424 895 326 781.5Q228 668 228 465Q228 350 279.5 250Q331 150 423 94Q515 38 633 38Q789 38 886 171.5Q983 305 987 520Z" />
<glyph glyph-name="ntilde" unicode="&#xf1;" horiz-adv-x="1121" d="M226 830Q279 956 382 1029Q485 1102 610 1102Q784 1102 868.5 1003.5Q953 905 954 706L954 0L900 0L900 708Q899 882 829 965.5Q759 1049 607 1049Q467 1049 364.5 949.5Q262 850 226 693L226 0L172 0L172 1082L226 1082ZM906 1484Q906 1402 855.5 1350Q805 1298 730 1298Q649 1298 577 1360.5Q505 1423 443 1423Q387 1423 354.5 1389Q322 1355 322 1298L267 1298Q267 1378 317 1427.5Q367 1477 443 1477Q521 1477 596.5 1415Q672 1353 730 1353Q784 1353 817.5 1389Q851 1425 851 1484Z" />
<glyph glyph-name="ograve" unicode="&#xf2;" horiz-adv-x="1127" d="M90 562Q90 717 149.5 840.5Q209 964 317.5 1033Q426 1102 563 1102Q699 1102 807 1035Q915 968 975.5 845Q1036 722 1037 568L1037 520Q1037 364 978 241Q919 118 810.5 49Q702 -20 565 -20Q428 -20 319.5 48Q211 116 151 238.5Q91 361 90 514ZM144 520Q144 385 197.5 272.5Q251 160 346.5 97Q442 34 565 34Q750 34 866.5 173Q983 312 983 531L983 562Q983 695 929 808Q875 921 779.5 984.5Q684 1048 563 1048Q378 1048 261 907Q144 766 144 552ZM610 1268L551 1268L356 1534L422 1534Z" />
<glyph glyph-name="oacute" unicode="&#xf3;" horiz-adv-x="1127" d="M90 562Q90 717 149.5 840.5Q209 964 317.5 1033Q426 1102 563 1102Q699 1102 807 1035Q915 968 975.5 845Q1036 722 1037 568L1037 520Q1037 364 978 241Q919 118 810.5 49Q702 -20 565 -20Q428 -20 319.5 48Q211 116 151 238.5Q91 361 90 514ZM144 520Q144 385 197.5 272.5Q251 160 346.5 97Q442 34 565 34Q750 34 866.5 173Q983 312 983 531L983 562Q983 695 929 808Q875 921 779.5 984.5Q684 1048 563 1048Q378 1048 261 907Q144 766 144 552ZM716 1534L782 1534L587 1268L527 1268Z" />
<glyph glyph-name="ocircumflex" unicode="&#xf4;" horiz-adv-x="1127" d="M90 562Q90 717 149.5 840.5Q209 964 317.5 1033Q426 1102 563 1102Q699 1102 807 1035Q915 968 975.5 845Q1036 722 1037 568L1037 520Q1037 364 978 241Q919 118 810.5 49Q702 -20 565 -20Q428 -20 319.5 48Q211 116 151 238.5Q91 361 90 514ZM144 520Q144 385 197.5 272.5Q251 160 346.5 97Q442 34 565 34Q750 34 866.5 173Q983 312 983 531L983 562Q983 695 929 808Q875 921 779.5 984.5Q684 1048 563 1048Q378 1048 261 907Q144 766 144 552ZM821 1272L821 1262L753 1262L566 1458L381 1262L317 1262L317 1276L547 1515L587 1515Z" />
<glyph glyph-name="otilde" unicode="&#xf5;" horiz-adv-x="1127" d="M90 562Q90 717 149.5 840.5Q209 964 317.5 1033Q426 1102 563 1102Q699 1102 807 1035Q915 968 975.5 845Q1036 722 1037 568L1037 520Q1037 364 978 241Q919 118 810.5 49Q702 -20 565 -20Q428 -20 319.5 48Q211 116 151 238.5Q91 361 90 514ZM144 520Q144 385 197.5 272.5Q251 160 346.5 97Q442 34 565 34Q750 34 866.5 173Q983 312 983 531L983 562Q983 695 929 808Q875 921 779.5 984.5Q684 1048 563 1048Q378 1048 261 907Q144 766 144 552ZM895 1484Q895 1402 844.5 1350Q794 1298 719 1298Q638 1298 566 1360.5Q494 1423 432 1423Q376 1423 343.5 1389Q311 1355 311 1298L256 1298Q256 1378 306 1427.5Q356 1477 432 1477Q510 1477 585.5 1415Q661 1353 719 1353Q773 1353 806.5 1389Q840 1425 840 1484Z" />
<glyph glyph-name="odieresis" unicode="&#xf6;" horiz-adv-x="1127" d="M90 562Q90 717 149.5 840.5Q209 964 317.5 1033Q426 1102 563 1102Q699 1102 807 1035Q915 968 975.5 845Q1036 722 1037 568L1037 520Q1037 364 978 241Q919 118 810.5 49Q702 -20 565 -20Q428 -20 319.5 48Q211 116 151 238.5Q91 361 90 514ZM144 520Q144 385 197.5 272.5Q251 160 346.5 97Q442 34 565 34Q750 34 866.5 173Q983 312 983 531L983 562Q983 695 929 808Q875 921 779.5 984.5Q684 1048 563 1048Q378 1048 261 907Q144 766 144 552ZM291 1419Q291 1442 307 1458.5Q323 1475 346 1475Q369 1475 385.5 1458.5Q402 1442 402 1419Q402 1396 385.5 1380Q369 1364 346 1364Q323 1364 307 1380Q291 1396 291 1419ZM736 1419Q736 1442 752 1458.5Q768 1475 791 1475Q814 1475 830.5 1458.5Q847 1442 847 1419Q847 1396 830.5 1380Q814 1364 791 1364Q768 1364 752 1380Q736 1396 736 1419Z" />
<glyph glyph-name="divide" unicode="&#xf7;" horiz-adv-x="1159" d="M1071 686L73 686L73 738L1071 738ZM529 1079Q529 1102 545 1118.5Q561 1135 584 1135Q607 1135 623.5 1118.5Q640 1102 640 1079Q640 1056 623.5 1040Q607 1024 584 1024Q561 1024 545 1040Q529 1056 529 1079ZM529 301Q529 324 545 340.5Q561 357 584 357Q607 357 623.5 340.5Q640 324 640 301Q640 278 623.5 262Q607 246 584 246Q561 246 545 262Q529 278 529 301Z" />
<glyph glyph-name="oslash" unicode="&#xf8;" horiz-adv-x="1121" d="M87 562Q87 717 146.5 840.5Q206 964 314.5 1033Q423 1102 560 1102Q680 1102 784 1047L868 1219L931 1219L832 1016Q927 946 980.5 829Q1034 712 1034 562L1034 520Q1034 364 975 241Q916 118 807.5 49Q699 -20 562 -20Q450 -20 352 28L268 -145L205 -145L303 56Q200 125 143.5 247.5Q87 370 87 522ZM141 520Q141 388 190.5 279.5Q240 171 327 107L759 995Q671 1048 560 1048Q375 1048 258 907Q141 766 141 552ZM980 562Q980 684 934.5 790Q889 896 806 963L376 77Q459 34 562 34Q747 34 863.5 173Q980 312 980 531Z" />
<glyph glyph-name="ugrave" unicode="&#xf9;" horiz-adv-x="1121" d="M897 0L897 175Q849 85 757 32.5Q665 -20 524 -20Q347 -20 258.5 83.5Q170 187 168 385L168 1082L222 1082L222 383Q224 211 300 122.5Q376 34 522 34Q677 34 774 107Q871 180 897 321L897 1082L952 1082L952 0ZM623 1270L564 1270L369 1536L435 1536Z" />
<glyph glyph-name="uacute" unicode="&#xfa;" horiz-adv-x="1121" d="M897 0L897 175Q849 85 757 32.5Q665 -20 524 -20Q347 -20 258.5 83.5Q170 187 168 385L168 1082L222 1082L222 383Q224 211 300 122.5Q376 34 522 34Q677 34 774 107Q871 180 897 321L897 1082L952 1082L952 0ZM729 1536L795 1536L600 1270L540 1270Z" />
<glyph glyph-name="ucircumflex" unicode="&#xfb;" horiz-adv-x="1121" d="M897 0L897 175Q849 85 757 32.5Q665 -20 524 -20Q347 -20 258.5 83.5Q170 187 168 385L168 1082L222 1082L222 383Q224 211 300 122.5Q376 34 522 34Q677 34 774 107Q871 180 897 321L897 1082L952 1082L952 0ZM834 1274L834 1264L766 1264L579 1460L394 1264L330 1264L330 1278L560 1517L600 1517Z" />
<glyph glyph-name="udieresis" unicode="&#xfc;" horiz-adv-x="1121" d="M897 0L897 175Q849 85 757 32.5Q665 -20 524 -20Q347 -20 258.5 83.5Q170 187 168 385L168 1082L222 1082L222 383Q224 211 300 122.5Q376 34 522 34Q677 34 774 107Q871 180 897 321L897 1082L952 1082L952 0ZM304 1421Q304 1444 320 1460.5Q336 1477 359 1477Q382 1477 398.5 1460.5Q415 1444 415 1421Q415 1398 398.5 1382Q382 1366 359 1366Q336 1366 320 1382Q304 1398 304 1421ZM749 1421Q749 1444 765 1460.5Q781 1477 804 1477Q827 1477 843.5 1460.5Q860 1444 860 1421Q860 1398 843.5 1382Q827 1366 804 1366Q781 1366 765 1382Q749 1398 749 1421Z" />
<glyph glyph-name="yacute" unicode="&#xfd;" horiz-adv-x="978" d="M503 84L510 104L884 1082L944 1082L460 -188L436 -248Q358 -437 178 -437Q120 -437 98 -426L97 -375Q129 -384 170 -384Q255 -384 311 -334.5Q367 -285 408 -173L474 6L43 1082L102 1082ZM668 1536L734 1536L539 1270L479 1270Z" />
<glyph glyph-name="thorn" unicode="&#xfe;" horiz-adv-x="1121" d="M999 531Q999 278 890 129Q781 -20 593 -20Q470 -20 374 30Q278 80 224 168L224 -416L170 -416L170 1536L224 1536L224 889Q280 992 375 1047Q470 1102 591 1102Q781 1102 890 956.5Q999 811 999 548ZM944 552Q944 785 851.5 916.5Q759 1048 592 1048Q456 1048 361 977.5Q266 907 224 775L224 269Q266 157 361.5 95.5Q457 34 594 34Q760 34 852 166Q944 298 944 552Z" />
<glyph glyph-name="ydieresis" unicode="&#xff;" horiz-adv-x="978" d="M503 84L510 104L884 1082L944 1082L460 -188L436 -248Q358 -437 178 -437Q120 -437 98 -426L97 -375Q129 -384 170 -384Q255 -384 311 -334.5Q367 -285 408 -173L474 6L43 1082L102 1082ZM243 1421Q243 1444 259 1460.5Q275 1477 298 1477Q321 1477 337.5 1460.5Q354 1444 354 1421Q354 1398 337.5 1382Q321 1366 298 1366Q275 1366 259 1382Q243 1398 243 1421ZM688 1421Q688 1444 704 1460.5Q720 1477 743 1477Q766 1477 782.5 1460.5Q799 1444 799 1421Q799 1398 782.5 1382Q766 1366 743 1366Q720 1366 704 1382Q688 1398 688 1421Z" />
<glyph glyph-name="Amacron" unicode="&#x0100;" horiz-adv-x="1223" d="M967 435L254 435L92 0L33 0L578 1456L644 1456L1189 0L1130 0ZM274 489L947 489L611 1391ZM898 1713L331 1713L331 1766L898 1766Z" />
<glyph glyph-name="amacron" unicode="&#x0101;" horiz-adv-x="1081" d="M871 0Q851 69 851 198Q787 94 676 37Q565 -20 425 -20Q275 -20 183.5 61.5Q92 143 92 274Q92 423 226.5 512.5Q361 602 584 604L851 604L851 762Q851 898 765.5 973Q680 1048 521 1048Q373 1048 274 972Q175 896 175 784L121 786Q121 918 237 1010Q353 1102 521 1102Q696 1102 799 1014.5Q902 927 905 768L905 251Q905 73 933 9L933 0ZM425 33Q577 33 686.5 101Q796 169 851 292L851 549L601 549Q369 549 246 457Q146 382 146 270Q146 171 225 102Q304 33 425 33ZM863 1393L296 1393L296 1446L863 1446Z" />
<glyph glyph-name="Abreve" unicode="&#x0102;" horiz-adv-x="1223" d="M967 435L254 435L92 0L33 0L578 1456L644 1456L1189 0L1130 0ZM274 489L947 489L611 1391ZM889 1810Q889 1698 813.5 1630Q738 1562 611 1562Q483 1562 407.5 1630Q332 1698 332 1810L386 1810Q386 1719 443 1668.5Q500 1618 611 1618Q718 1618 776.5 1669.5Q835 1721 835 1810Z" />
<glyph glyph-name="abreve" unicode="&#x0103;" horiz-adv-x="1081" d="M871 0Q851 69 851 198Q787 94 676 37Q565 -20 425 -20Q275 -20 183.5 61.5Q92 143 92 274Q92 423 226.5 512.5Q361 602 584 604L851 604L851 762Q851 898 765.5 973Q680 1048 521 1048Q373 1048 274 972Q175 896 175 784L121 786Q121 918 237 1010Q353 1102 521 1102Q696 1102 799 1014.5Q902 927 905 768L905 251Q905 73 933 9L933 0ZM425 33Q577 33 686.5 101Q796 169 851 292L851 549L601 549Q369 549 246 457Q146 382 146 270Q146 171 225 102Q304 33 425 33ZM854 1490Q854 1378 778.5 1310Q703 1242 576 1242Q448 1242 372.5 1310Q297 1378 297 1490L351 1490Q351 1399 408 1348.5Q465 1298 576 1298Q683 1298 741.5 1349.5Q800 1401 800 1490Z" />
<glyph glyph-name="Aogonek" unicode="&#x0104;" horiz-adv-x="1223" d="M644 1456L1189 0Q1077 -87 1039 -140.5Q1001 -194 1001 -246Q1001 -341 1094 -341Q1151 -341 1204 -303L1220 -351Q1164 -395 1094 -395Q1027 -395 987 -358.5Q947 -322 947 -246Q947 -137 1127 6L967 435L254 435L92 0L33 0L578 1456ZM274 489L947 489L611 1391Z" />
<glyph glyph-name="aogonek" unicode="&#x0105;" horiz-adv-x="1081" d="M870 4Q851 76 851 198Q787 94 676 37Q565 -20 425 -20Q275 -20 183.5 61.5Q92 143 92 274Q92 423 226.5 512.5Q361 602 584 604L851 604L851 762Q851 898 765.5 973Q680 1048 521 1048Q373 1048 274 972Q175 896 175 784L121 786Q121 918 237 1010Q353 1102 521 1102Q696 1102 799 1014.5Q902 927 905 768L905 251Q905 73 933 9L933 0Q821 -87 783 -140.5Q745 -194 745 -246Q745 -341 838 -341Q895 -341 948 -303L964 -351Q908 -395 838 -395Q771 -395 731 -358.5Q691 -322 691 -246Q691 -133 870 4ZM425 33Q577 33 686.5 101Q796 169 851 292L851 549L601 549Q369 549 246 457Q146 382 146 270Q146 171 225 102Q304 33 425 33Z" />
<glyph glyph-name="Cacute" unicode="&#x0106;" horiz-adv-x="1327" d="M1190 446Q1169 221 1035 100.5Q901 -20 671 -20Q516 -20 396.5 58.5Q277 137 211 281.5Q145 426 144 612L144 837Q144 1023 209 1169.5Q274 1316 394.5 1396Q515 1476 671 1476Q899 1476 1034 1356Q1169 1236 1190 1012L1136 1012Q1113 1213 996 1317.5Q879 1422 671 1422Q459 1422 328.5 1262Q198 1102 198 833L198 619Q198 447 256 314.5Q314 182 422.5 108Q531 34 671 34Q880 34 997.5 137Q1115 240 1136 446ZM827 1876L893 1876L698 1610L638 1610Z" />
<glyph glyph-name="cacute" unicode="&#x0107;" horiz-adv-x="1039" d="M539 34Q686 34 781.5 112Q877 190 886 328L940 328Q932 171 819 75.5Q706 -20 539 -20Q336 -20 216.5 127Q97 274 97 526L97 562Q97 808 216.5 955Q336 1102 537 1102Q709 1102 821 999Q933 896 940 725L886 725Q879 871 783.5 959.5Q688 1048 537 1048Q356 1048 253.5 917.5Q151 787 151 555L151 520Q151 293 254.5 163.5Q358 34 539 34ZM696 1534L762 1534L567 1268L507 1268Z" />
<glyph glyph-name="Ccircumflex" unicode="&#x0108;" horiz-adv-x="1327" d="M1190 446Q1169 221 1035 100.5Q901 -20 671 -20Q516 -20 396.5 58.5Q277 137 211 281.5Q145 426 144 612L144 837Q144 1023 209 1169.5Q274 1316 394.5 1396Q515 1476 671 1476Q899 1476 1034 1356Q1169 1236 1190 1012L1136 1012Q1113 1213 996 1317.5Q879 1422 671 1422Q459 1422 328.5 1262Q198 1102 198 833L198 619Q198 447 256 314.5Q314 182 422.5 108Q531 34 671 34Q880 34 997.5 137Q1115 240 1136 446ZM932 1614L932 1604L864 1604L677 1800L492 1604L428 1604L428 1618L658 1857L698 1857Z" />
<glyph glyph-name="ccircumflex" unicode="&#x0109;" horiz-adv-x="1039" d="M539 34Q686 34 781.5 112Q877 190 886 328L940 328Q932 171 819 75.5Q706 -20 539 -20Q336 -20 216.5 127Q97 274 97 526L97 562Q97 808 216.5 955Q336 1102 537 1102Q709 1102 821 999Q933 896 940 725L886 725Q879 871 783.5 959.5Q688 1048 537 1048Q356 1048 253.5 917.5Q151 787 151 555L151 520Q151 293 254.5 163.5Q358 34 539 34ZM801 1272L801 1262L733 1262L546 1458L361 1262L297 1262L297 1276L527 1515L567 1515Z" />
<glyph glyph-name="Cdotaccent" unicode="&#x010a;" horiz-adv-x="1327" d="M1190 446Q1169 221 1035 100.5Q901 -20 671 -20Q516 -20 396.5 58.5Q277 137 211 281.5Q145 426 144 612L144 837Q144 1023 209 1169.5Q274 1316 394.5 1396Q515 1476 671 1476Q899 1476 1034 1356Q1169 1236 1190 1012L1136 1012Q1113 1213 996 1317.5Q879 1422 671 1422Q459 1422 328.5 1262Q198 1102 198 833L198 619Q198 447 256 314.5Q314 182 422.5 108Q531 34 671 34Q880 34 997.5 137Q1115 240 1136 446ZM623 1737Q623 1760 639 1776.5Q655 1793 678 1793Q701 1793 717.5 1776.5Q734 1760 734 1737Q734 1714 717.5 1698Q701 1682 678 1682Q655 1682 639 1698Q623 1714 623 1737Z" />
<glyph glyph-name="cdotaccent" unicode="&#x010b;" horiz-adv-x="1039" d="M539 34Q686 34 781.5 112Q877 190 886 328L940 328Q932 171 819 75.5Q706 -20 539 -20Q336 -20 216.5 127Q97 274 97 526L97 562Q97 808 216.5 955Q336 1102 537 1102Q709 1102 821 999Q933 896 940 725L886 725Q879 871 783.5 959.5Q688 1048 537 1048Q356 1048 253.5 917.5Q151 787 151 555L151 520Q151 293 254.5 163.5Q358 34 539 34ZM492 1395Q492 1418 508 1434.5Q524 1451 547 1451Q570 1451 586.5 1434.5Q603 1418 603 1395Q603 1372 586.5 1356Q570 1340 547 1340Q524 1340 508 1356Q492 1372 492 1395Z" />
<glyph glyph-name="Ccaron" unicode="&#x010c;" horiz-adv-x="1327" d="M1190 446Q1169 221 1035 100.5Q901 -20 671 -20Q516 -20 396.5 58.5Q277 137 211 281.5Q145 426 144 612L144 837Q144 1023 209 1169.5Q274 1316 394.5 1396Q515 1476 671 1476Q899 1476 1034 1356Q1169 1236 1190 1012L1136 1012Q1113 1213 996 1317.5Q879 1422 671 1422Q459 1422 328.5 1262Q198 1102 198 833L198 619Q198 447 256 314.5Q314 182 422.5 108Q531 34 671 34Q880 34 997.5 137Q1115 240 1136 446ZM677 1634L871 1851L924 1851L924 1838L706 1588L647 1588L427 1840L427 1851L484 1851Z" />
<glyph glyph-name="ccaron" unicode="&#x010d;" horiz-adv-x="1039" d="M539 34Q686 34 781.5 112Q877 190 886 328L940 328Q932 171 819 75.5Q706 -20 539 -20Q336 -20 216.5 127Q97 274 97 526L97 562Q97 808 216.5 955Q336 1102 537 1102Q709 1102 821 999Q933 896 940 725L886 725Q879 871 783.5 959.5Q688 1048 537 1048Q356 1048 253.5 917.5Q151 787 151 555L151 520Q151 293 254.5 163.5Q358 34 539 34ZM546 1291L740 1508L793 1508L793 1495L575 1245L516 1245L296 1497L296 1508L353 1508Z" />
<glyph glyph-name="Dcaron" unicode="&#x010e;" horiz-adv-x="1340" d="M200 0L200 1456L603 1456Q772 1456 909 1376Q1046 1296 1124 1151.5Q1202 1007 1204 828L1204 639Q1204 457 1127.5 311Q1051 165 914 83Q777 1 608 0ZM254 1402L254 54L603 54Q756 54 881.5 128.5Q1007 203 1078 336.5Q1149 470 1150 633L1150 820Q1150 983 1080.5 1116Q1011 1249 886.5 1324.5Q762 1400 611 1402ZM589 1613L783 1830L836 1830L836 1817L618 1567L559 1567L339 1819L339 1830L396 1830Z" />
<glyph glyph-name="dcaron" unicode="&#x010f;" horiz-adv-x="1271" d="M122 552Q122 811 231 956.5Q340 1102 530 1102Q652 1102 745.5 1047Q839 992 897 883L897 1536L951 1536L951 0L897 0L897 173Q842 81 746 30.5Q650 -20 528 -20Q340 -20 231 129Q122 278 122 538ZM178 531Q178 301 269 167.5Q360 34 527 34Q661 34 756 93.5Q851 153 897 268L897 775Q804 1048 529 1048Q363 1048 270.5 917Q178 786 178 531ZM1111 1217L1074 1249Q1136 1335 1142 1425L1143 1536L1197 1536L1197 1457Q1196 1314 1111 1217Z" />
<glyph glyph-name="Dcroat" unicode="&#x0110;" horiz-adv-x="1370" d="M230 0L230 713L60 713L60 767L230 767L230 1456L633 1456Q802 1456 939 1376Q1076 1296 1154 1151.5Q1232 1007 1234 828L1234 639Q1234 457 1157.5 311Q1081 165 944 83Q807 1 638 0ZM647 713L284 713L284 54L623 54Q870 54 1025 220Q1180 386 1180 647L1180 820Q1180 983 1110.5 1116Q1041 1249 916.5 1324.5Q792 1400 641 1402L284 1402L284 767L647 767Z" />
<glyph glyph-name="dcroat" unicode="&#x0111;" horiz-adv-x="1121" d="M1111 1281L951 1281L951 0L897 0L897 173Q842 81 746 30.5Q650 -20 528 -20Q340 -20 231 129Q122 278 122 538L122 552Q122 811 231 956.5Q340 1102 530 1102Q652 1102 745.5 1047Q839 992 897 883L897 1281L524 1281L524 1335L897 1335L897 1536L951 1536L951 1335L1111 1335ZM178 531Q178 301 269 167.5Q360 34 527 34Q661 34 756 93.5Q851 153 897 268L897 775Q804 1048 529 1048Q363 1048 270.5 917Q178 786 178 531Z" />
<glyph glyph-name="Emacron" unicode="&#x0112;" horiz-adv-x="1166" d="M984 722L254 722L254 54L1086 54L1086 0L200 0L200 1456L1086 1456L1086 1402L254 1402L254 776L984 776ZM905 1713L338 1713L338 1766L905 1766Z" />
<glyph glyph-name="emacron" unicode="&#x0113;" horiz-adv-x="1032" d="M561 -20Q430 -20 320.5 50.5Q211 121 149 244Q87 367 87 517L87 562Q87 712 147 837Q207 962 312 1032Q417 1102 541 1102Q722 1102 837 973Q952 844 952 634L952 577L141 577L141 518Q141 386 196.5 273.5Q252 161 349.5 97Q447 33 561 33Q670 33 746.5 69.5Q823 106 882 182L920 155Q799 -20 561 -20ZM541 1048Q383 1048 273 930.5Q163 813 144 631L898 631L898 644Q898 754 851.5 848.5Q805 943 723.5 995.5Q642 1048 541 1048ZM853 1392L286 1392L286 1445L853 1445Z" />
<glyph glyph-name="Ebreve" unicode="&#x0114;" horiz-adv-x="1166" d="M984 722L254 722L254 54L1086 54L1086 0L200 0L200 1456L1086 1456L1086 1402L254 1402L254 776L984 776ZM896 1810Q896 1698 820.5 1630Q745 1562 618 1562Q490 1562 414.5 1630Q339 1698 339 1810L393 1810Q393 1719 450 1668.5Q507 1618 618 1618Q725 1618 783.5 1669.5Q842 1721 842 1810Z" />
<glyph glyph-name="ebreve" unicode="&#x0115;" horiz-adv-x="1032" d="M561 -20Q430 -20 320.5 50.5Q211 121 149 244Q87 367 87 517L87 562Q87 712 147 837Q207 962 312 1032Q417 1102 541 1102Q722 1102 837 973Q952 844 952 634L952 577L141 577L141 518Q141 386 196.5 273.5Q252 161 349.5 97Q447 33 561 33Q670 33 746.5 69.5Q823 106 882 182L920 155Q799 -20 561 -20ZM541 1048Q383 1048 273 930.5Q163 813 144 631L898 631L898 644Q898 754 851.5 848.5Q805 943 723.5 995.5Q642 1048 541 1048ZM844 1489Q844 1377 768.5 1309Q693 1241 566 1241Q438 1241 362.5 1309Q287 1377 287 1489L341 1489Q341 1398 398 1347.5Q455 1297 566 1297Q673 1297 731.5 1348.5Q790 1400 790 1489Z" />
<glyph glyph-name="Edotaccent" unicode="&#x0116;" horiz-adv-x="1166" d="M984 722L254 722L254 54L1086 54L1086 0L200 0L200 1456L1086 1456L1086 1402L254 1402L254 776L984 776ZM564 1716Q564 1739 580 1755.5Q596 1772 619 1772Q642 1772 658.5 1755.5Q675 1739 675 1716Q675 1693 658.5 1677Q642 1661 619 1661Q596 1661 580 1677Q564 1693 564 1716Z" />
<glyph glyph-name="edotaccent" unicode="&#x0117;" horiz-adv-x="1032" d="M561 -20Q430 -20 320.5 50.5Q211 121 149 244Q87 367 87 517L87 562Q87 712 147 837Q207 962 312 1032Q417 1102 541 1102Q722 1102 837 973Q952 844 952 634L952 577L141 577L141 518Q141 386 196.5 273.5Q252 161 349.5 97Q447 33 561 33Q670 33 746.5 69.5Q823 106 882 182L920 155Q799 -20 561 -20ZM541 1048Q383 1048 273 930.5Q163 813 144 631L898 631L898 644Q898 754 851.5 848.5Q805 943 723.5 995.5Q642 1048 541 1048ZM512 1396Q512 1419 528 1435.5Q544 1452 567 1452Q590 1452 606.5 1435.5Q623 1419 623 1396Q623 1373 606.5 1357Q590 1341 567 1341Q544 1341 528 1357Q512 1373 512 1396Z" />
<glyph glyph-name="Eogonek" unicode="&#x0118;" horiz-adv-x="1166" d="M984 722L254 722L254 54L1086 54L1086 0L1027 0Q915 -87 877 -140.5Q839 -194 839 -246Q839 -341 932 -341Q989 -341 1042 -303L1058 -351Q1002 -395 932 -395Q865 -395 825 -358.5Q785 -322 785 -246Q785 -136 958 0L200 0L200 1456L1086 1456L1086 1402L254 1402L254 776L984 776Z" />
<glyph glyph-name="eogonek" unicode="&#x0119;" horiz-adv-x="1032" d="M561 -20Q430 -20 320.5 50.5Q211 121 149 244Q87 367 87 517L87 562Q87 712 147 837Q207 962 312 1032Q417 1102 541 1102Q722 1102 837 973Q952 844 952 634L952 577L141 577L141 518Q141 386 196.5 273.5Q252 161 349.5 97Q447 33 561 33Q670 33 746.5 69.5Q823 106 882 182L920 155Q881 99 828 60L832 58Q720 -29 682 -82.5Q644 -136 644 -188Q644 -283 737 -283Q794 -283 847 -245L863 -293Q807 -337 737 -337Q670 -337 630 -300.5Q590 -264 590 -188Q590 -106 693 -3Q629 -20 561 -20ZM541 1048Q383 1048 273 930.5Q163 813 144 631L898 631L898 644Q898 754 851.5 848.5Q805 943 723.5 995.5Q642 1048 541 1048Z" />
<glyph glyph-name="Ecaron" unicode="&#x011a;" horiz-adv-x="1166" d="M984 722L254 722L254 54L1086 54L1086 0L200 0L200 1456L1086 1456L1086 1402L254 1402L254 776L984 776ZM618 1613L812 1830L865 1830L865 1817L647 1567L588 1567L368 1819L368 1830L425 1830Z" />
<glyph glyph-name="ecaron" unicode="&#x011b;" horiz-adv-x="1032" d="M561 -20Q430 -20 320.5 50.5Q211 121 149 244Q87 367 87 517L87 562Q87 712 147 837Q207 962 312 1032Q417 1102 541 1102Q722 1102 837 973Q952 844 952 634L952 577L141 577L141 518Q141 386 196.5 273.5Q252 161 349.5 97Q447 33 561 33Q670 33 746.5 69.5Q823 106 882 182L920 155Q799 -20 561 -20ZM541 1048Q383 1048 273 930.5Q163 813 144 631L898 631L898 644Q898 754 851.5 848.5Q805 943 723.5 995.5Q642 1048 541 1048ZM566 1292L760 1509L813 1509L813 1496L595 1246L536 1246L316 1498L316 1509L373 1509Z" />
<glyph glyph-name="Gcircumflex" unicode="&#x011c;" horiz-adv-x="1406" d="M1226 156Q1171 80 1033 30Q895 -20 729 -20Q567 -20 440 59Q313 138 241.5 282Q170 426 168 608L168 858Q168 1037 237 1179Q306 1321 431 1398.5Q556 1476 712 1476Q929 1476 1065.5 1365Q1202 1254 1224 1062L1170 1062Q1143 1236 1025 1329Q907 1422 712 1422Q492 1422 357 1265Q222 1108 222 852L222 620Q222 449 285.5 315Q349 181 464.5 107.5Q580 34 729 34Q875 34 1000 77Q1125 120 1172 181L1172 605L727 605L727 660L1226 660ZM957 1614L957 1604L889 1604L702 1800L517 1604L453 1604L453 1618L683 1857L723 1857Z" />
<glyph glyph-name="gcircumflex" unicode="&#x011d;" horiz-adv-x="1123" d="M121 552Q121 811 230 956.5Q339 1102 529 1102Q650 1102 744 1046.5Q838 991 895 884L895 1082L950 1082L950 19Q950 -195 840 -315.5Q730 -436 541 -436Q432 -436 341.5 -389Q251 -342 187 -254L225 -218Q288 -298 363 -340.5Q438 -383 539 -383Q706 -383 799 -281.5Q892 -180 895 5L895 171Q839 79 743.5 29.5Q648 -20 527 -20Q339 -20 230 129Q121 278 121 538ZM176 531Q176 299 268 166.5Q360 34 526 34Q663 34 759 97.5Q855 161 895 276L895 767Q807 1048 528 1048Q361 1048 268.5 917Q176 786 176 531ZM821 1272L821 1262L753 1262L566 1458L381 1262L317 1262L317 1276L547 1515L587 1515Z" />
<glyph glyph-name="Gbreve" unicode="&#x011e;" horiz-adv-x="1406" d="M1226 156Q1171 80 1033 30Q895 -20 729 -20Q567 -20 440 59Q313 138 241.5 282Q170 426 168 608L168 858Q168 1037 237 1179Q306 1321 431 1398.5Q556 1476 712 1476Q929 1476 1065.5 1365Q1202 1254 1224 1062L1170 1062Q1143 1236 1025 1329Q907 1422 712 1422Q492 1422 357 1265Q222 1108 222 852L222 620Q222 449 285.5 315Q349 181 464.5 107.5Q580 34 729 34Q875 34 1000 77Q1125 120 1172 181L1172 605L727 605L727 660L1226 660ZM980 1831Q980 1719 904.5 1651Q829 1583 702 1583Q574 1583 498.5 1651Q423 1719 423 1831L477 1831Q477 1740 534 1689.5Q591 1639 702 1639Q809 1639 867.5 1690.5Q926 1742 926 1831Z" />
<glyph glyph-name="gbreve" unicode="&#x011f;" horiz-adv-x="1123" d="M121 552Q121 811 230 956.5Q339 1102 529 1102Q650 1102 744 1046.5Q838 991 895 884L895 1082L950 1082L950 19Q950 -195 840 -315.5Q730 -436 541 -436Q432 -436 341.5 -389Q251 -342 187 -254L225 -218Q288 -298 363 -340.5Q438 -383 539 -383Q706 -383 799 -281.5Q892 -180 895 5L895 171Q839 79 743.5 29.5Q648 -20 527 -20Q339 -20 230 129Q121 278 121 538ZM176 531Q176 299 268 166.5Q360 34 526 34Q663 34 759 97.5Q855 161 895 276L895 767Q807 1048 528 1048Q361 1048 268.5 917Q176 786 176 531ZM844 1488Q844 1376 768.5 1308Q693 1240 566 1240Q438 1240 362.5 1308Q287 1376 287 1488L341 1488Q341 1397 398 1346.5Q455 1296 566 1296Q673 1296 731.5 1347.5Q790 1399 790 1488Z" />
<glyph glyph-name="Gdotaccent" unicode="&#x0120;" horiz-adv-x="1406" d="M1226 156Q1171 80 1033 30Q895 -20 729 -20Q567 -20 440 59Q313 138 241.5 282Q170 426 168 608L168 858Q168 1037 237 1179Q306 1321 431 1398.5Q556 1476 712 1476Q929 1476 1065.5 1365Q1202 1254 1224 1062L1170 1062Q1143 1236 1025 1329Q907 1422 712 1422Q492 1422 357 1265Q222 1108 222 852L222 620Q222 449 285.5 315Q349 181 464.5 107.5Q580 34 729 34Q875 34 1000 77Q1125 120 1172 181L1172 605L727 605L727 660L1226 660ZM648 1737Q648 1760 664 1776.5Q680 1793 703 1793Q726 1793 742.5 1776.5Q759 1760 759 1737Q759 1714 742.5 1698Q726 1682 703 1682Q680 1682 664 1698Q648 1714 648 1737Z" />
<glyph glyph-name="gdotaccent" unicode="&#x0121;" horiz-adv-x="1123" d="M121 552Q121 811 230 956.5Q339 1102 529 1102Q650 1102 744 1046.5Q838 991 895 884L895 1082L950 1082L950 19Q950 -195 840 -315.5Q730 -436 541 -436Q432 -436 341.5 -389Q251 -342 187 -254L225 -218Q288 -298 363 -340.5Q438 -383 539 -383Q706 -383 799 -281.5Q892 -180 895 5L895 171Q839 79 743.5 29.5Q648 -20 527 -20Q339 -20 230 129Q121 278 121 538ZM176 531Q176 299 268 166.5Q360 34 526 34Q663 34 759 97.5Q855 161 895 276L895 767Q807 1048 528 1048Q361 1048 268.5 917Q176 786 176 531ZM512 1395Q512 1418 528 1434.5Q544 1451 567 1451Q590 1451 606.5 1434.5Q623 1418 623 1395Q623 1372 606.5 1356Q590 1340 567 1340Q544 1340 528 1356Q512 1372 512 1395Z" />
<glyph glyph-name="uni0122" unicode="&#x0122;" horiz-adv-x="1406" d="M1226 156Q1171 80 1033 30Q895 -20 729 -20Q567 -20 440 59Q313 138 241.5 282Q170 426 168 608L168 858Q168 1037 237 1179Q306 1321 431 1398.5Q556 1476 712 1476Q929 1476 1065.5 1365Q1202 1254 1224 1062L1170 1062Q1143 1236 1025 1329Q907 1422 712 1422Q492 1422 357 1265Q222 1108 222 852L222 620Q222 449 285.5 315Q349 181 464.5 107.5Q580 34 729 34Q875 34 1000 77Q1125 120 1172 181L1172 605L727 605L727 660L1226 660ZM671 -417L634 -385Q696 -299 702 -209L703 -98L757 -98L757 -177Q756 -320 671 -417Z" />
<glyph glyph-name="uni0123" unicode="&#x0123;" horiz-adv-x="1123" d="M121 552Q121 811 230 956.5Q339 1102 529 1102Q650 1102 744 1046.5Q838 991 895 884L895 1082L950 1082L950 19Q950 -195 840 -315.5Q730 -436 541 -436Q432 -436 341.5 -389Q251 -342 187 -254L225 -218Q288 -298 363 -340.5Q438 -383 539 -383Q706 -383 799 -281.5Q892 -180 895 5L895 171Q839 79 743.5 29.5Q648 -20 527 -20Q339 -20 230 129Q121 278 121 538ZM176 531Q176 299 268 166.5Q360 34 526 34Q663 34 759 97.5Q855 161 895 276L895 767Q807 1048 528 1048Q361 1048 268.5 917Q176 786 176 531ZM598 1590L642 1574Q595 1479 593 1418L593 1274L539 1274L539 1413Q541 1494 598 1590Z" />
<glyph glyph-name="Hcircumflex" unicode="&#x0124;" horiz-adv-x="1438" d="M1238 0L1184 0L1184 722L254 722L254 0L200 0L200 1456L254 1456L254 776L1184 776L1184 1456L1238 1456ZM970 1593L970 1583L902 1583L715 1779L530 1583L466 1583L466 1597L696 1836L736 1836Z" />
<glyph glyph-name="hcircumflex" unicode="&#x0125;" horiz-adv-x="1121" d="M226 830Q279 956 382 1029Q485 1102 610 1102Q784 1102 868.5 1003.5Q953 905 954 706L954 0L900 0L900 708Q899 882 829 965.5Q759 1049 607 1049Q467 1049 364.5 949.5Q262 850 226 693L226 0L172 0L172 1536L226 1536ZM727 1592L727 1582L659 1582L472 1778L287 1582L223 1582L223 1596L453 1835L493 1835Z" />
<glyph glyph-name="Hbar" unicode="&#x0126;" horiz-adv-x="1389" d="M1197 1081L1352 1081L1352 1028L1197 1028L1197 0L1143 0L1143 722L213 722L213 0L159 0L159 1028L20 1028L20 1081L159 1081L159 1456L213 1456L213 1081L1143 1081L1143 1456L1197 1456ZM213 776L1143 776L1143 1028L213 1028Z" />
<glyph glyph-name="hbar" unicode="&#x0127;" horiz-adv-x="1151" d="M618 1281L256 1281L256 830Q309 956 412 1029Q515 1102 640 1102Q814 1102 898.5 1003.5Q983 905 984 706L984 0L930 0L930 708Q929 882 859 965.5Q789 1049 637 1049Q497 1049 394.5 949.5Q292 850 256 693L256 0L202 0L202 1281L31 1281L31 1335L202 1335L202 1536L256 1536L256 1335L618 1335Z" />
<glyph glyph-name="Itilde" unicode="&#x0128;" horiz-adv-x="534" d="M294 0L240 0L240 1456L294 1456ZM597 1806Q597 1724 546.5 1672Q496 1620 421 1620Q340 1620 268 1682.5Q196 1745 134 1745Q78 1745 45.5 1711Q13 1677 13 1620L-42 1620Q-42 1700 8 1749.5Q58 1799 134 1799Q212 1799 287.5 1737Q363 1675 421 1675Q475 1675 508.5 1711Q542 1747 542 1806Z" />
<glyph glyph-name="itilde" unicode="&#x0129;" horiz-adv-x="406" d="M235 0L181 0L181 1082L235 1082ZM538 1464Q538 1382 487.5 1330Q437 1278 362 1278Q281 1278 209 1340.5Q137 1403 75 1403Q19 1403 -13.5 1369Q-46 1335 -46 1278L-101 1278Q-101 1358 -51 1407.5Q-1 1457 75 1457Q153 1457 228.5 1395Q304 1333 362 1333Q416 1333 449.5 1369Q483 1405 483 1464Z" />
<glyph glyph-name="Imacron" unicode="&#x012a;" horiz-adv-x="534" d="M294 0L240 0L240 1456L294 1456ZM555 1713L-12 1713L-12 1766L555 1766Z" />
<glyph glyph-name="imacron" unicode="&#x012b;" horiz-adv-x="406" d="M235 0L181 0L181 1082L235 1082ZM496 1371L-71 1371L-71 1424L496 1424Z" />
<glyph glyph-name="Ibreve" unicode="&#x012c;" horiz-adv-x="534" d="M294 0L240 0L240 1456L294 1456ZM546 1810Q546 1698 470.5 1630Q395 1562 268 1562Q140 1562 64.5 1630Q-11 1698 -11 1810L43 1810Q43 1719 100 1668.5Q157 1618 268 1618Q375 1618 433.5 1669.5Q492 1721 492 1810Z" />
<glyph glyph-name="ibreve" unicode="&#x012d;" horiz-adv-x="406" d="M235 0L181 0L181 1082L235 1082ZM487 1468Q487 1356 411.5 1288Q336 1220 209 1220Q81 1220 5.5 1288Q-70 1356 -70 1468L-16 1468Q-16 1377 41 1326.5Q98 1276 209 1276Q316 1276 374.5 1327.5Q433 1379 433 1468Z" />
<glyph glyph-name="Iogonek" unicode="&#x012e;" horiz-adv-x="534" d="M294 0L240 0L240 1456L294 1456ZM296 0Q184 -87 146 -140.5Q108 -194 108 -246Q108 -341 201 -341Q258 -341 311 -303L327 -351Q271 -395 201 -395Q134 -395 94 -358.5Q54 -322 54 -246Q54 -129 253 20Z" />
<glyph glyph-name="iogonek" unicode="&#x012f;" horiz-adv-x="422" d="M239 0L185 0L185 1082L239 1082ZM157 1420Q157 1443 173 1459.5Q189 1476 212 1476Q235 1476 251.5 1459.5Q268 1443 268 1420Q268 1397 251.5 1381Q235 1365 212 1365Q189 1365 173 1381Q157 1397 157 1420ZM239 0Q127 -87 89 -140.5Q51 -194 51 -246Q51 -341 144 -341Q201 -341 254 -303L270 -351Q214 -395 144 -395Q77 -395 37 -358.5Q-3 -322 -3 -246Q-3 -129 196 20Z" />
<glyph glyph-name="Idotaccent" unicode="&#x0130;" horiz-adv-x="534" d="M294 0L240 0L240 1456L294 1456ZM213 1716Q213 1739 229 1755.5Q245 1772 268 1772Q291 1772 307.5 1755.5Q324 1739 324 1716Q324 1693 307.5 1677Q291 1661 268 1661Q245 1661 229 1677Q213 1693 213 1716Z" />
<glyph glyph-name="dotlessi" unicode="&#x0131;" horiz-adv-x="406" d="M235 0L181 0L181 1082L235 1082Z" />
<glyph glyph-name="IJ" unicode="&#x0132;" horiz-adv-x="1659" d="M294 0L240 0L240 1456L294 1456ZM1410 1456L1464 1456L1464 442Q1464 231 1349 105.5Q1234 -20 1044 -20Q840 -20 732 89Q624 198 624 401L678 401Q678 223 769.5 128.5Q861 34 1044 34Q1204 34 1305.5 141Q1407 248 1410 432Z" />
<glyph glyph-name="ij" unicode="&#x0133;" horiz-adv-x="867" d="M239 0L185 0L185 1082L239 1082ZM157 1420Q157 1443 173 1459.5Q189 1476 212 1476Q235 1476 251.5 1459.5Q268 1443 268 1420Q268 1397 251.5 1381Q235 1365 212 1365Q189 1365 173 1381Q157 1397 157 1420ZM662 1082L662 -129Q662 -279 587 -358Q512 -437 377 -437Q328 -437 279 -417L282 -365Q330 -383 377 -383Q489 -383 548.5 -316.5Q608 -250 608 -129L608 1082ZM585 1420Q585 1443 601 1459.5Q617 1476 640 1476Q663 1476 679.5 1459.5Q696 1443 696 1420Q696 1397 679.5 1381Q663 1365 640 1365Q617 1365 601 1381Q585 1397 585 1420Z" />
<glyph glyph-name="Jcircumflex" unicode="&#x0134;" horiz-adv-x="1125" d="M876 1456L930 1456L930 442Q930 231 815 105.5Q700 -20 510 -20Q306 -20 198 89Q90 198 90 401L144 401Q144 223 235.5 128.5Q327 34 510 34Q670 34 771.5 141Q873 248 876 432ZM1156 1563L1156 1553L1088 1553L901 1749L716 1553L652 1553L652 1567L882 1806L922 1806Z" />
<glyph glyph-name="jcircumflex" unicode="&#x0135;" horiz-adv-x="422" d="M240 1082L240 -89Q240 -259 165 -348Q90 -437 -45 -437Q-99 -437 -157 -417L-144 -365Q-96 -383 -45 -383Q67 -383 126.5 -307Q186 -231 186 -89L186 1082ZM464 1231L464 1221L396 1221L209 1417L24 1221L-40 1221L-40 1235L190 1474L230 1474Z" />
<glyph glyph-name="uni0136" unicode="&#x0136;" horiz-adv-x="1300" d="M487 766L254 551L254 0L200 0L200 1456L254 1456L254 614L494 849L1098 1456L1176 1456L527 803L1226 0L1156 0ZM565 -307L528 -275Q590 -189 596 -99L597 12L651 12L651 -67Q650 -210 565 -307Z" />
<glyph glyph-name="uni0137" unicode="&#x0137;" horiz-adv-x="969" d="M385 585L383 583L226 448L226 0L172 0L172 1536L226 1536L226 507L353 627L845 1082L922 1082L425 621L953 0L883 0ZM460 -303L423 -271Q485 -185 491 -95L492 16L546 16L546 -63Q545 -206 460 -303Z" />
<glyph glyph-name="kgreenlandic" unicode="&#x0138;" horiz-adv-x="1084" d="M394 529L226 529L226 0L171 0L171 1082L226 1082L226 582L404 582L893 1082L962 1082L454 553L1025 0L954 0Z" />
<glyph glyph-name="Lacute" unicode="&#x0139;" horiz-adv-x="1057" d="M255 54L1002 54L1002 0L200 0L200 1456L255 1456ZM381 1792L447 1792L252 1526L192 1526Z" />
<glyph glyph-name="lacute" unicode="&#x013a;" horiz-adv-x="422" d="M239 0L185 0L185 1536L239 1536ZM363 1916L429 1916L234 1650L174 1650Z" />
<glyph glyph-name="uni013B" unicode="&#x013b;" horiz-adv-x="1057" d="M255 54L1002 54L1002 0L200 0L200 1456L255 1456ZM567 -407L530 -375Q592 -289 598 -199L599 -88L653 -88L653 -167Q652 -310 567 -407Z" />
<glyph glyph-name="uni013C" unicode="&#x013c;" horiz-adv-x="422" d="M239 0L185 0L185 1536L239 1536ZM157 -407L120 -375Q182 -289 188 -199L189 -88L243 -88L243 -167Q242 -310 157 -407Z" />
<glyph glyph-name="Lcaron" unicode="&#x013d;" horiz-adv-x="1057" d="M255 54L1002 54L1002 0L200 0L200 1456L255 1456ZM577 1136L540 1168Q602 1254 608 1344L609 1455L663 1455L663 1376Q662 1233 577 1136Z" />
<glyph glyph-name="lcaron" unicode="&#x013e;" horiz-adv-x="572" d="M239 0L185 0L185 1536L239 1536ZM426 1217L389 1249Q451 1335 457 1425L458 1536L512 1536L512 1457Q511 1314 426 1217Z" />
<glyph glyph-name="Ldot" unicode="&#x013f;" horiz-adv-x="1057" d="M255 54L1002 54L1002 0L200 0L200 1456L255 1456ZM607 757Q607 780 623 796.5Q639 813 662 813Q685 813 701.5 796.5Q718 780 718 757Q718 734 701.5 718Q685 702 662 702Q639 702 623 718Q607 734 607 757Z" />
<glyph glyph-name="ldot" unicode="&#x0140;" horiz-adv-x="642" d="M239 0L185 0L185 1536L239 1536ZM403 796Q403 819 419 835.5Q435 852 458 852Q481 852 497.5 835.5Q514 819 514 796Q514 773 497.5 757Q481 741 458 741Q435 741 419 757Q403 773 403 796Z" />
<glyph glyph-name="Lslash" unicode="&#x0141;" horiz-adv-x="1061" d="M247 791L598 902L598 845L247 734L247 54L994 54L994 0L192 0L192 716L8 658L8 715L192 773L192 1456L247 1456Z" />
<glyph glyph-name="lslash" unicode="&#x0142;" horiz-adv-x="505" d="M286 850L487 930L487 871L286 791L286 0L232 0L232 769L17 684L17 743L232 828L232 1536L286 1536Z" />
<glyph glyph-name="Nacute" unicode="&#x0143;" horiz-adv-x="1449" d="M1249 0L1195 0L255 1364L255 0L200 0L200 1456L255 1456L1195 95L1195 1456L1249 1456ZM875 1855L941 1855L746 1589L686 1589Z" />
<glyph glyph-name="nacute" unicode="&#x0144;" horiz-adv-x="1121" d="M226 830Q279 956 382 1029Q485 1102 610 1102Q784 1102 868.5 1003.5Q953 905 954 706L954 0L900 0L900 708Q899 882 829 965.5Q759 1049 607 1049Q467 1049 364.5 949.5Q262 850 226 693L226 0L172 0L172 1082L226 1082ZM727 1534L793 1534L598 1268L538 1268Z" />
<glyph glyph-name="uni0145" unicode="&#x0145;" horiz-adv-x="1449" d="M1249 0L1195 0L255 1364L255 0L200 0L200 1456L255 1456L1195 95L1195 1456L1249 1456ZM668 -407L631 -375Q693 -289 699 -199L700 -88L754 -88L754 -167Q753 -310 668 -407Z" />
<glyph glyph-name="uni0146" unicode="&#x0146;" horiz-adv-x="1121" d="M226 830Q279 956 382 1029Q485 1102 610 1102Q784 1102 868.5 1003.5Q953 905 954 706L954 0L900 0L900 708Q899 882 829 965.5Q759 1049 607 1049Q467 1049 364.5 949.5Q262 850 226 693L226 0L172 0L172 1082L226 1082ZM520 -407L483 -375Q545 -289 551 -199L552 -88L606 -88L606 -167Q605 -310 520 -407Z" />
<glyph glyph-name="Ncaron" unicode="&#x0147;" horiz-adv-x="1449" d="M1249 0L1195 0L255 1364L255 0L200 0L200 1456L255 1456L1195 95L1195 1456L1249 1456ZM725 1613L919 1830L972 1830L972 1817L754 1567L695 1567L475 1819L475 1830L532 1830Z" />
<glyph glyph-name="ncaron" unicode="&#x0148;" horiz-adv-x="1121" d="M226 830Q279 956 382 1029Q485 1102 610 1102Q784 1102 868.5 1003.5Q953 905 954 706L954 0L900 0L900 708Q899 882 829 965.5Q759 1049 607 1049Q467 1049 364.5 949.5Q262 850 226 693L226 0L172 0L172 1082L226 1082ZM577 1291L771 1508L824 1508L824 1495L606 1245L547 1245L327 1497L327 1508L384 1508Z" />
<glyph glyph-name="napostrophe" unicode="&#x0149;" horiz-adv-x="1121" d="M226 830Q279 956 382 1029Q485 1102 610 1102Q784 1102 868.5 1003.5Q953 905 954 706L954 0L900 0L900 708Q899 882 829 965.5Q759 1049 607 1049Q467 1049 364.5 949.5Q262 850 226 693L226 0L172 0L172 1082L226 1082ZM10 1217L-27 1249Q35 1335 41 1425L42 1536L96 1536L96 1457Q95 1314 10 1217Z" />
<glyph glyph-name="Eng" unicode="&#x014a;" horiz-adv-x="1450" d="M1250 1456L1250 -89Q1250 -259 1174.5 -348Q1099 -437 965 -437Q911 -437 853 -417L866 -365Q914 -383 965 -383Q1076 -383 1136 -307Q1196 -231 1196 -89L1196 0L254 1364L254 0L200 0L200 1456L254 1456L1196 93L1196 1456Z" />
<glyph glyph-name="eng" unicode="&#x014b;" horiz-adv-x="1121" d="M218 1082L224 858Q272 971 365 1036.5Q458 1102 600 1102Q777 1102 864.5 992.5Q952 883 954 649L954 -89Q954 -259 878.5 -348Q803 -437 669 -437Q604 -437 536 -417L549 -365Q606 -384 669 -384Q780 -384 840 -307.5Q900 -231 900 -89L900 639Q900 845 828 946.5Q756 1048 601 1048Q443 1048 346 953Q249 858 224 680L224 0L170 0L170 1082Z" />
<glyph glyph-name="Omacron" unicode="&#x014c;" horiz-adv-x="1364" d="M1231 619Q1231 430 1163.5 284.5Q1096 139 971 59.5Q846 -20 683 -20Q437 -20 285 155Q133 330 133 627L133 837Q133 1025 200.5 1171Q268 1317 393.5 1396.5Q519 1476 681 1476Q844 1476 969.5 1396.5Q1095 1317 1163 1170.5Q1231 1024 1231 837ZM1177 839Q1177 1103 1043 1262.5Q909 1422 681 1422Q456 1422 322 1263.5Q188 1105 188 832L188 619Q188 445 248.5 311.5Q309 178 421 106Q533 34 683 34Q911 34 1044 193Q1177 352 1177 627ZM962 1734L395 1734L395 1787L962 1787Z" />
<glyph glyph-name="omacron" unicode="&#x014d;" horiz-adv-x="1127" d="M90 562Q90 717 149.5 840.5Q209 964 317.5 1033Q426 1102 563 1102Q699 1102 807 1035Q915 968 975.5 845Q1036 722 1037 568L1037 520Q1037 364 978 241Q919 118 810.5 49Q702 -20 565 -20Q428 -20 319.5 48Q211 116 151 238.5Q91 361 90 514ZM144 520Q144 385 197.5 272.5Q251 160 346.5 97Q442 34 565 34Q750 34 866.5 173Q983 312 983 531L983 562Q983 695 929 808Q875 921 779.5 984.5Q684 1048 563 1048Q378 1048 261 907Q144 766 144 552ZM853 1391L286 1391L286 1444L853 1444Z" />
<glyph glyph-name="Obreve" unicode="&#x014e;" horiz-adv-x="1364" d="M1231 619Q1231 430 1163.5 284.5Q1096 139 971 59.5Q846 -20 683 -20Q437 -20 285 155Q133 330 133 627L133 837Q133 1025 200.5 1171Q268 1317 393.5 1396.5Q519 1476 681 1476Q844 1476 969.5 1396.5Q1095 1317 1163 1170.5Q1231 1024 1231 837ZM1177 839Q1177 1103 1043 1262.5Q909 1422 681 1422Q456 1422 322 1263.5Q188 1105 188 832L188 619Q188 445 248.5 311.5Q309 178 421 106Q533 34 683 34Q911 34 1044 193Q1177 352 1177 627ZM953 1831Q953 1719 877.5 1651Q802 1583 675 1583Q547 1583 471.5 1651Q396 1719 396 1831L450 1831Q450 1740 507 1689.5Q564 1639 675 1639Q782 1639 840.5 1690.5Q899 1742 899 1831Z" />
<glyph glyph-name="obreve" unicode="&#x014f;" horiz-adv-x="1127" d="M90 562Q90 717 149.5 840.5Q209 964 317.5 1033Q426 1102 563 1102Q699 1102 807 1035Q915 968 975.5 845Q1036 722 1037 568L1037 520Q1037 364 978 241Q919 118 810.5 49Q702 -20 565 -20Q428 -20 319.5 48Q211 116 151 238.5Q91 361 90 514ZM144 520Q144 385 197.5 272.5Q251 160 346.5 97Q442 34 565 34Q750 34 866.5 173Q983 312 983 531L983 562Q983 695 929 808Q875 921 779.5 984.5Q684 1048 563 1048Q378 1048 261 907Q144 766 144 552ZM844 1488Q844 1376 768.5 1308Q693 1240 566 1240Q438 1240 362.5 1308Q287 1376 287 1488L341 1488Q341 1397 398 1346.5Q455 1296 566 1296Q673 1296 731.5 1347.5Q790 1399 790 1488Z" />
</font>
</defs>
</svg>
